<svg width="120" height="101" viewBox="0 0 120 101" fill="none" xmlns="http://www.w3.org/2000/svg">
<path d="M119.993 80.3495C119.957 80.1904 119.824 80.1328 119.679 80.0363C119.679 80.0363 119.999 72.7977 119.999 72.7157C119.999 70.002 116.104 67.6829 110.536 66.9539C110.806 66.8447 111.04 66.6613 111.21 66.4249C111.38 66.1886 111.48 65.909 111.497 65.6186C111.553 65.6067 111.605 65.5796 111.647 65.5403C111.689 65.501 111.719 65.4509 111.734 65.3957C113.715 58.2366 115.23 51.7865 113.688 45.347C112.139 38.7034 107.303 31.5512 101.925 27.9532C96.4749 24.4586 89.9134 23.1166 83.5236 24.1898C83.4783 24.0827 83.435 23.9744 83.3923 23.8629C83.9723 23.9209 84.5535 23.7653 85.0264 23.4256C85.4993 23.0858 85.8312 22.5853 85.9594 22.0185C86.0794 21.3477 85.8212 21.4793 86.1303 21.4548C86.9462 21.3006 87.6684 20.8324 88.1408 20.1515C88.6271 19.343 88.4549 17.7554 87.5527 17.2706C87.7533 16.9545 87.9117 16.6136 88.0239 16.2567C88.4926 14.7241 87.417 14.2926 86.447 13.7302C85.132 13.0087 85.4618 10.5205 84.782 9.09008C83.5154 6.2505 80.3671 3.48044 77.5254 4.53886C75.8847 3.81871 74.0659 3.60197 72.3011 3.9163C70.5362 4.23062 68.9053 5.06176 67.6162 6.30374C66.2723 7.65038 65.2553 9.28574 64.6432 11.0846C64.0311 12.8835 63.84 14.7981 64.0847 16.6819C64.3296 17.7824 64.4286 18.9101 64.3794 20.0363C64.3134 20.8937 63.5626 21.6252 63.4106 22.6103C63.3256 22.9335 63.3311 23.2737 63.4263 23.594C63.5216 23.9143 63.7029 24.2025 63.9508 24.4273C64.1986 24.6522 64.5035 24.8052 64.8323 24.8696C65.1612 24.934 65.5014 24.9075 65.8162 24.7929C65.8585 25.2272 66.0176 25.642 66.2768 25.9936C66.536 26.3451 66.8857 26.6204 67.2889 26.7902C67.6977 26.9389 68.1409 26.9668 68.5652 26.8708C68.9896 26.7747 69.3771 26.5586 69.6814 26.2484C69.8969 26.5227 70.4862 26.9837 70.7953 26.953C71.0908 27.0066 71.3957 26.948 71.65 26.7888C71.9043 26.6295 72.0896 26.3811 72.1694 26.0925C72.7664 26.5223 73.4515 26.8151 74.1755 26.9498C74.8995 27.0845 75.6444 27.0578 76.3568 26.8716V26.891C62.8093 30.5184 57.3433 43.1206 56.2482 44.2679C55.996 44.4384 55.7068 44.5468 55.4044 44.5842C52.2002 45.1698 49.5087 47.3862 47.1325 49.344C44.3681 51.6224 44.0961 51.6036 44.0037 51.7802C41.8173 50.9917 40.3183 51.6399 39.5109 52.8875C37.5978 53.0221 37.0795 55.7991 36.6246 57.683C36.3607 58.7752 35.9907 60.3816 36.3055 61.457C36.2571 61.5196 36.2351 61.5722 33.5046 66.248C33.1151 66.119 32.7199 66.0096 32.319 65.9199C32.0808 65.8261 31.8263 65.7805 31.5702 65.7857C31.3142 65.7909 31.0617 65.8467 30.8275 65.9499C30.3193 66.2436 29.935 66.7108 29.7456 67.2651C29.5439 67.6672 29.3341 68.1463 29.0972 68.7494C28.9196 66.5379 28.8837 64.3174 28.9898 62.1014C29.1695 57.2715 28.9056 52.3445 28.6983 47.5378C31.084 45.1259 33.222 42.4823 35.0803 39.6466C35.1221 39.6644 35.1673 39.6729 35.2128 39.6716C35.2582 39.6703 35.3028 39.6592 35.3436 39.639C36.6592 38.9653 37.9384 38.2231 39.176 37.4157C40.1474 37.6333 41.1567 37.6189 42.1214 37.3738C42.3683 38.5011 43.5608 39.0491 44.5264 39.4937C44.5758 39.5164 44.6302 39.5259 44.6843 39.5213C44.7384 39.5167 44.7904 39.4982 44.8353 39.4676C44.8801 39.437 44.9162 39.3953 44.94 39.3467C44.9638 39.298 44.9746 39.244 44.9713 39.19C44.9503 38.6812 44.7777 38.1902 44.4756 37.7796C44.1734 37.369 43.7554 37.0574 43.2749 36.8846C43.4477 36.7857 43.6123 36.6805 43.7681 36.5715C43.8219 36.5983 43.8823 36.6091 43.9422 36.6026C44.002 36.5962 44.0587 36.5728 44.1055 36.5352C44.5371 36.1888 47.0622 37.8541 49.7298 37.1333C49.8976 37.0876 50.6848 36.8621 50.786 37.0018C50.8353 37.0663 50.9078 37.1093 50.9883 37.1217C51.0687 37.134 51.1509 37.1147 51.2174 37.0678C51.2838 37.021 51.3295 36.9502 51.3446 36.8705C51.3598 36.7907 51.3433 36.7082 51.2986 36.6404C50.4567 35.3878 47.8808 34.2711 45.3847 35.1285C46.0061 34.6289 46.5011 33.9907 46.8297 33.2653C47.1404 32.4974 47.3719 31.7 47.5208 30.8854C47.5317 30.8231 47.5234 30.759 47.497 30.7015C47.4706 30.644 47.4273 30.5958 47.3729 30.5633C47.3185 30.5308 47.2555 30.5154 47.1922 30.5192C47.1289 30.5231 47.0682 30.5459 47.0182 30.5848C46.0941 31.2786 45.2261 32.0435 44.4222 32.8726C44.055 33.3095 43.7781 33.8145 43.6076 34.3585C43.437 34.9025 43.376 35.4747 43.4282 36.0423C43.0796 36.2896 42.7058 36.4995 42.313 36.6686C41.5349 36.9228 40.7099 37.0023 39.8973 36.9015C41.0282 36.0291 42.1999 34.8805 42.5631 33.3943C42.8873 32.9833 43.1813 32.5494 43.4427 32.0961C44.0314 30.9211 44.1752 28.8106 44.0747 27.5192C44.0704 27.4648 44.0519 27.4125 44.0211 27.3675C43.9903 27.3224 43.9482 27.2862 43.899 27.2623C43.8498 27.2385 43.7952 27.2278 43.7406 27.2315C43.6861 27.2351 43.6334 27.2529 43.5878 27.2831C42.644 27.9226 41.9202 28.8358 41.5145 29.899C41.5106 29.9095 41.5072 29.9202 41.5044 29.931C41.1714 31.1477 41.2843 32.4429 41.823 33.5841C41.8274 33.5934 41.8324 33.6024 41.8381 33.611C41.0408 35.8131 37.6317 37.7389 35.5635 38.8249C39.3118 32.1148 36.8941 29.3836 39.5103 22.0216C40.7225 21.6181 41.8554 21.0085 42.859 20.2198C43.9459 20.2267 44.8431 20.6 45.9759 20.5242C47.1178 20.3883 48.2036 19.955 49.1242 19.2678C49.1632 19.2387 49.1949 19.2009 49.2167 19.1574C49.2385 19.1139 49.2498 19.0659 49.2498 19.0173C49.2498 18.428 46.4194 17.9094 44.7394 18.4211C45.6161 17.3802 46.3104 16.1994 46.7933 14.9283C47.2597 14.9822 47.7315 14.8912 48.1441 14.6678C48.4488 14.5538 48.7541 14.421 49.0588 14.2876C49.9533 13.9922 50.791 13.5475 51.5361 12.9724C51.5825 12.934 51.6168 12.8832 51.6349 12.8259C51.653 12.7686 51.6543 12.7073 51.6385 12.6493C51.6226 12.5914 51.5904 12.5392 51.5456 12.499C51.5009 12.4588 51.4454 12.4322 51.386 12.4225C50.1913 12.2244 48.9645 12.4109 47.8833 12.9549C47.9613 12.6715 47.9862 12.3762 47.9568 12.0837C47.9071 11.7012 47.9071 11.3139 47.9568 10.9314C47.985 10.9011 48.0069 10.8656 48.0213 10.8269C48.0358 10.7882 48.0424 10.747 48.0408 10.7057C48.0393 10.6645 48.0296 10.6239 48.0123 10.5864C47.9951 10.5489 47.9705 10.5151 47.9402 10.487C47.9098 10.4589 47.8742 10.4371 47.8354 10.4227C47.7965 10.4083 47.7552 10.4017 47.7139 10.4033C47.6725 10.4048 47.6318 10.4145 47.5941 10.4317C47.5565 10.4489 47.5226 10.4733 47.4944 10.5036C46.4791 11.3911 45.5342 13.1177 46.2919 14.473C45.7492 15.9967 44.8891 17.3887 43.7681 18.5574C42.6471 19.7261 41.2907 20.645 39.788 21.2538C41.2896 17.2888 43.393 13.4778 44.2487 9.30051C45.8125 9.21534 46.1562 7.68783 46.7757 6.94756C46.8168 6.89667 46.841 6.83421 46.8447 6.76894C46.8485 6.70368 46.8317 6.63887 46.7966 6.58363C46.7616 6.52838 46.71 6.48545 46.6493 6.46086C46.5885 6.43628 46.5215 6.43126 46.4578 6.44653C45.723 6.58769 45.0631 6.98622 44.5974 7.57009C44.5974 6.62252 44.0471 6.49225 43.4609 4.3491C43.4432 4.28418 43.4051 4.22666 43.3521 4.18504C43.2991 4.14343 43.234 4.11993 43.1666 4.11803C43.0991 4.11614 43.0328 4.13594 42.9776 4.17451C42.9223 4.21308 42.8809 4.26837 42.8596 4.33219C42.6198 5.07331 42.5383 5.85624 42.6203 6.63066C42.7076 7.44302 43.0932 8.19451 43.7028 8.74061C43.2833 10.2746 42.7452 11.7738 42.0931 13.2248C41.8638 12.3638 41.7718 11.4721 41.8205 10.5825C41.8253 10.4997 41.7969 10.4184 41.7417 10.3565C41.6865 10.2945 41.6088 10.2568 41.5258 10.2518C41.4846 10.2494 41.4433 10.2551 41.4043 10.2685C41.3652 10.282 41.3293 10.303 41.2984 10.3303C41.2675 10.3577 41.2424 10.3908 41.2244 10.4278C41.2063 10.4649 41.1958 10.5051 41.1934 10.5462C41.1296 11.7529 41.302 12.9606 41.7011 14.1016C39.9802 17.8813 37.8642 21.6521 37.1455 25.847C36.9746 26.9117 36.8985 28.0095 36.7999 29.078C35.4944 27.2949 34.6543 25.216 34.3553 23.0287C34.9777 22.7261 35.4965 22.2467 35.8462 21.6509C35.8952 21.5726 36.2338 20.3927 36.3852 20.1515C36.4387 20.1061 36.4753 20.0441 36.4892 19.9755C36.5032 19.9069 36.4936 19.8356 36.4622 19.773C36.4307 19.7104 36.3791 19.6602 36.3156 19.6302C36.2521 19.6003 36.1804 19.5925 36.1119 19.6079C35.7413 19.6994 35.393 19.8646 35.088 20.0936C34.783 20.3226 34.5275 20.6108 34.3371 20.9407C34.1257 21.3466 33.9523 21.7711 33.8194 22.2089C33.3897 21.2688 32.8451 20.3853 32.1978 19.5785C32.1755 19.5163 32.1341 19.4628 32.0795 19.4254C32.0249 19.3881 31.9598 19.369 31.8937 19.3707C31.8275 19.3724 31.7635 19.395 31.7109 19.4351C31.6584 19.4752 31.6199 19.5309 31.6009 19.5941C31.4052 20.2126 31.4096 20.8769 31.6136 21.4927C31.8175 22.1086 32.2107 22.6448 32.7375 23.0256C32.1259 22.762 31.4871 22.5664 30.8325 22.4425C30.7699 22.4312 30.7054 22.4391 30.6474 22.4651C30.5894 22.4912 30.5407 22.5342 30.5077 22.5884C30.3236 22.8909 30.7132 23.0894 31.0022 23.5905C31.3425 24.1097 31.816 24.5288 32.3736 24.8041C32.9311 25.0794 33.5525 25.201 34.1731 25.1562C34.6847 26.9147 35.5463 28.5526 36.7063 29.9723C36.0535 35.6214 32.9448 40.2008 28.5293 43.6617C28.2233 36.522 27.9896 29.222 28.6493 22.0498C32.593 18.8608 34.141 12.7996 34.0977 7.72415C34.6882 7.30978 35.1904 6.7827 35.5751 6.17347C35.9598 5.56423 36.2193 4.88495 36.3387 4.17499C36.3479 4.11696 36.3405 4.05753 36.3174 4.00349C36.2942 3.94946 36.2563 3.903 36.208 3.86942C36.1596 3.83585 36.1027 3.81651 36.0439 3.81362C35.985 3.81073 35.9265 3.8244 35.8751 3.85308C34.2152 4.78374 33.362 5.98245 33.4436 7.24504C33.231 6.63365 32.9171 6.06208 32.5151 5.55407C32.2914 5.27651 32.091 4.98117 31.9157 4.67101C31.9205 4.59514 31.8976 4.5201 31.851 4.45988C31.8045 4.39966 31.7375 4.35838 31.6627 4.34374C31.5879 4.32909 31.5102 4.34209 31.4443 4.3803C31.3784 4.4185 31.3286 4.47932 31.3044 4.55139C30.9827 5.48836 30.9827 6.50535 31.3044 7.44232C31.3101 7.45987 31.3175 7.47685 31.3264 7.49305C31.8067 8.37277 32.5328 9.09463 33.4166 9.57107C33.335 10.8349 33.1478 12.0897 32.8568 13.3225C31.6177 11.3416 30.7139 9.17088 30.1816 6.89746C30.1728 6.85676 30.1559 6.81824 30.132 6.78412C30.1081 6.75001 30.0775 6.721 30.0422 6.69878C30.0069 6.67657 29.9675 6.66159 29.9263 6.65474C29.8851 6.64788 29.843 6.64929 29.8023 6.65886C29.7617 6.66844 29.7234 6.686 29.6896 6.71051C29.6559 6.73503 29.6273 6.766 29.6057 6.80163C29.5841 6.83726 29.5699 6.87682 29.5638 6.91801C29.5577 6.9592 29.5599 7.00118 29.5703 7.0415C29.6298 7.29201 29.6926 7.54253 29.7588 7.79304C29.2498 7.47226 28.8154 7.04677 28.4847 6.54506C28.154 6.04335 27.9346 5.47701 27.8413 4.88395C28.2278 4.76794 28.586 4.5736 28.8936 4.31312C29.2012 4.05264 29.4515 3.73163 29.6288 3.37021C30.0009 2.6332 30.3088 1.86568 30.5492 1.07613C30.5674 1.01535 30.5667 0.950491 30.5471 0.890137C30.5275 0.829784 30.49 0.776783 30.4395 0.738151C30.389 0.699518 30.328 0.677075 30.2644 0.673793C30.2009 0.670512 30.1378 0.686547 30.0836 0.719774C29.0889 1.34349 28.2335 2.16443 27.5705 3.1316C27.3029 1.74751 26.8474 1.74813 26.2668 0.203088C26.2437 0.141737 26.2019 0.0891581 26.1472 0.0527566C26.0926 0.0163551 26.0278 -0.00203439 25.9621 0.000178698C25.8964 0.00239179 25.8331 0.0250958 25.781 0.0650927C25.7289 0.10509 25.6908 0.160363 25.6719 0.223129C25.4437 1.00197 25.4154 1.82546 25.5896 2.61805C25.8525 3.47271 26.4085 4.20804 27.1603 4.69543C27.2472 5.3408 27.4467 5.96605 27.7496 6.54298C26.7659 6.35407 25.747 6.54601 24.9003 7.0797C24.8576 7.107 24.8222 7.14419 24.7971 7.1881C24.7719 7.23202 24.7578 7.28135 24.756 7.33188C24.7541 7.38241 24.7646 7.43263 24.7864 7.47826C24.8083 7.52389 24.8409 7.56356 24.8815 7.59388C25.2459 7.86709 25.6878 8.01836 26.1437 8.02602C26.9553 8.07882 27.7669 7.92245 28.5004 7.57196C28.9307 8.01973 29.4424 8.38207 30.0082 8.63978C30.6183 10.5905 31.505 12.4443 32.6413 14.1448C31.8975 16.8109 30.7716 19.296 28.7335 21.1498C28.862 19.8998 29.0204 18.6541 29.2084 17.4128C29.2211 17.3335 29.2027 17.2524 29.1571 17.1863C29.1114 17.1201 29.0421 17.074 28.9633 17.0573C28.8845 17.0407 28.8023 17.0548 28.7337 17.0969C28.6651 17.1389 28.6153 17.2056 28.5946 17.2831C27.4318 21.7047 26.7077 26.2294 26.4327 30.7921C23.9768 29.7487 22.2314 26.5534 21.5491 24.6846C21.4385 24.3088 21.4586 24.4059 21.4788 24.322C22.4742 20.2309 22.8311 16.0114 22.5368 11.8119C22.5309 11.7289 22.4921 11.6516 22.429 11.597C22.3659 11.5424 22.2836 11.5151 22.2003 11.521C22.117 11.5269 22.0395 11.5656 21.9847 11.6284C21.93 11.6913 21.9026 11.7733 21.9085 11.8564C22.1744 15.6048 21.9085 19.3719 21.1187 23.0462C20.9582 22.3459 20.8544 21.6338 20.8084 20.9169L20.0544 15.083C20.0519 15 20.0165 14.9213 19.9558 14.8643C19.8951 14.8074 19.8142 14.7768 19.7309 14.7793C19.6476 14.7818 19.5687 14.8171 19.5115 14.8776C19.4544 14.9381 19.4237 15.0187 19.4262 15.1018C19.3809 15.7826 19.3665 16.417 19.3841 17.0176C18.5436 16.0739 17.9079 14.9673 17.5168 13.7671C17.1258 12.5669 16.9878 11.2991 17.1116 10.0433C17.1262 10.03 17.1393 10.015 17.1506 9.99882C17.7939 10.0445 18.3543 9.1596 18.4172 9.11388C19.0425 8.34877 19.559 7.50135 19.952 6.59559C19.9889 6.52084 19.9944 6.43457 19.9674 6.35576C19.9404 6.27695 19.8831 6.21206 19.8082 6.17535C19.7332 6.13864 19.6466 6.13313 19.5676 6.16002C19.4885 6.18692 19.4234 6.24402 19.3866 6.31877C19.1047 6.51262 18.8034 6.67675 18.4875 6.80852C17.89 7.1246 17.394 7.60213 17.0563 8.18635C16.853 6.78014 16.3811 5.42586 15.6659 4.19691C15.6359 4.14579 15.5919 4.1042 15.5392 4.07699C15.4864 4.04977 15.4269 4.03804 15.3677 4.04315C15.3085 4.04827 15.252 4.07002 15.2047 4.10588C15.1574 4.14175 15.1212 4.19025 15.1005 4.24576C14.7629 5.18669 14.7035 6.20442 14.9291 7.17805C15.1547 8.15168 15.656 9.04029 16.3734 9.73829C16.4099 9.77445 16.4548 9.80112 16.5041 9.81594C16.3311 11.3101 16.5067 12.8239 17.0173 14.2392C17.5279 15.6545 18.3596 16.9331 19.4475 17.9752C20.0877 24.9301 20.0544 27.5793 26.2863 33.3286C26.0978 37.5059 26.1318 41.702 26.2109 45.8543C24.3464 44.5569 22.5566 43.156 20.8498 41.6582C18.9807 40.1221 17.3346 38.3347 15.9587 36.3473C14.5187 34.2179 13.7032 31.7384 12.9687 29.2778C13.0184 29.2371 13.0544 29.1822 13.0718 29.1206C13.7327 26.6857 13.7136 24.117 13.0165 21.6922C13.3752 21.5745 13.6573 21.096 13.9589 20.5329C14.4474 19.5516 14.6877 18.466 14.6588 17.3708C14.6588 17.3127 14.6426 17.2557 14.6119 17.2062C14.5812 17.1567 14.5373 17.1168 14.4852 17.0907C14.433 17.0647 14.3746 17.0537 14.3165 17.059C14.2584 17.0642 14.2029 17.0854 14.1562 17.1203C13.6793 17.4683 13.2772 17.9081 12.9737 18.4137C12.6703 18.9193 12.4716 19.4804 12.3895 20.0639C12.337 20.2776 12.3034 20.4956 12.2889 20.7152C11.4929 19.9348 11.0525 19.9455 8.93269 18.8871C8.87772 18.86 8.81599 18.8495 8.75512 18.8569C8.69424 18.8644 8.63689 18.8894 8.59012 18.929C8.54336 18.9685 8.50923 19.0209 8.49196 19.0795C8.47468 19.1382 8.47501 19.2006 8.4929 19.2591C8.79082 20.2971 9.47453 21.1829 10.4047 21.736C10.6963 21.954 12.3028 22.5051 12.5597 22.7381C12.5803 22.7812 12.6104 22.8191 12.6477 22.8489C13.016 24.6133 13.0177 26.4342 12.6527 28.1993L12.3964 27.3062C12.3851 27.2667 12.3661 27.2297 12.3404 27.1975C12.3148 27.1652 12.2831 27.1383 12.247 27.1183C12.211 27.0983 12.1713 27.0856 12.1303 27.0809C12.0893 27.0761 12.0478 27.0795 12.0081 27.0908C11.9684 27.102 11.9314 27.121 11.899 27.1465C11.8667 27.1721 11.8397 27.2037 11.8196 27.2397C11.7996 27.2756 11.7868 27.3152 11.782 27.356C11.7773 27.3969 11.7807 27.4383 11.792 27.4778C12.3756 29.7288 13.1212 31.9348 14.023 34.0789C11.8128 33.3124 9.96694 31.755 8.84348 29.7087C8.80553 29.6396 8.74288 29.5874 8.66802 29.5623C8.59315 29.5372 8.51156 29.5412 8.4395 29.5734C7.92501 29.1861 7.32695 28.9238 6.69289 28.8074C5.76654 28.5834 4.80327 28.5561 3.86564 28.7273C3.80865 28.7366 3.75535 28.7615 3.7116 28.7991C3.66786 28.8367 3.63537 28.8857 3.61771 28.9405C3.60005 28.9953 3.59789 29.0539 3.61149 29.1099C3.62508 29.1659 3.65389 29.217 3.69475 29.2577C4.31149 29.9027 5.1104 30.3454 5.98545 30.5272C6.1421 30.5836 6.29749 30.632 6.45163 30.6725C5.62656 30.9245 4.86631 31.3522 4.22353 31.9261C3.58076 32.5 3.07084 33.2064 2.72909 33.9962C2.70875 34.0424 2.69992 34.0928 2.70334 34.1432C2.70676 34.1935 2.72234 34.2423 2.74875 34.2854C2.77516 34.3284 2.81161 34.3645 2.85501 34.3905C2.89841 34.4165 2.94746 34.4316 2.99799 34.4346C4.3159 34.5266 5.6385 34.3416 6.88012 33.8916C7.95396 33.4479 8.84916 32.6607 9.42463 31.6539C10.7193 33.191 12.4492 34.303 14.388 34.8442C15.8912 37.657 17.9507 40.1369 20.4421 42.1342C22.2789 43.7455 24.211 45.2457 26.2279 46.6265C26.4972 54.2203 26.3837 61.8227 25.888 69.4052C25.7995 70.7062 25.5026 71.9848 25.0084 73.1923C24.9989 73.215 24.9924 73.2387 24.9889 73.2631C22.343 74.2803 19.8732 75.7044 17.6695 77.4836C17.2511 77.8235 16.7872 78.1034 16.2911 78.3153C15.6225 78.3698 14.9496 78.3175 14.2975 78.1606C9.90904 77.7755 6.55278 82.7525 2.89496 84.1661C1.01515 84.9383 0.0677119 85.9078 0.000486294 87.1309C-0.00414296 87.2138 0.0244255 87.2951 0.0799136 87.357C0.135402 87.4189 0.21327 87.4563 0.296405 87.461C0.379544 87.4656 0.461119 87.4371 0.523205 87.3818C0.58529 87.3265 0.622806 87.2488 0.627506 87.166C0.68091 86.2078 1.50081 85.4161 3.12805 84.7479C6.84116 83.3124 10.2225 78.4274 14.2014 78.7781C14.9209 78.9498 15.6638 79.0022 16.4004 78.9334C17.0079 78.7078 17.5725 78.3806 18.0697 77.9658C20.233 76.2211 22.658 74.8262 25.2559 73.8324C29.8342 72.1508 30.4964 74.2802 32.8349 75.2509C36.793 76.893 40.7065 74.1962 43.3377 78.6397C44.5667 80.6188 44.7652 81.5682 46.9937 83.1584C48.1057 83.9519 48.4387 84.2719 48.8641 86.0474C49.1229 87.1309 49.3328 87.543 51.6241 88.1261C52.2613 88.2806 52.8564 88.5736 53.3669 88.984C53.8774 89.3945 54.2906 89.9122 54.577 90.5003C54.5946 90.5375 54.6193 90.5709 54.6498 90.5986C54.6804 90.6263 54.7161 90.6477 54.7549 90.6616C54.7937 90.6756 54.8349 90.6817 54.8761 90.6798C54.9173 90.6778 54.9578 90.6678 54.9951 90.6503C55.0324 90.6328 55.0659 90.6081 55.0937 90.5777C55.1215 90.5473 55.143 90.5117 55.1569 90.473C55.1709 90.4343 55.1771 90.3932 55.1751 90.3521C55.1732 90.311 55.1632 90.2707 55.1456 90.2335C54.8201 89.5619 54.3497 88.9703 53.7681 88.501C53.1865 88.0318 52.508 87.6965 51.7812 87.5192C48.7365 86.7451 50.0924 86.5892 48.8283 84.0746C48.2628 83.1089 47.3273 82.7156 46.584 82.0499C45.1271 80.8148 44.8626 79.9029 43.8755 78.3147C41.3913 74.1186 37.8881 75.6905 34.4332 75.0542C35.3932 73.7509 36.482 71.9122 37.2994 71.0661C37.6635 70.7161 37.9057 70.2592 37.9905 69.7621C38.1362 68.7601 37.0009 68.0085 36.139 67.4749C38.9605 62.6864 38.7997 62.9788 38.8142 62.893C39.9536 62.5819 41.0011 62.0019 41.8682 61.2021C41.6601 63.0728 42.2021 64.9498 43.3761 66.424C44.6361 67.712 46.1113 68.7716 47.7357 69.5555C53.3872 72.4535 59.3885 74.6164 65.5926 75.9912C62.0453 79.2767 58.5087 83.303 57.7781 89.1275C57.2415 93.224 60.1787 94.5856 64.3234 94.5856C73.0753 94.5856 84.6922 89.3054 91.9406 84.1974C91.9381 84.701 91.8242 85.1978 91.607 85.6525C91.3898 86.1071 91.0747 86.5084 90.6841 86.8278C89.9201 87.4209 88.9588 87.9971 89.1416 88.996C89.1911 89.2722 89.3196 89.5282 89.5118 89.7331C89.704 89.9381 89.9517 90.0831 90.2248 90.1509C91.677 90.3 93.1303 89.8782 94.2753 88.9753L94.5392 95.0027C94.5392 98.3658 99.9172 101 106.783 101C113.649 101 118.953 98.3652 119.027 95.0165C119.056 93.6443 119.053 93.834 119.144 93.7915C119.196 93.7676 119.241 93.73 119.273 93.6827C119.305 93.6355 119.324 93.5804 119.327 93.5234C120.059 79.4708 120.008 80.4146 119.993 80.3495ZM44.2312 38.6595C43.6084 38.4302 43.0923 37.98 42.7817 37.3951C43.1128 37.4619 43.4206 37.6137 43.6748 37.8355C43.929 38.0572 44.1208 38.3413 44.2312 38.6595ZM49.1449 35.8412C49.5214 35.9526 49.8731 36.1348 50.1809 36.378C49.7292 36.4631 49.2121 36.6479 48.9841 36.6504C47.6138 36.7153 46.2456 36.4862 44.9719 35.9784C45.6167 35.6582 46.3233 35.4807 47.0433 35.4579C47.7633 35.4351 48.4798 35.5676 49.1437 35.8463L49.1449 35.8412ZM44.8808 33.2948C45.4472 32.6982 46.058 32.1451 46.7078 31.6401C46.0645 34.072 45.4657 34.1352 44.0389 35.4742C44.0732 34.6764 44.3684 33.9116 44.8795 33.2966L44.8808 33.2948ZM42.1063 30.1007C42.3972 29.3496 42.8655 28.6795 43.4716 28.1473C43.4772 28.9045 43.4188 29.6608 43.2969 30.4082C43.1753 31.3048 42.7926 32.1462 42.1962 32.8282C41.8962 31.9495 41.8645 31.0018 42.1051 30.1051L42.1063 30.1007ZM50.441 12.9705C49.9174 13.2622 49.3711 13.5116 48.8075 13.7165C48.5122 13.8417 48.2182 13.9739 47.872 14.1085C47.7175 14.1969 47.5483 14.2569 47.3725 14.2857C47.4496 14.1566 47.5193 14.0232 47.5811 13.8862C48.4143 13.2891 49.4149 12.9687 50.441 12.9705ZM47.2997 11.6472C47.3103 11.8871 47.3355 12.2453 47.343 12.3292C47.3069 12.7323 47.211 13.1278 47.0584 13.5029C46.9329 13.6128 46.8179 13.7339 46.7147 13.8649C46.6445 13.4749 46.6607 13.0743 46.7622 12.6912C46.8636 12.3081 47.048 11.9518 47.3022 11.6472H47.2997ZM45.1799 18.9447C45.8442 18.8167 46.5246 18.7943 47.196 18.8783C47.3015 18.8871 47.8148 19.0036 48.2295 19.1106C47.5205 19.5315 46.731 19.7997 45.9118 19.8979C45.1201 19.8823 44.3315 19.7947 43.5558 19.6361C44.058 19.3234 44.6059 19.0901 45.1799 18.9447ZM35.5609 20.5254C35.4981 20.7096 35.2933 21.349 35.2933 21.349C35.0772 21.6964 34.7971 21.9998 34.4677 22.2433C34.6278 21.5644 35.013 20.9591 35.5609 20.5254ZM32.0947 20.5091C32.6136 21.1794 33.0389 21.9168 33.3588 22.7011C32.972 22.4802 32.651 22.1609 32.4286 21.7758C32.2061 21.3906 32.0903 20.9535 32.0929 20.5091H32.0947ZM31.5305 23.2579C32.0461 23.4134 32.5474 23.6125 33.029 23.8529C33.3246 24.0119 33.5678 24.2527 33.7295 24.5462C33.2888 24.5126 32.8615 24.379 32.4804 24.1558C32.0993 23.9325 31.7744 23.6254 31.5305 23.2579ZM31.8912 7.22187C31.7103 6.68038 31.6521 6.10563 31.7209 5.53904C31.9641 5.87724 32.2945 6.29747 32.38 6.4553C32.8112 7.08826 33.049 7.83225 33.0648 8.59719C32.5852 8.22146 32.1861 7.75357 31.8912 7.22124V7.22187ZM26.111 1.39303C26.2531 1.66544 26.4143 1.92747 26.5935 2.17714C26.8447 2.67881 26.9905 3.22629 27.022 3.78607C26.6946 3.48466 26.442 3.11154 26.284 2.69614C26.126 2.28074 26.067 1.83442 26.1117 1.3924L26.111 1.39303ZM29.635 1.8164C29.4711 2.24227 29.2819 2.6694 29.0696 3.0934C28.8077 3.62851 28.3485 4.04205 27.7879 4.24764C27.9173 3.44349 28.8132 2.48277 29.6357 1.81577L29.635 1.8164ZM26.1996 7.40725C26.0508 7.40725 25.9027 7.38616 25.7598 7.34462C26.3849 7.0972 27.0696 7.04052 27.727 7.18179C27.2464 7.3888 26.7198 7.46654 26.1996 7.40725ZM35.5396 4.81067C35.2541 5.64415 34.7463 6.3844 34.0707 6.95194C34.1468 6.51078 34.3174 6.09115 34.5709 5.72164C34.8244 5.35213 35.1548 5.04142 35.5396 4.81067ZM17.5168 8.61911C17.7821 8.17834 18.1272 7.79055 18.5346 7.47552C18.5849 7.45046 18.5975 7.4442 18.894 7.30642C18.4234 8.12811 17.3535 9.57858 17.1839 9.35876C17.1801 9.30803 17.1769 9.2573 17.1725 9.20657C17.2542 8.99323 17.3705 8.79475 17.5168 8.61911ZM15.4881 5.18769C16.0555 6.37836 16.4063 7.66002 16.5242 8.97297C16.0836 8.45632 15.7625 7.84942 15.5835 7.19529C15.4044 6.54115 15.3719 5.85577 15.4881 5.18769ZM13.0058 20.1772C13.111 19.3971 13.4585 18.6693 13.9997 18.0961C13.9487 18.7368 13.8004 19.366 13.56 19.9624C13.3688 20.3297 13.1556 20.6853 12.9216 21.0271C12.9086 20.7412 12.9369 20.455 13.0058 20.1772ZM10.7522 21.2112C10.1831 20.8804 9.71718 20.3987 9.40642 19.8196C11.2221 20.6538 11.7379 20.7121 12.2632 21.8719C11.7555 21.6471 10.9212 21.334 10.7522 21.2112ZM4.6579 29.2621C5.29033 29.2118 5.92677 29.2634 6.54273 29.4149C7.13279 29.5054 7.68433 29.763 8.13164 30.1571C7.46212 30.2518 6.77942 30.1719 6.15006 29.9254C5.60844 29.8206 5.09803 29.5937 4.6579 29.2621ZM6.66022 33.3054C5.65285 33.6719 4.58594 33.8486 3.51381 33.8265C3.92406 33.0667 4.51413 32.4183 5.23281 31.9374C5.95149 31.4565 6.77704 31.1578 7.63782 31.0671C8.56767 30.9418 8.85981 31.094 8.88557 31.1923C8.98924 31.6113 7.71949 32.9027 6.66022 33.3054ZM89.9282 67.7148C90.2239 67.7073 90.5182 67.6733 90.8078 67.6133L93.9806 71.2182C93.6722 71.7446 93.5322 72.3522 93.5791 72.9599L93.8374 78.847L89.9282 67.7148ZM68.5989 42.726C68.6981 41.34 68.8464 39.9033 68.9702 38.0132C68.9632 37.7508 69.0211 37.4907 69.1388 37.2559C69.2565 37.0211 69.4303 36.8187 69.6449 36.6667C70.1702 36.5922 69.9453 38.0877 69.8705 39.0604L69.0613 49.6771C68.8332 51.2923 68.3023 51.4796 67.8298 51.593C68.0491 50.9535 68.5329 43.6028 68.5957 42.7241L68.5989 42.726ZM41.7181 57.7725C41.7429 57.8351 41.7469 57.9041 41.7294 57.9692C41.517 58.6487 39.8257 60.004 38.931 60.3015C38.8682 60.3209 38.7658 60.3334 38.5723 60.2157C38.0696 59.5048 38.5471 57.6479 39.1585 56.6414C39.2531 56.7252 39.3709 56.7785 39.4965 56.7944C39.6221 56.8102 39.7495 56.7879 39.8621 56.7304C39.8817 56.9134 39.9685 57.0826 40.1059 57.2056C40.2432 57.3285 40.4214 57.3964 40.606 57.3961C40.7137 57.3882 40.8141 57.3391 40.8862 57.259C40.9698 57.1963 40.9302 57.1826 40.9698 57.356C40.9875 57.4347 41.0217 57.5087 41.0701 57.5733C41.1185 57.6378 41.18 57.6915 41.2506 57.7308C41.3212 57.7701 41.3993 57.7941 41.4799 57.8013C41.5604 57.8085 41.6416 57.7987 41.7181 57.7725ZM65.1528 50.77C66.0009 50.2701 66.7903 49.6773 67.5063 49.0026C67.4422 49.6673 67.3744 50.3166 67.3027 50.9504C67.313 51.1763 67.2544 51.4 67.1348 51.5921C67.0151 51.7843 66.84 51.9359 66.6324 52.027L63.7373 53.7286C57.2911 52.8311 58.5559 54.6348 65.1528 50.77ZM99.7859 56.8487C99.9744 56.4673 99.8299 56.6283 99.9235 52.2286C100.058 49.6254 99.8809 47.0155 99.3964 44.4539C101.414 46.5921 102.71 47.1595 103.019 50.0147C103.604 54.9699 107.404 59.5255 106.622 64.5934C106.615 64.6392 106.619 64.6858 106.633 64.7299C104.764 65.8172 104.318 65.9549 103.655 66.8868C102.547 67.0069 101.448 67.2011 100.366 67.468C100.938 64.0347 100.619 60.5125 99.4385 57.237C99.591 57.1458 99.712 57.0103 99.7853 56.8487H99.7859ZM111.359 74.2852C113.274 74.5675 115.144 75.0937 116.923 75.8509C112.206 78.5865 103.013 78.8865 97.4939 76.2949C101.279 73.9482 107.205 73.7234 111.359 74.2852H111.359ZM108.962 66.7923C108.645 66.8686 108.348 67.0114 108.091 67.2111C107.834 67.4108 107.623 67.6628 107.471 67.9503C107.213 68.4958 107.428 69.1928 107.412 69.7127C107.404 69.9907 107.32 70.0991 107.293 70.1053C107.265 70.1116 107.196 70.0721 107.139 69.9569C106.801 69.2805 106.633 68.5332 106.647 67.7781C106.647 67.695 106.614 67.6154 106.555 67.5566C106.496 67.4979 106.416 67.4649 106.333 67.4649C106.249 67.4649 106.169 67.4979 106.11 67.5566C106.051 67.6154 106.018 67.695 106.018 67.7781C106.018 67.7781 106.025 69.588 106.028 69.6638C106.068 70.5901 105.271 70.5556 105.289 69.4947C105.301 68.8058 105.328 68.1363 105.37 67.4994C105.377 67.4163 105.351 67.3339 105.297 67.2702C105.243 67.2066 105.166 67.1669 105.082 67.1599C104.999 67.1529 104.916 67.1792 104.852 67.233C104.789 67.2868 104.749 67.3637 104.742 67.4467L104.517 69.6124C104.488 69.5667 104.465 69.5174 104.449 69.4659C104.135 68.6085 103.903 67.8432 104.184 67.2113C104.524 66.7343 104.982 66.3527 105.513 66.1034L107.727 64.8151C108.796 64.9558 109.853 65.1707 110.891 65.4583C110.799 66.4842 110.105 66.409 108.961 66.7923H108.962ZM83.3389 15.3423C83.499 15.3422 83.6571 15.3777 83.8018 15.446C83.9465 15.5144 84.0741 15.614 84.1754 15.7377C84.2767 15.8613 84.3491 16.0058 84.3874 16.1608C84.4257 16.3158 84.4289 16.4773 84.3969 16.6337C84.1304 17.7343 83.5615 18.7391 82.7539 19.5353C83.1988 18.0986 81.7933 15.3423 83.3389 15.3423ZM76.7702 29.2609C76.845 29.5596 77.2948 29.4851 77.2948 29.1112L76.845 26.4182C76.7702 26.2685 76.6948 26.1933 76.5447 26.2685C73.6722 27.1947 69.8799 24.9652 68.9633 19.2585C69.0562 18.8133 69.2208 18.386 69.4508 17.9934C70.2186 16.8761 71.6341 16.137 72.427 14.882C72.6443 15.43 73.4567 15.6072 74.2609 14.4711C74.7296 15.7137 76.774 15.8133 77.3809 12.7895C78.0087 13.4544 78.5209 14.2189 78.8963 15.0517C79.2245 15.6619 79.4638 16.3157 79.6069 16.9932C79.6069 18.0541 79.583 19.3299 80.6417 19.4357C80.2572 20.5856 79.4567 22.3586 80.1259 23.3224C80.2502 23.4909 80.4143 23.6262 80.6036 23.7164C80.7929 23.8066 81.0016 23.8489 81.2112 23.8396C81.4208 23.8303 81.6249 23.7697 81.8055 23.6631C81.986 23.5565 82.1374 23.4073 82.2463 23.2285C82.3554 23.3601 82.4822 23.476 82.6233 23.5729C82.8916 24.3907 83.2547 25.1744 83.7052 25.9084C83.7268 25.9434 83.7552 25.9738 83.7886 25.9979C83.8221 26.022 83.86 26.0393 83.9002 26.0489C83.9403 26.0584 83.982 26.0599 84.0227 26.0534C84.0635 26.0468 84.1026 26.0323 84.1377 26.0108C84.1729 25.9892 84.2034 25.9609 84.2276 25.9275C84.2518 25.8942 84.2691 25.8564 84.2787 25.8164C84.2882 25.7763 84.2897 25.7348 84.2832 25.6942C84.2766 25.6535 84.2621 25.6146 84.2404 25.5796C84.0796 25.319 83.932 25.0541 83.795 24.7773C84.2436 24.7092 84.6917 24.6522 85.1395 24.6063C84.8945 28.3014 83.261 31.5355 80.7485 32.9472C80.2178 33.2226 79.6374 33.3901 79.0412 33.44C78.4449 33.4899 77.8447 33.4211 77.2754 33.2378C76.8981 33.0879 76.5572 32.8596 76.2755 32.568C75.9939 32.2764 75.7778 31.9283 75.6418 31.5468C75.2081 30.3448 75.147 29.0405 75.4666 27.8035C75.7983 27.6995 76.1334 27.602 76.4718 27.511L76.7702 29.2609ZM40.983 52.3457C41.6351 52.0289 42.3807 51.9599 43.0802 52.1516C44.3078 52.4879 45.4305 52.9952 45.8816 53.9497C46.1084 54.4288 46.1958 55.372 45.756 55.5154C45.1101 55.7302 44.4617 55.9707 43.7392 56.1886C43.6217 56.1792 43.5652 56.1461 43.557 56.126C43.5306 56.0571 43.596 55.8028 43.9666 55.4584C44.2879 55.2478 44.6342 55.0781 44.9977 54.953C45.0757 54.9238 45.139 54.865 45.1735 54.7893C45.208 54.7137 45.211 54.6275 45.1817 54.5496C45.1525 54.4718 45.0934 54.4088 45.0176 54.3744C44.9417 54.34 44.8552 54.337 44.7771 54.3661C43.9001 54.6215 43.1298 55.1535 42.5819 55.8824C42.3343 56.3711 41.9892 56.8043 41.5679 57.1556C41.4535 56.4041 42.2062 55.1033 42.7271 54.435C42.7734 54.3757 42.7967 54.3017 42.7928 54.2266C42.7888 54.1515 42.7579 54.0803 42.7057 54.0261C42.6535 53.9718 42.5834 53.9381 42.5083 53.9311C42.4332 53.9241 42.3581 53.9442 42.2967 53.9879C41.7364 54.3713 41.306 54.915 41.0621 55.5473C40.9169 55.9603 40.7381 56.3608 40.5275 56.7448C40.4646 56.6878 40.4646 56.5112 40.4646 56.4316C40.549 55.4059 40.8194 54.4039 41.2626 53.4743C41.2936 53.4075 41.3001 53.332 41.2808 53.2609C41.2615 53.1898 41.2177 53.1278 41.1571 53.0857C41.0965 53.0436 41.023 53.0242 40.9494 53.0308C40.8759 53.0373 40.807 53.0695 40.7549 53.1217C40.1055 53.8136 39.7265 54.7146 39.6868 55.6613C39.6868 56.25 39.4984 56.297 39.4845 55.9062C39.2973 54.8227 39.7195 53.0109 40.983 52.3457ZM30.3287 67.4906C30.4708 67.0693 30.7609 66.7135 31.1454 66.4885C30.5712 68.7313 30.1502 70.6709 29.8367 72.5103C29.5623 71.7394 29.3643 70.9435 29.2455 70.1341C29.5572 69.2337 29.9188 68.3511 30.3287 67.4906ZM45.2546 7.79242C45.3932 7.62371 45.5622 7.48226 45.7528 7.37531C45.3941 8.0016 45.0938 8.45315 44.5516 8.61724C44.7542 8.3169 44.99 8.04023 45.2546 7.79242ZM43.2316 5.66305C43.7342 6.96196 43.9585 7.03398 43.9742 7.50996C43.9403 7.67781 43.9057 7.84878 43.8781 8.02101C43.6082 7.69634 43.4109 7.31801 43.2994 6.91127C43.1879 6.50454 43.1648 6.07878 43.2316 5.66242V5.66305ZM36.8489 70.632C35.9373 71.5752 34.7216 73.6514 33.766 74.9014C32.9356 74.6585 32.1586 74.2616 31.4759 73.7315C33.1575 71.9651 35.1532 70.5247 37.3616 69.4834C37.3632 69.7002 37.3183 69.9149 37.2298 70.113C37.1414 70.3111 37.0115 70.4881 36.8489 70.632ZM37.05 68.9379C34.7505 70.0247 32.6793 71.5376 30.9469 73.3958C30.7628 73.2837 30.5743 73.1773 30.3814 73.0827C30.7081 71.0642 31.1655 68.9392 31.8139 66.4297C31.9229 66.4464 32.0297 66.4749 32.1324 66.5148C33.9489 66.9005 35.6395 67.7336 37.05 68.9379ZM34.1052 66.4616L36.6303 62.1402C36.7924 62.3773 37.007 62.574 37.2576 62.7152C37.5082 62.8563 37.7879 62.9382 38.0753 62.9544L35.5974 67.1605C35.116 66.895 34.6175 66.6615 34.1052 66.4616ZM66.4665 93.8679C61.9002 94.2161 57.8101 93.7094 58.3994 89.2077C58.9913 84.4842 61.4346 80.9326 65.029 77.4009C68.456 74.1487 72.0888 71.1189 75.9051 68.3304C75.944 68.302 75.9759 68.2651 75.9982 68.2224C76.0205 68.1797 76.0326 68.1325 76.0336 68.0844C76.0347 68.0363 76.0246 67.9887 76.0041 67.9451C75.9837 67.9015 75.9535 67.8632 75.9158 67.8332C75.159 67.2231 74.3305 66.7072 73.4485 66.2969C73.3731 66.2647 73.2879 66.2632 73.2114 66.2928C73.1348 66.3223 73.073 66.3806 73.039 66.4551C73.005 66.5296 73.0016 66.6144 73.0295 66.6913C73.0574 66.7683 73.1145 66.8313 73.1884 66.8668C73.8996 67.196 74.5735 67.5997 75.1989 68.0712C73.7507 69.1358 72.317 70.2475 70.8795 71.4193C70.8527 71.3792 70.817 71.3458 70.7752 71.3216C70.7333 71.2975 70.6865 71.2833 70.6383 71.2802C62.1732 70.7404 53.95 68.2455 46.6186 63.9928C46.5829 63.9693 46.5427 63.9533 46.5005 63.9458C46.4584 63.9383 46.4151 63.9395 46.3735 63.9492C46.3318 63.959 46.2926 63.9772 46.2582 64.0026C46.2238 64.0281 46.195 64.0603 46.1735 64.0972C46.1521 64.1341 46.1385 64.1751 46.1335 64.2175C46.1285 64.2599 46.1322 64.3028 46.1445 64.3437C46.1567 64.3846 46.1772 64.4226 46.2048 64.4553C46.2323 64.488 46.2662 64.5147 46.3045 64.5339C53.6363 68.7863 61.8505 71.302 70.3128 71.8865C68.8238 73.1165 67.3197 74.4242 66.1662 75.4701C59.8595 74.1145 53.7595 71.9361 48.0241 68.9912C46.4734 68.2453 45.0639 67.2376 43.858 66.0126C43.2828 65.287 42.8702 64.447 42.6481 63.5492C42.4259 62.6513 42.3993 61.7165 42.57 60.8075C42.583 60.7406 42.5737 60.6714 42.5436 60.6102C43.843 59.4995 44.9005 58.1354 45.6511 56.602C46.7307 56.009 47.8639 55.5183 49.0356 55.1365C51.8376 55.1032 54.626 54.7414 57.3433 54.0586C60.203 53.9254 63.0682 54.1524 65.8709 54.7344C67.4636 55.2949 68.9444 56.3045 70.4856 56.9934C78.6293 60.7405 91.7402 62.8554 98.9113 57.6278C100.033 60.8451 100.304 64.2962 99.6992 67.6484C97.2118 68.3599 95.3258 69.4277 94.3362 70.6815L91.4593 67.411C93.2273 66.6595 92.3835 64.998 89.7504 64.998C86.4733 64.998 86.1818 67.4179 89.2528 67.696L92.7266 77.5982C84.6438 84.9834 75.4772 89.326 65.4788 90.5041C65.3971 90.515 65.323 90.5575 65.2725 90.6224C65.2219 90.6874 65.199 90.7695 65.2087 90.8511C65.2183 90.9327 65.2598 91.0072 65.324 91.0587C65.3883 91.1101 65.4703 91.1343 65.5524 91.126C75.6048 89.9417 84.8191 85.6072 92.9521 78.2408C93.8763 80.8749 93.8053 80.7409 93.9172 80.8217L93.9643 81.8939C86.3144 88.0453 74.5141 93.1871 66.4665 93.8679ZM91.4989 89.5333C90.7481 89.6586 89.8836 89.6367 89.7592 88.8889C89.6468 88.2726 90.4258 87.8198 91.0698 87.3232C91.591 86.896 91.999 86.3478 92.2577 85.7266C92.5165 85.1054 92.6182 84.4304 92.5538 83.7609C93.0489 83.4014 93.5306 83.0375 93.9988 82.6693L94.2413 88.2094C93.4513 88.8703 92.509 89.3253 91.4989 89.5333ZM118.397 95.0027C118.397 97.9644 113.187 100.374 106.782 100.374C100.376 100.374 95.1662 97.9644 95.1662 94.9877L94.2784 74.6998C98.2843 80.042 115.277 80.0451 119.284 74.6998L119.068 79.6205C117.848 78.7932 117.902 78.7944 117.728 78.8433L115.478 79.4414C115.421 79.4562 115.37 79.4864 115.33 79.5284C115.29 79.5705 115.263 79.6228 115.251 79.6796C115.239 79.7363 115.243 79.7953 115.263 79.8499C115.282 79.9045 115.317 79.9525 115.362 79.9887L117.121 81.3904L116.763 93.8378L115.181 94.729C115.12 94.7631 115.073 94.8161 115.046 94.8798C115.019 94.9435 115.014 95.0143 115.032 95.0811C115.049 95.148 115.089 95.2071 115.144 95.2493C115.198 95.2916 115.266 95.3145 115.335 95.3146C115.968 95.1508 116.588 94.9415 117.19 94.6883L118.436 94.1152L118.397 95.0027Z" fill="#735471"/>
</svg>
