<svg width="146" height="119" viewBox="0 0 146 119" fill="none" xmlns="http://www.w3.org/2000/svg">
<path fill-rule="evenodd" clip-rule="evenodd" d="M40.3911 18.6139V19.1581C40.3911 19.3106 40.4516 19.4568 40.5595 19.5646C40.6673 19.6724 40.8135 19.733 40.966 19.733C41.1185 19.733 41.2647 19.6724 41.3725 19.5646C41.4803 19.4568 41.5409 19.3106 41.5409 19.1581V18.5832C41.533 18.432 41.4674 18.2897 41.3575 18.1855C41.2477 18.0814 41.102 18.0234 40.9507 18.0236C40.8748 18.0246 40.8 18.0407 40.7305 18.0711C40.661 18.1015 40.5984 18.1455 40.5462 18.2005C40.494 18.2556 40.4534 18.3205 40.4268 18.3915C40.4001 18.4625 40.388 18.5381 40.3911 18.6139ZM40.1688 17.0118C41.012 16.8125 41.7019 16.2452 40.4754 16.3219C40.1716 16.3642 39.8717 16.4309 39.5785 16.5212C38.4287 16.9964 39.4252 17.1881 40.1688 17.0118ZM110.5 22.347C110.147 23.0881 109.556 23.6898 108.821 24.0564C108.792 24.0665 108.768 24.0863 108.753 24.1122C108.737 24.1382 108.731 24.1687 108.736 24.1986C108.74 24.2285 108.755 24.2559 108.778 24.2761C108.8 24.2963 108.829 24.3081 108.859 24.3093C109.107 24.353 109.362 24.3349 109.602 24.2566C109.841 24.1782 110.058 24.0421 110.232 23.8602C110.406 23.6783 110.533 23.4563 110.601 23.2137C110.669 22.9712 110.677 22.7156 110.622 22.4696C110.622 22.4371 110.609 22.4059 110.586 22.3829C110.563 22.3599 110.532 22.347 110.5 22.347ZM107.449 16.2682C107.302 16.2305 107.145 16.2519 107.014 16.3278C106.882 16.4037 106.785 16.5281 106.744 16.6745C106.674 16.924 106.661 17.1858 106.705 17.441C106.705 17.5935 106.766 17.7397 106.874 17.8476C106.982 17.9554 107.128 18.0159 107.28 18.0159C107.433 18.0159 107.579 17.9554 107.687 17.8476C107.795 17.7397 107.855 17.5935 107.855 17.441C107.855 16.8891 107.978 16.4139 107.449 16.2682ZM81.0872 91.5818C80.4663 91.2675 68.5924 92.0417 68.2935 93.3755C68.2322 93.6668 68.4238 94.7859 68.7611 94.9699C69.428 95.3225 80.8496 94.6786 81.4782 93.4368C81.6569 93.1347 81.7159 92.7767 81.6435 92.4332C81.5711 92.0898 81.3726 91.786 81.0872 91.5818ZM68.9067 94.648C68.6704 94.2766 68.5429 93.8463 68.5388 93.4061C68.6921 92.7162 75.0161 92.3406 75.7137 92.2946C75.697 92.914 75.8565 93.5254 76.1736 94.0577C75.2998 94.1957 69.3207 94.8703 68.9067 94.671V94.648ZM80.9186 93.1149C80.313 93.5441 77.2391 93.9351 76.5032 94.0271C76.5677 93.4203 76.4389 92.8086 76.1353 92.2793C77.0475 92.218 79.9681 92.057 80.8343 92.1337C81.0642 92.3023 81.0719 92.8236 80.9186 93.1302V93.1149ZM60.9423 93.3985C60.9216 93.3856 60.8977 93.3787 60.8733 93.3787C60.8489 93.3787 60.825 93.3856 60.8043 93.3985C60.8043 93.3218 46.1632 101.57 45.7186 102.444C45.6988 102.486 45.6885 102.532 45.6885 102.578C45.6885 102.624 45.6988 102.67 45.7186 102.712C46.1862 104.054 61.4635 117.867 62.0998 118.181C62.2837 118.273 62.5137 118.112 63.2343 117.729C64.7674 116.909 77.8524 109.918 79.2015 108.791C79.5771 108.408 79.8071 104.958 79.6001 104.567C79.3931 104.176 60.9423 93.4751 60.9423 93.3985ZM62.2684 117.545C60.6357 116.249 47.704 104.598 46.2705 102.62C47.6043 101.363 60.5053 93.8891 60.8963 93.6591C62.874 94.8626 77.1088 103.525 78.9332 104.751C77.969 105.03 77.0518 105.451 76.212 106.001C75.775 106.422 76.8635 107.204 78.3736 108.668C76.0663 110.155 64.6217 116.288 62.2684 117.545ZM78.8106 108.231C78.7339 108.155 76.8865 106.353 76.8022 106.284C77.5469 105.819 78.3144 105.392 79.1018 105.004C79.1043 106.087 79.0016 107.168 78.7952 108.231H78.8106Z" fill="#3D7BFF"/>
<path fill-rule="evenodd" clip-rule="evenodd" d="M72.4406 106.82C71.904 107.05 65.3577 109.219 63.5103 109.97C62.9674 110.241 62.3757 110.4 61.7702 110.438C61.6629 110.438 62.2838 109.242 66.9828 105.578C67.4734 105.195 68.4162 104.466 68.5159 103.869C68.9681 101.891 63.6099 104.85 58.819 106.72C58.3235 106.986 57.7829 107.158 57.2246 107.226C57.1709 106.912 58.2518 105.923 58.3208 105.846C61.18 102.688 64.8058 101.385 64.5605 100.22C64.1849 98.3953 57.5312 101.944 56.1284 102.519C54.9479 103.018 53.0622 103.616 53.1772 103.616C52.9242 103.715 53.1772 103.892 53.2232 103.869C53.2692 103.846 55.6992 103.102 56.2894 102.841C57.1709 102.504 63.0657 99.6602 64.0469 100.327C64.4378 100.603 60.2678 102.849 57.9145 105.448C57.5005 105.892 56.3814 106.797 56.7263 107.533C56.7896 107.646 56.8855 107.739 57.0016 107.797C57.1177 107.856 57.2488 107.879 57.3779 107.862C58.5201 107.862 66.3082 103.96 67.9103 103.838C67.5426 104.323 67.1032 104.75 66.6072 105.103C65.465 106.007 62.1535 108.705 61.387 109.947C60.9883 110.591 61.318 110.974 61.8392 110.982C62.5291 110.982 63.3723 110.514 65.4497 109.733C72.4943 107.019 72.7166 107.142 72.6016 106.889C72.5957 106.874 72.5868 106.86 72.5755 106.848C72.5641 106.836 72.5506 106.827 72.5356 106.82C72.5206 106.814 72.5045 106.811 72.4882 106.811C72.4718 106.81 72.4557 106.814 72.4406 106.82Z" fill="#3D7BFF"/>
<path fill-rule="evenodd" clip-rule="evenodd" d="M145.822 77.5923C145.723 69.5742 145.002 53.2084 143.415 45.2746C142.58 41.0662 140.771 35.3094 137.406 32.5269C135.98 31.354 133.879 30.2272 130.07 28.1192C130.116 28.0195 124.052 25.5666 123.769 26.3791C123.533 24.9811 123.203 23.6006 122.78 22.2474C123.347 22.0634 123.094 20.4077 123.332 19.4725C123.569 18.5373 124.466 17.8704 124.926 17.1039C125.961 15.3945 126.137 12.4126 125.946 10.4272C125.762 8.57983 123.063 4.45579 121.285 3.78123C119.507 3.10666 117.682 3.12966 115.804 2.75405C114.271 2.43977 113.137 1.5889 111.42 1.37426C109.702 1.15963 108.675 2.14081 107.204 2.14081C105.732 2.14081 104.076 0.998652 102.535 0.906666C101.698 0.893679 100.885 1.1849 100.246 1.72625C99.6075 2.2676 99.187 3.0223 99.0628 3.85022C98.8768 5.08425 99.0231 6.34554 99.4866 7.50424C99.9501 8.66294 100.714 9.67719 101.7 10.4425C102.9 11.2018 104.248 11.6958 105.655 11.8913C105.563 15.8084 105.977 14.7582 105.517 15.1032C105.057 15.4481 105.203 17.8628 105.364 18.5297C105.433 18.7979 105.502 18.8976 105.831 19.0049C105.647 19.7715 104.352 21.4272 105.517 21.8335C105.67 21.8871 106.284 21.9945 106.345 22.0175C106.502 22.7444 106.733 23.4533 107.035 24.1331C107.332 24.8166 107.767 25.4318 108.311 25.9407C108.856 26.4497 109.499 26.8415 110.201 27.092C111.305 27.5213 112.178 27.6363 112.822 27.8586C112.911 28.1756 112.957 28.5029 112.96 28.8321C110.223 29.5516 107.644 30.7761 105.356 32.4425C101.209 35.8077 95.3143 49.7666 93.7736 51.2997C93.1757 51.8899 79.0941 54.6188 77.0168 56.0293C76.6105 56.3052 76.5952 56.5429 76.6488 57.0335C76.1429 57.1254 74.0119 57.5241 73.7743 57.9763C73.7041 58.3049 73.7226 58.6461 73.8279 58.9652C71.9312 58.611 70.0173 58.3551 68.0941 58.1986C67.7422 58.2068 67.3959 58.2889 67.0777 58.4394C66.7594 58.5899 66.4763 58.8056 66.2468 59.0725C65.6029 59.839 66.1241 59.7087 65.4419 59.6014C63.9931 59.3944 58.8036 61.1345 58.152 61.4411C58.152 61.1652 58.152 60.9735 57.8607 60.8202C57.0052 60.5723 56.1113 60.484 55.2238 60.5596C54.6872 60.9199 56.7569 60.7972 57.6154 61.2418C57.6154 61.8321 57.6921 67.8878 57.6154 69.076C57.6154 69.2906 57.6154 69.2599 57.4544 69.2829C56.6879 69.3902 55.584 69.2829 55.2468 69.5282C55.3694 66.8606 55.2468 60.3296 54.8788 59.9464C54.6565 59.7164 50.5631 59.2258 46.1095 58.6892C46.1253 55.4669 45.9461 52.2466 45.5729 49.046C44.7527 41.9324 43.0356 33.5464 37.6698 29.292C37.9807 29.419 38.3229 29.4484 38.651 29.3763C39.089 29.2025 39.5606 29.1291 40.0308 29.1617C40.7973 29.3687 40.8969 29.9282 42.8133 28.6404C42.936 28.5561 43.2579 28.5791 43.5109 28.3262C44.3771 27.46 43.9402 26.2871 43.9402 25.4133C44.0671 24.8192 44.1084 24.21 44.0628 23.6042C44.0393 23.5139 43.9952 23.4302 43.9341 23.3598C43.8729 23.2893 43.7963 23.2339 43.7102 23.1979C43.7102 22.945 43.9785 22.4927 43.5952 22.0021C44.1471 21.7108 44.745 21.3736 44.4384 20.7756C43.8527 19.8388 43.3695 18.8417 42.9973 17.8014C42.7597 16.9122 43.0816 15.7777 43.0663 14.8196C43.0663 14.1603 43.1353 13.3708 43.0663 12.6502C43.6575 12.2374 44.1093 11.6546 44.3618 10.9791C44.4177 10.7061 44.4057 10.4235 44.3268 10.1562C44.248 9.88886 44.1047 9.645 43.9095 9.44603C43.6565 9.28506 43.6029 9.44603 43.6105 8.97077C43.6383 8.80399 43.6308 8.63325 43.5885 8.46955C43.5463 8.30584 43.4702 8.15279 43.3652 8.02025C43.0433 7.70596 42.3074 7.36102 42.0774 7.03907C41.6865 6.46415 41.4565 5.88924 40.7206 5.65928C40.1994 5.49064 39.7088 5.82025 39.3562 5.70527C38.8733 5.55196 38.375 5.03071 37.8231 5.58262C37.6999 5.64944 37.5646 5.69128 37.4252 5.70574C37.2858 5.72021 37.1449 5.70703 37.0105 5.66694C36.5506 5.276 36.4356 4.60144 35.6537 4.45579C35.2091 4.37914 34.3353 4.59377 33.998 4.45579C33.4454 4.04907 32.8358 3.72619 32.1889 3.49761C31.4657 3.42873 30.736 3.49106 30.0349 3.68158C29.5443 3.78123 28.9158 3.72757 28.4022 3.80423C27.3367 3.97287 27.0301 4.89273 26.3248 5.33733C25.6196 5.78192 24.4315 5.78959 23.7569 6.78611C23.1896 7.62931 23.3123 8.54151 23.09 9.38471C22.998 9.74499 22.5074 10.1513 22.3234 10.5192C21.8942 11.3701 22.2238 12.2286 22.2161 12.9645C22.2085 13.7004 21.6949 14.375 21.8405 15.2641C21.9588 15.7082 22.1534 16.1284 22.4154 16.506C22.4186 16.6302 22.4031 16.7542 22.3694 16.8739C22.1356 17.4771 22.0875 18.1365 22.2315 18.7673C22.3569 19.372 22.649 19.9296 23.0747 20.377C23.6112 20.8446 23.8872 20.722 24.2781 21.3889C24.4426 21.7415 24.6898 22.0492 24.9987 22.2857C25.566 22.669 26.2635 22.3394 26.6008 22.508C26.8106 22.6189 27.0395 22.6891 27.2754 22.715C27.0867 22.8104 26.9236 22.9497 26.8001 23.1213C22.6301 23.6502 17.1262 26.6934 13.7687 30.8558C12.4426 32.5652 10.212 35.0335 9.37641 37.0112C4.88443 47.1603 7.07677 63.0739 5.26771 67.9875L0.791055 79.662C0.576421 80.2216 0.0245053 83.0042 0.223808 83.9624C0.545759 85.3881 2.04053 83.6021 2.95273 82.5902C2.38548 84.6063 2.39314 85.1352 2.09419 93.069C2.0022 95.5526 1.91788 98.2585 1.87956 100.535C1.87736 100.551 1.8787 100.568 1.88348 100.584C1.88827 100.6 1.89639 100.614 1.90729 100.627C1.9182 100.639 1.93163 100.649 1.94668 100.656C1.96174 100.662 1.97806 100.666 1.99454 100.665C2.20917 100.665 2.07119 100.911 2.38548 94.5791C2.60778 90.1254 2.86074 85.9707 2.88374 85.6334C2.99721 84.3232 3.28596 83.0341 3.74227 81.8007C5.883 80.2014 8.29196 78.9969 10.8559 78.2439C13.7093 77.4805 16.7226 77.5577 19.5332 78.4662C20.2998 78.7192 22.3618 79.2327 23.0977 78.8878C24.6308 78.1212 28.5785 75.584 29.2301 74.0432C29.552 73.2767 29.8126 72.6558 30.0656 72.0808C31.2384 72.1882 32.6795 72.4871 33.9597 72.5024C35.3931 72.5024 36.313 72.2725 37.8997 70.8697C43.7332 71 50.1645 70.8237 53.2307 70.7087C55.2774 71.4753 61.5631 73.7213 63.0886 75.2314C63.6865 75.8139 64.0391 77.439 64.2537 79.2481C64.5364 81.4104 64.6108 83.5949 64.476 85.7714C60.2753 86.5763 54.9248 87.8488 50.7854 88.876C50.5536 88.8114 50.3114 88.7932 50.0725 88.8223C48.9764 88.9373 49.49 89.3819 49.1297 88.2704C49.1469 88.2744 49.1649 88.2741 49.1821 88.2696C49.1992 88.265 49.2149 88.2562 49.2278 88.244C49.2407 88.2319 49.2504 88.2168 49.256 88.1999C49.2616 88.1831 49.263 88.1652 49.26 88.1477C49.2487 86.6744 49.0765 85.2067 48.7464 83.7707C48.6928 83.5561 48.3172 83.4488 48.0872 83.3798C45.6036 82.6592 36.014 81.6934 33.906 82.2376C32.5339 82.5979 23.0363 87.5038 22.6071 88.5463C22.1778 89.5888 21.0126 95.8592 20.798 97.0167C15.8308 98.4655 11.9137 99.6613 9.99732 100.313C9.98144 100.318 9.96677 100.326 9.95422 100.337C9.94166 100.348 9.93149 100.362 9.92431 100.377C9.91713 100.392 9.91311 100.408 9.91248 100.425C9.91186 100.442 9.91464 100.458 9.92066 100.474C10.0127 100.757 12.5269 99.4543 38.283 92.6857C38.5418 93.3465 38.8735 93.9764 39.2719 94.5638C38.5053 94.7477 37.6391 95.085 37.3862 95.7902C37.3412 95.9391 37.3337 96.0968 37.3645 96.2493C37.3953 96.4018 37.4633 96.5443 37.5625 96.6641C38.1913 97.3683 39.0297 97.852 39.9541 98.0439C41.5749 98.4502 43.2592 98.5387 44.9137 98.3045C46.5024 98.1659 48.0678 97.8312 49.5743 97.308C51.2147 96.6181 51.1074 95.5909 50.4788 95.1233C49.8311 94.7424 49.1193 94.4826 48.3785 94.3568C49.076 93.092 48.4245 93.6516 49.467 93.3986C50.0569 93.2578 50.5958 92.9552 51.0231 92.5247C51.6976 91.8348 52.1499 90.1331 51.506 89.3129C54.7408 88.5463 67.7492 85.3268 70.9304 85.5645C76.7025 85.9861 118.671 103.241 128.606 106.568C128.621 106.573 128.638 106.575 128.654 106.574C128.67 106.572 128.686 106.568 128.701 106.56C128.715 106.553 128.728 106.542 128.739 106.53C128.75 106.517 128.758 106.503 128.763 106.487C128.768 106.472 128.77 106.455 128.768 106.439C128.767 106.423 128.763 106.407 128.755 106.392C128.748 106.378 128.737 106.365 128.725 106.354C128.712 106.343 128.698 106.335 128.682 106.33C126.084 105.426 120.289 103.118 113.351 100.344C113.689 99.531 114.578 96.9094 115.268 96.0049C115.551 95.6369 115.536 95.6063 118.066 95.7519C124.696 96.1352 130.537 95.9589 136.9 93.9275C140.786 92.678 142.695 89.7958 143.799 85.9401C144.021 86.0091 144.626 86.2084 144.841 86.2543C144.902 86.2692 144.966 86.2693 145.028 86.2546C145.089 86.2399 145.146 86.211 145.194 86.17C145.953 85.3958 145.822 79.1024 145.822 77.5923ZM40.9736 24.8843C40.7661 24.9599 40.5422 24.9785 40.3251 24.938C40.108 24.8976 39.9058 24.7996 39.7395 24.6544C39.574 24.522 39.4445 24.3501 39.3628 24.1545C39.2811 23.959 39.2498 23.746 39.2719 23.5352C39.2617 23.5037 39.2645 23.4695 39.2796 23.44C39.2947 23.4105 39.3208 23.3882 39.3524 23.3781C39.3839 23.3679 39.4181 23.3707 39.4476 23.3858C39.4771 23.4009 39.4993 23.4271 39.5095 23.4586C39.888 24.0029 40.4225 24.4198 41.0426 24.6544C41.0623 24.6707 41.0768 24.6925 41.0843 24.717C41.0917 24.7415 41.0917 24.7677 41.0844 24.7922C41.077 24.8168 41.0626 24.8386 41.0429 24.855C41.0232 24.8714 40.9991 24.8816 40.9736 24.8843ZM33.7757 18.1694C33.8019 17.9442 33.8924 17.7313 34.0363 17.5561C34.205 17.3875 34.7186 17.4948 35.0788 17.2495C35.3483 17.0366 35.5527 16.7524 35.6691 16.4293C36.0983 15.5784 36.7806 16.2377 37.7311 14.8349C37.9737 14.4404 38.1619 14.0149 38.2907 13.5701C38.8273 13.3171 39.5248 13.6851 40.1994 12.5736C40.4217 12.1979 40.5673 11.807 40.9659 11.6997C41.2649 12.0216 41.5638 13.2328 42.775 12.7652C42.775 13.1791 42.683 15.2718 42.66 15.4405C42.5607 15.9457 42.5068 16.4587 42.499 16.9736C42.499 18.5067 43.2043 19.3499 43.9861 20.952C44.1088 21.2049 43.4649 21.4502 43.1429 21.6265C42.6888 21.4592 42.2187 21.3385 41.7402 21.2662C40.253 20.906 39.0649 21.6802 37.7848 22.0328C37.5678 22.0341 37.3515 22.0084 37.1409 21.9561C36.6579 21.9101 36.152 22.4007 35.4698 22.4927C35.2919 22.5276 35.1076 22.5083 34.9409 22.4372C34.7741 22.3661 34.6326 22.2466 34.5346 22.0941C34.4519 21.8134 34.3929 21.5262 34.3583 21.2356C34.2893 20.9596 34.205 20.6837 34.1436 20.4154C34.021 19.8634 34.3813 19.6488 33.9597 18.8823C33.6684 18.361 33.676 18.591 33.7757 18.1694ZM34.067 33.807C34.5831 32.8275 35.0041 31.8007 35.3241 30.7408C35.7534 33.4084 35.9834 34.7575 36.0907 35.4321C35.5311 34.9645 35.4774 34.7882 34.067 33.7763V33.807ZM36.3666 36.9268C36.7422 39.2265 36.6579 38.7052 36.7269 39.1805C36.5438 38.8356 36.3199 38.5139 36.06 38.2223C36.1458 37.716 36.1843 37.2027 36.175 36.6892L36.3666 36.9268ZM33.5917 38.3066C33.134 37.8307 32.7161 37.3179 32.3423 36.7735C32.7213 35.8871 33.1486 35.0222 33.6224 34.1826C35.2321 35.4167 35.1095 35.4014 35.5081 35.8997C35.5666 36.5525 35.5666 37.2092 35.5081 37.862L33.5917 38.3066ZM33.6914 38.8049C34.6036 40.8363 34.9715 44.1707 35.1632 46.3937C34.2062 43.5938 32.9196 40.9176 31.3304 38.4216C31.6412 37.9969 31.918 37.5484 32.1583 37.0802C32.474 37.6682 32.8518 38.2207 33.2851 38.7282C33.3405 38.7631 33.4029 38.7852 33.4678 38.7932C33.5327 38.8011 33.5986 38.7947 33.6607 38.7742L33.6914 38.8049ZM29.1381 22.4007C29.2005 22.4201 29.2647 22.433 29.3297 22.4391C29.5082 22.431 29.6793 22.3655 29.8175 22.2522C29.9556 22.1389 30.0534 21.9839 30.0963 21.8105C30.2189 21.7338 30.3109 21.6495 30.3032 21.5039C30.2956 21.3582 28.6475 19.1046 30.7478 17.9471C30.9331 17.927 31.1192 17.975 31.2716 18.0823C31.424 18.1895 31.5321 18.3485 31.5757 18.5297C31.6749 18.9385 31.8843 19.3124 32.1813 19.6105C32.2045 20.1005 32.2686 20.5876 32.3729 21.0669C32.4342 21.3506 32.2196 21.7185 32.1736 22.1094C32.0663 22.876 32.8098 23.7192 33.0781 24.4091C33.4384 25.3366 33.1931 26.3331 34.0517 27.1533C34.9102 27.9735 34.7492 27.299 35.0482 29.1387C34.6905 30.5845 34.1978 31.9935 33.5764 33.3471C32.7102 32.1206 28.3255 24.961 27.444 23.3283C27.7736 23.129 28.8008 22.5464 29.1074 22.3701L29.1381 22.4007ZM26.8384 23.4202C27.398 24.7234 32.9708 33.554 32.9708 33.6307C32.7025 34.4816 31.1618 38.0077 30.4335 38.391C28.8315 37.2488 24.4391 25.237 24.1248 24.1485C24.9896 23.778 25.8994 23.5228 26.8308 23.3896L26.8384 23.4202ZM34.7492 57.2634C33.906 56.9951 31.1848 47.7582 28.7548 42.6453C27.2984 39.5791 24.4391 34.5122 21.3193 33.1631C17.9464 31.7143 11.6761 35.1868 11.0092 39.6941C10.602 42.6667 10.8425 45.6922 11.7144 48.5631C15.3325 59.5018 20.2308 68.2251 30.6942 70.724C30.9395 70.2335 30.0733 70.6397 36.9569 70.8237C36.6195 71.0861 36.2605 71.3195 35.8837 71.5213C34.5959 72.2188 32.1506 71.6592 30.3416 71.4599L30.5715 70.9617C19.7938 68.5547 14.7499 59.4634 11.1395 48.7317C10.2277 45.7743 9.96616 42.6547 10.3729 39.5868C11.0628 34.7115 17.5555 31.2161 21.1506 32.4272C22.0673 32.7687 22.9065 33.29 23.6189 33.9603C23.277 30.8886 23.1924 27.7938 23.366 24.708C23.5068 24.5829 23.6581 24.4701 23.8182 24.3708C24.4774 26.6704 28.2335 37.6627 30.1423 38.8815C30.2633 38.9531 30.405 38.9815 30.5443 38.962C30.6835 38.9425 30.8121 38.8763 30.9088 38.7742C32.6335 41.7408 34.2433 44.7763 34.8872 47.9728C35.2515 49.737 35.3445 51.5464 35.1632 53.3387C34.0747 48.8314 31.0621 42.3157 27.6356 39.1958C31.1388 45.2439 33.6914 54.9178 34.8335 56.8265C35.2904 56.9524 35.7571 57.0396 36.2287 57.0871C36.0294 52.4878 35.876 42.8983 33.929 38.7359C34.1666 38.7359 35.8454 38.3756 35.8454 38.3756C36.1481 38.7391 36.4055 39.1381 36.6119 39.5638C36.9262 40.1694 36.8189 39.7094 37.2942 42.9289C39.5938 57.7923 39.4635 57.7157 39.7625 57.8767C38.26 57.685 35.6154 57.5241 34.7492 57.2634ZM39.8391 54.1972C36.8496 37.2258 36.8189 36.7505 35.5618 29.6676C35.6614 29.3303 35.7381 29.0544 35.7917 28.8551C36.267 29.4607 38.8579 32.7798 39.1416 33.508C38.7199 33.8836 37.2022 34.5275 37.6621 35.0411C37.8691 35.2788 39.5785 36.7582 40.1151 37.2948C40.4064 38.5289 39.9464 52.0509 39.8391 54.1972ZM21.1046 96.9171C21.3193 95.9435 22.722 89.6118 23.113 88.7226C23.3966 88.0634 32.6412 83.1575 34.0977 82.7895C36.198 82.2376 47.6349 83.3721 48.4321 83.8857C48.792 85.2228 49.0028 86.5956 49.0607 87.9791C47.7729 86.446 37.8078 86.8523 37.7004 89.0139C37.6983 89.0849 37.7132 89.1553 37.7439 89.2193C37.7746 89.2833 37.8201 89.3391 37.8767 89.3819C37.8717 90.3084 37.9772 91.2322 38.191 92.1338C32.3039 93.7206 26.4168 95.3763 21.1046 96.9171ZM50.3332 95.7212C50.7241 96.986 46.1325 97.5303 44.8064 97.6836C43.2317 97.9079 41.6286 97.8272 40.0844 97.446C39.4098 97.262 38.1604 96.7714 37.9227 96.1582C37.8078 95.8669 38.1834 95.5909 38.4593 95.4453C38.8089 95.2627 39.1797 95.1237 39.5632 95.0313C39.9807 95.6068 40.5407 96.0638 41.1882 96.3575C41.9548 96.6948 45.228 96.4571 46.3624 96.2118C46.8607 96.1045 47.3896 95.9589 48.1408 94.7554C48.6008 94.8244 50.2029 95.2996 50.3332 95.7212ZM46.6691 95.4529C46.0942 95.7979 42.0314 96.0739 41.4105 95.8209C39.3562 95.0007 38.237 91.7965 38.1527 89.5352C39.8227 89.9026 41.5367 90.029 43.2426 89.9108C44.5227 89.7421 47.5506 89.2209 48.6621 88.6613C49.329 91.1756 47.9185 94.7247 46.6691 95.4529ZM50.9541 91.4976C50.7466 91.908 50.4551 92.2703 50.0985 92.5608C49.742 92.8513 49.3283 93.0636 48.8844 93.184C49.2854 92.1086 49.4754 90.9661 49.444 89.8188C49.5045 89.6921 49.5923 89.5803 49.7012 89.4916C49.81 89.4028 49.9372 89.3393 50.0736 89.3056C50.2099 89.2719 50.352 89.2688 50.4897 89.2966C50.6273 89.3243 50.7571 89.3823 50.8698 89.4662C51.4447 89.8418 51.1917 90.846 50.9541 91.4976ZM129.909 28.3415C135.091 31.2007 137.39 32.3965 139.046 34.9032C138.004 34.0075 136.679 33.5105 135.305 33.5004C130.392 33.3317 127.977 40.6063 126.72 45.3129C124.635 53.1624 125.915 63.0969 125.8 64.5533C124.474 65.7875 117.682 69.3136 114.647 70.9617C115.068 69.1833 116.571 62.3227 117.552 59.6167C118.87 55.9833 122.665 47.5206 122.918 45.6809C122.987 45.1366 122.879 45.0676 121.27 44.0251C121.891 44.0251 123.569 43.8565 124.091 43.7568C124.313 43.7568 124.428 43.6572 124.512 43.1896C124.796 41.5645 125.348 28.1728 125.394 26.7471C125.34 26.7164 129.249 27.9659 129.932 28.3415H129.909ZM123.999 26.5094C124.348 26.4843 124.698 26.5232 125.033 26.6244C124.65 32.1819 124.267 41.9554 123.907 43.2049C123.5 43.2816 122.059 43.3812 121.5 43.4195C120.304 43.4885 120.273 43.4195 120.151 43.5882C120.028 43.7568 120.197 43.9868 120.419 44.1401C120.81 44.416 122.113 45.2362 122.297 45.4509C122.12 46.3635 121.848 47.2551 121.484 48.1108C117.153 59.6091 117.414 56.0753 114.501 68.685C114.696 62.6446 115.254 56.6214 116.172 50.6481C116.785 47.3596 117.529 44.2704 120.005 37.2335C120.978 34.5122 122.994 29.2997 123.071 29.3303C123.456 28.4142 123.773 27.4715 124.022 26.5094H123.999ZM110.684 73.5526C110.829 74.1199 110.829 74.0432 110.783 74.0509L110.546 74.0049C110.546 73.9282 110.132 66.2321 110.331 63.0509C110.691 57.4167 111.151 51.3073 111.581 45.4202C111.787 42.5687 112.569 36.4439 112.546 36.6739L113.313 36.1066C113.631 36.7413 113.992 37.3534 114.394 37.9387C114.547 38.1457 114.754 38.4063 114.999 38.4293C114.831 39.8167 112.278 56.9338 111.527 67.8725C111.113 73.8286 111.527 72.5638 110.921 73.108C110.849 73.1565 110.792 73.2232 110.754 73.3013C110.716 73.3794 110.7 73.4661 110.707 73.5526H110.684ZM115.237 38.437C115.82 38.437 116.448 37.2105 117.215 36.6892C117.514 37.0035 118.418 38.5059 119.016 38.7052C116.479 45.6655 113.765 55.37 113.773 71.3909C113.121 71.7436 112.24 72.2495 111.588 72.6251C111.971 66.1017 114.746 44.692 115.26 38.437H115.237ZM123.286 28.1345C123.04 28.9011 119.399 37.6934 119.146 38.0997C118.751 37.7121 118.399 37.2829 118.096 36.8195C117.452 35.9533 117.23 35.6697 116.134 36.9039C117.759 33.8377 120.932 30.7255 122.266 29.177C123.539 27.7206 123.37 27.8432 123.286 28.1345ZM106.115 12.037C106.687 12.2131 107.299 12.2131 107.87 12.037C108.308 11.8425 108.791 11.7735 109.266 11.8377C109.935 12.1465 110.624 12.4127 111.328 12.6349C112.198 12.6272 113.066 12.5581 113.926 12.4279C114.32 12.6121 114.654 12.9043 114.889 13.2707C115.124 13.6371 115.25 14.0625 115.252 14.4976C113.824 14.705 112.445 15.17 111.182 15.8697C111.104 15.618 110.951 15.3966 110.742 15.236C110.533 15.0753 110.28 14.9834 110.017 14.9729C108.76 14.8216 107.49 14.8062 106.23 14.9269C106.118 13.9474 106.08 12.9609 106.115 11.9756V12.037ZM105.816 18.5756C105.624 18.2384 105.249 15.6244 105.632 15.3408C105.693 15.4175 105.425 15.1798 106.882 15.1952C107.908 15.2276 108.932 15.3197 109.948 15.4711C110.638 15.5938 110.753 15.908 110.714 16.5749C110.714 17.8091 110.753 17.6864 110.714 18.0697C110.714 18.177 110.668 18.4607 110.584 18.522C109.007 18.8073 107.392 18.8047 105.816 18.5143V18.5756ZM112.861 27.2147C110.76 26.6168 108.836 26.5401 107.541 23.8725C106.705 22.1554 107.165 21.6572 106.406 21.4349C106.125 21.4013 105.848 21.3397 105.578 21.2509C105.578 20.7373 106.222 19.6641 106.345 19.1199C107.618 19.2721 108.905 19.2721 110.178 19.1199C110.944 19.0049 111.351 18.8746 111.228 17.3185V16.1304C112.431 15.7624 114.984 15.1568 115.291 15.0725C115.292 15.4895 115.349 15.9045 115.459 16.3067C115.579 16.5596 115.786 16.7609 116.042 16.8739C116.083 16.8921 116.127 16.9006 116.172 16.8988C116.217 16.8969 116.261 16.8848 116.3 16.8633C116.339 16.8417 116.373 16.8115 116.399 16.7748C116.424 16.738 116.441 16.6959 116.448 16.6516C116.624 15.9387 116.762 15.3025 116.816 14.9959C116.816 15.1645 116.885 14.4593 117.391 14.1833C118.158 13.7847 119.346 14.6739 119.43 15.931C119.476 16.5443 118.863 17.6558 118.403 18.9359C118.127 19.7025 119.798 20.0321 120.381 20.3157C120.595 20.814 120.465 21.3736 120.756 21.6725C121.193 21.942 121.673 22.1363 122.174 22.2474C122.703 23.9418 123.088 25.6778 123.324 27.437C121.377 29.4837 120.94 29.9742 120.419 30.5032C118.383 32.4381 116.656 34.6744 115.298 37.1338C114.754 33.9373 113.719 31.1164 113.604 30.1889C113.512 29.4683 113.666 28.1958 113.328 27.5136C113.277 27.4324 113.209 27.3635 113.128 27.3119C113.047 27.2602 112.956 27.227 112.861 27.2147ZM113.083 29.8133C113.451 31.1777 114.432 35.6084 114.716 37.3868C114.248 36.6816 113.673 35.5164 113.673 35.5164C113.653 35.4748 113.624 35.4383 113.588 35.4095C113.552 35.3807 113.51 35.3603 113.465 35.35C113.42 35.3397 113.374 35.3397 113.329 35.3499C113.284 35.3601 113.242 35.3803 113.206 35.4091L112.646 35.8384C112.861 33.8453 113.075 31.814 113.106 29.8133H113.083ZM112.861 29.131C112.792 34.7728 111.665 39.8014 111.205 45.4202C109.672 64.308 109.672 63.3805 109.825 70.0648C108.997 64.0244 107.84 52.2732 107.204 45.9032C107.656 45.5582 109.84 43.8948 110.086 43.3889C110.201 43.1436 110.086 42.8906 109.534 42.8906C108.574 42.963 107.611 42.963 106.652 42.8906C107.234 40.5143 110.569 31.8446 111.458 29.545C111.91 29.4147 112.286 29.2843 112.861 29.131ZM77.2237 56.6042C78.4119 55.3547 93.3213 52.4418 94.1338 51.6523C95.276 50.5025 98.4189 43.3659 101.623 37.954C104.344 33.3547 105.824 31.653 111.121 29.6983C109.848 32.8488 107.364 39.0119 106.245 42.5993C106.176 42.8216 106.077 43.0669 106.245 43.2126C106.667 43.6265 108.43 43.3812 109.442 43.3965C108.729 44.1094 106.767 45.5582 106.767 45.5582C106.729 45.5861 106.699 45.6235 106.68 45.6665C106.661 45.7096 106.654 45.7568 106.659 45.8035C106.981 49.3603 108.959 70.5861 109.817 73.6676L108.438 73.315C107.546 72.8771 106.577 72.6167 105.586 72.5484C107.334 63.8558 106.705 61.4258 106.92 56.6885C106.92 56.1979 104.85 46.3401 104.835 46.2634C104.835 46.2309 104.822 46.1997 104.799 46.1767C104.776 46.1537 104.745 46.1408 104.712 46.1408C104.68 46.1408 104.649 46.1537 104.626 46.1767C104.603 46.1997 104.59 46.2309 104.59 46.2634C104.72 49.6209 105.67 52.8174 106.322 56.4815C103.869 58.7812 101.301 61.9624 97.1234 62.9972C94.5401 63.6488 82.444 66.2857 80.8342 66.4007C79.5157 64.9289 77.0168 57.5854 77.2237 56.6042ZM75.7673 57.6237C75.7673 57.6237 76.6872 57.4014 76.6718 57.2558C77.3877 59.9493 78.2892 62.59 79.3701 65.1589C78.6732 65.3745 77.9608 65.5359 77.2391 65.6418C76.8021 65.6418 77.1088 66.0251 76.0433 63.4955C75.3867 61.9229 74.8236 60.3129 74.3568 58.6739C74.2265 58.145 74.0042 58.1986 75.7673 57.6237ZM66.791 59.2411C67.3966 58.5742 67.8335 58.4746 73.8893 59.2411C74.4278 61.0689 75.0807 62.861 75.844 64.607C74.5978 65.5785 73.1694 66.2901 71.6433 66.6997C71.5973 66.37 71.49 66.4697 71.7506 66.4927C71.9707 66.4989 72.1894 66.4556 72.3906 66.3661C72.5918 66.2765 72.7703 66.143 72.913 65.9753C73.0558 65.8075 73.159 65.6099 73.2152 65.397C73.2714 65.1841 73.2791 64.9613 73.2377 64.745C73.1764 63.9784 70.984 62.384 70.3631 61.947C70.7317 62.0229 71.1142 61.9937 71.467 61.8627C71.4985 61.8526 71.5247 61.8303 71.5397 61.8008C71.5548 61.7714 71.5576 61.7371 71.5474 61.7056C71.5373 61.6741 71.515 61.6479 71.4855 61.6328C71.4561 61.6177 71.4218 61.6149 71.3903 61.6251C70.1025 61.9624 68.7994 60.4293 68.6307 60.3833C68.0405 60.2376 68.4084 61.6098 67.0976 62.43C66.906 62.5526 66.1701 62.2767 66.1241 61.9011C66.0276 61.4361 66.0375 60.9553 66.153 60.4947C66.2685 60.0341 66.4866 59.6056 66.791 59.2411ZM58.221 61.6558C59.2022 61.3031 64.2001 59.7547 65.6412 60.1227C65.479 60.735 65.4425 61.3739 65.5339 62.0007C65.5826 62.1998 65.6736 62.3861 65.8009 62.5468C65.9281 62.7076 66.0885 62.839 66.2711 62.9321C66.4537 63.0252 66.6543 63.0779 66.8591 63.0865C67.0639 63.0951 67.2681 63.0594 67.4579 62.9819C67.9921 62.6256 68.3937 62.1028 68.6001 61.4948C69.2823 61.9087 72.6704 64.1547 72.6245 64.9519C72.6245 65.4885 72.3408 65.9408 71.8042 65.8948C71.3513 65.7325 70.923 65.508 70.5318 65.2279C70.1381 64.9135 69.7232 64.6266 69.29 64.3693C69.2211 64.3336 69.1414 64.3246 69.0663 64.3441C68.9912 64.3635 68.9259 64.4101 68.8831 64.4748C68.8402 64.5396 68.8229 64.6178 68.8343 64.6946C68.8457 64.7714 68.8852 64.8412 68.945 64.8906C68.945 64.8906 69.5199 65.3199 70.1562 65.7338C71.1143 66.5004 71.444 67.2056 70.2558 67.5659C70.0698 67.6211 69.8744 67.6373 69.6818 67.6136C69.4893 67.5898 69.3037 67.5266 69.1366 67.4279C68.9413 67.0422 68.6822 66.6923 68.3701 66.393C68.2309 66.0349 67.9812 65.7304 67.6573 65.5237C67.3335 65.317 66.9522 65.2187 66.5687 65.2432C66.1701 65.2892 66.1394 65.4885 66.1778 65.3045C66.3617 64.3923 65.1966 63.8404 64.384 63.9937C63.0732 64.2544 62.345 65.9868 61.9157 67.2516C61.6551 67.8035 62.6823 67.1902 58.198 68.7847C58.3243 66.5584 58.3243 64.3267 58.198 62.1004C58.1597 61.5714 58.1443 61.6941 58.221 61.6558ZM62.1304 67.3359C62.552 66.4314 63.4795 64.7373 64.4684 64.584C64.8516 64.515 65.6258 64.7756 65.5415 65.1666C65.3755 66.2046 64.8969 67.1673 64.1694 67.9261C64.2614 68.0794 61.8621 68.1254 62.1304 67.3359ZM66.4691 65.8718C66.653 65.6878 67.7262 66.0634 67.7569 66.6383C67.8105 67.5965 66.8983 68.7387 66.1088 69.2676C65.8558 69.4439 64.8593 68.6314 64.6293 68.3017C65.1768 67.444 65.792 66.6315 66.4691 65.8718ZM67.7645 68.4244C67.8182 68.3477 68.5847 66.646 68.715 68.0564C68.7687 68.6084 67.9485 68.8997 67.4119 68.823C67.5366 68.6966 67.6543 68.5636 67.7645 68.4244ZM84.8126 78.3895C81.5854 80.8962 81.1255 84.1923 81.6544 88.1247C76.4725 86.285 72.5171 85.0585 70.9764 84.9282C68.891 84.9712 66.8156 85.228 64.7826 85.6948C64.9896 83.6327 64.8976 76.3965 63.4335 74.9094C61.9694 73.4223 56.6572 71.3909 54.6565 70.6244H55.1088C55.2851 70.5324 54.9938 69.7275 55.6607 69.6815C56.4656 69.6355 57.5924 69.9422 57.9603 69.6202C58.0702 69.4533 58.1337 69.2602 58.1443 69.0606C58.9875 68.7923 60.9729 68.1868 61.9771 67.9261C62.3147 68.1941 62.7099 68.38 63.1316 68.4691C63.5533 68.5582 63.9899 68.5482 64.407 68.4397C64.637 68.9533 65.7102 70.0801 66.3771 69.7122C66.562 69.6054 66.7388 69.4849 66.906 69.3519C67.3909 69.4863 67.9057 69.4649 68.3778 69.2906C68.6275 69.2225 68.8504 69.0794 69.0163 68.8807C69.1821 68.6819 69.283 68.437 69.3053 68.1791C69.7066 68.2944 70.1346 68.2759 70.5245 68.1266C70.9145 67.9772 71.2453 67.7051 71.467 67.3512C73.1476 66.9735 74.7204 66.2186 76.0663 65.1436C76.2119 65.4578 76.3499 65.7261 76.4649 65.9101C76.5029 65.9748 76.5565 66.029 76.6207 66.0678C76.685 66.1066 76.7579 66.1288 76.8328 66.1324C77.5994 66.2091 79.4084 65.3659 79.4851 65.3659C79.7477 65.9137 80.0745 66.4283 80.4586 66.899C80.5966 67.0369 80.8265 66.9986 81.0412 66.9756C83.2642 66.7073 94.3025 64.331 97.2537 63.5951C101.086 62.6369 103.585 59.9464 106.215 57.3861C106.069 61.7861 106.644 63.9324 104.904 72.5714C101.286 73.0213 97.7007 73.7076 94.1722 74.6258C91.083 75.5073 87.4035 76.3812 84.8126 78.3972V78.3895ZM95.9966 93.5136L95.7283 93.4062C95.6669 89.5122 96.6328 85.9247 99.4844 83.2648C99.7367 83.329 99.9927 83.3776 100.251 83.4104C97.315 85.9247 96.1575 89.5888 95.9966 93.5136ZM108.1 80.7352C105.801 82.0843 106.475 82.8125 104.367 83.0348C102.678 83.1508 100.982 83.0191 99.3311 82.6439C97.9973 82.2146 98.7025 81.701 100.098 81.5477C100.335 81.5861 102.206 81.6014 103.087 81.5477C103.159 81.5362 103.225 81.4994 103.272 81.4439C103.319 81.3884 103.345 81.3179 103.345 81.2449C103.345 81.172 103.319 81.1014 103.272 81.046C103.225 80.9905 103.159 80.9537 103.087 80.9422C102.093 80.8566 101.094 80.8412 100.098 80.8962C99.4631 80.887 98.8312 80.8125 98.2119 80.6739C98.1502 80.5734 98.1144 80.4591 98.1077 80.3414C98.101 80.2237 98.1237 80.1061 98.1736 79.9993C98.9784 79.5164 102.773 79.7003 103.401 79.6773C103.475 79.6657 103.543 79.628 103.591 79.5711C103.64 79.5142 103.667 79.4418 103.667 79.3669C103.667 79.292 103.64 79.2196 103.591 79.1627C103.543 79.1058 103.475 79.0681 103.401 79.0564C102.144 79.083 100.886 79.0164 99.6377 78.8571C99.1011 78.7652 97.8516 78.4969 97.9436 77.9526C98.1122 76.9714 100.128 77.8146 101.546 77.715C102.547 77.7 103.537 77.5133 104.475 77.1631C104.545 77.1417 104.604 77.0934 104.638 77.0287C104.673 76.964 104.68 76.8883 104.659 76.8181C104.637 76.748 104.589 76.6892 104.524 76.6547C104.46 76.6202 104.384 76.6128 104.314 76.6341C103.354 76.8647 102.382 77.0337 101.401 77.1401C101.339 77.1272 101.283 77.092 101.245 77.0412C101.207 76.9904 101.189 76.9274 101.194 76.8641C101.205 76.7209 101.241 76.5807 101.301 76.4502C101.696 75.9347 102.227 75.5392 102.834 75.308C105.011 74.4035 106.667 75.308 109.158 75.469C109.471 76.8865 109.868 78.284 110.346 79.6544C109.582 79.9598 108.842 80.321 108.131 80.7352H108.1ZM111.029 79.8C110.76 78.8955 109.764 75.6146 109.664 74.8481C110.06 74.6548 110.476 74.5082 110.906 74.4111C111.259 75.722 111.91 77.9986 112.332 79.2711C111.92 79.4768 111.495 79.6535 111.059 79.8H111.029ZM113.198 79.8C112.792 78.8801 111.588 74.5951 111.312 73.5219C112.631 72.4411 124.466 66.623 126.229 64.8523C126.781 64.3004 124.918 53.9136 127.103 45.3666C128.268 40.7673 130.553 33.5387 135.267 33.6997C138.502 33.807 140.349 36.2753 141.399 39.3568C143.323 45.0293 142.557 52.9018 142.557 52.8251C142.557 59.2565 140.257 68.9227 135.658 73.5219C132.185 77.0021 115.36 80.1909 113.229 79.823L113.198 79.8ZM144.803 85.6258C143.906 85.3881 139.79 83.8704 138.049 83.7247C129.012 82.9582 129.571 81.2411 123.983 78.7881C127.049 78.0216 133.864 76.2432 136.125 74.0049C140.901 69.2676 143.109 59.5018 143.086 52.8941C143.263 50.58 143.263 48.2556 143.086 45.9415C144.78 55.554 145.822 82.7129 144.803 85.6258Z" fill="#3D7BFF"/>
<path fill-rule="evenodd" clip-rule="evenodd" d="M26.2789 33.8099L23.7646 34.1012C24.5311 34.822 25.2291 35.6124 25.8497 36.4622L26.5472 34.1625C26.5685 34.1213 26.5777 34.0749 26.5736 34.0287C26.5696 33.9825 26.5526 33.9384 26.5245 33.9015C26.4964 33.8645 26.4584 33.8363 26.415 33.8201C26.3715 33.8039 26.3243 33.8004 26.2789 33.8099ZM98.9939 103.765C98.3615 103.365 97.6635 103.08 96.9318 102.922C98.6719 100.093 98.3576 96.7896 97.8977 96.4984C97.4648 96.0572 96.8884 95.7853 96.2726 95.7318C93.973 95.2489 88.4001 95.2106 86.9284 96.437C86.6064 96.7053 86.4148 97.1423 86.7291 97.4335C86.5794 99.2505 86.9602 101.072 87.8252 102.677C87.0587 102.822 86.1695 103.114 85.8782 103.804C85.828 103.952 85.8143 104.11 85.8383 104.265C85.8623 104.42 85.9233 104.567 86.0162 104.693C86.6046 105.423 87.41 105.946 88.3158 106.188C89.9157 106.674 91.5943 106.849 93.2601 106.701C94.8516 106.636 96.4294 106.379 97.959 105.935C99.6531 105.306 99.6378 104.271 98.9939 103.765ZM86.9974 97.5715C88.6451 98.0216 90.3488 98.2333 92.0566 98.2001C93.9187 98.0727 95.7574 97.7121 97.5298 97.1269C97.6833 98.1815 97.6269 99.256 97.3638 100.289C97.1007 101.321 96.6361 102.292 95.9967 103.144C95.8421 103.415 95.6192 103.64 95.3501 103.798C95.081 103.955 94.7753 104.039 94.4636 104.041C93.3904 104.179 90.4622 104.256 89.8643 103.988C87.9249 103.091 86.9667 99.8329 86.9974 97.5715ZM93.2294 106.004C91.6471 106.153 90.0507 105.992 88.5305 105.528C87.8421 105.341 87.2087 104.991 86.6831 104.509C86.5604 104.379 86.3611 104.118 86.4225 103.957C86.6218 103.451 87.5953 103.19 88.1319 103.098C88.516 103.684 89.0438 104.162 89.665 104.486C90.4315 104.877 94.6782 104.831 95.4677 104.424C95.9599 104.124 96.3768 103.715 96.6865 103.229C97.1388 103.359 98.7179 103.896 98.8252 104.325C99.1702 105.643 94.6092 105.958 93.2294 106.042V106.004Z" fill="#3D7BFF"/>
</svg>
