<svg width="156" height="154" viewBox="0 0 156 154" fill="none" xmlns="http://www.w3.org/2000/svg">
<g filter="url(#filter0_dd_61700_3333)">
<path d="M151.196 113.407C151.152 113.213 150.989 113.142 150.812 113.024C150.812 113.024 151.203 104.164 151.203 104.064C151.203 100.742 146.451 97.9038 139.657 97.0115C139.987 96.8779 140.272 96.6534 140.48 96.3641C140.687 96.0749 140.809 95.7327 140.83 95.3772C140.898 95.3626 140.962 95.3295 141.013 95.2813C141.064 95.2332 141.101 95.172 141.119 95.1043C143.536 86.3419 145.384 78.4472 143.503 70.5655C141.613 62.434 135.712 53.68 129.15 49.2761C122.501 44.9989 114.496 43.3564 106.7 44.6699C106.645 44.5389 106.592 44.4062 106.539 44.2698C107.247 44.3408 107.956 44.1504 108.533 43.7345C109.11 43.3187 109.515 42.7061 109.672 42.0123C109.818 41.1913 109.503 41.3523 109.88 41.3224C110.876 41.1336 111.757 40.5606 112.333 39.7272C112.926 38.7376 112.716 36.7944 111.616 36.2011C111.86 35.8141 112.054 35.3969 112.19 34.96C112.762 33.0843 111.45 32.5561 110.266 31.8678C108.662 30.9847 109.064 27.9392 108.235 26.1884C106.69 22.7129 102.849 19.3224 99.3814 20.6179C97.3796 19.7365 95.1605 19.4712 93.0073 19.8559C90.8541 20.2406 88.8642 21.2579 87.2914 22.778C85.6517 24.4263 84.4109 26.4279 83.664 28.6296C82.9172 30.8314 82.6841 33.1748 82.9826 35.4805C83.2814 36.8275 83.4023 38.2078 83.3421 39.5862C83.2617 40.6356 82.3456 41.5309 82.1601 42.7367C82.0565 43.1322 82.0632 43.5486 82.1794 43.9406C82.2956 44.3327 82.5169 44.6854 82.8193 44.9606C83.1216 45.2359 83.4936 45.4231 83.8948 45.502C84.296 45.5808 84.7112 45.5484 85.0952 45.4081C85.1468 45.9397 85.3409 46.4474 85.6572 46.8777C85.9735 47.308 86.4001 47.6448 86.892 47.8526C87.3908 48.0347 87.9315 48.0689 88.4493 47.9513C88.967 47.8337 89.4399 47.5692 89.8111 47.1896C90.074 47.5253 90.793 48.0895 91.1702 48.052C91.5307 48.1176 91.9027 48.0459 92.213 47.851C92.5232 47.656 92.7493 47.352 92.8466 46.9987C93.5751 47.5248 94.4109 47.8832 95.2943 48.048C96.1776 48.2129 97.0865 48.1802 97.9557 47.9523V47.9761C81.4265 52.4159 74.7576 67.8404 73.4215 69.2448C73.1137 69.4534 72.7609 69.5861 72.392 69.6319C68.4826 70.3486 65.1987 73.0614 62.2996 75.4577C58.9268 78.2464 58.5948 78.2234 58.4822 78.4395C55.8146 77.4744 53.9856 78.2678 53.0006 79.7948C50.6664 79.9596 50.034 83.3585 49.479 85.6643C49.1571 87.0011 48.7056 88.9673 49.0896 90.2835C49.0306 90.3601 49.0038 90.4245 45.6724 96.1476C45.1971 95.9897 44.7149 95.8558 44.2259 95.7459C43.9352 95.6312 43.6247 95.5754 43.3123 95.5817C42.9999 95.588 42.6919 95.6564 42.4061 95.7827C41.786 96.1422 41.3171 96.714 41.0861 97.3925C40.84 97.8846 40.584 98.471 40.295 99.2092C40.0783 96.5024 40.0345 93.7846 40.1639 91.0723C40.3832 85.1606 40.0612 79.1302 39.8082 73.2469C42.7191 70.2949 45.3276 67.0593 47.5949 63.5884C47.6459 63.6102 47.701 63.6207 47.7565 63.6191C47.8119 63.6175 47.8664 63.6039 47.916 63.5792C49.5212 62.7545 51.082 61.8462 52.592 60.8579C53.7772 61.1243 55.0085 61.1067 56.1856 60.8066C56.4868 62.1864 57.9417 62.8571 59.1199 63.4014C59.1801 63.4291 59.2465 63.4407 59.3125 63.435C59.3786 63.4294 59.442 63.4068 59.4967 63.3693C59.5514 63.3319 59.5954 63.2809 59.6245 63.2213C59.6536 63.1618 59.6667 63.0957 59.6627 63.0296C59.637 62.4068 59.4265 61.8059 59.0578 61.3033C58.6892 60.8007 58.1792 60.4194 57.593 60.2079C57.8038 60.0868 58.0046 59.958 58.1947 59.8246C58.2604 59.8574 58.3341 59.8706 58.407 59.8628C58.48 59.8549 58.5492 59.8262 58.6063 59.7802C59.133 59.3563 62.2137 61.3945 65.4685 60.5122C65.6732 60.4563 66.6337 60.1803 66.7571 60.3512C66.8172 60.4303 66.9057 60.4829 67.0039 60.498C67.1021 60.5131 67.2023 60.4895 67.2834 60.4321C67.3645 60.3748 67.4202 60.2882 67.4387 60.1906C67.4572 60.093 67.4371 59.992 67.3826 59.9089C66.3554 58.3758 63.2125 57.0091 60.167 58.0585C60.9253 57.447 61.5292 56.6658 61.9301 55.778C62.3092 54.8381 62.5917 53.8622 62.7733 52.8651C62.7866 52.7889 62.7764 52.7104 62.7442 52.64C62.712 52.5696 62.6593 52.5106 62.5929 52.4708C62.5265 52.431 62.4496 52.4122 62.3724 52.4169C62.2951 52.4216 62.2211 52.4496 62.1601 52.4972C61.0326 53.3463 59.9736 54.2825 58.9927 55.2974C58.5447 55.8321 58.2069 56.4502 57.9988 57.116C57.7907 57.7818 57.7163 58.4822 57.78 59.1769C57.3547 59.4796 56.8986 59.7365 56.4194 59.9434C55.4699 60.2546 54.4635 60.3519 53.472 60.2286C54.8518 59.1608 56.2814 57.7549 56.7245 55.9359C57.1201 55.4328 57.4788 54.9018 57.7976 54.3469C58.5159 52.9088 58.6914 50.3255 58.5688 48.7449C58.5635 48.6784 58.541 48.6144 58.5033 48.5593C58.4657 48.5041 58.4144 48.4598 58.3544 48.4306C58.2944 48.4014 58.2278 48.3884 58.1612 48.3928C58.0946 48.3973 58.0303 48.419 57.9747 48.4559C56.8232 49.2387 55.9401 50.3564 55.4451 51.6578C55.4403 51.6706 55.4362 51.6837 55.4328 51.6969C55.0265 53.1861 55.1643 54.7714 55.8215 56.1682C55.8268 56.1796 55.833 56.1906 55.8399 56.2011C54.8671 58.8963 50.7078 61.2535 48.1843 62.5827C52.7576 54.3699 49.8079 51.0269 52.9998 42.0161C54.4788 41.5223 55.8611 40.7761 57.0855 39.8108C58.4116 39.8192 59.5063 40.2761 60.8884 40.1833C62.2816 40.017 63.6064 39.4866 64.7295 38.6456C64.7772 38.6099 64.8158 38.5636 64.8424 38.5104C64.869 38.4572 64.8829 38.3985 64.8829 38.339C64.8829 37.6177 61.4296 36.983 59.3798 37.6092C60.4494 36.3352 61.2966 34.8899 61.8856 33.3342C62.4547 33.4002 63.0303 33.2888 63.5337 33.0153C63.9055 32.8758 64.278 32.7133 64.6498 32.55C65.7412 32.1884 66.7632 31.6441 67.6723 30.9403C67.7289 30.8933 67.7707 30.831 67.7929 30.7609C67.815 30.6908 67.8165 30.6158 67.7972 30.5448C67.7779 30.4739 67.7386 30.41 67.6839 30.3608C67.6293 30.3116 67.5617 30.2791 67.4891 30.2672C66.0316 30.0247 64.5347 30.253 63.2156 30.9188C63.3108 30.5719 63.3412 30.2104 63.3053 29.8525C63.2446 29.3843 63.2446 28.9103 63.3053 28.4421C63.3397 28.405 63.3664 28.3616 63.384 28.3142C63.4016 28.2668 63.4097 28.2164 63.4078 28.1659C63.4059 28.1154 63.3941 28.0658 63.373 28.0199C63.3519 27.9739 63.322 27.9326 63.285 27.8982C63.2479 27.8638 63.2045 27.8371 63.1571 27.8195C63.1097 27.8019 63.0593 27.7938 63.0088 27.7957C62.9583 27.7976 62.9087 27.8094 62.8628 27.8305C62.8168 27.8516 62.7755 27.8815 62.7411 27.9185C61.5024 29.0047 60.3495 31.1181 61.2739 32.7769C60.6118 34.6419 59.5624 36.3456 58.1947 37.7761C56.827 39.2065 55.1721 40.3312 53.3386 41.0763C55.1707 36.2233 57.7371 31.5589 58.7811 26.446C60.6891 26.3417 61.1084 24.4721 61.8642 23.566C61.9144 23.5038 61.9439 23.4273 61.9484 23.3474C61.953 23.2675 61.9325 23.1882 61.8897 23.1206C61.847 23.053 61.7841 23.0004 61.7099 22.9704C61.6358 22.9403 61.5541 22.9341 61.4763 22.9528C60.5798 23.1256 59.7747 23.6134 59.2066 24.328C59.2066 23.1682 58.5351 23.0088 57.8199 20.3856C57.7983 20.3062 57.7518 20.2358 57.6871 20.1848C57.6224 20.1339 57.5431 20.1051 57.4608 20.1028C57.3785 20.1005 57.2976 20.1247 57.2302 20.1719C57.1627 20.2192 57.1123 20.2868 57.0863 20.3649C56.7937 21.272 56.6942 22.2303 56.7942 23.1782C56.9008 24.1725 57.3712 25.0923 58.115 25.7607C57.6032 27.6382 56.9466 29.4732 56.1511 31.2492C55.8713 30.1953 55.759 29.1039 55.8184 28.0151C55.8243 27.9138 55.7897 27.8143 55.7223 27.7384C55.6549 27.6625 55.5602 27.6165 55.4589 27.6104C55.4086 27.6074 55.3582 27.6143 55.3106 27.6308C55.263 27.6473 55.2191 27.673 55.1814 27.7064C55.1438 27.7399 55.1131 27.7805 55.0911 27.8258C55.0691 27.8711 55.0563 27.9204 55.0534 27.9706C54.9755 29.4477 55.1858 30.9257 55.6728 32.3224C53.5732 36.9485 50.9914 41.5639 50.1145 46.6982C49.906 48.0014 49.8133 49.3451 49.6929 50.6529C48.1 48.4704 47.075 45.926 46.7103 43.2488C47.4697 42.8784 48.1026 42.2916 48.5293 41.5623C48.5891 41.4665 49.0022 40.0223 49.187 39.7272C49.2522 39.6716 49.2968 39.5958 49.3138 39.5118C49.3309 39.4278 49.3192 39.3405 49.2809 39.2639C49.2425 39.1873 49.1795 39.1258 49.1021 39.0892C49.0246 39.0526 48.9371 39.0429 48.8535 39.0619C48.4013 39.1738 47.9763 39.376 47.6042 39.6563C47.2321 39.9367 46.9204 40.2893 46.688 40.6931C46.4301 41.1899 46.2186 41.7096 46.0564 42.2453C45.5322 41.0947 44.8677 40.0133 44.0779 39.0258C44.0508 38.9497 44.0003 38.8842 43.9336 38.8385C43.867 38.7928 43.7876 38.7694 43.7069 38.7715C43.6261 38.7736 43.5481 38.8012 43.4839 38.8503C43.4198 38.8995 43.3728 38.9676 43.3497 39.045C43.1109 39.802 43.1163 40.615 43.3651 41.3688C43.614 42.1226 44.0937 42.7789 44.7364 43.2449C43.9903 42.9223 43.2108 42.6829 42.4122 42.5313C42.3358 42.5174 42.2571 42.5271 42.1863 42.5589C42.1155 42.5908 42.0561 42.6435 42.0159 42.7099C41.7913 43.0801 42.2666 43.3231 42.6192 43.9363C43.0344 44.5719 43.6121 45.0848 44.2924 45.4218C44.9727 45.7587 45.7308 45.9075 46.488 45.8527C47.1122 48.0051 48.1634 50.0099 49.5787 51.7475C48.7822 58.6618 44.9894 64.2668 39.602 68.5027C39.2287 59.7641 38.9436 50.8292 39.7485 42.0506C44.5601 38.1474 46.4489 30.7287 46.396 24.5166C47.1165 24.0094 47.7291 23.3643 48.1985 22.6186C48.6679 21.8729 48.9846 21.0415 49.1303 20.1725C49.1414 20.1015 49.1324 20.0288 49.1042 19.9626C49.0759 19.8965 49.0297 19.8396 48.9707 19.7985C48.9117 19.7574 48.8423 19.7338 48.7705 19.7302C48.6987 19.7267 48.6273 19.7434 48.5645 19.7785C46.5393 20.9176 45.4983 22.3848 45.598 23.9302C45.3386 23.1818 44.9556 22.4823 44.465 21.8605C44.1922 21.5207 43.9476 21.1593 43.7337 20.7796C43.7397 20.6868 43.7116 20.5949 43.6549 20.5212C43.5981 20.4475 43.5164 20.397 43.4251 20.3791C43.3338 20.3611 43.2391 20.3771 43.1586 20.4238C43.0782 20.4706 43.0175 20.545 42.9879 20.6332C42.5954 21.78 42.5954 23.0248 42.9879 24.1716C42.9949 24.1931 43.0039 24.2139 43.0147 24.2337C43.6008 25.3105 44.4867 26.194 45.565 26.7771C45.4655 28.324 45.237 29.8599 44.882 31.3688C43.3702 28.9441 42.2675 26.2873 41.6181 23.5047C41.6073 23.4549 41.5867 23.4078 41.5575 23.366C41.5283 23.3243 41.4911 23.2887 41.448 23.2616C41.4049 23.2344 41.3568 23.216 41.3065 23.2076C41.2563 23.1993 41.2049 23.201 41.1553 23.2127C41.1057 23.2244 41.0589 23.2459 41.0178 23.2759C40.9766 23.3059 40.9418 23.3438 40.9154 23.3874C40.8891 23.431 40.8717 23.4795 40.8643 23.5299C40.8568 23.5803 40.8595 23.6317 40.8722 23.681C40.9448 23.9877 41.0214 24.2943 41.1022 24.6009C40.4811 24.2083 39.9511 23.6875 39.5476 23.0734C39.1442 22.4593 38.8765 21.7662 38.7627 21.0403C39.2342 20.8983 39.6713 20.6604 40.0465 20.3416C40.4218 20.0228 40.7272 19.6299 40.9435 19.1875C41.3975 18.2854 41.7732 17.346 42.0665 16.3796C42.0887 16.3053 42.0878 16.2259 42.0639 16.152C42.04 16.0781 41.9943 16.0133 41.9327 15.966C41.8711 15.9187 41.7966 15.8912 41.7191 15.8872C41.6415 15.8832 41.5646 15.9028 41.4985 15.9435C40.2849 16.7069 39.2412 17.7117 38.4323 18.8955C38.1057 17.2014 37.55 17.2022 36.8417 15.3111C36.8135 15.236 36.7625 15.1716 36.6958 15.1271C36.6291 15.0825 36.5501 15.06 36.4699 15.0627C36.3898 15.0654 36.3125 15.0932 36.2489 15.1422C36.1854 15.1911 36.1388 15.2588 36.1158 15.3356C35.8374 16.2889 35.8029 17.2968 36.0154 18.2669C36.3362 19.313 37.0145 20.213 37.9317 20.8095C38.0378 21.5994 38.2812 22.3647 38.6508 23.0709C37.4506 22.8396 36.2075 23.0746 35.1744 23.7278C35.1224 23.7612 35.0791 23.8067 35.0484 23.8605C35.0178 23.9142 35.0006 23.9746 34.9983 24.0364C34.996 24.0983 35.0088 24.1598 35.0355 24.2156C35.0621 24.2715 35.1019 24.32 35.1515 24.3571C35.5961 24.6915 36.1352 24.8767 36.6915 24.886C37.6817 24.9507 38.6719 24.7593 39.5668 24.3303C40.0919 24.8783 40.7161 25.3218 41.4065 25.6373C42.1508 28.0249 43.2326 30.2938 44.6191 32.3752C43.7115 35.6384 42.3379 38.6801 39.8512 40.9491C40.0081 39.4191 40.2012 37.8944 40.4307 36.3751C40.4461 36.2781 40.4237 36.1788 40.368 36.0978C40.3123 36.0169 40.2277 35.9604 40.1316 35.94C40.0355 35.9196 39.9352 35.937 39.8515 35.9884C39.7678 36.0398 39.707 36.1215 39.6818 36.2164C38.263 41.6282 37.3795 47.1663 37.0441 52.7509C34.0476 51.4738 31.9181 47.5629 31.0857 45.2755C30.9508 44.8156 30.9753 44.9344 30.9998 44.8317C32.2144 39.8244 32.6498 34.6598 32.2907 29.5198C32.2835 29.4182 32.2362 29.3236 32.1592 29.2568C32.0822 29.19 31.9818 29.1566 31.8802 29.1638C31.7785 29.171 31.6839 29.2183 31.6172 29.2953C31.5504 29.3723 31.5169 29.4726 31.5241 29.5743C31.8486 34.1622 31.5242 38.7729 30.5606 43.2702C30.3647 42.413 30.2381 41.5414 30.1819 40.6639L29.262 33.5235C29.259 33.4219 29.2157 33.3256 29.1417 33.2559C29.0676 33.1862 28.9689 33.1487 28.8673 33.1518C28.7656 33.1548 28.6693 33.1981 28.5996 33.2721C28.5299 33.3462 28.4924 33.4449 28.4955 33.5465C28.4403 34.3798 28.4227 35.1563 28.4441 35.8914C27.4187 34.7364 26.6431 33.3819 26.166 31.9129C25.6888 30.444 25.5205 28.8922 25.6715 27.3551C25.6894 27.3388 25.7053 27.3205 25.7191 27.3007C26.504 27.3566 27.1878 26.2735 27.2644 26.2175C28.0274 25.2811 28.6575 24.2439 29.1371 23.1352C29.182 23.0438 29.1888 22.9382 29.1559 22.8417C29.1229 22.7453 29.053 22.6658 28.9616 22.6209C28.8701 22.576 28.7645 22.5692 28.668 22.6021C28.5716 22.6351 28.4921 22.7049 28.4472 22.7964C28.1033 23.0337 27.7357 23.2346 27.3503 23.3959C26.6213 23.7827 26.0161 24.3672 25.6041 25.0823C25.3561 23.3611 24.7802 21.7035 23.9077 20.1994C23.8711 20.1368 23.8174 20.0859 23.753 20.0526C23.6886 20.0193 23.6161 20.0049 23.5438 20.0112C23.4716 20.0174 23.4026 20.0441 23.3449 20.0879C23.2872 20.1318 23.2431 20.1912 23.2178 20.2592C22.806 21.4108 22.7334 22.6565 23.0087 23.8482C23.284 25.0399 23.8956 26.1275 24.7708 26.9818C24.8154 27.0261 24.8701 27.0587 24.9303 27.0768C24.7192 28.9056 24.9335 30.7584 25.5564 32.4907C26.1794 34.223 27.1942 35.788 28.5216 37.0635C29.3027 45.576 29.2621 48.8185 36.8655 55.8554C36.6355 60.9683 36.6769 66.1042 36.7735 71.1864C34.4986 69.5984 32.3148 67.8838 30.2325 66.0505C27.952 64.1704 25.9436 61.9828 24.2649 59.5502C22.508 56.9439 21.513 53.9092 20.6169 50.8974C20.6775 50.8476 20.7214 50.7805 20.7426 50.705C21.549 47.7248 21.5257 44.5809 20.6752 41.6129C21.1129 41.4688 21.457 40.8832 21.825 40.194C22.421 38.9929 22.7141 37.6642 22.6789 36.3237C22.6789 36.2526 22.6591 36.1828 22.6217 36.1222C22.5843 36.0617 22.5307 36.0128 22.467 35.9809C22.4034 35.9491 22.3321 35.9356 22.2612 35.942C22.1903 35.9484 22.1226 35.9744 22.0657 36.0171C21.4838 36.443 20.9932 36.9813 20.623 37.6002C20.2527 38.219 20.0103 38.9058 19.9101 39.6199C19.8461 39.8816 19.8051 40.1483 19.7875 40.4171C18.8163 39.462 18.2789 39.475 15.6926 38.1796C15.6255 38.1464 15.5502 38.1335 15.4759 38.1427C15.4017 38.1518 15.3317 38.1824 15.2746 38.2308C15.2176 38.2793 15.1759 38.3433 15.1548 38.4151C15.1338 38.4869 15.1342 38.5633 15.156 38.6349C15.5195 39.9054 16.3537 40.9896 17.4886 41.6666C17.8443 41.9334 19.8044 42.6079 20.1179 42.8931C20.143 42.9458 20.1797 42.9922 20.2252 43.0288C20.6745 45.1883 20.6766 47.417 20.2313 49.5774L19.9186 48.4843C19.9048 48.4359 19.8816 48.3906 19.8503 48.3512C19.819 48.3117 19.7803 48.2788 19.7363 48.2543C19.6923 48.2298 19.6439 48.2143 19.5939 48.2085C19.5439 48.2027 19.4933 48.2068 19.4448 48.2206C19.3964 48.2344 19.3512 48.2576 19.3117 48.2888C19.2723 48.3201 19.2394 48.3589 19.2149 48.4028C19.1904 48.4468 19.1748 48.4952 19.169 48.5452C19.1632 48.5952 19.1674 48.6459 19.1811 48.6943C19.8932 51.4494 20.8029 54.1495 21.9032 56.7738C19.2065 55.8356 16.9544 53.9294 15.5837 51.4248C15.5374 51.3403 15.461 51.2763 15.3697 51.2456C15.2783 51.2149 15.1788 51.2198 15.0908 51.2592C14.4631 50.7851 13.7334 50.4641 12.9598 50.3217C11.8296 50.0475 10.6543 50.0141 9.51035 50.2236C9.44081 50.2351 9.37578 50.2655 9.32241 50.3115C9.26904 50.3576 9.22941 50.4175 9.20785 50.4846C9.1863 50.5517 9.18368 50.6234 9.20026 50.6919C9.21684 50.7604 9.252 50.823 9.30185 50.8729C10.0543 51.6623 11.0291 52.2042 12.0967 52.4267C12.2878 52.4956 12.4774 52.5549 12.6655 52.6045C11.6588 52.9129 10.7312 53.4364 9.94701 54.1389C9.16277 54.8413 8.54062 55.7058 8.12367 56.6726C8.09885 56.7291 8.08807 56.7909 8.09224 56.8525C8.09642 56.9141 8.11543 56.9738 8.14765 57.0265C8.17987 57.0792 8.22435 57.1233 8.27729 57.1551C8.33024 57.1869 8.39009 57.2055 8.45175 57.2092C10.0597 57.3218 11.6734 57.0954 13.1883 56.5446C14.4984 56.0015 15.5907 55.0379 16.2928 53.8057C17.8724 55.6871 19.983 57.048 22.3485 57.7105C24.1826 61.1532 26.6953 64.1885 29.735 66.6331C31.9761 68.6054 34.3333 70.4415 36.7942 72.1316C37.1227 81.4261 36.9843 90.7312 36.3795 100.012C36.2715 101.604 35.9092 103.169 35.3063 104.647C35.2947 104.675 35.2868 104.704 35.2825 104.734C32.0543 105.979 29.041 107.722 26.3522 109.9C25.8418 110.316 25.2757 110.658 24.6704 110.917C23.8547 110.984 23.0337 110.92 22.2382 110.728C16.8838 110.257 12.7889 116.349 8.32603 118.079C6.03252 119.024 4.87656 120.21 4.79454 121.707C4.78889 121.809 4.82375 121.908 4.89145 121.984C4.95915 122.06 5.05415 122.106 5.15558 122.111C5.25702 122.117 5.35655 122.082 5.4323 122.015C5.50805 121.947 5.55382 121.852 5.55956 121.75C5.62471 120.578 6.62506 119.609 8.61042 118.791C13.1407 117.034 17.2663 111.055 22.1209 111.484C22.9987 111.694 23.9051 111.758 24.8038 111.674C25.545 111.398 26.2338 110.997 26.8405 110.49C29.4799 108.354 32.4386 106.647 35.6083 105.431C41.1942 103.372 42.0021 105.979 44.8552 107.167C49.6845 109.177 54.4593 105.876 57.6696 111.315C59.169 113.737 59.4112 114.899 62.1302 116.845C63.487 117.816 63.8932 118.208 64.4122 120.381C64.728 121.707 64.984 122.212 67.7797 122.925C68.5571 123.115 69.2832 123.473 69.906 123.976C70.5288 124.478 71.033 125.112 71.3824 125.831C71.4039 125.877 71.4341 125.918 71.4713 125.952C71.5086 125.986 71.5521 126.012 71.5995 126.029C71.6469 126.046 71.6971 126.054 71.7474 126.051C71.7977 126.049 71.847 126.037 71.8926 126.015C71.9381 125.994 71.979 125.963 72.0129 125.926C72.0468 125.889 72.073 125.845 72.09 125.798C72.1071 125.751 72.1146 125.7 72.1122 125.65C72.1099 125.6 72.0976 125.55 72.0762 125.505C71.6791 124.683 71.1052 123.959 70.3955 123.384C69.6859 122.81 68.8581 122.4 67.9713 122.183C64.2566 121.235 65.9108 121.044 64.3685 117.967C63.6786 116.785 62.5372 116.303 61.6304 115.488C59.8528 113.977 59.53 112.861 58.3258 110.917C55.2948 105.781 51.0206 107.705 46.8053 106.926C47.9766 105.331 49.305 103.08 50.3023 102.045C50.7466 101.616 51.0421 101.057 51.1455 100.449C51.3234 99.2222 49.9382 98.3024 48.8865 97.6493C52.3291 91.7882 52.1328 92.1462 52.1505 92.0412C53.5407 91.6604 54.8187 90.9505 55.8767 89.9715C55.6227 92.2613 56.284 94.5586 57.7164 96.363C59.2537 97.9394 61.0536 99.2363 63.0355 100.196C69.9308 103.743 77.2529 106.39 84.8224 108.073C80.4944 112.094 76.1795 117.022 75.288 124.151C74.6334 129.165 78.217 130.832 83.2739 130.832C93.952 130.832 108.125 124.369 116.969 118.117C116.966 118.733 116.827 119.341 116.562 119.898C116.297 120.454 115.913 120.946 115.436 121.336C114.504 122.062 113.331 122.768 113.554 123.99C113.614 124.328 113.771 124.642 114.006 124.892C114.24 125.143 114.542 125.321 114.876 125.404C116.648 125.586 118.421 125.07 119.818 123.965L120.14 131.342C120.14 135.459 126.701 138.683 135.078 138.683C143.455 138.683 149.927 135.458 150.017 131.359C150.053 129.68 150.048 129.912 150.16 129.86C150.223 129.83 150.278 129.784 150.317 129.727C150.356 129.669 150.379 129.601 150.382 129.532C151.276 112.332 151.214 113.487 151.196 113.407ZM58.7597 62.3803C57.9998 62.0996 57.3702 61.5486 56.9912 60.8326C57.3952 60.9145 57.7708 61.1003 58.0809 61.3717C58.3911 61.6431 58.625 61.9908 58.7597 62.3803ZM64.7548 58.9308C65.2142 59.0672 65.6433 59.2902 66.0189 59.5878C65.4677 59.692 64.8369 59.9182 64.5586 59.9212C62.8868 60.0007 61.2174 59.7202 59.6634 59.0987C60.4501 58.7068 61.3122 58.4895 62.1907 58.4616C63.0692 58.4337 63.9433 58.5958 64.7533 58.937L64.7548 58.9308ZM59.5523 55.814C60.2433 55.0839 60.9885 54.4069 61.7814 53.7888C60.9965 56.7653 60.2659 56.8427 58.5251 58.4816C58.5669 57.5051 58.9271 56.569 59.5507 55.8163L59.5523 55.814ZM56.1672 51.9046C56.522 50.9853 57.0935 50.1652 57.8329 49.5138C57.8398 50.4405 57.7685 51.3662 57.6198 52.281C57.4715 53.3784 57.0045 54.4083 56.2768 55.243C55.9108 54.1674 55.8721 53.0075 56.1656 51.91L56.1672 51.9046ZM66.3362 30.938C65.6973 31.295 65.0308 31.6002 64.3432 31.8509C63.9829 32.0042 63.6242 32.166 63.2018 32.3308C63.0133 32.439 62.8069 32.5124 62.5924 32.5477C62.6865 32.3897 62.7715 32.2264 62.8469 32.0587C63.8634 31.3278 65.0843 30.9357 66.3362 30.938ZM62.5035 29.3182C62.5165 29.6118 62.5472 30.0503 62.5564 30.153C62.5123 30.6464 62.3953 31.1305 62.2091 31.5895C62.056 31.724 61.9157 31.8723 61.7898 32.0326C61.7041 31.5553 61.7239 31.065 61.8477 30.5961C61.9715 30.1272 62.1964 29.691 62.5066 29.3182H62.5035ZM59.9171 38.2501C60.7277 38.0934 61.5579 38.066 62.377 38.1688C62.5058 38.1796 63.1321 38.3221 63.638 38.4532C62.773 38.9683 61.8097 39.2965 60.8102 39.4168C59.8442 39.3977 58.882 39.2904 57.9356 39.0964C58.5484 38.7136 59.2169 38.4281 59.9171 38.2501ZM48.1813 40.1849C48.1046 40.4102 47.8547 41.1929 47.8547 41.1929C47.5911 41.618 47.2493 41.9895 46.8475 42.2875C47.0428 41.4565 47.5127 40.7157 48.1813 40.1849ZM43.9522 40.1649C44.5853 40.9853 45.1041 41.8879 45.4945 42.8478C45.0226 42.5775 44.6309 42.1866 44.3595 41.7152C44.0881 41.2438 43.9468 40.7088 43.9499 40.1649H43.9522ZM43.2639 43.5293C43.8928 43.7197 44.5045 43.9633 45.0921 44.2575C45.4527 44.4522 45.7495 44.7469 45.9468 45.1061C45.409 45.065 44.8878 44.9015 44.4228 44.6283C43.9578 44.355 43.5614 43.9791 43.2639 43.5293ZM43.7038 23.9018C43.4832 23.239 43.4122 22.5356 43.4961 21.8421C43.7928 22.256 44.196 22.7704 44.3002 22.9635C44.8263 23.7383 45.1165 24.6489 45.1358 25.5851C44.5506 25.1253 44.0636 24.5526 43.7038 23.901V23.9018ZM36.6516 16.7675C36.8249 17.1009 37.0216 17.4216 37.2403 17.7272C37.5467 18.3413 37.7246 19.0114 37.7631 19.6965C37.3636 19.3276 37.0554 18.8709 36.8626 18.3625C36.6698 17.854 36.5979 17.3078 36.6524 16.7668L36.6516 16.7675ZM40.9512 17.2857C40.7511 17.807 40.5204 18.3297 40.2613 18.8487C39.9417 19.5037 39.3815 20.0098 38.6975 20.2615C38.8554 19.2772 39.9485 18.1013 40.9519 17.2849L40.9512 17.2857ZM36.7597 24.1287C36.5781 24.1287 36.3974 24.1029 36.2231 24.052C36.9857 23.7492 37.8211 23.6798 38.6232 23.8527C38.0368 24.1061 37.3943 24.2013 36.7597 24.1287ZM48.1552 20.9506C47.8069 21.9707 47.1873 22.8768 46.363 23.5714C46.4559 23.0314 46.6641 22.5178 46.9733 22.0656C47.2826 21.6133 47.6857 21.233 48.1552 20.9506ZM26.166 25.612C26.4896 25.0725 26.9107 24.5978 27.4078 24.2122C27.4691 24.1816 27.4844 24.1739 27.8462 24.0053C27.2721 25.011 25.9667 26.7863 25.7597 26.5173C25.7551 26.4552 25.7512 26.3931 25.7459 26.331C25.8455 26.0699 25.9874 25.8269 26.166 25.612ZM23.6908 21.412C24.3831 22.8694 24.8111 24.4381 24.9548 26.0451C24.4173 25.4127 24.0255 24.6699 23.8071 23.8693C23.5886 23.0686 23.5489 22.2297 23.6908 21.412ZM20.6621 39.7587C20.7904 38.8038 21.2145 37.913 21.8748 37.2114C21.8125 37.9956 21.6316 38.7658 21.3382 39.4957C21.105 39.9453 20.8449 40.3805 20.5594 40.7989C20.5435 40.449 20.5781 40.0986 20.6621 39.7587ZM17.9125 41.0242C17.2181 40.6193 16.6497 40.0297 16.2706 39.3209C18.4859 40.342 19.1152 40.4133 19.7561 41.8329C19.1367 41.5577 18.1187 41.1745 17.9125 41.0242ZM10.477 50.8782C11.2486 50.8166 12.0251 50.8798 12.7766 51.0653C13.4965 51.1759 14.1695 51.4913 14.7152 51.9736C13.8984 52.0895 13.0654 51.9918 12.2975 51.69C11.6367 51.5618 11.014 51.2841 10.477 50.8782ZM12.92 55.8271C11.6909 56.2756 10.3892 56.4919 9.08109 56.4648C9.58162 55.5349 10.3016 54.7412 11.1784 54.1527C12.0553 53.5641 13.0625 53.1984 14.1127 53.0874C15.2472 52.9341 15.6037 53.1204 15.6351 53.2407C15.7616 53.7536 14.2124 55.3342 12.92 55.8271ZM114.514 97.9429C114.875 97.9336 115.234 97.8921 115.587 97.8187L119.458 102.231C119.082 102.875 118.911 103.619 118.968 104.363L119.283 111.568L114.514 97.9429ZM88.4903 67.3575C88.6114 65.6611 88.7923 63.9027 88.9433 61.5892C88.9349 61.2681 89.0055 60.9498 89.1491 60.6623C89.2927 60.3749 89.5047 60.1273 89.7666 59.9411C90.4074 59.8499 90.133 61.6805 90.0418 62.8709L89.0545 75.8655C88.7762 77.8424 88.1285 78.0716 87.552 78.2103C87.8196 77.4277 88.4098 68.4307 88.4865 67.3552L88.4903 67.3575ZM55.6935 85.7739C55.7238 85.8505 55.7287 85.935 55.7073 86.0146C55.4482 86.8463 53.3846 88.5051 52.293 88.8692C52.2164 88.893 52.0914 88.9083 51.8553 88.7642C51.2421 87.8942 51.8247 85.6213 52.5705 84.3895C52.686 84.492 52.8298 84.5572 52.983 84.5767C53.1362 84.5961 53.2917 84.5688 53.4291 84.4983C53.4529 84.7223 53.5589 84.9295 53.7265 85.08C53.8941 85.2304 54.1114 85.3135 54.3367 85.3132C54.468 85.3035 54.5906 85.2433 54.6785 85.1453C54.7805 85.0687 54.7322 85.0518 54.7805 85.2641C54.8022 85.3604 54.8439 85.451 54.903 85.53C54.962 85.609 55.037 85.6747 55.1232 85.7228C55.2093 85.7709 55.3046 85.8003 55.4029 85.8091C55.5011 85.8179 55.6001 85.8059 55.6935 85.7739ZM84.2858 77.2031C85.3205 76.5912 86.2837 75.8657 87.1573 75.0399C87.0791 75.8535 86.9963 76.6481 86.9089 77.4239C86.9214 77.7004 86.8499 77.9742 86.704 78.2093C86.558 78.4445 86.3443 78.63 86.091 78.7416L82.5587 80.8243C74.6939 79.7258 76.237 81.9335 84.2858 77.2031ZM126.541 84.6432C126.771 84.1764 126.595 84.3734 126.709 78.9884C126.873 75.8021 126.657 72.6077 126.066 69.4724C128.528 72.0894 130.109 72.7839 130.486 76.2786C131.199 82.3436 135.835 87.9195 134.881 94.1224C134.873 94.1784 134.878 94.2355 134.895 94.2895C132.614 95.6202 132.07 95.7889 131.262 96.9295C129.91 97.0764 128.57 97.3141 127.249 97.6408C127.947 93.4385 127.557 89.1275 126.117 85.1185C126.303 85.0068 126.451 84.841 126.54 84.6432H126.541ZM140.662 105.985C142.997 106.33 145.279 106.974 147.45 107.901C141.695 111.249 130.478 111.617 123.745 108.445C128.362 105.572 135.593 105.297 140.661 105.985H140.662ZM137.737 96.8137C137.35 96.9072 136.988 97.082 136.674 97.3264C136.361 97.5707 136.103 97.8792 135.918 98.2311C135.602 98.8988 135.865 99.7519 135.845 100.388C135.836 100.729 135.734 100.861 135.7 100.869C135.666 100.876 135.582 100.828 135.512 100.687C135.101 99.8593 134.895 98.9445 134.912 98.0203C134.912 97.9186 134.871 97.8211 134.8 97.7493C134.728 97.6774 134.63 97.637 134.529 97.637C134.427 97.637 134.329 97.6774 134.258 97.7493C134.186 97.8211 134.145 97.9186 134.145 98.0203C134.145 98.0203 134.153 100.236 134.158 100.328C134.206 101.462 133.233 101.42 133.255 100.121C133.27 99.2782 133.303 98.4588 133.354 97.6792C133.363 97.5775 133.331 97.4766 133.265 97.3987C133.199 97.3208 133.105 97.2722 133.003 97.2637C132.901 97.2552 132.801 97.2874 132.723 97.3532C132.645 97.419 132.596 97.5131 132.588 97.6148L132.314 100.266C132.279 100.21 132.251 100.149 132.23 100.086C131.847 99.0367 131.564 98.1 131.908 97.3266C132.322 96.7428 132.88 96.2757 133.528 95.9705L136.23 94.3937C137.534 94.5659 138.824 94.829 140.091 95.181C139.978 96.4366 139.131 96.3446 137.736 96.8137H137.737ZM106.474 33.8409C106.67 33.8408 106.863 33.8842 107.039 33.9679C107.216 34.0516 107.371 34.1735 107.495 34.3248C107.619 34.4761 107.707 34.653 107.754 34.8427C107.8 35.0324 107.804 35.2301 107.765 35.4215C107.44 36.7686 106.746 37.9984 105.761 38.9729C106.303 37.2145 104.589 33.8409 106.474 33.8409ZM98.4601 50.8767C98.5513 51.2423 99.1001 51.1511 99.1001 50.6935L98.5513 47.3973C98.46 47.2141 98.3681 47.1221 98.1849 47.2141C94.6802 48.3478 90.0533 45.6189 88.9349 38.6341C89.0483 38.0892 89.2492 37.5663 89.5297 37.0857C90.4665 35.7182 92.1935 34.8136 93.1609 33.2775C93.4261 33.9482 94.4173 34.1651 95.3984 32.7746C95.9703 34.2955 98.4646 34.4173 99.2051 30.7164C99.9711 31.5302 100.596 32.4659 101.054 33.4852C101.454 34.2321 101.746 35.0322 101.921 35.8615C101.921 37.16 101.892 38.7215 103.184 38.8511C102.714 40.2584 101.738 42.4285 102.554 43.6083C102.706 43.8144 102.906 43.98 103.137 44.0904C103.368 44.2009 103.623 44.2527 103.878 44.2413C104.134 44.2299 104.383 44.1557 104.603 44.0253C104.824 43.8948 105.008 43.7121 105.141 43.4933C105.274 43.6544 105.429 43.7963 105.601 43.9149C105.929 44.9158 106.372 45.8751 106.921 46.7733C106.948 46.8162 106.982 46.8535 107.023 46.883C107.064 46.9125 107.11 46.9337 107.159 46.9453C107.208 46.957 107.259 46.9588 107.309 46.9508C107.358 46.9428 107.406 46.9251 107.449 46.8987C107.492 46.8723 107.529 46.8376 107.559 46.7968C107.588 46.756 107.609 46.7098 107.621 46.6608C107.633 46.6117 107.634 46.5609 107.626 46.5112C107.618 46.4615 107.601 46.4138 107.574 46.3709C107.378 46.052 107.198 45.7278 107.031 45.389C107.578 45.3057 108.125 45.2359 108.671 45.1797C108.372 49.7023 106.379 53.6608 103.314 55.3886C102.666 55.7257 101.958 55.9307 101.231 55.9918C100.503 56.0528 99.771 55.9687 99.0764 55.7443C98.6161 55.5609 98.2002 55.2814 97.8565 54.9245C97.5128 54.5676 97.2492 54.1415 97.0833 53.6746C96.5541 52.2034 96.4796 50.607 96.8695 49.0929C97.2742 48.9657 97.683 48.8464 98.0959 48.735L98.4601 50.8767ZM54.7966 79.1317C55.5922 78.7439 56.5019 78.6594 57.3553 78.8941C58.8532 79.3057 60.223 79.9266 60.7734 81.0949C61.0501 81.6813 61.1567 82.8357 60.6201 83.0112C59.8321 83.2742 59.041 83.5685 58.1594 83.8353C58.0161 83.8238 57.9471 83.7832 57.9371 83.7586C57.905 83.6743 57.9847 83.3631 58.4369 82.9415C58.8289 82.6838 59.2515 82.476 59.6949 82.3229C59.7901 82.2872 59.8673 82.2151 59.9094 82.1226C59.9515 82.03 59.9551 81.9245 59.9194 81.8292C59.8838 81.734 59.8117 81.6568 59.7191 81.6147C59.6266 81.5726 59.521 81.5689 59.4258 81.6046C58.3557 81.9172 57.416 82.5684 56.7475 83.4604C56.4453 84.0586 56.0243 84.5889 55.5103 85.0188C55.3707 84.099 56.2891 82.5068 56.9245 81.6889C56.981 81.6163 57.0095 81.5257 57.0047 81.4338C56.9999 81.3419 56.9622 81.2548 56.8985 81.1884C56.8348 81.122 56.7493 81.0807 56.6577 81.0721C56.566 81.0635 56.4744 81.0882 56.3994 81.1416C55.7159 81.6109 55.1907 82.2764 54.8932 83.0503C54.716 83.5558 54.4979 84.046 54.2408 84.516C54.1642 84.4462 54.1642 84.2301 54.1642 84.1327C54.2671 82.8772 54.597 81.6508 55.1377 80.5131C55.1756 80.4313 55.1835 80.3388 55.16 80.2518C55.1364 80.1648 55.083 80.0889 55.0091 80.0374C54.9351 79.9859 54.8454 79.9621 54.7557 79.9701C54.6659 79.9782 54.5819 80.0176 54.5183 80.0815C53.726 80.9283 53.2636 82.0312 53.2152 83.1898C53.2152 83.9104 52.9852 83.9679 52.9684 83.4896C52.7399 82.1634 53.2551 79.9458 54.7966 79.1317ZM41.7974 97.6684C41.9709 97.1528 42.3248 96.7173 42.794 96.442C42.0933 99.187 41.5797 101.561 41.1972 103.812C40.8625 102.869 40.6209 101.895 40.4759 100.904C40.8562 99.8019 41.2974 98.7217 41.7974 97.6684ZM60.0084 24.6001C60.1775 24.3936 60.3836 24.2205 60.6162 24.0896C60.1785 24.8562 59.8121 25.4088 59.1506 25.6097C59.3978 25.2421 59.6855 24.9034 60.0084 24.6001ZM57.5401 21.9939C58.1533 23.5837 58.427 23.6718 58.4461 24.2544C58.4047 24.4598 58.3626 24.6691 58.3289 24.8799C57.9996 24.4825 57.7589 24.0195 57.6229 23.5216C57.4869 23.0238 57.4586 22.5027 57.5401 21.9931V21.9939ZM49.7527 101.513C48.6404 102.668 47.1572 105.209 45.9912 106.739C44.9781 106.442 44.0302 105.956 43.1972 105.307C45.2489 103.145 47.6837 101.382 50.3782 100.108C50.3801 100.373 50.3253 100.636 50.2175 100.878C50.1096 101.121 49.9511 101.337 49.7527 101.513ZM49.998 99.4399C47.1924 100.77 44.6654 102.622 42.5517 104.896C42.3271 104.759 42.0972 104.629 41.8618 104.513C42.2604 102.042 42.8185 99.4415 43.6096 96.3699C43.7425 96.3903 43.8729 96.4253 43.9982 96.4742C46.2144 96.9462 48.2771 97.9659 49.998 99.4399ZM46.4052 96.409L49.4859 91.1198C49.6838 91.4099 49.9456 91.6507 50.2513 91.8235C50.5571 91.9963 50.8984 92.0965 51.249 92.1163L48.2257 97.2645C47.6384 96.9395 47.0302 96.6537 46.4052 96.409ZM85.8886 129.953C80.3173 130.379 75.3271 129.759 76.0461 124.249C76.7682 118.468 79.7493 114.121 84.1348 109.798C88.316 105.818 92.7484 102.109 97.4045 98.6964C97.452 98.6616 97.4909 98.6164 97.5181 98.5641C97.5453 98.5119 97.5601 98.4541 97.5614 98.3953C97.5626 98.3364 97.5503 98.2781 97.5254 98.2247C97.5004 98.1714 97.4635 98.1245 97.4175 98.0877C96.4942 97.341 95.4834 96.7096 94.4073 96.2074C94.3152 96.168 94.2114 96.1662 94.118 96.2024C94.0246 96.2385 93.9491 96.3099 93.9076 96.401C93.8661 96.4922 93.862 96.596 93.896 96.6902C93.9301 96.7843 93.9997 96.8614 94.0899 96.905C94.9576 97.3079 95.7799 97.802 96.5429 98.379C94.776 99.6822 93.0267 101.043 91.2729 102.477C91.2402 102.428 91.1967 102.387 91.1456 102.357C91.0945 102.328 91.0374 102.311 90.9785 102.307C80.6504 101.646 70.6175 98.5925 61.6725 93.3873C61.629 93.3585 61.5799 93.3389 61.5285 93.3297C61.4771 93.3205 61.4243 93.322 61.3735 93.334C61.3226 93.3459 61.2747 93.3682 61.2328 93.3993C61.1908 93.4305 61.1557 93.4698 61.1295 93.5151C61.1034 93.5603 61.0867 93.6104 61.0806 93.6623C61.0745 93.7141 61.0791 93.7667 61.094 93.8168C61.109 93.8668 61.134 93.9133 61.1676 93.9533C61.2012 93.9934 61.2426 94.0261 61.2893 94.0496C70.2347 99.2544 80.2568 102.333 90.5815 103.049C88.7647 104.554 86.9296 106.155 85.5222 107.435C77.8275 105.776 70.3851 103.11 63.3873 99.5051C61.4953 98.5922 59.7756 97.3588 58.3043 95.8594C57.6026 94.9713 57.0992 93.9432 56.8282 92.8443C56.5571 91.7454 56.5246 90.6011 56.7329 89.4886C56.7487 89.4067 56.7374 89.322 56.7007 89.2471C58.286 87.8877 59.5763 86.2181 60.4921 84.3412C61.8094 83.6154 63.1919 83.0148 64.6215 82.5475C68.0402 82.5067 71.4423 82.0639 74.7576 81.2282C78.2467 81.0651 81.7424 81.343 85.1619 82.0554C87.1051 82.7414 88.9119 83.9771 90.7923 84.8203C100.728 89.4066 116.725 91.9952 125.474 85.5968C126.843 89.5347 127.174 93.7586 126.435 97.8616C123.401 98.7324 121.099 100.039 119.892 101.574L116.382 97.5711C118.539 96.6512 117.51 94.6176 114.297 94.6176C110.299 94.6176 109.943 97.5795 113.69 97.9199L117.928 110.04C108.066 119.079 96.8825 124.394 84.6836 125.836C84.5839 125.849 84.4935 125.901 84.4318 125.981C84.3702 126.06 84.3422 126.161 84.354 126.261C84.3657 126.361 84.4163 126.452 84.4947 126.515C84.5732 126.578 84.6732 126.607 84.7733 126.597C97.0381 125.148 108.28 119.842 118.203 110.826C119.331 114.05 119.244 113.886 119.381 113.985L119.438 115.298C110.105 122.827 95.7074 129.12 85.8886 129.953ZM116.43 124.648C115.514 124.801 114.459 124.774 114.308 123.859C114.171 123.105 115.121 122.551 115.907 121.943C116.543 121.42 117.04 120.749 117.356 119.989C117.672 119.228 117.796 118.402 117.717 117.583C118.321 117.143 118.909 116.697 119.48 116.247L119.776 123.027C118.812 123.836 117.663 124.393 116.43 124.648ZM149.249 131.342C149.249 134.967 142.892 137.916 135.077 137.916C127.262 137.916 120.905 134.967 120.905 131.324L119.822 106.492C124.709 113.031 145.441 113.035 150.33 106.492L150.067 112.515C148.578 111.502 148.644 111.504 148.432 111.564L145.686 112.296C145.618 112.314 145.556 112.351 145.507 112.402C145.458 112.454 145.424 112.518 145.41 112.587C145.395 112.657 145.4 112.729 145.424 112.796C145.448 112.863 145.49 112.921 145.545 112.966L147.692 114.681L147.254 129.916L145.324 131.007C145.25 131.049 145.193 131.114 145.16 131.192C145.127 131.27 145.121 131.356 145.142 131.438C145.164 131.52 145.212 131.592 145.279 131.644C145.346 131.696 145.428 131.724 145.512 131.724C146.285 131.524 147.041 131.267 147.776 130.957L149.296 130.256L149.249 131.342Z" fill="#3D7BFF"/>
<path d="M96.2156 42.485C96.5299 42.0136 95.7174 41.4402 94.6772 42.137C94.5792 42.202 94.473 42.2536 94.3614 42.2903C94.3805 41.8948 94.4748 40.2268 94.54 39.0924C94.5429 39.0421 94.5358 38.9917 94.5193 38.9441C94.5027 38.8966 94.4769 38.8527 94.4433 38.8151C94.4098 38.7776 94.3692 38.7469 94.3238 38.7251C94.2785 38.7032 94.2292 38.6905 94.1789 38.6876C94.0783 38.6851 93.9805 38.721 93.9054 38.7881C93.8304 38.8552 93.7837 38.9484 93.775 39.0487C93.719 40.0153 93.5925 42.2727 93.591 42.3501C93.5772 43.1542 94.3529 43.2753 95.1018 42.7763C95.2648 42.6423 95.4733 42.5766 95.6836 42.5931C95.7256 42.621 95.7727 42.6404 95.8222 42.65C95.8717 42.6597 95.9226 42.6595 95.9721 42.6495C96.0215 42.6394 96.0684 42.6197 96.1102 42.5915C96.152 42.5633 96.1878 42.5271 96.2156 42.485Z" fill="#3D7BFF"/>
<path d="M98.8799 41.5273C98.83 41.5202 98.7792 41.5229 98.7304 41.5354C98.6815 41.5479 98.6357 41.57 98.5954 41.6002C98.5551 41.6305 98.5211 41.6684 98.4955 41.7118C98.4699 41.7552 98.453 41.8032 98.446 41.8531C98.3707 42.4302 98.1327 42.9739 97.7598 43.4208C97.387 43.8676 96.8946 44.1991 96.3403 44.3765C96.2453 44.4067 96.1658 44.4728 96.1187 44.5607C96.0716 44.6485 96.0606 44.7513 96.088 44.8472C96.1155 44.943 96.1792 45.0244 96.2656 45.0741C96.3521 45.1238 96.4545 45.1378 96.5511 45.1131C97.247 44.8938 97.8661 44.481 98.3361 43.9228C98.806 43.3647 99.1073 42.6843 99.2049 41.9612C99.212 41.9113 99.2093 41.8606 99.1968 41.8118C99.1844 41.763 99.1624 41.7172 99.1322 41.6769C99.1021 41.6366 99.0642 41.6027 99.0209 41.577C98.9776 41.5513 98.9297 41.5345 98.8799 41.5273Z" fill="#3D7BFF"/>
<path d="M95.8968 36.4327C96.6518 36.1141 97.4892 36.0469 98.2853 36.2411C98.3847 36.2631 98.4887 36.2448 98.5745 36.1902C98.6603 36.1356 98.7209 36.0491 98.743 35.9498C98.765 35.8505 98.7467 35.7465 98.6921 35.6607C98.6375 35.5748 98.551 35.5142 98.4517 35.4922C97.5498 35.2606 96.5967 35.3333 95.7405 35.6991C95.6601 35.7348 95.5945 35.797 95.5545 35.8754C95.5146 35.9537 95.5028 36.0434 95.5211 36.1293C95.5394 36.2153 95.5868 36.2924 95.6552 36.3476C95.7236 36.4029 95.8089 36.4329 95.8968 36.4327Z" fill="#3D7BFF"/>
<path d="M92.0041 37.526C92.0546 37.5335 92.1061 37.5309 92.1556 37.5182C92.2051 37.5055 92.2516 37.4831 92.2923 37.4522C92.333 37.4213 92.3671 37.3826 92.3926 37.3383C92.4181 37.2941 92.4346 37.2452 92.4409 37.1945C92.4472 37.1438 92.4434 37.0923 92.4295 37.0431C92.4157 36.9939 92.3922 36.948 92.3603 36.9081C92.3285 36.8681 92.289 36.8349 92.2441 36.8104C92.1992 36.786 92.1499 36.7707 92.0991 36.7656C91.6541 36.7289 91.2079 36.8226 90.8152 37.0352C90.4225 37.2478 90.1002 37.5702 89.8877 37.9629C89.8625 38.0066 89.8462 38.0548 89.8397 38.1048C89.8331 38.1548 89.8365 38.2056 89.8496 38.2543C89.8627 38.303 89.8853 38.3486 89.916 38.3886C89.9467 38.4285 89.985 38.4621 90.0287 38.4872C90.0724 38.5124 90.1206 38.5287 90.1706 38.5352C90.2206 38.5418 90.2714 38.5384 90.3201 38.5253C90.3688 38.5122 90.4144 38.4896 90.4544 38.4589C90.4943 38.4282 90.5279 38.3899 90.553 38.3462C90.6905 38.0845 90.9005 37.868 91.1578 37.7225C91.4152 37.5771 91.709 37.5089 92.0041 37.526Z" fill="#3D7BFF"/>
<path d="M91.7633 38.3132C91.108 38.4834 91.4146 39.8463 91.8216 40.1398C92.2286 40.4334 92.5659 39.9306 92.5774 39.4998C92.5889 39.069 92.3451 38.1645 91.7633 38.3132Z" fill="#3D7BFF"/>
<path d="M97.2404 36.9465C96.585 37.1166 96.8916 38.4795 97.2987 38.7731C97.7057 39.0667 98.043 38.5638 98.0544 38.1331C98.0659 37.7023 97.8184 36.7955 97.2404 36.9465Z" fill="#3D7BFF"/>
</g>
<defs>
<filter id="filter0_dd_61700_3333" x="-2.65479" y="-2.78125" width="161.31" height="161.312" filterUnits="userSpaceOnUse" color-interpolation-filters="sRGB">
<feFlood flood-opacity="0" result="BackgroundImageFix"/>
<feColorMatrix in="SourceAlpha" type="matrix" values="0 0 0 0 0 0 0 0 0 0 0 0 0 0 0 0 0 0 127 0" result="hardAlpha"/>
<feMorphology radius="1" operator="dilate" in="SourceAlpha" result="effect1_dropShadow_61700_3333"/>
<feOffset dy="1"/>
<feGaussianBlur stdDeviation="1.5"/>
<feColorMatrix type="matrix" values="0 0 0 0 0 0 0 0 0 0 0 0 0 0 0 0 0 0 0.15 0"/>
<feBlend mode="normal" in2="BackgroundImageFix" result="effect1_dropShadow_61700_3333"/>
<feColorMatrix in="SourceAlpha" type="matrix" values="0 0 0 0 0 0 0 0 0 0 0 0 0 0 0 0 0 0 127 0" result="hardAlpha"/>
<feOffset dy="1"/>
<feGaussianBlur stdDeviation="1"/>
<feColorMatrix type="matrix" values="0 0 0 0 0 0 0 0 0 0 0 0 0 0 0 0 0 0 0.3 0"/>
<feBlend mode="normal" in2="effect1_dropShadow_61700_3333" result="effect2_dropShadow_61700_3333"/>
<feBlend mode="normal" in="SourceGraphic" in2="effect2_dropShadow_61700_3333" result="shape"/>
</filter>
</defs>
</svg>
