<svg width="140" height="147" viewBox="0 0 140 147" fill="none" xmlns="http://www.w3.org/2000/svg">
<path d="M49.2681 133.453C32.4861 134.309 4.75535 136.358 4.69632 137.643C4.63807 138.906 9.41061 136.839 41.6456 134.92C43.7651 134.794 45.9175 134.682 48.0899 134.581C48.4104 134.26 48.7936 133.895 49.2681 133.453Z" fill="#3D7BFF"/>
<path d="M86.0098 132.797C86.2244 133.059 86.4467 133.333 86.6866 133.639C86.7365 133.703 86.7778 133.759 86.8269 133.822C111.961 133.85 132.532 134.669 133.012 134.444C135.707 133.177 109.27 132.772 86.0098 132.798V132.797Z" fill="#3D7BFF"/>
<path d="M119.838 34.936C119.7 34.9238 119.521 34.9054 119.32 34.8839C119.514 37.3944 119.672 40.2981 119.814 43.1649C119.651 53.0504 121.01 96.8542 117.979 97.2965C109.748 98.4985 80.3334 99.7395 76.6662 99.9396C60.2344 100.836 29.1101 100.917 12.5166 99.4934C7.38227 99.0527 7.91962 99.3531 7.79928 96.149C5.6997 40.3141 8.5206 30.0071 8.53516 29.2191C8.55203 28.2939 8.76896 26.4135 9.10624 25.5305C9.23886 25.1832 9.44199 24.9073 9.88046 24.8482C11.0127 24.6965 9.85516 24.3852 19.168 23.6562C39.9683 22.0258 72.2723 20.1416 97.5716 21.7238C97.0656 19.5552 97.0143 17.287 97.4136 15.0686C65.9406 13.3998 13.3936 15.0257 4.99294 19.6464C3.40234 20.5211 3.05433 21.7445 2.56221 23.1013C-1.52656 34.3841 0.101595 100.513 2.64269 111.627C3.21607 114.136 3.53649 115.49 4.98527 116.547C6.73684 117.825 11.7892 118.479 12.7466 118.518C13.4173 118.545 15.7706 119.049 18.6023 119.415C20.8835 119.709 24.6189 119.895 24.7247 119.909C31.8076 120.786 40.2243 120.823 53.4397 121.003C53.8314 121.008 53.7915 120.961 53.6535 122.793C53.1307 129.723 53.5945 129.837 52.7551 130.262C47.1225 135.402 47.7595 134.745 45.1073 138.188C44.3407 139.184 43.3672 140.631 43.4316 141.782C43.4676 142.423 43.5335 144.498 43.798 145.043C44.8183 147.141 63.263 146.379 65.8762 146.202C71.5265 145.818 84.7441 145.757 89.6784 144.635C90.1452 144.528 90.4242 144.261 90.5806 143.821C90.8665 143.017 91.1157 140.57 90.7201 139.815C89.9589 138.359 88.8973 136.462 86.685 133.638C81.2157 126.658 82.3885 131.738 81.6288 126.146C80.8393 120.331 80.8907 120.634 81.1605 120.639C80.9872 120.645 108.339 119.371 119.191 116.758C121.027 116.315 122.771 115.861 123.779 113.947C127.589 106.711 128.067 55.593 126.656 34.1266C124.914 34.598 124.585 34.6087 119.837 34.936H119.838ZM82.1754 134.046C82.3969 134.667 82.5472 134.683 82.7886 134.662C83.4402 134.607 82.8983 133.288 82.3034 130.368C84.9503 132.68 87.831 136.978 89.5787 139.475C90.218 140.389 88.5148 140.272 77.8766 140.936C77.7294 140.945 49.7917 142.241 45.489 141.663C43.601 141.409 43.5205 141.752 48.1045 135.951C49.4214 134.284 52.4508 131.521 53.0756 131.115C53.3668 130.927 53.0894 131.423 52.9322 134.81C52.9107 135.279 53.3193 135.67 53.4427 135.353C54.4193 132.847 54.8126 123.686 54.6868 123.686C54.6868 120.985 54.5903 121.006 54.9191 121.005C66.3698 120.977 55.6834 121.425 74.8495 120.89C79.6297 120.757 77.9824 120.854 79.6297 120.725C79.8543 120.708 79.7815 120.852 79.8689 121.755C80.3717 126.95 81.6733 132.633 82.1762 134.045L82.1754 134.046ZM123.078 112.956C122.215 115.166 120.773 115.468 114.359 116.802C110.377 117.631 85.7054 119.352 85.687 119.353C83.2118 119.572 63.8471 120.082 63.8463 120.055C29.3646 120.055 22.5025 118.528 15.4035 117.696C7.37001 116.754 5.05273 116.802 4.11907 113.208C3.67524 111.498 2.94625 108.605 2.90562 106.84C2.88416 105.872 2.69559 105.506 2.98687 105.624C6.41489 106.999 56.1785 107.382 78.8938 106.59C90.6795 106.179 87.8931 105.985 97.8368 105.57C118.649 104.7 122.061 103.41 124.688 103.405C124.753 105.987 123.867 110.931 123.076 112.956L123.078 112.956Z" fill="#3D7BFF"/>
<path d="M83.7337 44.5123C83.4041 41.0774 82.206 34.9044 77.8926 31.7102C78.1578 31.1529 77.9317 30.4776 77.3806 30.1939C75.4297 29.1913 68.5507 26.0454 61.9859 27.6521C55.7822 29.1698 51.6613 32.8999 50.1772 34.433C49.7158 34.9105 49.7533 35.6748 50.2539 36.1056C50.3236 36.1654 50.3972 36.2282 50.4724 36.2926C48.5077 39.6716 48.1428 43.9505 49.3087 49.7325C49.3869 50.1196 49.4114 50.2461 49.5594 50.3235C49.728 50.4125 49.9181 50.3121 50.168 50.2032C50.5145 50.053 50.4999 49.9134 50.4049 49.5325C49.4958 45.8668 49.518 40.281 51.3478 37.0231C51.9066 37.4739 52.5558 37.3704 52.9475 36.9611C54.2192 35.6319 57.7814 32.4376 63.3734 31.4741C68.9907 30.5067 73.9472 32.4576 75.8168 33.3406C76.3871 33.6089 77.0532 33.3797 77.3353 32.8178L77.3507 32.7872C80.5073 35.3835 82.4214 40.5477 82.462 44.2157C82.4697 44.8374 82.8192 44.786 83.5582 44.7208C83.6632 44.7116 83.7422 44.6181 83.7322 44.5116L83.7337 44.5123ZM76.1456 32.6484C74.2101 31.7339 69.0796 29.7149 63.2446 30.7198C57.428 31.7217 53.7195 35.0485 52.3949 36.4321C52.2584 36.5747 52.0323 36.59 51.879 36.4659C51.5317 36.1868 51.0986 35.8197 50.7544 35.5238C50.5866 35.3797 50.5743 35.1244 50.7291 34.965C54.5036 31.0655 60.4513 27.9671 65.8785 27.9671C70.9047 27.9671 75.5102 30.0935 77.031 30.8746C77.2173 30.9705 77.2924 31.2004 77.1981 31.3867L76.6531 32.4729C76.5588 32.6599 76.3373 32.7366 76.1464 32.6469L76.1456 32.6484Z" fill="#3D7BFF"/>
<path d="M30.4417 68.8517C30.3274 69.4189 29.9081 69.3346 29.7809 68.9337C29.2052 67.1216 29.4612 66.4547 27.8017 65.219C27.6231 65.0864 26.7799 64.4448 26.6779 64.2202C26.5499 63.9388 26.8596 63.6583 27.0903 63.7656C29.3662 64.8288 30.9361 66.388 30.4417 68.8517Z" fill="#3D7BFF"/>
<path d="M78.6292 48.6276C78.4414 52.5999 78.4667 52.997 74.8133 53.8425C70.4325 54.8559 70.7092 54.2557 69.8607 52.1047C69.1079 50.1952 69.4031 49.6487 68.9638 49.4816C68.6503 49.3628 68.7078 49.0623 67.8086 48.9864C65.959 48.8308 65.4676 49.3237 64.3239 50.3892C64.1913 50.5126 64.248 51.3612 64.2595 51.4723C64.4159 52.9901 64.2963 53.6531 64.2404 54.5446C64.1491 55.9888 62.5601 56.2809 61.0216 56.4457C58.1976 56.7485 56.9804 57.5311 55.7845 54.1943C55.3568 53.0016 54.1457 49.8526 55.2395 49.2141C56.8079 48.2988 61.4049 47.2823 61.5912 47.2524C64.8459 46.7381 63.7053 49.1512 64.3316 48.6376C66.7899 46.6231 68.2693 47.9416 68.5645 47.7844C68.717 47.7032 68.195 46.3257 69.6292 45.7814C70.4739 45.461 70.979 45.3514 74.5465 44.8302C78.5648 44.243 78.4544 44.8899 78.6292 48.6276ZM77.3368 48.5755C77.208 45.4074 77.6112 45.7906 75.1445 46.0237C75.1261 46.0252 70.8288 46.5986 70.2454 46.8316C69.8423 46.9926 69.9389 47.2586 70.1511 48.101C70.769 50.5501 71.304 53.1771 72.2155 53.0092C75.9723 52.3178 75.6841 52.2818 76.4706 52.0327C77.1536 51.8157 77.0915 51.2492 77.3368 48.5755ZM62.9388 52.1791C62.9119 51.1404 63.0698 51.4861 62.6666 48.6775C62.603 48.2329 62.2381 48.1049 56.387 49.8993C55.9363 50.0373 55.7531 50.0856 55.9562 50.7763C57.3391 55.4745 57.5959 55.7543 59.3551 55.3909C63.194 54.5968 63.0284 55.6546 62.9388 52.1791Z" fill="#3D7BFF"/>
<path d="M71.7858 66.0783C71.046 67.5063 69.4256 67.8199 68.8591 67.468C68.4575 67.2181 68.7886 66.9629 69.2447 66.8854C71.2423 66.5466 71.7474 64.1159 71.5864 62.096C71.0499 62.5452 69.6188 64.3458 67.0432 63.9081C66.6461 63.8407 66.2368 63.1493 67.4334 63.1838C68.7787 63.2229 70.222 62.5023 70.8628 61.2705C71.2139 60.5951 71.23 60.2141 71.7505 60.139C73.0644 59.9489 72.7715 64.1741 71.7858 66.0783Z" fill="#3D7BFF"/>
<path d="M66.6466 51.0022C67.2452 51.118 66.5507 52.1137 66.468 55.0205C66.4496 55.6774 66.5469 56.3351 66.7439 56.9591C67.5066 59.376 70.3658 56.6793 71.2427 56.8226C72.8862 57.0909 66.7692 61.7209 65.5634 57.2128C65.1342 55.6084 65.9298 50.8642 66.6473 51.003L66.6466 51.0022Z" fill="#3D7BFF"/>
<path d="M73.1974 41.3064C73.4772 41.8369 72.798 42.1128 72.3879 42.0001C71.3201 41.7058 70.3389 41.4727 69.3732 41.6199C68.9539 41.6835 68.4832 41.2489 68.8198 40.815C69.4729 39.9726 72.6999 40.3635 73.1974 41.3064Z" fill="#3D7BFF"/>
<path d="M59.6933 42.0336C60.4629 41.9907 60.5611 42.5464 60.1027 42.8983C59.3208 43.4985 58.8287 43.4065 57.708 44.6345C57.4259 44.9442 57.1951 45.204 56.828 44.9848C55.8146 44.3792 57.9847 42.1286 59.6933 42.0336Z" fill="#3D7BFF"/>
<path d="M73.8508 49.6463C73.8423 48.6989 72.8772 48.3539 72.3728 49.1006C72.0471 49.5789 72.3268 50.5953 73.0604 50.5953C73.515 50.5953 73.9136 50.1676 73.8508 49.6463Z" fill="#3D7BFF"/>
<path d="M59.9388 51.2916C59.7801 51.6596 59.9081 52.3357 60.1833 52.5825C60.4938 52.8615 61.0189 52.847 61.2289 52.4453C61.9219 51.123 60.3719 50.2783 59.9388 51.2916Z" fill="#3D7BFF"/>
<path d="M112.471 90.4688L111.9 91.2154C115.222 94.0087 116.54 95.771 117.099 95.4621C117.772 95.091 114.978 92.5591 112.471 90.4688Z" fill="#3D7BFF"/>
<path d="M102.38 83.4491C91.7035 77.68 81.5828 76.5946 81.2969 73.9975C81.2946 73.9783 81.0094 72.5265 80.9542 71.5514C80.8277 69.3039 81.0976 69.3476 81.6004 65.0381C81.6165 64.9016 82.0941 60.8519 82.1822 60.7469C82.1876 60.7408 83.4915 60.4503 83.7659 60.379C84.2956 60.2418 84.8061 60.0302 85.3672 60.0202C85.5114 60.0172 85.6585 59.9336 85.795 59.8685C88.9033 58.3875 88.5392 57.184 88.4143 53.3037C88.4143 53.2853 88.0647 49.9232 87.9858 49.5775C87.683 48.2591 87.4308 46.9912 86.642 46.0184C85.6079 44.7421 84.9364 44.4884 84.2657 44.345C83.7061 44.2255 82.0795 43.9894 81.5276 44.1388C80.5227 44.411 81.6449 41.5103 78.5664 37.4147C75.2818 33.0446 70.7047 32.869 67.5312 32.4635C67.3396 32.439 67.1388 32.5087 66.941 32.5172C66.5907 32.5333 66.4052 32.2972 66.3661 32.0925C65.7145 28.6476 66.0495 28.6131 65.9314 27.1483C65.8824 26.5389 65.2829 26.6032 64.8391 27.0241C63.3965 28.3924 63.5835 28.3012 62.7518 29.658C62.3064 30.3846 62.3233 30.124 62.3724 26.5649C62.3823 25.8482 61.8166 25.7018 61.4448 26.0161C60.9887 26.4016 60.4997 26.7512 60.0666 27.1605C59.1521 28.0237 57.9716 29.451 57.7815 30.991C57.6703 31.894 57.4465 33.1327 57.8919 34.4412C58.1226 35.1189 57.9846 34.5554 55.9993 36.0165C54.7406 36.9432 53.2772 38.7676 53.0787 39.0543C48.8244 45.1883 52.1098 48.6416 51.2827 48.9252C49.9213 49.3928 49.3624 49.5928 48.6051 49.9792C46.2449 51.1819 46.0517 54.288 46.6228 56.9157C47.0651 58.9509 47.6699 61.7749 48.5453 63.4804C50.3061 66.9115 55.5531 64.2631 56.0238 65.2136C57.3346 67.8597 58.2966 69.3775 60.6568 71.1528C60.9972 71.4089 61.2954 71.7277 61.7115 71.8788C61.8273 71.9209 61.8312 72.0167 61.7875 72.144C60.6898 75.3482 61.3145 75.1358 60.5104 75.2753C53.186 76.5486 38.5633 81.177 33.5217 84.3306C30.3612 86.3083 30.4164 86.3535 30.4425 86.1212C30.6027 84.72 31.6268 78.8383 32.4677 76.3247C32.5045 76.2144 33.5708 73.083 33.8989 72.7787C37.6603 69.287 37.3483 70.1303 39.6365 64.2585C40.7319 61.4475 41.0308 61.0773 40.9703 60.4096C40.886 59.479 39.8473 59.6576 39.2111 60.3406C37.7454 61.9136 37.5124 62.9423 36.87 63.968C36.7144 64.2163 36.5435 64.1995 36.0015 64.2784C35.6834 64.3252 35.8497 64.017 35.77 63.5111C35.1269 59.4216 36.9643 58.0333 38.0727 52.6636C38.236 51.8749 37.1375 50.7434 36.1234 52.2328C33.5531 56.0058 32.8502 60.1367 32.3221 59.5626C32.2646 59.4997 32.2048 59.4108 32.2025 59.3319C32.1764 58.3223 32.4899 55.5566 32.4938 55.5374C32.6226 54.9449 32.8288 50.7143 32.3796 49.9554C31.8361 49.0356 30.8986 49.3943 30.5682 50.3349C29.2551 54.0764 29.6982 53.2386 28.8795 58.1238C28.8488 58.307 28.7906 58.3515 28.5606 58.3783C28.4065 58.3959 28.2808 58.3744 28.2394 58.2012C27.1387 53.6494 27.778 52.0443 26.5729 51.1482C26.0755 50.7787 25.3587 50.909 25.1686 51.5253C24.5056 53.6732 24.9762 55.112 25.266 58.2487C25.394 59.6377 25.3894 59.6255 25.2315 59.7013C24.872 59.8738 24.8796 59.6255 22.015 55.1074C21.3228 54.0158 20.5072 54.1439 20.2351 54.7517C19.7054 55.9314 21.8472 60.2908 22.5547 61.2659C22.9556 61.8186 22.8935 62.1543 23.0614 63.9779C23.5665 69.4856 25.6569 70.9597 25.4453 71.4357C25.279 71.8098 25.2184 72.2245 24.9701 72.5686C22.6014 75.8487 23.5489 75.1711 18.6621 79.7842C16.581 81.7488 11.941 85.705 9.93114 89.2664C9.67665 89.7164 10.0216 89.9992 10.4424 89.6788C10.49 89.6428 11.327 88.8111 11.6704 88.4278C19.6939 79.476 22.4972 79.4093 26.2418 71.7753C26.5683 71.1091 26.2771 70.5181 25.8532 69.9026C24.3768 67.7593 24.2848 65.4229 24.1522 64.5053C23.6524 61.0497 22.6099 60.1337 20.9166 55.7245C20.7004 55.1611 21.04 54.8935 21.1787 55.0561C21.7444 55.7237 21.2577 55.0078 22.9924 57.8678C24.7761 60.8082 24.6474 60.8243 25.8371 60.2732C26.9041 59.7788 25.1234 54.0956 25.8056 51.7798C25.8853 51.5108 25.9574 51.4916 26.1897 51.6288C27.1425 52.1907 26.9325 56.8038 27.6277 58.7577C27.7504 59.1027 28.1114 59.1946 28.4656 59.1648C28.704 59.1448 28.9354 59.0413 29.1685 58.9693C29.3402 58.9164 29.4605 58.8022 29.5127 58.6282C30.0232 56.9218 30.6495 50.1187 31.541 50.4452C32.4347 50.7726 31.7924 54.0557 31.4543 58.0563C31.2819 60.0999 31.2167 60.1605 32.703 60.4196C33.2005 60.5062 33.3722 59.1755 36.3679 53.1933C36.7044 52.5211 37.2019 52.2811 37.1966 53.0339C37.1866 54.4344 34.6393 59.0015 34.7014 62.2578C34.703 62.3559 34.693 62.2601 35.0426 64.2876C35.1307 64.7966 34.8578 64.2401 32.7697 65.997C31.764 66.8433 31.8046 67.5884 32.2278 67.3247C32.6831 67.0418 33.1499 66.7728 33.5761 66.4508C36.2568 64.4264 36.9835 65.7195 37.6335 64.4141C38.6308 62.4111 38.9152 62.0524 39.9738 60.7553C40.0106 60.7101 40.1056 60.7117 40.1731 60.6917C40.3026 61.1386 39.4525 62.7576 38.8853 64.3114C36.3388 71.2839 33.5294 70.8355 32.6678 73.3306C31.7579 75.966 31.2052 77.2714 29.8032 84.4655C29.7986 84.487 27.1371 98.8192 27.1287 99.1189C27.1126 99.6654 27.5265 99.8187 27.7642 99.2584C28.1091 98.4435 28.8611 95.0401 29.0052 94.387C29.8331 90.6316 29.9427 87.6413 30.408 87.2603C34.9981 83.5012 48.6366 79.384 54.3788 77.6171C54.9069 77.4546 54.5857 77.7605 55.5186 79.1364C60.5878 86.6134 65.2255 88.7467 70.1995 91.1391C70.6365 91.3491 71.3716 91.6603 72.1113 91.1981C73.5631 90.2905 76.8034 87.3163 79.3015 85.2842C85.6271 80.1399 85.5152 77.6953 86.1476 77.9054C91.8822 79.8064 96.726 81.5825 101.564 84.211L102.379 83.4483L102.38 83.4491ZM84.5654 45.4266C87.9007 47.0333 87.2315 55.2577 87.5282 55.2883C87.3189 57.1587 87.4553 58.2004 85.8939 58.7156C85.6309 58.8022 86.1683 58.5883 85.4807 52.5303C85.1756 49.8412 85.2699 48.5994 84.7088 46.6478C84.465 45.8007 83.8648 45.0894 84.5654 45.4266ZM82.173 45.199C83.6502 45.2595 84.0825 46.6355 84.8 56.2687C84.8353 56.7463 84.7785 57.2369 84.8238 57.2369C84.8238 59.0475 84.8322 58.9478 82.4022 59.548C82.2673 59.581 82.2328 59.5243 82.2374 59.4154C82.9089 44.0944 79.3023 45.0817 82.173 45.199ZM49.0926 62.1735C47.9965 59.2782 46.0571 52.055 48.7692 51.0286C48.7753 51.1842 48.7937 51.0332 48.6917 51.6058C48.2586 54.0396 51.4644 64.224 51.4651 64.2424C50.1022 64.1964 49.6446 63.6322 49.0926 62.1735ZM53.741 64.0845C52.0876 64.3229 51.9795 62.6733 51.0336 58.7585C49.1095 50.7925 49.0191 50.5679 51.9243 49.8719C52.4041 49.7569 52.2485 49.7423 52.4133 50.8546C53.7042 59.5595 54.5873 60.819 55.3707 63.6797C55.4581 63.9994 55.3431 63.853 53.741 64.0845ZM84.7325 77.703C80.124 83.4567 77.3177 86.007 71.3946 90.3955C71.2367 90.5128 71.1071 90.5312 70.9323 90.4484C63.0469 86.7414 60.4851 84.175 56.5274 78.8728C55.2933 77.2193 55.3462 77.3535 55.754 77.2515C59.343 76.3516 61.142 76.3109 61.4034 75.9085C61.8235 75.2638 62.3868 73.9745 62.5947 73.4318C62.7563 73.0087 62.8338 72.5526 62.9335 72.108C62.9956 71.8297 62.902 71.6105 62.6621 71.4303C57.1069 67.2687 55.8467 62.7177 53.5946 52.7878C52.4133 47.5776 53.4589 44.3849 55.5968 41.7579C56.8264 40.2478 57.7087 39.4031 59.2885 38.4066C60.3356 37.7458 60.42 37.558 60.7059 37.6377C62.659 38.182 65.1634 37.3181 66.9249 36.3139C67.6018 35.9283 70.05 36.2963 70.8005 36.5048C76.9015 38.1988 79.4594 42.4064 80.6499 47.8919C82.0366 54.2803 81.2746 58.2142 80.876 61.7266C80.2536 67.2043 79.461 67.9862 79.7638 71.9945C80.0528 75.8211 80.8431 75.9844 82.6107 76.6643C84.7801 77.4991 85.0116 77.3542 84.7318 77.7022L84.7325 77.703Z" fill="#3D7BFF"/>
<path d="M39.4201 85.0105C33.4495 86.6455 31.9386 94.2244 36.8346 97.8395C40.8375 100.795 46.8235 98.9678 48.4041 94.3662C50.4178 88.5036 45.0857 83.459 39.4201 85.0105ZM42.1659 98.3086C33.4533 99.0015 32.0099 87.534 39.9912 85.6812C42.7929 85.0304 46.2463 86.3136 47.6743 89.7401C49.2987 93.6365 46.2325 97.9851 42.1659 98.3086Z" fill="#3D7BFF"/>
<path d="M86.2693 83.5423C82.7018 84.0544 79.7813 87.3536 80.061 91.3504C80.5555 98.4172 90.1688 100.436 93.8835 94.4036C96.9803 89.3758 93.1805 82.5504 86.2693 83.5423ZM89.0496 96.8788C84.3913 98.0125 80.3309 94.0831 80.8575 89.9867C81.3565 86.1003 85.1808 83.5554 88.9691 84.3924C95.9424 85.9332 95.9064 95.21 89.0496 96.8788Z" fill="#3D7BFF"/>
<path d="M111.857 86.0223C107.685 79.2637 96.6647 83.2712 98.138 91.3192C99.6443 99.5466 112.552 99.1894 112.928 89.6573C112.814 88.5949 112.783 87.5232 111.857 86.0223ZM106.476 96.186C102.475 96.8721 98.6914 93.5008 98.7665 90.1487C98.9245 83.078 108 81.0658 111.271 86.6356C113.725 90.8133 110.967 95.4164 106.476 96.186Z" fill="#3D7BFF"/>
<path d="M35.6719 92.3601C35.7309 93.4317 35.7846 94.176 36.8003 94.5363C37.8689 94.9157 39.4242 94.5624 39.7438 93.5191C40.0022 92.6767 39.5093 92.472 39.9301 92.2918C40.2643 92.1485 40.6806 91.9185 41.7537 91.894C43.0745 92.0442 43.2355 91.9722 43.2378 92.472C43.2416 93.2707 43.0998 93.6793 43.6923 94.0488C44.2343 94.3868 45.2247 94.4934 46.2526 94.0311C47.2882 93.5658 47.8417 91.3689 46.1882 90.1378C42.5525 87.4304 35.5102 89.4295 35.6727 92.3593L35.6719 92.3601ZM46.4626 92.4214C46.3339 93.3275 45.3626 93.3466 44.5079 93.3014C43.4884 93.2477 45.5052 91.0684 41.7346 91.0071C40.9496 90.9941 39.4847 91.2432 39.0325 91.9676C38.86 92.2435 38.9068 92.7755 38.9206 93.0883C38.952 93.8219 37.7416 93.851 37.0463 93.6164C36.4776 93.4248 36.0759 92.4796 36.8363 91.2056C36.8953 91.1068 37.8758 90.3371 38.4882 90.1685C39.8726 89.7883 41.1006 89.5599 43.2976 89.7431C44.8859 89.8757 46.6849 90.8546 46.4626 92.4214Z" fill="#3D7BFF"/>
<path d="M90.5956 89.5439C90.2606 89.4198 89.9977 89.8897 90.0115 90.1419C90.0951 91.6711 90.1334 91.1897 89.9556 92.0866C89.6811 93.4725 87.613 93.0333 87.0925 93.1575C86.5659 93.2832 86.099 93.1245 85.6238 92.9566C84.5031 92.5611 84.904 89.9088 84.4648 89.7456C84.162 89.6336 83.8477 89.872 83.8577 90.22C83.863 90.417 83.9052 90.6133 83.9282 90.8095C84.139 92.6492 84.0117 93.9439 86.6517 94.108C86.9576 94.1272 86.9599 94.0927 86.9714 94.3701C86.9852 94.7097 87.0526 94.8876 86.8035 94.8868C86.1366 94.8845 85.7181 94.8377 85.1777 95.0547C84.94 95.1497 84.8894 95.5644 85.2022 95.6488C85.5724 95.7484 85.485 95.7269 87.4926 95.7269C87.4926 95.6365 89.4964 95.8971 89.9433 95.5575C90.3327 95.2616 89.931 94.8638 89.5393 94.8699C88.8525 94.8814 88.1979 94.8975 88.1917 94.8071C88.1419 94.0474 88.1902 94.0727 88.3366 94.039C90.2951 93.5906 91.0786 93.31 90.8639 89.8858C90.8532 89.7088 90.7397 89.5961 90.5972 89.5432L90.5956 89.5439Z" fill="#3D7BFF"/>
<path d="M86.5896 92.4505C90.2905 93.6218 89.0264 89.221 89.3032 89.2203C89.3032 87.4495 89.3476 87.3353 89.1062 86.532C88.8141 85.5608 87.3546 85.2848 86.5965 85.6849C85.5969 86.2123 85.6383 86.8815 85.6176 89.6787C85.6076 91.0516 85.5716 92.1286 86.5903 92.4513L86.5896 92.4505ZM87.1392 86.3242C88.4178 86.1234 88.3864 86.8532 88.5665 88.7856C88.4117 91.5559 88.568 91.7131 87.5332 91.7422C86.063 91.7836 86.6724 91.0347 86.4301 88.4683C86.3542 87.6665 86.3435 86.4492 87.1392 86.3242Z" fill="#3D7BFF"/>
<path d="M110.423 87.8491C109.996 87.4405 109.638 87.8621 108.502 88.7253C108.13 89.0073 108.44 88.0001 107.573 87.6927C107.441 87.6452 107.522 87.5716 107.549 87.5156C107.754 87.081 107.878 86.6525 107.761 86.1504C107.186 83.6653 103.646 85.0903 104.69 87.3846C104.777 87.5754 104.77 87.5785 104.584 87.6015C104.111 87.6597 104.105 87.6575 104.249 87.2129C104.525 86.3597 104.104 85.3885 103.083 85.1133C102.115 84.8526 101.096 85.7196 101.076 86.7989C101.059 87.7395 101.725 87.8338 101.299 88.0001C100.966 88.1304 100.705 88.2929 100.638 88.6417C100.424 89.7386 100.586 92.0927 100.747 92.5166C100.884 92.88 101.12 93.1774 101.524 93.2157C102.252 93.2855 102.981 93.3997 103.718 93.2479C104.049 93.1797 108.02 93.6089 108.21 92.6799C108.44 91.5508 108.378 91.6197 108.618 91.7462C110.962 92.9781 110.693 93.0164 110.693 90.4025C110.711 90.4025 110.788 88.1979 110.423 87.8491ZM106.165 85.4728C106.633 85.4682 107.09 85.9434 107.094 86.4371C107.097 86.9162 106.655 87.3999 106.207 87.3715C104.691 87.2749 105.198 85.4827 106.165 85.4728ZM103.551 86.6947C103.566 87.6743 101.82 87.8958 101.82 86.6747C101.82 85.5011 103.53 85.3984 103.551 86.6947ZM107.475 91.3737C107.459 92.2154 107.541 92.2184 106.909 92.3449C106.703 92.3863 102.74 92.4576 101.909 92.3886C101.412 92.3472 101.416 91.5967 101.378 90.6332C101.311 88.933 101.292 88.7812 101.807 88.6087C102.536 88.3642 105.046 88.4041 105.046 88.4225C107.498 88.4225 107.297 88.332 107.433 88.8218C107.656 89.6244 107.504 89.7425 107.475 91.3729V91.3737ZM109.957 90.6424C109.957 91.7815 110.152 91.7263 108.748 90.9628C108.397 90.7719 108.345 90.6033 108.357 90.1901C108.367 89.8459 108.485 89.6244 108.777 89.4466C109.461 89.0303 109.825 88.4623 109.861 88.9989C109.971 90.6409 109.987 90.6401 109.957 90.6424Z" fill="#3D7BFF"/>
<path d="M133.439 5.11674C128.063 1.08699 118.161 0.0237865 111.62 1.41814C94.1443 5.14511 92.1827 25.8182 105.466 32.5516C106.881 33.2691 106.948 33.1694 106.855 33.4162C106.396 34.6435 104.174 39.6759 103.256 40.8357C101.616 42.9069 110.013 41.4903 115.118 35.4323C115.616 34.8405 118.509 35.2644 119.505 35.3502C124.7 34.9923 124.599 35.0153 126.855 34.3959C140.396 30.6781 144.782 13.6185 133.438 5.11598L133.439 5.11674ZM126.874 32.8199C123.567 33.6945 124.845 33.5672 120.933 33.9827C115.745 34.5339 115.708 33.5902 114.692 34.5492C112.315 36.7929 111.511 37.4123 108.293 39.1309C107.229 39.6996 105.308 40.4233 104.704 40.4294C104.902 39.9365 105.345 39.7824 107.1 35.6032C108.546 32.1583 108.122 32.8298 105.95 31.4071C103.201 29.6057 100.931 27.9722 99.2909 24.2782C96.1143 17.124 98.4178 3.93242 115.668 2.54037C116.6 2.46525 117.534 2.42922 118.468 2.37556C118.475 2.56873 120.668 2.27438 123.309 2.83702C124.751 3.14364 124.039 2.81709 125.644 3.25709C127.64 3.80441 130.388 4.44295 133.166 6.77326C143.019 15.0405 138.748 29.6808 126.875 32.8206L126.874 32.8199Z" fill="#3D7BFF"/>
<path d="M117.946 17.125C116.636 17.1197 115.83 18.3791 115.841 19.3135C115.871 22.0647 119.999 22.2095 120.074 19.174C120.104 17.9491 119.151 17.1296 117.947 17.125H117.946Z" fill="#3D7BFF"/>
<path d="M109.787 17.01C108.62 16.948 107.631 18.1959 107.616 19.197C107.6 20.2924 108.577 21.3273 109.675 21.2782C112.225 21.4514 112.877 17.1748 109.787 17.01H109.787Z" fill="#3D7BFF"/>
<path d="M125.849 16.9043C124.72 16.8016 123.764 18.0756 123.765 19.092C123.766 20.1997 124.762 21.1648 125.851 21.1678C128.531 21.174 128.909 16.8537 125.848 16.905L125.849 16.9043Z" fill="#3D7BFF"/>
</svg>
