<svg width="120" height="147" viewBox="0 0 120 147" fill="none" xmlns="http://www.w3.org/2000/svg">
<path d="M73.3229 112.413C73.1803 111.678 72.8729 110.985 72.423 110.387C71.973 109.789 71.3927 109.302 70.7266 108.962C70.0604 108.621 69.3253 108.437 68.5772 108.423C67.829 108.409 67.087 108.565 66.4086 108.88C60.9791 111.037 63.3171 119.515 69.343 118.391C69.9991 118.264 70.6239 118.009 71.1804 117.639C71.7369 117.269 72.2144 116.792 72.5847 116.235C72.9557 115.679 73.2117 115.054 73.3382 114.398C73.4647 113.742 73.4593 113.067 73.3229 112.413ZM68.4714 117.721C62.3336 117.237 63.1055 109.205 68.2997 109.12C73.9614 109.027 74.2857 117.323 68.4714 117.721Z" fill="#3D7BFF"/>
<path d="M65.6901 113.428C65.6824 114.112 65.9415 114.771 66.413 115.267C66.8836 115.763 67.5291 116.056 68.2121 116.083C68.5647 116.1 68.9173 116.044 69.2477 115.919C69.5781 115.794 69.8793 115.603 70.133 115.357C70.386 115.111 70.5861 114.815 70.721 114.488C70.8559 114.162 70.9218 113.811 70.9157 113.458C70.9272 109.99 65.812 110.09 65.6901 113.428ZM67.1259 114.996C66.7464 114.726 66.4758 114.329 66.3624 113.877C66.2489 113.426 66.3003 112.948 66.5073 112.531C66.7142 112.113 67.063 111.784 67.4915 111.601C67.9192 111.417 68.3991 111.393 68.8437 111.532C69.2139 111.642 69.5428 111.86 69.7873 112.159C70.0326 112.458 70.1829 112.823 70.2181 113.208C70.2488 113.581 70.1729 113.955 69.9997 114.286C69.8264 114.617 69.5627 114.892 69.2392 115.079C68.9158 115.266 68.5455 115.358 68.1722 115.344C67.7981 115.328 67.4371 115.208 67.1289 114.996H67.1259Z" fill="#3D7BFF"/>
<path fill-rule="evenodd" clip-rule="evenodd" d="M59.0382 82.421C62.9507 83.403 66.6524 84.2462 69.9501 84.9154C71.2846 85.1867 72.5065 85.4144 73.6218 85.6221C83.3716 87.4396 84.956 87.7347 82.4847 102.124C82.4701 102.208 82.4487 102.34 82.4218 102.504C82.2938 103.288 82.0432 104.815 81.8439 105.526C81.7603 105.824 81.7404 106.048 81.7266 106.21C81.7028 106.474 81.6944 106.568 81.4499 106.531C80.1682 106.337 79.2989 106.23 78.5132 106.134C76.688 105.911 75.3098 105.743 70.2582 104.652C69.5714 104.503 68.8968 104.333 68.243 104.167C65.2059 103.399 62.6081 102.742 61.1907 104.929C60.5736 105.882 57.6975 115.568 58.3506 117.141C58.9071 118.483 59.5955 119.523 62.1067 120.472C66.9781 122.15 71.983 123.415 77.0667 124.251C77.1073 124.258 77.1388 124.26 77.1579 124.276C77.2331 124.341 77.1165 124.63 76.6007 126.312C76.3515 127.124 76.1131 127.905 75.8839 128.655C71.3567 143.471 70.3947 146.62 62.7261 145.1C61.9687 144.95 61.2275 144.805 60.4954 144.661C53.6748 143.324 47.6862 142.151 37.1448 138.715C24.4967 134.592 13.8294 129.784 7.4908 126.227C-0.265307 121.875 0.345173 117.265 2.12572 103.822C2.39539 101.786 2.69197 99.5457 2.99038 97.0744C2.99491 97.0361 2.98801 97.0046 3.00066 96.9885C3.05891 96.9119 3.5298 97.1518 7.41491 98.5209C8.66009 98.9601 9.13214 98.9701 9.4327 99.2023C9.92896 99.5856 9.95771 100.574 12.2258 105.097C12.8666 106.376 16.5844 113.315 18.1152 115.441C19.2068 116.956 25.6082 118.43 27.4134 118.827C27.847 118.922 27.8535 118.979 27.8693 119.118C27.8705 119.13 27.8718 119.14 27.8734 119.153C27.884 119.246 27.893 119.331 27.9015 119.412C27.9792 120.145 28.0197 120.528 28.9841 124.103C29.1733 124.804 29.3391 125.163 29.4319 125.365C29.5455 125.611 29.5498 125.62 29.3536 125.731L29.3381 125.74C28.5531 126.186 28.0762 126.457 27.914 127.43C27.8037 127.913 27.8448 128.419 28.0317 128.878C28.2185 129.337 28.542 129.727 28.9584 129.996C29.3748 130.265 29.8639 130.399 30.3592 130.381C30.8546 130.363 31.3322 130.192 31.7273 129.893C32.1224 129.593 32.4159 129.18 32.5679 128.708C32.7199 128.236 32.723 127.729 32.5769 127.255C32.4308 126.781 32.1425 126.364 31.7511 126.06C31.3597 125.756 30.8843 125.579 30.3892 125.555C30.2343 125.546 30.1302 125.541 30.0505 125.495C29.7158 125.3 29.8137 124.362 28.3839 119.21C28.2998 118.909 28.3535 118.776 28.3129 118.686C28.2056 118.447 27.438 118.503 21.7103 116.527C21.0344 116.294 20.5225 116.125 20.1312 115.996C18.9664 115.61 18.8697 115.579 18.6901 115.265C18.313 114.608 9.62334 99.2606 10.3523 99.4683C14.917 100.771 15.4573 100.837 15.65 101.132C15.6898 101.192 15.7148 101.263 15.7573 101.356C16.1268 102.167 18.4065 106.506 19.59 108.387C19.8323 108.773 20.0054 109.023 20.1215 109.192C20.3544 109.529 20.3573 109.533 20.2263 109.63C19.8681 109.906 19.5976 110.28 19.4477 110.706C19.2977 111.132 19.2747 111.593 19.3815 112.032C19.4884 112.471 19.7204 112.87 20.0494 113.18C20.3784 113.489 20.7903 113.697 21.235 113.778C24.3204 114.222 24.985 109.864 22.2247 109.233C21.0304 108.959 20.8341 109.391 20.6762 109.377C20.4476 109.357 20.2995 108.405 17.3187 103.03C16.6582 101.838 16.3345 101.375 16.4255 101.27C16.5093 101.172 16.9455 101.381 17.7948 101.605C21.6248 102.618 22.0192 102.551 22.1777 102.714C22.2176 102.755 22.2426 102.81 22.3036 102.901C23.4574 104.623 23.8096 105.162 24.1843 105.687C24.5593 106.21 24.9568 106.718 26.2023 108.376C26.32 108.533 26.4307 108.682 26.5362 108.824C27.2934 109.844 27.7815 110.502 28.6621 110.906C34.4451 113.573 35.6264 113.154 36.1688 113.57C36.4166 113.76 36.5311 114.124 36.8903 115.036C38.2171 118.404 38.6018 118.832 38.5178 118.966C38.4954 119.002 38.4397 119.017 38.3598 119.061C37.8425 119.362 37.4347 119.819 37.1957 120.368C36.9568 120.917 36.899 121.528 37.031 122.111C37.163 122.696 37.4779 123.222 37.9297 123.615C38.3815 124.007 38.9467 124.246 39.5432 124.295C40.1397 124.344 40.7364 124.201 41.2464 123.888C41.7564 123.575 42.153 123.107 42.3789 122.552C42.6047 121.998 42.6479 121.386 42.502 120.806C42.3561 120.226 42.0289 119.707 41.5678 119.325C41.224 119.032 40.8134 118.828 40.3723 118.732C39.9312 118.635 39.473 118.648 39.0382 118.77C38.9339 118.785 38.9085 118.692 38.8166 118.356C38.6655 117.803 38.3344 116.591 37.1754 114.12C37.0888 113.818 36.9262 113.543 36.703 113.321C36.4799 113.1 36.2036 112.939 35.9007 112.855C33.1876 111.886 32.1266 111.493 31.5713 111.288C31.0879 111.108 30.9876 111.072 30.5141 110.921C28.3954 110.251 28.2858 110.111 28.0696 109.811C27.1054 108.468 25.7889 106.678 24.6874 105.179C23.8729 104.072 23.1759 103.124 22.8256 102.635C22.4854 102.16 22.4641 102.154 20.4819 101.622C18.6732 101.137 15.2315 100.215 8.42446 98.0977C8.40529 98.0977 4.27206 96.8023 3.13526 96.3009C3.43537 93.7591 3.5078 93.7943 3.69714 93.8855C3.71332 93.8932 3.73041 93.9016 3.7485 93.9085C11.9084 97.0568 19.2562 98.8214 22.866 99.6883C23.9956 99.9597 24.7592 100.143 25.067 100.253C25.3514 100.355 26.4076 101.804 27.6034 103.444C28.5768 104.781 29.6429 106.242 30.4605 107.209C30.8963 107.723 31.1126 107.803 34.3815 109.004C34.6428 109.1 34.9235 109.204 35.2253 109.315C41.9156 111.778 42.6889 111.908 42.7032 112.096C42.706 112.134 42.6774 112.175 42.6609 112.238C42.5467 112.749 42.571 113.28 42.7311 113.778C42.8912 114.276 43.1814 114.721 43.5715 115.069C43.9618 115.417 44.4378 115.655 44.9506 115.758C45.4633 115.859 45.9942 115.823 46.488 115.652C46.982 115.48 47.4212 115.18 47.7601 114.782C48.099 114.384 48.3255 113.902 48.416 113.387C48.5065 112.872 48.4578 112.343 48.275 111.853C48.0921 111.363 47.7817 110.931 47.3759 110.601C46.8305 110.164 46.1492 109.932 45.4507 109.947C44.7521 109.961 44.0806 110.219 43.5531 110.678C42.9971 111.147 42.9724 111.444 42.8371 111.509C42.5313 111.655 41.6602 110.619 32.8115 107.741C32.1259 107.518 31.8106 107.509 31.543 107.392C30.952 107.133 30.5939 106.343 26.9926 101.532C26.4277 100.778 26.1602 100.361 25.793 100.067C25.0394 99.4645 23.8656 99.3878 18.8357 98.0165C18.5989 97.9521 4.37861 93.6471 3.66265 93.3758C3.66916 93.3145 3.67491 93.2531 3.68059 93.1918C3.69438 93.0439 3.70826 92.8952 3.73317 92.7487C3.96712 91.3782 3.99456 91.0884 4.09445 91.0608C4.1235 91.0524 4.15868 91.0669 4.2069 91.083C4.69611 91.2478 5.31387 91.4632 5.98867 91.6993C7.77258 92.3233 9.95541 93.086 11.2162 93.4072C12.6805 93.7798 13.7369 94.0741 14.5258 94.2941C16.6839 94.8959 16.8419 94.9395 17.8776 94.5026C22.2812 92.6445 22.6315 91.7576 23.1503 91.6441C23.6422 91.5368 24.2856 92.1255 28.6759 93.2409C29.6569 93.5536 30.6666 93.7675 31.69 93.8794C31.7296 93.8817 31.7536 93.8779 31.7744 93.884C31.9205 93.9262 31.9207 94.4666 36.1314 101.155C36.4208 101.612 37.4122 101.906 38.4642 102.218C38.8057 102.32 39.1535 102.423 39.4858 102.535C43.7912 103.969 44.5219 103.821 44.6604 104.042C44.6926 104.094 44.6928 104.166 44.6984 104.281C44.7102 104.923 44.9449 105.541 45.3622 106.029C45.7794 106.517 46.3534 106.844 46.9857 106.955C47.6179 107.066 48.2691 106.954 48.8277 106.638C49.3863 106.321 49.8175 105.821 50.0474 105.221C51.2869 101.855 46.4231 99.8554 44.9199 103.186C44.8552 103.33 44.8392 103.431 44.7805 103.477C44.5572 103.657 43.7168 103.065 37.2467 101.15C36.5821 100.954 36.2295 100.331 35.7665 99.4982C34.146 96.5846 33.2603 95.2009 32.8228 94.5172C32.4202 93.8878 32.3972 93.8518 32.5302 93.7621C32.7623 93.605 33.1647 93.3858 33.7979 93.0408C34.3147 92.7602 34.9853 92.3954 35.8424 91.9117C36.7649 91.3904 37.3918 91.0171 37.8326 90.7542C38.8181 90.167 38.8731 90.134 39.2206 90.246C44.4261 91.9232 46.7808 92.4314 47.8336 92.6583C48.6367 92.8315 48.6821 92.8415 48.6576 93.0822C48.6039 93.6088 48.7182 94.1385 48.9842 94.5954C49.2501 95.053 49.6539 95.414 50.1378 95.6279C50.6466 95.8502 51.2155 95.8954 51.7529 95.7552C52.2903 95.6156 52.7649 95.2983 53.1005 94.856C53.4362 94.4137 53.6132 93.871 53.6032 93.316C53.5932 92.761 53.3967 92.2252 53.0453 91.7952C52.6657 91.2984 52.1069 90.9696 51.4883 90.8799C50.8697 90.7894 50.2403 90.9443 49.7346 91.3122C49.1236 91.8013 48.9531 92.1163 48.8619 92.2858C48.7815 92.4345 48.7627 92.469 48.5579 92.4076C48.315 92.3379 47.4883 92.0757 46.4197 91.7377C43.9729 90.9627 40.2571 89.7853 39.3708 89.5898C38.3904 89.3729 32.9847 92.6951 32.2251 93.2754C31.9227 93.5061 31.8941 93.4977 29.6804 92.8607C29.173 92.715 28.5505 92.5356 27.7837 92.3187C27.6856 92.2911 24.0828 91.267 23.8206 91.1566C23.2936 90.9359 23.0459 91.0723 21.742 91.7913C21.4036 91.9776 20.994 92.2037 20.49 92.4728C18.6196 93.4701 18.0151 93.7759 17.7116 93.93C17.5199 94.0274 17.4482 94.0634 17.2536 94.1745C17.2149 94.1968 17.1847 94.2175 17.1525 94.2351C16.8742 94.3846 16.4439 94.2504 9.15421 92.0451C5.00465 90.7902 4.18314 90.6906 4.13093 90.4338C4.10794 90.3211 4.2345 90.1777 4.29122 89.8911C4.40452 89.3207 4.36925 88.9635 4.52931 88.811C4.94095 88.4177 6.64453 89.3782 15.4897 91.5568C15.5703 91.5767 15.631 91.592 15.6925 91.5959C16.015 91.6166 16.3583 91.3061 19.7104 89.4932C22.4961 87.9862 22.5104 87.9923 22.6917 88.0651C22.7021 88.069 22.7131 88.0736 22.7252 88.0782C24.9127 88.7573 27.1366 89.3131 29.3865 89.7431C29.6175 89.7929 29.8119 89.842 29.9814 89.8841C30.6168 90.0436 30.9022 90.1149 31.4516 89.8305C38.1485 86.3588 38.7885 85.3508 39.0806 85.4435C39.1435 85.4635 39.1903 85.534 39.2781 85.6428C39.5803 86.0284 39.9967 86.3082 40.4676 86.4423C40.9385 86.5765 41.4398 86.5581 41.8999 86.3902C42.3598 86.2223 42.7549 85.9134 43.0287 85.5079C43.3024 85.1016 43.4408 84.6195 43.4239 84.1304C43.407 83.6406 43.2359 83.1692 42.9348 82.7828C42.6337 82.3965 42.2184 82.1159 41.7478 81.9803C41.2774 81.8438 40.776 81.8607 40.3155 82.027C39.855 82.1934 39.4589 82.5007 39.1838 82.9062C38.6999 83.5517 38.7769 84.158 38.8292 84.5704C38.8614 84.8242 38.8842 85.0043 38.7599 85.0725C32.0202 88.7972 31.5118 89.425 30.9723 89.4534C30.8698 89.4587 30.7662 89.4419 30.6184 89.4212C29.6616 89.2862 25.4709 88.1816 24.6802 87.9731C24.6132 87.9555 24.5707 87.9448 24.5565 87.9409C22.4105 87.3821 22.3131 87.4327 21.7939 87.7018C21.7608 87.7194 21.726 87.737 21.6888 87.7562C17.5056 89.8765 16.659 90.794 15.724 90.8952C14.5464 91.0225 13.2284 89.855 4.92592 88.1632C4.82305 88.1418 4.74839 88.1441 4.70615 88.1088C4.59646 88.0153 4.70623 87.6635 5.11143 85.9663C6.60543 79.2329 8.69904 72.6463 11.3672 66.2859C12.4741 63.7716 13.4691 62.8916 19.7993 62.933C25.0232 62.9702 31.5006 63.7939 38.2357 65.017C38.2273 64.7591 38.2245 64.5009 38.2272 64.2426C33.6855 63.4002 29.5112 62.796 26.226 62.598C25.7893 62.5717 25.1713 62.5412 24.6794 62.517C24.2693 62.4969 23.9469 62.481 23.8904 62.4754C22.5998 62.3406 21.3019 62.2893 20.0047 62.3221C19.8648 62.3221 19.7236 62.3218 19.5811 62.3215C16.5079 62.3157 12.9043 62.3089 11.4692 64.9682C6.70968 73.7835 3.14446 89.7155 1.78767 100.414C1.65996 101.422 1.53555 102.384 1.41635 103.307C-1.07984 122.628 -1.26144 124.034 19.8054 133.138C28.9471 137.069 38.378 140.291 48.0145 142.775C53.0622 144.133 62.3697 145.841 62.6157 145.846C62.7115 145.849 62.8855 145.871 63.1209 145.901C64.5451 146.085 68.1985 146.557 70.0512 144.66C70.2421 144.465 70.8063 144.525 71.5583 144.604C73.1918 144.777 75.7115 145.044 77.2231 142.995C79.0521 140.516 81.5395 132.211 82.4249 129.228C82.7607 128.096 82.9707 127.274 83.124 126.675C83.4858 125.26 83.5295 125.089 84.1642 125C85.7901 124.77 86.7973 123.149 87.3262 121.588C88.7827 117.286 90.4093 111.566 90.3625 107.023C90.3487 105.669 89.6496 105.096 89.1613 104.697C88.8639 104.454 88.6447 104.275 88.7068 104.022C89.2825 101.703 90.3894 93.1657 90.7389 90.0459C91.9048 79.7496 87.8306 78.2947 82.0386 76.2258C81.6499 76.087 81.2536 75.9452 80.8504 75.798C80.8504 75.798 75.9031 74.0457 72.4712 72.885C72.3547 73.1111 72.2344 73.3343 72.1094 73.5536C75.9307 74.8115 81.4246 76.6412 82.51 77.0345C85.1876 78.0011 87.8574 79.1854 89.051 81.0742C89.8604 82.3543 89.9639 83.2144 90.1234 84.5382C90.1395 84.6739 90.1563 84.8142 90.1747 84.9598C90.65 88.7688 88.1694 102.502 87.3247 106.433H87.3201C87.2419 106.797 87.225 106.997 87.117 107.091C86.9491 107.237 86.5612 107.128 85.3884 106.975C85.3868 106.975 85.4083 106.875 85.4482 106.688C85.8744 104.706 88.4009 92.958 87.5907 86.1878C87.5286 85.268 87.2833 84.3704 86.8678 83.5478C86.4524 82.7253 85.8759 81.9948 85.1722 81.3992C82.8634 79.4782 79.8631 78.4626 77.0246 77.5028C76.6811 77.3863 76.3393 77.2713 76.002 77.1548C75.0836 76.839 73.2125 76.2626 70.7948 75.5489C69.6672 77.036 68.3288 78.3192 66.8333 79.3678C72.7242 81.0182 77.1779 82.2593 77.9728 82.4624C78.8719 82.6924 79.0858 83.2512 77.4584 82.9829C75.9276 82.7299 72.6069 81.8936 65.8329 80.0202C63.7793 81.2628 61.4736 82.086 59.0382 82.421ZM38.4703 67.3981C33.2235 66.3903 27.948 65.527 22.6095 65.2526C13.0667 64.7612 13.6585 66.1725 18.8273 68.7327C25.8615 72.2127 35.3628 75.6248 44.9358 78.5216C44.2116 77.9336 43.5321 77.289 42.9041 76.5937C41.8748 75.4531 40.9968 74.1898 40.2888 72.8344C35.9086 71.5603 31.0638 70.0547 30.1424 69.3935C30.1089 69.3704 30.0846 69.3362 30.0741 69.2969C30.0635 69.2577 30.0671 69.2159 30.0844 69.1791C30.1017 69.1422 30.1315 69.1128 30.1685 69.0959C30.2055 69.079 30.2473 69.0758 30.2865 69.0869C30.2865 69.0869 34.1925 70.1884 39.7717 71.7599C39.5875 71.3426 39.4188 70.9178 39.2661 70.4864C38.9099 69.48 38.6441 68.4464 38.4703 67.3981ZM78.5293 138.431C79.2736 136.218 82.4027 126.602 82.5368 125.27H82.5414C82.5575 125.113 82.4671 125.1 81.6744 124.986C81.5441 124.967 81.3947 124.945 81.2237 124.92C81.0068 124.886 80.9117 124.84 80.8542 124.869C80.7944 124.899 80.7761 125.01 80.7055 125.303C80.0969 127.821 76.6321 139.997 74.8414 141.266C74.4635 141.536 74.0319 141.723 73.5766 141.814C73.1205 141.905 72.6506 141.899 72.1976 141.796C71.9676 141.742 71.8887 141.925 71.7277 142.299C71.5805 142.64 71.3651 143.139 70.9021 143.763C70.7519 143.964 71.0064 143.976 72.2206 144.032C72.5525 144.046 72.9557 144.065 73.4425 144.091C73.5636 144.08 73.6816 144.071 73.7966 144.061C75.6731 143.905 76.7172 143.819 78.5293 138.431ZM89.6358 109.374C89.6588 109.085 89.6803 108.807 89.7462 108.398H89.7508C89.8911 107.8 89.862 107.174 89.6657 106.593C89.4695 106.011 89.1153 105.495 88.6416 105.104C88.5527 105.014 88.5197 105.076 88.4937 105.159C88.4699 105.215 88.4492 105.273 88.4324 105.332C88.1886 106.561 88.092 106.892 88.1878 106.964C88.23 106.996 88.3105 106.977 88.4324 106.961C89.0632 106.885 89.0793 107.489 88.3557 107.651C87.4075 107.864 85.1646 107.662 81.3318 107.242C75.4133 106.593 71.326 105.645 68.4392 104.976C63.2543 103.774 61.9427 103.47 60.8542 107.406C60.822 107.522 60.7829 107.662 60.7384 107.823C60.2041 109.744 58.8523 114.601 58.8742 116.037C58.773 117.837 60.0961 118.933 61.7871 119.574C69.2563 122.405 81.64 124.469 83.6529 124.258C86.0752 123.999 86.7467 121.484 87.3523 119.213C87.4067 119.009 87.4604 118.808 87.5148 118.611C89.4703 111.505 89.5584 110.373 89.6358 109.374ZM30.6986 126.29C30.4514 126.235 30.1953 126.234 29.9476 126.287L29.9515 126.288C29.7147 126.316 29.4859 126.391 29.2785 126.509C29.071 126.626 28.889 126.784 28.7432 126.973C28.5973 127.161 28.4904 127.378 28.4287 127.608C28.367 127.838 28.3518 128.079 28.3839 128.315C29.0822 130.745 32.1676 130.177 32.0848 127.891C32.0662 127.639 31.9939 127.393 31.8725 127.171C31.751 126.948 31.5835 126.755 31.381 126.603C31.1785 126.451 30.9459 126.344 30.6986 126.29ZM21.5815 113.298C24.2162 113.243 23.8413 109.509 21.6183 109.717C21.1464 109.725 20.696 109.916 20.3626 110.25C20.0293 110.584 19.8394 111.035 19.833 111.507C19.8331 111.975 20.016 112.424 20.3427 112.758C20.6694 113.093 21.114 113.286 21.5815 113.298ZM39.7334 119.319C36.9486 119.293 36.6703 123.642 39.8262 123.734C40.3918 123.71 40.9272 123.472 41.323 123.067C41.7189 122.663 41.9454 122.122 41.9564 121.556C41.9639 121.262 41.9117 120.969 41.8028 120.695C41.694 120.421 41.5307 120.172 41.3229 119.963C41.1152 119.754 40.8673 119.589 40.5941 119.478C40.3209 119.367 40.0282 119.314 39.7334 119.319ZM43.8655 111.233C43.4453 111.657 43.2092 112.231 43.2082 112.828C43.2255 113.418 43.4677 113.978 43.8851 114.396C44.3024 114.813 44.8635 115.055 45.4534 115.072C45.7571 115.078 46.059 115.023 46.3409 114.91C46.6226 114.796 46.8787 114.628 47.0935 114.412C47.3083 114.198 47.4774 113.942 47.5908 113.66C47.7042 113.378 47.7594 113.076 47.7531 112.773C47.7376 112.175 47.4876 111.608 47.0573 111.194C46.6269 110.78 46.0507 110.552 45.4534 110.559C44.8561 110.566 44.2857 110.808 43.8655 111.233ZM47.4442 106.287C49.9784 106.413 50.5042 102.377 47.494 102.086C47.2182 102.083 46.9444 102.134 46.6883 102.236C46.4322 102.339 46.1989 102.491 46.0015 102.684C45.8042 102.876 45.6467 103.106 45.5381 103.359C45.4296 103.613 45.372 103.886 45.3687 104.161C45.3654 104.437 45.4165 104.711 45.519 104.968C45.6216 105.224 45.7735 105.457 45.9663 105.654C46.159 105.851 46.3887 106.009 46.6423 106.117C46.8958 106.226 47.1684 106.284 47.4442 106.287ZM50.9405 91.4625C50.6096 91.4993 50.2957 91.6288 50.0351 91.8358C49.783 92.0198 49.5826 92.2651 49.4537 92.5494C49.3247 92.8331 49.2716 93.1458 49.2994 93.4563C49.3271 93.7675 49.4349 94.0657 49.6122 94.3225C49.7894 94.5785 50.0302 94.7855 50.3109 94.9212C50.5916 95.0568 50.9028 95.1181 51.2141 95.0982C51.5254 95.0783 51.8262 94.9779 52.0872 94.8069C52.3482 94.636 52.5605 94.4007 52.7034 94.1232C52.8463 93.8457 52.915 93.5368 52.9028 93.2248C52.9038 92.8921 52.8107 92.5655 52.6343 92.2827C52.4579 92.0006 52.2054 91.7737 51.9057 91.6288C51.606 91.4832 51.2715 91.4257 50.9405 91.4625ZM39.8705 82.9699C39.544 83.2911 39.3527 83.7249 39.3356 84.1826H39.3371C39.3502 84.6433 39.5428 85.0802 39.8739 85.3998C40.2049 85.7203 40.6481 85.8981 41.1086 85.8958C41.9173 86.033 42.828 85.0794 42.8111 84.1826C42.7839 83.7349 42.5943 83.3118 42.2778 82.9936C41.9613 82.6755 41.5396 82.4839 41.0918 82.454C40.6338 82.4639 40.197 82.6479 39.8705 82.9699Z" fill="#3D7BFF"/>
<path d="M56.3592 45.6672C77.056 46.4292 81.817 72.311 65.13 81.032C62.5253 82.4026 59.6345 83.14 56.6917 83.1852C53.7489 83.2297 50.8368 82.5812 48.1915 81.2911C45.5463 80.0002 43.2422 78.1053 41.466 75.7581C39.6898 73.4117 38.4915 70.6792 37.9681 67.7829C35.8233 56.044 45.4067 45.264 56.3592 45.6672ZM55.5045 82.5528C65.1553 83.1032 73.7483 76.0594 74.5632 65.3331C74.7793 54.6014 66.9598 46.8937 57.4653 46.3073C55.077 46.1636 52.6838 46.4937 50.4235 47.2783C48.1633 48.063 46.0804 49.2869 44.2948 50.8795C42.5092 52.4721 41.0562 54.402 40.0192 56.5583C38.9823 58.7146 38.3819 61.0546 38.2527 63.4437C38.1234 65.8328 38.4679 68.224 39.2661 70.4795C40.0644 72.7351 41.3007 74.8107 42.9041 76.5868C44.5074 78.3621 46.4461 79.804 48.6085 80.8281C50.771 81.8514 53.1146 82.4378 55.5045 82.5528Z" fill="#3D7BFF"/>
<path d="M48.2509 77.4026C44.8649 75.3245 42.4262 72.0043 41.4561 68.1518C40.486 64.2992 41.0616 60.22 43.0598 56.7863C50.2186 44.4816 68.6433 47.8943 71.0633 61.6692C73.4151 75.0654 59.0263 84.0363 48.2509 77.4026ZM41.8502 67.6475C42.423 70.0705 43.5985 72.3096 45.2677 74.157C46.9369 76.0044 49.0456 77.4003 51.3983 78.2152C65.0911 82.8605 76.4138 67.1899 67.8392 55.6219C58.8239 43.4605 38.4168 51.7516 41.8502 67.6475Z" fill="#3D7BFF"/>
<path d="M51.6447 71.8467C49.0744 71.7095 49.3236 71.8873 49.6371 68.516C49.9115 65.5548 50.4803 65.8898 48.475 66.3582C47.3405 66.6234 47.1167 66.7284 47.1443 66.073C47.1574 64.8807 47.3164 63.6944 47.618 62.5408C47.6343 62.4434 47.6776 62.3526 47.7432 62.2787C47.8086 62.2049 47.8936 62.1509 47.9882 62.123C50.4412 61.1794 50.7271 61.5788 50.8191 61.1572C52.5216 53.3537 52.7355 53.185 53.5948 53.1429C55.0311 53.0744 56.4701 53.0911 57.9043 53.1927C58.4072 53.228 58.4999 53.5353 58.48 53.635C57.7257 57.3612 57.3302 58.8974 57.3302 59.2032C57.7334 59.181 56.9599 59.3052 60.2707 58.5034C60.7306 58.3922 60.7682 58.8629 60.6869 59.3343C59.9372 63.6645 60.8096 62.7339 56.8212 64.1084C56.477 64.2272 56.2302 64.1896 56.1643 64.6633C56.0523 65.4736 55.8484 65.9864 55.7948 66.5437C55.7319 67.1891 55.4468 66.5836 64.2207 66.8174C65.3314 66.8465 65.1199 67.2259 64.7765 68.7176C64.0038 72.0675 64.2337 71.6773 62.3948 71.7838C58.8156 72.0097 55.2263 72.0307 51.6447 71.8467ZM63.6696 71.0564C63.8137 70.5451 64.4936 68.1435 64.5971 67.6222C64.6837 67.1845 64.9558 67.2896 61.9862 67.1623C61.7233 67.1508 60.0246 67.2558 57.1753 67.2804C54.5737 67.3033 55.3096 67.6506 55.7227 64.4365C55.7925 63.8907 56.0592 63.8378 57.5624 63.3265C60.2507 62.412 59.4022 62.9562 59.7594 61.7796C60.0277 60.8988 60.0606 59.979 60.24 59.0836C60.3289 58.6413 59.3661 59.2369 57.2091 59.8571C56.4318 60.0801 56.6426 59.7613 57.7824 54.9627C58.0891 53.6672 58.1527 53.671 57.833 53.6488C57.6238 53.6342 55.4736 53.6112 55.2643 53.6097C52.8497 53.5944 53.2429 53.533 52.8221 55.0087C50.5631 62.9463 52.3928 61.2645 48.9894 62.2863C48.1699 62.5331 47.9246 61.8455 47.6586 65.469C47.6441 65.6744 47.4884 65.8653 47.5866 66.0822C50.1997 65.4997 50.5286 65.239 50.4749 65.8791C50.3983 66.7821 50.1576 68.4417 50.0349 69.3286C49.7636 71.2863 49.739 71.199 50.2979 71.2289C56.1811 71.5378 63.5469 71.5002 63.6711 71.0564H63.6696Z" fill="#3D7BFF"/>
<path d="M29.4914 14.2031C53.8331 15.6948 54.0662 47.2169 33.5157 51.4575C30.7335 52.0695 27.8485 52.0391 25.0798 51.3688C22.3111 50.6985 19.7316 49.4058 17.5375 47.589C15.3434 45.7722 13.5923 43.4791 12.4173 40.884C11.2424 38.2889 10.6745 35.4601 10.7569 32.6126C10.8159 28.5867 12.4578 23.7206 15.4328 20.6544C19.8727 16.0658 23.129 14.6385 29.4914 14.2031ZM29.5304 51.2903C31.9888 51.3173 34.4266 50.8408 36.6939 49.8901C38.9612 48.9393 41.0098 47.5346 42.7137 45.7624C44.4177 43.9901 45.7408 41.8878 46.6016 39.5849C47.4624 37.282 47.8427 34.8273 47.7191 32.3719C47.5795 28.8039 46.3937 25.3558 44.3094 22.4566C42.2251 19.5573 39.3342 17.3349 35.9966 16.0661C32.659 14.7971 29.0219 14.5377 25.5379 15.32C22.054 16.1023 18.877 17.8918 16.4023 20.4658C13.9275 23.0398 12.2644 26.2847 11.6196 29.7967C10.975 33.3088 11.3772 36.9329 12.7763 40.218C14.1755 43.5032 16.5097 46.3044 19.4887 48.2731C22.4676 50.2418 25.9597 51.291 29.5304 51.2903Z" fill="#3D7BFF"/>
<path d="M42.5328 25.4108C44.4725 28.8612 45.0094 32.9257 44.0323 36.7614C43.0552 40.597 40.639 43.9093 37.285 46.0111C27.2025 52.2723 14.4318 44.7248 14.1275 34.3534C13.6239 17.0639 34.7623 11.9326 42.5328 25.4108ZM32.3354 47.3472C40.0813 45.4048 44.0023 39.2218 44.0337 32.8663C44.0797 23.4377 34.3284 16.108 25.3927 18.866C21.55 20.0527 18.0239 22.235 16.0692 26.5154C10.3323 39.0738 22.1012 49.9129 32.3354 47.3472Z" fill="#3D7BFF"/>
<path d="M32.3036 42.4186C31.2174 42.3072 30.1518 42.0451 29.1378 41.6397C28.9232 41.5347 29.0381 41.6006 28.4126 43.0755C28.106 43.7953 27.8163 44.6722 27.2099 44.4262C24.4189 43.2932 24.6266 43.8259 25.9497 40.4792C26.011 40.3259 25.7657 40.2921 25.6431 40.237C25.4829 40.1603 25.5151 40.1327 24.9026 41.4918C24.251 42.9383 24.3124 43.1337 23.867 43.0418C23.6079 42.9889 22.0978 42.302 21.8609 42.1832C21.4907 41.9985 21.4777 41.9034 21.5796 41.5393C21.8169 40.7377 22.1265 39.9592 22.5048 39.2136C22.6351 38.9522 22.7348 39.1124 19.6257 37.7978C18.449 37.3003 18.6989 37.0573 19.8288 34.6549C20.0657 34.1513 20.1991 34.2839 22.0296 34.9991C23.5627 35.5978 22.1323 35.7986 24.0947 31.483C24.2963 31.0391 25.4836 28.2841 26.3177 26.4299C26.4004 26.2451 26.553 26.3716 24.3936 25.3659C23.9697 25.1681 23.9199 25.0332 24.0402 24.5227C24.2595 23.7472 24.5845 23.0056 25.0061 22.3188C25.2016 21.9655 25.2675 21.852 27.1156 22.5557C29.0067 23.2763 28.8856 23.507 29.0213 23.1314C30.0745 20.2139 29.9204 20.46 31.4842 21.0571C31.9321 21.2021 32.3657 21.3879 32.7797 21.6121C33.0158 21.7984 32.9606 21.6673 31.8728 24.5725C31.8039 24.758 32.3895 24.942 32.4278 24.7411C32.5897 24.1391 32.811 23.5547 33.0886 22.9965C33.4673 22.0697 33.6443 21.9923 33.9954 22.049C34.7553 22.2123 35.4735 22.5303 36.105 22.9834C36.3257 23.2303 36.1977 23.6795 36.0659 24.0474C35.3039 26.1761 35.2848 25.937 35.5684 26.0496C40.8254 28.1393 39.3544 32.9977 36.6561 34.0448C36.3978 34.1452 36.1126 34.1467 36.2728 34.3246C37.5821 35.7542 38.1049 37.0075 37.3422 38.9369C36.1088 42.0606 33.8804 42.2775 32.3036 42.4186ZM35.7677 40.5022C37.7607 38.4762 37.4748 35.5725 35.7064 34.3736C35.366 34.1436 35.4917 33.9068 35.6711 33.8593C36.1356 33.8077 36.5814 33.6467 36.9715 33.3894C37.3617 33.132 37.6853 32.7858 37.9156 32.379C38.7542 30.9126 38.8653 28.9909 37.6457 27.7713C36.8843 27.1411 36.019 26.6482 35.0885 26.3149C34.739 26.1524 34.8133 25.9768 34.9536 25.6342C36.141 22.7343 36.3549 23.4112 34.0138 22.5067C33.7639 22.4108 33.8444 22.4108 33.0066 24.3464C32.6179 25.2455 32.598 25.4694 32.3282 25.3237C31.1638 24.6975 31.045 25.477 32.2998 22.1042C32.414 21.7976 32.5727 21.9179 30.6203 21.2303C30.3137 21.123 30.4356 20.9498 29.6115 22.8961C29.2788 23.6825 29.2949 24.0306 28.7361 23.7899C25.0115 22.1855 25.397 22.2729 25.269 22.5925C24.2595 25.1122 24.0878 24.7795 24.8765 25.1145C27.1486 26.0803 27.0643 25.881 26.7163 26.6476C23.0223 34.7017 23.4408 35.968 22.8069 35.7312C19.5429 34.517 20.2987 34.5959 19.9607 35.3709C19.7123 35.9412 19.5053 36.5299 19.2761 37.1079C19.214 37.2658 18.9434 37.0887 22.6658 38.6494C23.1825 38.8656 23.0092 38.9744 22.5255 40.1825C21.8579 41.8475 21.8318 41.7739 22.176 41.9165C24.8045 43.0073 23.4699 43.0318 25.2843 39.8016C25.361 39.6605 25.4377 39.6291 26.3039 40.0315C26.5239 40.1335 26.4349 40.4002 26.3039 40.7275C25.2062 43.4672 25.2491 43.1728 25.5634 43.3047C27.4613 44.1011 27.3893 44.1111 27.5234 43.8137C28.7767 41.0342 28.4433 41.6114 28.6242 41.2565C29.0182 40.4508 32.6816 43.6343 35.7677 40.5037V40.5022Z" fill="#3D7BFF"/>
<path d="M33.401 36.6443C33.4569 37.7052 32.1331 38.8879 30.7142 38.6112C29.2825 38.3287 27.891 37.8712 26.571 37.2491C26.236 37.0919 26.1762 36.9654 26.2805 36.5998C26.4933 35.6978 26.799 34.8202 27.1927 33.9813C27.5821 33.2408 27.7891 32.4006 28.2582 32.5286C29.1199 32.7671 29.9603 33.0766 30.7709 33.4539C32.337 34.1752 33.309 34.8988 33.401 36.6443ZM31.0147 38.2302C31.3222 38.2033 31.6236 38.1291 31.9085 38.0102C32.1308 37.9476 32.3343 37.8312 32.501 37.6713C32.6677 37.5115 32.7925 37.313 32.8644 37.0935C33.6432 34.7547 30.7893 33.9207 28.495 33.0415C28.2153 32.9342 28.1631 33.1243 28.0282 33.4117C27.5356 34.4719 27.1034 35.559 26.7335 36.668C26.7006 36.7661 26.7182 36.7899 26.8017 36.8213C29.5376 37.9236 28.8661 37.8132 31.0147 38.2302Z" fill="#3D7BFF"/>
<path d="M32.8127 31.6536C32.1228 31.741 30.7775 31.1714 29.5541 30.7115C28.8681 30.4539 28.9409 30.2117 29.0083 29.9718C29.2983 28.9345 29.7081 27.9346 30.2294 26.9922C30.3828 26.7055 30.4832 26.6741 30.8197 26.7622C31.4438 26.9571 32.044 27.2217 32.6088 27.551C33.7954 28.1274 34.5321 28.6242 34.7168 29.3639C34.812 29.6468 34.8333 29.9494 34.7785 30.2427C34.7237 30.5362 34.5947 30.8107 34.4038 31.0402C34.2131 31.2697 33.9666 31.4465 33.6881 31.5539C33.4096 31.6612 33.1082 31.6956 32.8127 31.6536ZM34.3972 30.0216C34.4189 29.7766 34.3797 29.5301 34.2828 29.3039C34.186 29.0779 34.0346 28.8794 33.8422 28.7261C33.3517 28.3404 32.8073 28.0287 32.2263 27.8009C30.5606 27.1455 30.674 27.0075 30.5276 27.387C29.4545 30.1803 29.2828 30.0967 29.6024 30.2309C30.8044 30.7322 33.3271 31.8904 34.0269 30.8786C34.2315 30.6352 34.3602 30.3373 34.3972 30.0216Z" fill="#3D7BFF"/>
<path d="M88.9722 18.3144C88.976 21.0559 88.3497 23.7615 87.1409 26.2222C85.932 28.6829 84.1743 30.8327 82.0027 32.5057C79.8303 34.1787 77.303 35.3298 74.6154 35.8703C71.9279 36.4108 69.1522 36.3261 66.5023 35.6228C63.8523 34.9194 61.4001 33.6162 59.3343 31.814C57.2686 30.0118 55.6449 27.7587 54.5886 25.229C53.5323 22.6991 53.0719 19.9604 53.2428 17.2243C53.4137 14.4881 54.2115 11.828 55.5743 9.4493C64.4801 -6.32553 88.9553 -0.141003 88.9722 18.3144ZM71.1192 1.07628C59.6118 0.9452 50.8164 12.5615 54.6897 23.8788C58.7739 35.8133 73.9654 39.4812 82.7669 31.0951C94.745 19.6835 86.1788 1.24875 71.1192 1.07628Z" fill="#3D7BFF"/>
<path d="M70.9437 3.91533C73.8052 3.91786 76.6016 4.76704 78.9817 6.35595C81.3611 7.94485 83.2177 10.2024 84.3169 12.8443C85.4161 15.4862 85.709 18.3943 85.1586 21.2023C84.6082 24.0104 83.2391 26.5927 81.2247 28.6242C79.2094 30.6557 76.6376 32.0456 73.8343 32.6186C71.0311 33.1917 68.1205 32.9224 65.4698 31.8447C62.819 30.7669 60.547 28.9289 58.9386 26.562C57.3305 24.1952 56.4586 21.4055 56.433 18.5442C56.3918 16.6218 56.7382 14.7108 57.4513 12.9251C58.1645 11.1394 59.23 9.51567 60.5838 8.15052C61.9383 6.78537 63.5534 5.70683 65.3333 4.97922C67.1132 4.25161 69.0212 3.88978 70.9437 3.91533ZM61.4645 8.13135C58.9604 10.3949 57.3663 13.493 56.9805 16.8465C56.5946 20.1999 57.4434 23.5791 59.3681 26.3522C66.9208 37.225 84.5009 32.6196 84.8305 18.2498C85.0888 6.99609 70.7145 -0.222509 61.4645 8.12982V8.13135Z" fill="#3D7BFF"/>
<path d="M72.37 29.78C70.6476 28.9605 67.4281 26.5229 65.4052 24.8633C64.0162 23.7235 64.2139 23.7947 64.3565 23.5272C64.9583 22.3933 65.7217 21.3536 66.6247 20.4411C66.8547 20.2111 67.0916 20.2962 67.6443 20.6711C68.6216 21.298 69.5606 21.9825 70.4567 22.7208C72.948 24.6372 71.0071 24.1596 75.4822 19.4959C76.0372 18.918 78.4419 21.305 78.8834 21.768C78.934 21.8044 78.9754 21.8513 79.0061 21.9055C79.036 21.9597 79.0544 22.0199 79.059 22.0818C79.0636 22.1437 79.0544 22.2058 79.0321 22.2639C79.0107 22.322 78.9762 22.3746 78.9317 22.418C77.8723 23.8883 73.8433 28.9766 72.37 29.78ZM78.4396 22.2394C78.678 21.9397 78.8068 22.2095 75.8486 19.8493C75.6639 19.7014 75.8486 19.5427 72.3332 24.1052C71.9622 24.5866 72.1554 24.5145 70.1103 22.9684C66.6945 20.3828 66.8907 20.6795 66.7612 20.8466C66.6316 21.0137 66.082 21.7427 64.8149 23.5073C64.6195 23.7794 64.5083 23.5839 66.5596 25.117C67.5814 25.8836 71.3889 28.8118 72.564 29.3576C72.3769 29.3614 73.2508 28.7628 78.4396 22.2394Z" fill="#3D7BFF"/>
<path d="M77.7473 12.3362C77.8324 13.1334 76.1023 15.0061 75.4807 15.7167C75.2254 16.0087 75.24 16.0693 74.8475 15.7933C70.0634 12.4589 70.5019 12.2059 70.2329 12.3439C69.2854 13.8744 68.2207 15.3284 67.0463 16.6925C66.4561 17.4307 66.6784 17.3908 63.2457 14.9294C62.9023 14.6834 62.7858 14.8191 64.6117 12.4113C65.1391 11.7153 67.1506 9.18569 67.6113 8.65524C69.4962 6.47517 69.4395 6.66604 69.8059 6.86074C72.1968 8.13705 77.1218 11.4347 77.7473 12.3362ZM77.3901 12.5194C77.3089 12.4044 77.4668 12.5194 76.4764 11.7644C74.3324 10.0923 72.0526 8.60135 69.661 7.30687C69.3352 7.1183 69.5437 6.95196 67.7853 9.16806C63.0441 15.1425 63.5692 14.642 63.836 14.8405C66.5189 16.8106 66.4285 16.8642 66.6117 16.6036C66.9551 16.1207 65.7508 17.8423 68.886 13.5558C70.1186 11.8694 70.0358 11.7076 70.3256 11.9092C71.1734 12.4934 75.0108 15.4898 75.1234 15.4844C75.2361 15.4791 77.2529 12.7524 77.3901 12.5194Z" fill="#3D7BFF"/>
<path d="M65.2561 18.9668C64.6237 20.1895 63.7912 21.2983 62.7947 22.2476C62.7119 22.3252 62.6053 22.3713 62.4919 22.3777C62.3792 22.3842 62.2673 22.3506 62.1768 22.2829C61.2593 21.7037 60.4199 21.0103 59.6771 20.2193C59.3199 19.8905 59.2701 19.7594 61.4034 16.7576C61.4272 16.7041 61.4632 16.6567 61.5076 16.6186C61.5529 16.5805 61.605 16.5528 61.6617 16.5374C61.7184 16.522 61.7775 16.5193 61.8357 16.5296C61.8932 16.5398 61.9476 16.5627 61.9959 16.5966C63.2607 17.1076 64.3799 17.9215 65.2561 18.9668ZM61.8641 17.0129C61.5575 17.2996 59.8672 19.7211 59.986 19.9012C60.0405 19.984 61.8012 21.4343 61.8733 21.4964C62.4306 21.9564 62.4865 21.9901 62.5984 21.846C64.8391 18.8856 64.8858 19.1117 64.5531 18.8564C63.5145 18.0676 62.1086 17.1478 61.8641 17.0129Z" fill="#3D7BFF"/>
<path d="M82.7899 16.6489C82.2924 17.7712 81.6033 18.7987 80.7547 19.6859C80.5845 19.8623 80.4657 20.0163 80.2588 19.9059C79.158 19.3354 78.1684 18.5721 77.3367 17.6523C77.2753 17.6061 77.234 17.5377 77.2225 17.4616C77.2102 17.3855 77.2286 17.3079 77.2738 17.2453C77.7897 16.1301 78.5149 15.1247 79.411 14.2841C79.7229 13.9912 79.8027 13.9591 80.1675 14.1974C81.2062 14.8183 82.1008 15.6541 82.7899 16.6489ZM82.34 16.6604C81.5358 15.8756 80.6819 15.1438 79.7827 14.4696C79.0239 15.3725 78.3194 16.3196 77.6732 17.3058C77.5306 17.5036 77.6479 17.443 78.2289 17.8792C80.4581 19.5533 80.3868 19.6231 80.5286 19.4039C81.299 18.2341 82.2196 16.8581 82.34 16.6604Z" fill="#3D7BFF"/>
<path d="M70.6347 15.5C71.7692 16.0239 72.7979 16.7514 73.6695 17.6463C73.8542 17.8556 73.8542 17.8955 73.6955 18.1254C71.5783 21.1855 71.4419 21.0115 71.0755 20.7509C67.9847 18.5532 68.0361 18.7141 68.5083 17.976C68.9169 17.3359 69.9279 15.8036 70.6347 15.5ZM71.438 20.4718C71.5546 20.3262 71.7853 19.9721 72.0206 19.6601C73.4709 17.7376 73.4771 17.943 73.1513 17.7115C70.4798 15.812 70.6638 15.8312 70.4814 16.0626C69.9249 16.7671 69.2549 17.608 68.8157 18.1906C68.6302 18.4359 68.5474 18.3516 69.6673 19.1771C69.7095 19.2116 71.2487 20.3484 71.438 20.4718Z" fill="#3D7BFF"/>
<path d="M99.861 32.1829C120.566 31.848 126.706 57.4277 110.499 67.0272C107.971 68.5347 105.123 69.4252 102.188 69.6268C99.2509 69.8282 96.3088 69.3349 93.5983 68.187C90.8886 67.0389 88.487 65.2685 86.589 63.019C84.691 60.7696 83.3495 58.1046 82.6735 55.24C79.91 43.6367 88.8994 32.36 99.861 32.1829ZM100.964 69.0586C110.631 69.0954 118.839 61.6077 119.082 50.853C118.728 40.1336 110.508 32.8429 100.998 32.7625C98.6047 32.7448 96.2314 33.2007 94.0153 34.1038C91.7992 35.0068 89.7832 36.3393 88.0845 38.0245C86.3851 39.7097 85.036 41.7144 84.1146 43.923C83.1932 46.1317 82.7179 48.5008 82.7156 50.8939C82.7133 53.2871 83.184 55.6571 84.1015 57.8674C85.0191 60.0778 86.3644 62.0849 88.0608 63.7733C89.7564 65.4616 91.7701 66.7978 93.9847 67.705C96.1985 68.6122 98.5709 69.0725 100.964 69.0594V69.0586Z" fill="#3D7BFF"/>
<path d="M93.4479 64.3006C89.9555 62.4057 87.3431 59.2194 86.1695 55.4232C84.9959 51.6271 85.3539 47.5225 87.1676 43.9871C93.6664 31.3214 112.24 33.7529 115.39 47.3768C118.454 60.6312 104.561 70.3526 93.4479 64.3006ZM86.549 54.8989C87.2503 57.2872 88.5435 59.4597 90.3081 61.2151C92.0727 62.9705 94.252 64.252 96.6444 64.9407C110.567 68.8501 121.042 52.5993 111.862 41.508C102.207 29.8442 82.267 39.2076 86.5459 54.8989H86.549Z" fill="#3D7BFF"/>
<path d="M108.44 52.3105C108.471 52.7107 107.774 52.8924 100.113 55.1751C99.3009 55.4174 93.3946 49.068 93.2313 48.8005C93.0052 48.4287 93.078 48.3873 94.0439 47.272C95.8966 45.1257 99.3783 41.2393 101.581 39.5153C103.584 37.9477 103.554 37.5989 103.886 38.2942C105.727 42.1614 108.059 50.5551 108.44 52.3105ZM101.062 47.2168C101.522 47.1877 101.323 47.5464 101.973 44.6964C103.484 38.068 103.357 38.7756 103.305 38.5755C102.711 38.738 94.2141 47.505 93.9197 48.1972C94.0776 48.2379 98.102 47.4069 101.062 47.2168ZM107.861 51.5969C107.805 51.2021 103.853 38.9917 103.696 38.866C103.584 39.0193 103.651 39.0124 103.603 39.2248C101.646 47.9197 101.52 47.154 102.38 47.6476C106.142 49.8085 107.764 51.9464 107.861 51.5969ZM101.318 47.6423C100.792 47.4705 93.9159 48.6602 93.7288 48.7116C93.8216 48.9262 95.3463 50.3029 96.7444 51.695C99.734 54.67 99.7279 54.7995 99.8589 54.5995C99.921 54.522 101.081 48.3973 101.318 47.6423ZM100.283 54.7221C102.513 54.0391 102.347 53.9011 107.892 52.3013C108.156 52.2247 108.152 52.276 105.766 50.5344C102.975 48.4977 102.829 48.4088 101.952 47.8439C101.621 47.6308 101.762 47.4269 100.864 51.6153C100.146 54.9582 100.193 54.5903 100.281 54.7221H100.283Z" fill="#3D7BFF"/>
<path d="M92.8171 49.9453C93.1076 50.1799 98.1331 55.5235 99.2193 56.5177C99.4201 56.7017 107.257 53.854 107.687 53.831C108.07 53.8103 107.753 54.225 107.49 54.5078C102.758 59.6161 102.153 59.971 99.0453 62.4853C98.0641 63.2787 97.9108 63.5953 97.6448 63.0311C95.6686 58.9524 93.9991 54.7323 92.6484 50.406C92.5442 50.127 92.6822 50.0565 92.8171 49.9453ZM98.3362 62.4723C101.173 60.1252 103.891 57.6373 106.479 55.0183C106.84 54.6611 107.178 54.3491 106.663 54.5262C99.1787 57.1011 99.4845 56.8036 99.3948 57.2199C98.1844 62.8601 98.235 62.2944 98.3362 62.4723ZM93.359 51.0905C93.3261 51.1902 97.5482 62.0376 97.8817 62.45C97.9461 62.2461 98.1446 60.9806 98.3853 59.8169C98.9686 56.9876 99.1342 57.0267 98.892 56.7845C93.845 51.7352 93.8197 51.424 93.359 51.0905Z" fill="#3D7BFF"/>
</svg>
