<svg width="146" height="146" viewBox="0 0 146 146" fill="none" xmlns="http://www.w3.org/2000/svg">
<path d="M145.746 6.85661C145.687 5.40706 145.579 3.95828 145.48 2.50951C145.48 0.817729 144.078 0.46205 143.323 1.15195C137.809 6.33996 128.432 14.4769 123.335 18.9359C123.145 19.1031 123.011 19.3237 122.949 19.5687C122.888 19.8138 122.902 20.0717 122.989 20.3086C123.077 20.5456 123.234 20.7505 123.44 20.8963C123.647 21.0422 123.892 21.1223 124.145 21.1259C124.11 21.254 124.078 21.3835 124.05 21.5153C115.231 24.8316 106.241 27.6757 97.1195 30.0356C95.2292 30.5292 90.1692 31.7534 89.5352 31.9075C89.7151 31.3986 90.0699 30.9702 90.5363 30.6986C92.7777 29.1326 93.3143 29.3955 94.3752 28.3008C94.6141 28.0489 94.7575 27.7215 94.7806 27.3751C94.8037 27.0286 94.7051 26.685 94.5017 26.4036C94.0548 25.9077 93.1802 25.8264 93.0138 25.2346C92.6743 24.0143 94.7922 22.1684 94.6819 20.5234C94.5561 18.6515 92.1522 16.1142 88.4981 15.5845C86.417 15.2538 84.2928 15.3105 82.2323 15.7517C80.6852 16.0715 79.2699 16.8487 78.1696 17.9823C77.3042 18.8815 76.0049 19.9309 75.5679 21.1252C75.3073 21.8151 75.2199 22.6115 74.6481 23.0048C74.4197 23.1276 74.1683 23.2016 73.9098 23.2222C73.6513 23.2428 73.3913 23.2095 73.1464 23.1243C70.5248 22.4628 68.9403 19.7668 66.4345 18.5971C65.3193 18.0929 64.0855 17.9104 62.8721 18.0702C61.6588 18.2301 60.5143 18.7258 59.5677 19.5016C59.135 19.9843 58.5945 20.358 57.9902 20.5924C57.6182 20.658 57.2364 20.641 56.8718 20.5426C54.0294 19.8128 52.1077 17.9601 49.3711 17.5776C48.0985 17.4047 46.8029 17.543 45.5954 17.9806C44.388 18.4182 43.3047 19.1422 42.4384 20.0903C42.0133 20.5075 41.6896 21.0166 41.4921 21.5784C41.2947 22.1403 41.2287 22.7399 41.2993 23.3313C41.6826 24.9349 43.4127 25.7329 44.1401 26.002C45.3666 26.4558 46.7295 26.7815 47.7245 27.66C47.8847 27.7792 48.0054 27.9437 48.071 28.1322C48.2113 28.5722 47.7268 28.9754 47.2861 29.0781C46.7886 29.1177 46.294 29.1875 45.8051 29.2874C45.7935 29.2897 45.783 29.2957 45.7751 29.3046C45.7673 29.3135 45.7626 29.3247 45.7619 29.3365C45.7611 29.3483 45.7642 29.36 45.7708 29.3699C45.7774 29.3797 45.787 29.3871 45.7982 29.3909C46.9468 29.8039 48.171 29.9642 49.3872 29.8608C49.9945 29.7894 50.5649 29.5323 51.0205 29.1245C51.4762 28.7168 51.7948 28.1783 51.9329 27.5826C51.9747 27.2283 51.9913 26.8715 51.9827 26.5148C52.1222 25.2883 52.9386 25.5528 53.9459 26.2695C55.0625 27.0772 56.3525 27.6125 57.7129 27.8326C59.0734 28.0528 60.4664 27.9517 61.7808 27.5374C62.8133 27.207 63.4258 26.1407 64.5127 26.1407C64.7788 26.141 65.0394 26.2162 65.2648 26.3576C65.4902 26.4989 65.6714 26.7008 65.7875 26.9402C65.872 27.2804 65.9743 27.6158 66.0941 27.9452C63.3871 28.1683 60.7317 28.8134 58.224 29.8569C56.8474 30.436 55.6234 31.3253 54.6472 32.4555C53.6643 32.2232 52.6407 32.2232 51.6577 32.4555C49.2047 33.0818 48.4244 35.2703 48.0488 36.9054C48.0457 36.9534 48.0562 37.0013 48.079 37.0437C48.1017 37.086 48.1359 37.1212 48.1777 37.1451C48.2194 37.1691 48.267 37.1808 48.3151 37.1791C48.3632 37.1774 48.4098 37.1622 48.4497 37.1353C49.9194 36.0812 51.5446 35.2629 53.2667 34.71C52.5843 36.4951 52.5276 38.4589 53.1057 40.2805C51.5941 40.6776 49.9491 41.0332 49.0162 42.3065C48.2248 43.4399 47.7687 44.7732 47.7 46.1538C47.4435 49.7593 47.9164 53.3795 49.0905 56.7981C49.1001 56.8279 49.1141 56.856 49.1319 56.8817C48.1806 57.3984 47.2592 57.9686 46.3723 58.5895C45.7719 58.9074 45.1643 59.214 44.5495 59.5094C44.5518 59.4921 44.5518 59.4746 44.5495 59.4573C44.5317 59.2227 44.4408 58.9996 44.2895 58.8194C44.1382 58.6393 43.9342 58.5112 43.7063 58.4531C43.016 58.276 42.307 58.1821 41.5944 58.1733C37.1661 57.741 37.2749 57.7134 36.6011 57.7134C36.3203 57.6807 36.0358 57.7213 35.7754 57.8311C35.5149 57.941 35.2873 58.1165 35.1148 58.3404C35.0593 58.4361 35.0254 58.5429 35.0156 58.6531C35.0058 58.7633 35.0203 58.8744 35.0581 58.9784C35.0959 59.0824 35.1561 59.1769 35.2343 59.2551C35.3126 59.3333 35.4071 59.3935 35.5111 59.4312C37.5723 60.7397 38.1503 60.3633 39.6888 61.4526C28.5286 65.109 18.5243 63.333 17.6581 63.5085C17.4995 63.5814 17.353 63.6781 17.2235 63.7952C16.569 63.263 15.8788 62.7764 15.1577 62.3387C14.9055 62.1889 14.6135 62.1201 14.321 62.1414C14.0284 62.1628 13.7495 62.2734 13.5218 62.4583C12.9561 62.8753 12.5253 63.395 12.0064 63.8212C9.88226 65.5659 7.27062 66.3317 7.20623 67.667C7.1702 68.4121 7.78114 68.4558 8.04944 68.475C10.4081 68.5945 12.0922 67.654 15.4167 67.5873C15.6283 67.5827 15.6605 67.5919 15.7234 67.5628C15.8115 69.2821 17.4473 70.0594 19.0755 70.5738C31.1011 74.3943 45.8112 74.2801 60.9077 68.7249C61.512 68.4374 62.1321 68.1843 62.765 67.9667C60.312 71.2836 60.1403 71.4346 59.7586 72.2725C58.1626 71.6715 57.7188 71.4116 57.0642 71.1556C55.2133 71.8836 53.3045 72.4549 51.358 72.8635C49.6331 73.2286 47.8863 73.4806 46.1286 73.6178C46.7809 74.2961 46.4076 74.0524 52.6128 80.0016C54.1247 81.6485 55.8971 83.0355 57.8591 84.1072C59.2274 84.8136 60.7348 85.2088 62.2737 85.2647C63.7155 85.1801 65.1052 84.6957 66.2873 83.8658C68.6409 82.2502 70.7567 80.3129 72.573 78.1105C76.2808 73.6331 76.7354 73.5503 79.4628 68.432C80.076 68.8153 85.5714 68.0373 88.5663 60.5166C89.3335 58.4664 89.9958 56.3784 90.5509 54.2608C91.7054 50.5447 92.5012 46.7264 92.9272 42.8584C97.2322 41.8082 99.6805 40.3817 106.587 37.0426C111.078 34.8951 115.385 32.3826 119.465 29.5304C121.699 27.9116 123.768 26.0763 125.642 24.0511C125.675 24.001 125.691 23.9421 125.689 23.8825C126.284 23.6438 126.803 23.2482 127.19 22.738C127.578 22.2277 127.82 21.6219 127.891 20.9849C128.183 20.9849 128.475 21.0056 128.763 21.047C124.823 30.0386 115.927 41.796 109.851 50.0134C91.7605 74.4518 65.3797 105.199 38.7291 119.562C38.0714 119.911 32.2494 123.284 31.85 122.893L35.1225 126.224C28.288 130.807 20.5489 133.869 12.4287 135.202C12.3597 135.207 12.2949 135.237 12.2455 135.285C12.2308 135.315 12.2231 135.348 12.2231 135.381C12.2231 135.414 12.2308 135.447 12.2455 135.477C12.4755 136.646 13.242 136.828 16.992 140.076C12.4954 142.656 7.59794 144.296 0.177734 145.162V145.321C9.97194 146.353 19.2242 143.463 23.73 140.882C22.131 139.491 20.0153 138.617 18.4078 137.218C23.6464 135.927 35.9557 132.611 43.2011 127.807C42.1188 126.707 39.4703 125.033 38.3788 123.934C38.7536 124.35 45.8243 120.452 46.5739 120.061C62.8049 111.483 76.8174 100.697 90.7717 87.1067C95.2353 82.7681 99.6637 78.5037 103.83 73.9152C109.439 67.7337 122.127 52.6426 133.453 36.946C135.954 33.6516 138.235 30.1964 140.282 26.6029C140.465 26.2381 140.715 26.2864 140.866 26.6528C141.207 27.4852 141.507 28.2349 141.79 29.0291C141.885 29.286 142.062 29.5049 142.293 29.6524C142.524 29.7999 142.797 29.868 143.07 29.8463C143.343 29.8246 143.602 29.7144 143.807 29.5323C144.011 29.3502 144.151 29.1062 144.205 28.8374C145.517 21.5884 146.033 14.2178 145.746 6.85661ZM15.7318 67.1373C14.1324 67.0727 12.5322 67.2447 10.983 67.6479C10.025 67.8337 9.05212 67.933 8.07627 67.9445C7.70832 67.9054 7.8394 67.4999 7.98811 67.3167C8.89647 66.3409 9.56031 66.4237 12.6457 64.0581C13.1968 63.579 13.9166 62.5541 14.6195 62.755C15.0164 62.9223 15.3841 63.1519 15.7088 63.4349L16.8732 64.2497C16.3014 65.1252 15.9131 66.1075 15.7318 67.1373ZM40.1081 61.3177C39.8793 60.9401 39.5223 60.6575 39.1024 60.5212C37.9764 60.1279 36.8935 59.6207 35.8706 59.0073C35.7663 58.9368 35.6468 58.8295 35.6682 58.716C35.6966 58.5627 35.9388 58.3872 36.1841 58.3327C36.6594 58.2607 36.6793 58.2983 42.7481 58.8977C43.3521 58.9567 43.9447 59.051 43.983 59.4764C43.9826 59.5252 43.9954 59.5731 44.02 59.6152C44.0445 59.6572 44.0799 59.6919 44.1225 59.7156C42.8148 60.3224 41.475 60.8573 40.1089 61.3177H40.1081ZM84.9896 22.6322C85.8072 22.2497 86.6049 21.826 87.3797 21.3628C87.6724 21.2199 87.9982 21.1582 88.3229 21.1842C88.6476 21.2102 88.9593 21.323 89.2255 21.5107C89.1307 21.5479 89.0464 21.6079 88.9804 21.6855C88.9143 21.7631 88.8684 21.8558 88.8469 21.9553C88.8455 22.0082 88.8624 22.0599 88.8948 22.1018C88.9271 22.1436 88.9728 22.1731 89.0243 22.1851C89.0758 22.1972 89.1299 22.1911 89.1774 22.168C89.225 22.1448 89.2631 22.106 89.2853 22.0581C89.3059 22.0167 89.3397 21.9834 89.3814 21.9635C89.4231 21.9436 89.4702 21.9383 89.5153 21.9484C89.6484 21.9886 89.7696 22.061 89.8679 22.1592C89.9401 22.2324 90.032 22.283 90.1324 22.3049C90.1713 22.3069 90.2101 22.2992 90.2453 22.2825C90.2805 22.2658 90.311 22.2405 90.334 22.2091L90.4574 22.2374C91.1381 23.5149 91.5633 24.9129 91.7092 26.353C91.7528 26.9622 91.666 27.5736 91.4545 28.1465C91.243 28.7194 90.9117 29.2406 90.4827 29.6753C89.4164 30.6066 88.5127 30.4962 88.0129 31.3617C87.6143 31.9496 88.308 31.6353 86.8577 31.6461C85.5582 31.662 84.2783 31.329 83.1514 30.6818C83.4158 30.5313 83.6963 30.4112 83.9877 30.3238C84.4064 30.1916 84.768 29.9214 85.0134 29.5572C85.1657 29.1868 85.1779 28.7735 85.0476 28.3947C84.9174 28.0159 84.6537 27.6975 84.3058 27.499C84.0678 27.3687 83.8568 27.1941 83.6842 26.9847C82.9329 25.7958 84.4254 23.9384 83.3975 22.6153C83.6471 22.7293 83.9178 22.7896 84.1921 22.7925C84.4665 22.7954 84.7384 22.7408 84.9904 22.6322H84.9896ZM80.5375 25.9843C80.992 25.8264 81.9349 26.4726 82.1725 26.8329C82.5006 27.3266 83.5285 28.6182 83.5301 29.1157C83.505 29.2458 83.4527 29.3691 83.3768 29.4777C83.3008 29.5862 83.2029 29.6776 83.0893 29.7458C82.8961 29.8608 82.7081 29.9837 82.5251 30.1145C82.3592 29.923 82.2097 29.7179 82.0782 29.5013C82.306 29.2684 82.4697 28.9806 82.5535 28.6657C82.5556 28.6577 82.5558 28.6492 82.5542 28.641C82.5525 28.6329 82.549 28.6252 82.5439 28.6186C82.5387 28.612 82.5322 28.6067 82.5247 28.603C82.5172 28.5993 82.5089 28.5975 82.5006 28.5975C80.6011 28.5967 79.8131 26.2342 80.5382 25.9843H80.5375ZM66.8592 28.448C67.7698 28.678 67.8641 27.9827 74.8359 28.54C76.7814 29.0344 78.9032 30.0601 80.529 30.0693C80.3911 30.5599 80.2163 31.7749 79.6559 33.7181C77.3689 33.157 75.0038 32.9847 72.6596 33.2083C72.6261 33.1727 72.5826 33.1481 72.5349 33.1377C72.4871 33.1273 72.4373 33.1316 72.3921 33.15C72.3468 33.1684 72.3081 33.2001 72.2812 33.2408C72.2542 33.2816 72.2403 33.3296 72.2411 33.3785C72.2516 33.7662 72.2872 34.1528 72.3476 34.536C71.4315 33.97 70.6065 33.2683 69.9008 32.4548C69.8517 32.4184 69.7918 32.3997 69.7307 32.4016C69.6696 32.4036 69.611 32.4261 69.5643 32.4655C68.4892 33.4443 67.2134 34.1767 65.826 34.6113C64.4386 35.046 62.973 35.1725 61.5316 34.9821C61.4858 34.9822 61.4407 34.9943 61.4009 35.0171C61.3612 35.0399 61.328 35.0727 61.3048 35.1123C61.2816 35.1518 61.2691 35.1968 61.2685 35.2426C61.268 35.2885 61.2794 35.3337 61.3017 35.3738C62.1434 36.5535 63.2225 37.5442 64.4698 38.2821C64.5817 38.6086 64.6819 38.9385 64.7703 39.2717C64.7703 39.2717 64.1387 39.3085 63.8742 39.32C63.8283 39.327 63.7853 39.3467 63.75 39.3767C63.7146 39.4068 63.6884 39.4462 63.6741 39.4903C63.6599 39.5345 63.6582 39.5817 63.6693 39.6268C63.6804 39.6719 63.7039 39.7129 63.737 39.7454C66.5786 43.5621 67.2064 46.6275 68.183 49.3702C68.2528 49.567 68.2758 49.7772 68.2503 49.9844C68.2247 50.1915 68.1513 50.3899 68.0358 50.5638C67.6883 51.2431 67.1151 51.7803 66.4146 52.0831C66.1026 52.1482 65.6319 51.8531 65.3966 51.722C63.0934 50.6402 60.9376 49.269 58.9813 47.6417C57.1202 46.1195 55.5792 44.2437 54.4472 42.1225C53.8084 40.9713 53.432 39.6932 53.3446 38.3796C53.2573 37.066 53.4613 35.7493 53.942 34.5237C54.5866 34.3646 55.2436 34.261 55.9059 34.214C56.9905 34.4165 58.0272 34.822 58.9614 35.4091C59.0126 35.4392 59.073 35.4495 59.1313 35.4382C59.1896 35.4269 59.2418 35.3947 59.278 35.3476C59.3143 35.3006 59.3321 35.2419 59.3281 35.1826C59.3242 35.1234 59.2987 35.0676 59.2565 35.0258C58.3367 33.7564 56.9676 33.0803 55.1501 32.579C57.984 29.6975 62.8325 28.7845 66.8592 28.448ZM82.1388 37.9302L84.1318 40.9459C83.8865 41.5995 83.6279 42.2487 83.3561 42.8937C82.6891 41.2899 81.7442 39.8165 80.5651 38.5412C80.9223 37.3914 81.278 36.2208 81.5662 35.048C82.5341 36.1051 83.3228 37.3133 83.9011 38.6247C84.2844 39.4603 84.2077 39.5132 84.4492 40.0751L84.3618 40.3204L82.5865 37.6374C82.567 37.608 82.542 37.5828 82.5128 37.563C82.4836 37.5433 82.4508 37.5295 82.4163 37.5225C82.3818 37.5154 82.3462 37.5153 82.3116 37.522C82.277 37.5287 82.2441 37.5421 82.2147 37.5615C82.1853 37.581 82.16 37.606 82.1403 37.6352C82.1206 37.6644 82.1068 37.6972 82.0997 37.7317C82.0927 37.7662 82.0925 37.8018 82.0992 37.8364C82.1059 37.871 82.1194 37.9039 82.1388 37.9333V37.9302ZM79.2681 45.3803L80.7751 48.1583C79.7966 49.9625 78.7127 51.7074 77.5288 53.3839L76.0271 50.0877C76.3807 49.4198 76.718 48.7435 77.0389 48.0587L78.05 49.8708C78.0847 49.933 78.1426 49.9789 78.2111 49.9984C78.2796 50.0179 78.3531 50.0093 78.4153 49.9747C78.4775 49.94 78.5234 49.882 78.5429 49.8135C78.5623 49.745 78.5538 49.6716 78.5191 49.6094C77.5364 47.8509 77.3869 47.5459 77.3134 47.4631C78.0033 45.93 78.7468 44.0036 79.265 42.5387L80.6984 45.342C80.7142 45.3739 80.7361 45.4024 80.7629 45.4257C80.7898 45.4491 80.821 45.4669 80.8548 45.478C80.8885 45.4892 80.9242 45.4936 80.9596 45.4908C80.9951 45.4881 81.0297 45.4784 81.0613 45.4621C81.093 45.4459 81.1211 45.4236 81.1441 45.3964C81.167 45.3692 81.1843 45.3377 81.195 45.3038C81.2057 45.2699 81.2095 45.2342 81.2062 45.1987C81.203 45.1633 81.1927 45.1289 81.176 45.0975L79.5088 41.8374C79.6161 41.5226 79.7219 41.2055 79.8261 40.8861L81.0886 43.1091C81.106 43.1397 81.1293 43.1666 81.1571 43.1883C81.185 43.2099 81.2168 43.2259 81.2508 43.2353C81.2847 43.2446 81.3202 43.2472 81.3552 43.2428C81.3902 43.2385 81.424 43.2273 81.4547 43.2099C81.4853 43.1924 81.5122 43.1692 81.5339 43.1413C81.5555 43.1135 81.5715 43.0817 81.5809 43.0477C81.5902 43.0137 81.5928 42.9782 81.5884 42.9433C81.5841 42.9083 81.5729 42.8745 81.5555 42.8438L80.0522 40.1908C80.0867 40.0812 80.3819 39.136 80.3819 39.136C81.5314 40.4424 82.4417 41.9412 83.0709 43.5636C82.4684 44.9373 81.8071 46.2836 81.0871 47.6026L79.7395 45.122C79.7231 45.0903 79.7006 45.0621 79.6732 45.0392C79.6458 45.0163 79.6141 44.9991 79.58 44.9886C79.5458 44.9781 79.5099 44.9745 79.4744 44.9781C79.4389 44.9816 79.4044 44.9922 79.373 45.0093C79.3417 45.0263 79.314 45.0495 79.2917 45.0773C79.2693 45.1052 79.2528 45.1373 79.243 45.1716C79.2333 45.2059 79.2304 45.2419 79.2347 45.2774C79.239 45.3128 79.2504 45.347 79.2681 45.378V45.3803ZM71.4201 51.3311C71.4564 51.2907 71.4909 51.2478 71.5236 51.2023C71.5911 51.063 71.613 50.9059 71.5861 50.7535C71.5593 50.601 71.4851 50.4609 71.3741 50.353C71.2425 50.2619 71.0898 50.2062 70.9305 50.191C70.7712 50.1759 70.6107 50.2018 70.4642 50.2663C70.2252 50.3244 69.9804 50.356 69.7345 50.3606C69.8314 50.2809 69.9118 50.1829 69.9708 50.0722C70.0299 49.9614 70.0665 49.8401 70.0787 49.7152C70.0533 49.5699 69.9783 49.4379 69.8665 49.3417C69.7546 49.2455 69.6129 49.1911 69.4654 49.1878C69.725 48.3773 69.9703 47.562 70.2013 46.7417C71.3113 47.4316 71.4278 47.5236 72.3408 48.1744C72.5966 48.4124 72.8897 48.6069 73.2085 48.7501C72.4312 50.7853 72.4251 50.8106 71.8095 52.1459C71.7835 52.208 71.6256 52.661 71.5688 52.7906C71.4776 52.7367 71.3919 52.674 71.3128 52.6035C71.2998 52.5469 71.2786 52.4924 71.25 52.4418C71.8839 52.0608 71.7735 51.4744 71.4201 51.3311ZM70.6934 52.7875L70.6842 52.7967C70.2357 52.9938 69.7461 53.0794 69.2572 53.0462C68.7684 53.0129 68.2949 52.8618 67.8771 52.6059C67.6667 52.5156 67.471 52.3942 67.2969 52.2456C67.5637 52.051 67.8007 51.8186 68.0005 51.5557C68.3562 51.1735 68.6089 50.7071 68.7349 50.2004C68.9203 49.9513 69.1859 49.7737 69.4869 49.6976C69.4463 49.7742 69.5635 49.765 69.2914 49.9927C69.1138 50.1212 68.989 50.3101 68.9403 50.5239C68.9314 50.5618 68.9309 50.6012 68.9389 50.6393C68.9469 50.6773 68.9632 50.7132 68.9866 50.7443C69.01 50.7754 69.04 50.801 69.0744 50.8192C69.1088 50.8374 69.1468 50.8478 69.1856 50.8497C69.6901 50.8969 70.1989 50.8519 70.6873 50.7171C70.8307 50.7117 71.102 50.6404 70.9748 50.898C70.8838 51.059 70.745 51.1879 70.5777 51.2667C70.5374 51.27 70.4986 51.2832 70.4647 51.3053C70.4308 51.3274 70.403 51.3576 70.3837 51.3931C70.3645 51.4287 70.3544 51.4685 70.3544 51.5089C70.3544 51.5493 70.3645 51.5891 70.3838 51.6247C70.3838 51.9612 70.9702 51.7833 71.161 51.8109C71.0381 51.9619 70.8699 52.0694 70.6812 52.1176C70.3462 52.1329 70.2611 52.3667 70.3477 52.5307C70.4205 52.6725 70.6237 52.7155 70.6934 52.7921V52.7875ZM69.5313 44.2995C69.3397 44.242 66.6292 43.6794 66.5525 43.6633C66.2428 43.0158 65.9076 42.3803 65.5468 41.7569C65.5747 41.4275 65.5626 41.096 65.5108 40.7696C66.0957 40.8462 66.6936 40.9045 67.2739 40.9581C68.5433 41.0754 69.5352 41.1927 70.9203 41.3659C70.8641 41.6363 70.8071 41.9053 70.7494 42.1731C69.973 42.0178 69.189 41.9035 68.4007 41.8305C68.3529 41.8265 68.3053 41.8406 68.2674 41.8699C68.2295 41.8993 68.204 41.9418 68.1959 41.9891C68.1878 42.0364 68.1977 42.085 68.2237 42.1253C68.2497 42.1656 68.2899 42.1947 68.3363 42.2068C68.6376 42.2835 69.3619 42.3655 70.6421 42.6499C70.13 44.9587 69.4984 47.2063 68.8024 49.4906C68.7686 49.5197 68.7364 49.5488 68.705 49.578C68.6142 49.0446 68.4439 48.5278 68.1998 48.0449C67.8243 46.7122 67.3482 45.4099 66.7756 44.1493C67.1688 44.2474 67.5628 44.3363 67.9546 44.4275C68.4539 44.5679 68.9606 44.6808 69.4723 44.7656C69.5299 44.7654 69.5854 44.7443 69.6285 44.7062C69.6716 44.6681 69.6993 44.6156 69.7066 44.5585C69.7138 44.5014 69.7 44.4436 69.6678 44.396C69.6355 44.3483 69.587 44.314 69.5313 44.2995ZM64.7335 37.6865C65.6833 37.8144 66.6393 37.8912 67.5973 37.9165C67.8886 37.9264 69.4585 37.895 70.5256 37.7762C70.6865 37.7762 71.3887 37.6167 71.6095 37.596C71.5649 38.0185 71.4932 38.4376 71.3948 38.8509C71.3036 39.3744 71.0514 40.7289 71.02 40.883C69.749 40.7297 66.7357 40.3717 65.4525 40.3349C65.3027 39.4301 65.0618 38.5428 64.7335 37.6865ZM65.1245 41.0547C64.8689 40.6459 64.6027 40.2406 64.3257 39.839L64.8998 39.8075C64.9923 40.2184 65.0672 40.6334 65.1245 41.0524V41.0547ZM64.1686 37.4879C64.1816 37.5186 64.1939 37.55 64.2061 37.5807C63.7599 37.2475 63.3365 36.8846 62.939 36.4945C62.627 36.1873 62.3335 35.862 62.0598 35.5202C63.6968 35.6498 65.341 35.387 66.8561 34.7537C66.8247 34.9775 66.8837 35.0128 66.9818 35.1684C66.5433 35.5447 66.6568 35.9349 67.0868 36.1381C67.2801 36.2092 67.4863 36.2379 67.6916 36.2224C67.9293 36.217 68.2558 36.2346 68.3769 36.4393C68.4536 36.565 68.1631 36.6593 68.0051 36.6248C67.5038 36.5152 67.4157 36.3397 67.2585 36.4416C67.2239 36.4657 67.1971 36.4993 67.1813 36.5384C67.1655 36.5774 67.1615 36.6203 67.1696 36.6616C67.1696 36.8149 67.5529 37.1821 68.0473 37.1821C68.1623 37.1801 68.2767 37.1655 68.3884 37.1384C68.4091 37.1537 68.5854 37.2917 68.6069 37.3017C68.5003 37.3308 68.393 37.3576 68.2857 37.3837C66.9935 37.4058 65.7016 37.3276 64.4215 37.1499C64.38 37.1474 64.3384 37.1552 64.3007 37.1727C64.2629 37.1901 64.23 37.2166 64.2049 37.2499C64.1799 37.2831 64.1635 37.3221 64.1571 37.3632C64.1508 37.4043 64.1547 37.4464 64.1686 37.4856V37.4879ZM76.5368 39.2365C76.5055 39.2338 76.474 39.2379 76.4444 39.2484C76.4147 39.2588 76.3877 39.2755 76.365 39.2973C76.3423 39.319 76.3245 39.3454 76.3127 39.3745C76.301 39.4037 76.2956 39.435 76.2969 39.4664C76.2988 39.5098 76.3147 39.5514 76.3424 39.5849C76.3701 39.6184 76.4079 39.6419 76.4502 39.6519C77.1401 39.8466 77.6445 40.0352 78.1075 40.2077C78.5565 40.3104 78.9788 40.5066 79.347 40.7833C79.2612 41.0419 79.1738 41.3 79.0849 41.5576L77.761 41.011C77.7281 40.9955 77.6924 40.9869 77.656 40.9857C77.6196 40.9844 77.5834 40.9906 77.5494 41.0037C77.5155 41.0169 77.4846 41.0368 77.4586 41.0622C77.4325 41.0877 77.412 41.1181 77.3981 41.1517C77.3841 41.1854 77.3772 41.2215 77.3777 41.2579C77.3781 41.2943 77.3859 41.3302 77.4007 41.3634C77.4154 41.3967 77.4367 41.4267 77.4633 41.4515C77.49 41.4763 77.5213 41.4954 77.5556 41.5077L78.9086 42.0666C78.0133 44.718 76.909 47.2943 75.6063 49.7711L74.4281 49.2123C74.3962 49.1972 74.3617 49.1886 74.3265 49.1868C74.2913 49.185 74.256 49.1902 74.2228 49.2021C74.1896 49.2139 74.1591 49.2322 74.1329 49.2559C74.1068 49.2795 74.0856 49.3081 74.0705 49.34C74.0554 49.3718 74.0467 49.4063 74.0449 49.4416C74.0432 49.4768 74.0484 49.512 74.0602 49.5452C74.0721 49.5784 74.0904 49.6089 74.114 49.6351C74.1377 49.6612 74.1662 49.6825 74.1981 49.6976L75.3479 50.2441C74.7449 51.349 74.0979 52.4283 73.407 53.482C73.0817 53.0688 72.7154 52.6895 72.3139 52.3498C73.4959 49.7436 75.5035 44.239 75.9934 40.8454C76.0307 40.8244 76.0626 40.795 76.0867 40.7596C76.1108 40.7241 76.1263 40.6836 76.1322 40.6412C76.1381 40.5988 76.134 40.5555 76.1205 40.5149C76.1069 40.4743 76.0841 40.4374 76.0539 40.407C75.1095 39.51 74.1166 38.6656 73.0797 37.8774C73.0797 37.724 73.0797 37.5654 73.072 37.4174C75.4268 37.5366 77.7444 38.0536 79.9265 38.9467C79.866 39.146 79.59 40.0245 79.5126 40.2652C78.5556 39.8281 77.5592 39.4828 76.5368 39.2341V39.2365ZM73.9413 44.219C73.5012 43.8548 73.022 43.5407 72.5125 43.2823C72.1036 43.0305 71.6744 42.8133 71.2293 42.633C71.312 42.2559 71.392 41.8782 71.4692 41.5001C72.0523 41.8089 72.6195 42.1468 73.1686 42.5127C73.7473 42.8964 74.3016 43.3157 74.8282 43.7683C74.6427 44.4429 74.1782 46.0258 73.8271 47.0599C72.8476 46.2579 71.7936 45.5515 70.6796 44.9503C70.8365 44.333 70.9855 43.7136 71.1265 43.0922C71.2538 43.1604 71.3818 43.2271 71.5098 43.2938C72.2574 43.6853 72.9801 44.1226 73.6738 44.6031C73.7245 44.6296 73.7831 44.6367 73.8386 44.6231C73.8942 44.6096 73.9429 44.5763 73.9757 44.5294C74.0084 44.4825 74.023 44.4253 74.0167 44.3685C74.0104 44.3117 73.9836 44.2591 73.9413 44.2206V44.219ZM73.6845 47.4654C73.578 47.7682 73.466 48.0702 73.3518 48.3714C72.4008 47.602 71.3843 46.9172 70.314 46.3247C70.3983 46.0181 70.4806 45.7115 70.5608 45.4049C73.4316 47.1917 73.0053 47.0192 73.6845 47.4669V47.4654ZM75.5833 40.6944C75.3372 41.5376 75.1839 42.3716 74.9746 43.2148C73.9252 42.3605 72.779 41.6324 71.5596 41.0455C71.6526 40.5743 71.7408 40.1026 71.8241 39.6305C72.9655 40.1877 74.691 41.3077 74.7086 41.3169C74.7382 41.3361 74.7712 41.3493 74.8059 41.3558C74.8405 41.3622 74.8761 41.3618 74.9106 41.3545C74.9451 41.3472 74.9778 41.3332 75.0069 41.3132C75.0359 41.2933 75.0608 41.2678 75.08 41.2383C75.0992 41.2088 75.1125 41.1757 75.1189 41.1411C75.1254 41.1064 75.1249 41.0708 75.1177 41.0363C75.1104 41.0018 75.0963 40.9691 75.0764 40.9401C75.0565 40.911 75.031 40.8861 75.0014 40.8669C74.0064 40.2164 72.9775 39.6192 71.9191 39.0778C71.9886 38.6608 72.0551 38.244 72.1185 37.8275C73.3404 38.6997 74.4983 39.6583 75.5833 40.696V40.6944ZM72.1905 37.2748C72.1852 37.2404 72.173 37.2074 72.1544 37.1778C72.1359 37.1483 72.1115 37.1229 72.0828 37.1031C72.0541 37.0834 72.0216 37.0697 71.9874 37.063C71.9532 37.0563 71.918 37.0566 71.8839 37.064C71.3447 37.1514 70.8041 37.2214 70.2619 37.2741C71.0496 36.9585 71.7974 36.551 72.4895 36.0599C72.5301 36.5397 72.5661 37.0188 72.606 37.5439C72.4703 37.4565 72.3316 37.363 72.1905 37.2764V37.2748ZM72.0801 35.7011C71.1459 36.3601 70.1102 36.8617 69.0139 37.1859C69.0186 37.1703 69.0209 37.154 69.0208 37.1376C69.0208 36.9843 69.0208 36.9713 68.8008 36.8218C69.0791 36.3696 68.7732 35.951 68.2964 35.7977C68.0266 35.7111 67.4118 35.7977 67.2233 35.6444C67.291 35.5634 67.3682 35.4908 67.4532 35.4282C67.4758 35.4513 67.5036 35.4685 67.5344 35.4783C67.5651 35.488 67.5978 35.4901 67.6295 35.4842H67.6433C67.8074 35.5202 67.9377 35.3309 67.9055 35.1622C67.8908 35.0984 67.8598 35.0396 67.8154 34.9915C67.7711 34.9433 67.7149 34.9076 67.6525 34.8878C67.5743 34.8715 67.4929 34.8787 67.4187 34.9085C67.4072 34.8893 67.3743 34.8411 67.3612 34.8227C67.3286 34.7317 67.2622 34.6567 67.1757 34.6134C68.0813 34.1997 68.9262 33.6643 69.687 33.022C70.4827 33.8627 71.3943 34.5855 72.3944 35.1684C72.4059 35.2565 72.4174 35.3424 72.4289 35.4405C72.3101 35.5233 72.1928 35.6168 72.0801 35.7011ZM72.1047 52.8136C73.0529 53.8101 73.3449 54.155 73.3449 54.155C73.3449 54.155 74.1452 55.6345 74.3246 56.0116C73.4114 55.2132 72.5431 54.3649 71.7237 53.4705C71.8402 53.4169 71.8502 53.354 72.1024 52.8136H72.1047ZM73.7244 53.9764C74.4306 52.9033 75.0924 51.8046 75.7097 50.6803L77.1585 53.8592C76.4875 54.6903 75.7574 55.4719 74.9738 56.1979C74.9302 56.1205 73.8846 54.244 73.7221 53.9764H73.7244ZM80.3849 37.3837C79.4927 36.9935 77.4437 36.342 76.8143 36.1672C76.7639 36.1561 76.7111 36.1644 76.6666 36.1905C76.622 36.2166 76.5889 36.2585 76.5738 36.3078C76.5587 36.3572 76.5628 36.4105 76.5852 36.457C76.6076 36.5035 76.6467 36.5399 76.6948 36.5589C79.1178 37.3561 78.9683 37.4151 80.2431 37.8789C80.1895 38.0636 80.1358 38.2491 80.0814 38.4339C77.8705 37.4523 75.478 36.9462 73.059 36.9483C73.0544 36.8555 72.9555 35.3217 72.9479 35.2289C74.7173 35.1197 76.4934 35.2406 78.2317 35.5884C78.2904 35.5898 78.3474 35.5686 78.391 35.5293C78.4347 35.49 78.4616 35.4354 78.4662 35.3769C78.4714 35.3232 78.456 35.2696 78.4231 35.2269C78.3903 35.1842 78.3424 35.1556 78.2892 35.1469C77.3491 34.8517 76.3685 34.7056 75.3832 34.7138C74.5544 34.6598 73.7225 34.6798 72.8973 34.7736C72.8298 34.2217 72.8605 34.1703 72.7846 33.6866C75.6225 33.4768 78.4744 33.8151 81.1844 34.6831C80.9223 35.5003 80.6432 36.4661 80.3826 37.3837H80.3849ZM54.5185 33.6698C54.5998 33.5783 54.6504 33.4636 54.663 33.3419C54.6757 33.2202 54.6498 33.0976 54.589 32.9914C55.2667 33.1654 55.9309 33.3881 56.5766 33.6575C55.7052 33.6663 54.8374 33.7725 53.9895 33.9741C53.9926 33.96 53.9942 33.9456 53.9941 33.9312V33.912C54.194 33.9034 54.3824 33.8164 54.5185 33.6698ZM48.7394 36.3182C49.4983 33.8606 51.0736 32.5621 53.653 32.8281C53.806 32.9603 53.9676 33.0822 54.1367 33.193C54.244 33.2742 54.1084 33.4015 53.9895 33.3992C53.732 33.3723 53.7228 33.2842 53.4169 33.1761C53.367 33.1613 53.3137 33.1625 53.2644 33.1795C53.2152 33.1966 53.1726 33.2286 53.1425 33.2712C53.1207 33.3111 53.1099 33.3562 53.1112 33.4017C53.1126 33.4473 53.126 33.4916 53.1502 33.5303C53.2673 33.6805 53.4279 33.7911 53.6101 33.8468C53.6162 33.9327 53.5863 33.9818 53.6454 34.0599C51.9 34.546 50.2437 35.3084 48.7394 36.3182ZM51.903 56.26C49.9652 56.4371 50.4619 56.3535 49.9866 56.4049C49.8309 56.4347 49.6709 56.4347 49.5152 56.4049C49.4032 56.2081 49.3254 55.9937 49.2852 55.7709C48.9296 54.6167 48.6479 53.441 48.442 52.2509C48.0241 49.931 48.0075 47.5565 48.393 45.2309C48.541 44.1163 49.0454 43.0794 49.831 42.2751C50.7585 41.4319 52.1069 41.172 53.2966 40.8493C55.042 45.7391 60.0982 49.8225 64.7948 52.1291C60.8021 54.3197 56.4253 55.7221 51.903 56.26ZM79.6782 59.4488C78.1821 59.4293 76.6921 59.2543 75.2322 58.9268C71.356 57.8986 67.904 55.6718 65.369 52.5645C65.3463 52.5043 65.3271 52.4429 65.3115 52.3805C65.5837 52.5651 65.9026 52.6688 66.2313 52.6794C66.4369 52.6831 66.6402 52.6368 66.8239 52.5445C67.1507 52.8538 67.5373 53.093 67.9599 53.2475C68.7839 53.653 69.7349 53.716 70.6053 53.423C70.7236 53.387 70.8389 53.3419 70.9502 53.2881C72.0391 54.5512 73.2176 55.7342 74.4764 56.828C74.486 56.8699 74.5059 56.9087 74.5344 56.9409C74.5628 56.9731 74.5989 56.9977 74.6393 57.0124C74.6797 57.0271 74.7231 57.0315 74.7656 57.0251C74.8081 57.0188 74.8483 57.0019 74.8826 56.9759C77.4552 55.0297 79.1462 52.0777 80.6394 49.4714C81.3569 48.1798 82.9153 45.3474 83.6236 43.7905C84.1514 42.6357 84.5737 41.4355 84.8853 40.2046C84.9249 40.1591 84.945 40.0999 84.9413 40.0398C84.8425 39.5241 84.67 39.0254 84.4292 38.5588C83.8128 37.0395 82.8784 35.6697 81.6888 34.5413C81.7279 34.3673 81.5095 34.2309 81.4052 34.2048C81.0209 34.0806 80.6328 33.9664 80.2408 33.8622C80.6133 32.6144 80.8735 31.3358 81.0181 30.0417C81.2859 30.001 81.5418 29.9032 81.7686 29.755C81.8742 29.9809 82.005 30.1941 82.1587 30.3905C82.031 30.4927 81.906 30.5987 81.7839 30.7086C81.5762 30.903 81.4405 31.1621 81.3987 31.4435C81.357 31.7249 81.4117 32.0122 81.5539 32.2585C81.779 32.5057 82.0776 32.6739 82.4055 32.7384C82.6044 32.8207 82.8212 32.8502 83.0349 32.8242C83.2485 32.7981 83.4518 32.7174 83.6251 32.5897C83.634 32.5828 83.6405 32.5733 83.6438 32.5626C83.647 32.5518 83.6469 32.5403 83.6434 32.5297C83.6398 32.519 83.6331 32.5097 83.6241 32.503C83.615 32.4963 83.6042 32.4926 83.5929 32.4923C83.3769 32.4946 83.1639 32.4413 82.9743 32.3375C82.7848 32.2338 82.6251 32.083 82.5106 31.8998C82.4652 31.7388 82.4626 31.5687 82.5029 31.4063C82.5432 31.244 82.6251 31.0949 82.7405 30.9738C83.7752 31.6534 84.9753 32.0387 86.2122 32.0884C86.7335 32.1018 87.2532 32.1515 87.7676 32.2371C87.7676 32.2371 88.0596 32.7376 88.088 32.7737C87.927 32.8842 87.7734 33.005 87.6281 33.1355C87.5288 33.2613 87.4623 33.4098 87.4347 33.5676C87.407 33.7255 87.4191 33.8877 87.4697 34.0398C87.5203 34.1918 87.608 34.3289 87.7247 34.4386C87.8415 34.5484 87.9837 34.6274 88.1386 34.6686C89.2233 42.1041 87.9538 50.0847 84.3603 58.437C82.9878 59.3638 81.3109 59.7262 79.6782 59.4488ZM124.598 24.3278C117.872 31.2061 108.782 35.347 100.229 39.4909C97.9191 40.6761 95.4831 41.5981 92.9671 42.2398C93.0625 40.4788 92.9999 38.7127 92.78 36.9629C92.7801 36.9113 92.7655 36.8608 92.7379 36.8172C92.7103 36.7737 92.6709 36.7389 92.6243 36.7169C92.5776 36.695 92.5257 36.6868 92.4745 36.6933C92.4234 36.6997 92.3751 36.7207 92.3354 36.7536C92.2895 36.7845 92.2531 36.8277 92.2305 36.8782C92.2079 36.9288 92.1999 36.9847 92.2074 37.0395C93.161 43.9937 90.8675 51.4783 88.6154 58.7045C87.9635 60.8729 86.919 62.9032 85.5338 64.6943C84.2011 66.388 82.2845 67.5237 80.1588 67.8794C86.2751 57.4543 90.8422 45.5865 88.446 33.8346C88.4388 33.8009 88.4229 33.7697 88.3997 33.7443C88.3765 33.7188 88.347 33.7 88.3141 33.6897C88.281 33.6718 88.2435 33.6636 88.2059 33.6659C88.1683 33.6682 88.1321 33.6809 88.1013 33.7027C88.0706 33.7244 88.0465 33.7543 88.0319 33.789C88.0172 33.8237 88.0125 33.8617 88.0182 33.899C87.8059 33.4797 88.2421 33.3555 88.4904 33.114C88.7669 33.2434 89.0706 33.304 89.3756 33.2906C89.6806 33.2773 89.9778 33.1904 90.242 33.0374C90.2522 33.0313 90.2601 33.0221 90.2646 33.0112C90.269 33.0002 90.2698 32.9881 90.2668 32.9766C90.2637 32.9652 90.2571 32.9551 90.2477 32.9478C90.2384 32.9405 90.227 32.9364 90.2152 32.9362C90.057 32.9245 89.9071 32.8611 89.7886 32.7558C89.67 32.6506 89.5893 32.5092 89.559 32.3536C110.115 27.8999 123.575 22.0611 124.038 22.1094C124.51 22.5698 124.86 23.1393 125.059 23.7675C125.036 23.9537 124.753 24.1653 124.596 24.3278H124.598ZM127.193 21.835C126.908 22.5058 126.373 23.0391 125.701 23.3213C125.638 23.3512 125.575 23.3811 125.513 23.4126C125.26 22.8121 124.933 22.2456 124.539 21.7261C124.603 21.3564 124.696 20.9922 124.816 20.6369C124.898 20.4598 125.029 20.3102 125.194 20.2061C125.359 20.1021 125.55 20.0481 125.745 20.0507C125.94 20.0533 126.13 20.1123 126.292 20.2207C126.455 20.3291 126.582 20.4822 126.658 20.6614C126.691 20.7175 126.714 20.7791 126.725 20.8431C126.633 20.8964 126.528 20.9232 126.421 20.9205C126.314 20.9178 126.211 20.8857 126.121 20.8278C126.074 20.8034 126.021 20.7927 125.969 20.7969C125.916 20.801 125.866 20.8198 125.823 20.8512C125.781 20.8826 125.748 20.9252 125.728 20.9743C125.709 21.0234 125.703 21.077 125.713 21.129C125.748 21.3007 125.744 21.4781 125.702 21.6482C125.66 21.8182 125.58 21.9767 125.468 22.1117C125.431 22.171 125.418 22.2418 125.43 22.3105C125.443 22.3792 125.48 22.4408 125.535 22.4835C125.59 22.5263 125.659 22.547 125.729 22.5417C125.799 22.5365 125.864 22.5056 125.912 22.4551C126.149 22.1779 126.286 21.8291 126.301 21.4648C126.443 21.481 126.588 21.468 126.726 21.4264C126.864 21.3849 126.991 21.3158 127.102 21.2233C127.181 21.1778 127.241 21.1035 127.267 21.0156C127.337 21.0087 127.407 21.0033 127.477 20.9987C127.418 21.288 127.323 21.5688 127.195 21.835H127.193Z" fill="#3D7BFF"/>
<path d="M86.0537 24.5812C86.1748 25.0626 86.5221 25.5371 86.9046 25.1845C87.192 24.92 86.9444 24.1205 86.6869 23.9197C86.4293 23.7189 85.8307 23.6936 86.0537 24.5812Z" fill="#3D7BFF"/>
<path d="M89.4694 23.5478C89.6166 24.0843 90.0535 24.1188 90.2359 23.8781C90.4582 23.5792 90.2237 22.9752 90.0305 22.759C89.7584 22.4593 89.2325 22.6823 89.4694 23.5478Z" fill="#3D7BFF"/>
<path d="M89.0901 24.3791C89.6213 25.1533 89.78 25.5251 89.9962 25.867C89.7638 25.9173 89.5359 25.9862 89.3147 26.0732C89.2597 26.0931 89.2132 26.1312 89.1829 26.1812C89.1526 26.2312 89.1403 26.2901 89.1481 26.348C89.1559 26.406 89.1833 26.4595 89.2257 26.4997C89.2682 26.54 89.3231 26.5644 89.3814 26.5691C89.7678 26.526 90.1417 26.4056 90.4806 26.215C90.7351 25.9352 90.3419 25.4216 90.2116 25.2047C89.8299 24.5336 89.3704 23.9099 88.8425 23.3466C88.8075 23.3186 88.7637 23.3038 88.7189 23.3047C88.674 23.3057 88.6309 23.3223 88.5971 23.3518C88.5632 23.3813 88.5408 23.4217 88.5337 23.466C88.5266 23.5103 88.5352 23.5556 88.5581 23.5942C88.7199 23.8661 88.8975 24.1282 89.0901 24.3791Z" fill="#3D7BFF"/>
<path d="M85.3108 23.9841C85.3198 24.0276 85.3436 24.0666 85.3781 24.0945C85.4126 24.1225 85.4557 24.1376 85.5001 24.1374H85.5768C85.6086 24.1375 85.6399 24.1296 85.6678 24.1146C85.6958 24.0995 85.7196 24.0778 85.7371 24.0512C85.7546 24.0247 85.7652 23.9942 85.768 23.9626C85.7708 23.9309 85.7657 23.8991 85.7531 23.8699C85.7529 23.6643 85.8228 23.4649 85.9513 23.3045C86.0798 23.144 86.2592 23.0323 86.4598 22.9876C86.8485 22.9876 86.9642 22.7507 86.8531 22.5729C86.8422 22.5458 86.8254 22.5215 86.804 22.5016C86.5943 22.4435 86.3721 22.4477 86.1648 22.5139C85.9574 22.5801 85.7739 22.7053 85.6366 22.8742C85.4996 23.021 85.3988 23.1978 85.3422 23.3905C85.2857 23.5832 85.2749 23.7865 85.3108 23.9841Z" fill="#3D7BFF"/>
<path d="M86.6001 26.3986C86.6857 27.4211 87.145 28.3762 87.8902 29.0815C88.344 29.4287 88.8514 29.2195 89.3075 28.8707C89.7476 28.5438 90.1221 28.1368 90.4113 27.6711C90.4362 27.6193 90.4426 27.5605 90.4292 27.5046C90.4159 27.4487 90.3837 27.3991 90.338 27.3642C90.2924 27.3293 90.2361 27.3111 90.1787 27.3129C90.1212 27.3146 90.0661 27.336 90.0227 27.3736C89.6231 27.9019 89.1274 28.3499 88.5617 28.6944C88.4713 28.7191 88.3755 28.7156 88.2871 28.6844C88.1988 28.6531 88.122 28.5956 88.0673 28.5196C87.6439 28.0366 87.3445 27.4578 87.1949 26.8332C87.6415 27.0313 88.1179 27.1538 88.6046 27.1958C89.2526 27.3447 89.9328 27.2492 90.5148 26.9275C90.7394 26.8033 90.5209 26.391 90.3086 26.5504C89.785 26.7711 89.2045 26.8184 88.6521 26.6853C88.0619 26.6171 87.4938 26.4209 86.9872 26.1104C86.9423 26.0901 86.8929 26.0822 86.8439 26.0875C86.795 26.0928 86.7483 26.1111 86.7088 26.1406C86.6693 26.17 86.6384 26.2094 86.6193 26.2548C86.6002 26.3002 86.5936 26.3498 86.6001 26.3986Z" fill="#3D7BFF"/>
<path d="M36.3587 45.5837C38.9351 46.3595 42.1078 46.0582 44.2166 44.1572C45.3239 43.1332 46.2561 41.9348 46.9762 40.6096C47.1096 40.431 47.0084 40.1282 46.6657 40.1872C44.9139 40.4792 43.1282 40.5071 41.3681 40.27C41.3234 40.269 41.2791 40.2791 41.2392 40.2994C41.1993 40.3197 41.165 40.3495 41.1395 40.3862C41.1139 40.4229 41.0978 40.4654 41.0926 40.5099C41.0874 40.5543 41.0933 40.5994 41.1098 40.641C40.249 41.8645 39.0032 42.7645 37.5712 43.1975C36.1392 43.6304 34.6034 43.5713 33.209 43.0296C33.1554 43.0191 33.1 43.0249 33.0498 43.0461C32.9995 43.0674 32.9568 43.1032 32.9271 43.1489C32.8973 43.1947 32.8819 43.2482 32.8829 43.3028C32.8838 43.3573 32.901 43.4103 32.9322 43.455C33.7997 44.5329 35.008 45.2836 36.3587 45.5837ZM46.1705 40.7935C45.4077 42.068 44.4209 43.1943 43.2577 44.1181C43.2728 44.0844 43.2802 44.0478 43.2793 44.0109C43.2785 43.974 43.2695 43.9377 43.2529 43.9048C43.2363 43.8718 43.2126 43.843 43.1834 43.8203C43.1543 43.7977 43.1205 43.7818 43.0844 43.7739C43.0033 43.7268 42.9161 43.691 42.8253 43.6673C42.8334 43.5315 42.8103 43.3955 42.758 43.2699C42.7057 43.1443 42.6254 43.0322 42.5233 42.9422C42.3099 42.788 42.0473 42.7176 41.7854 42.7445C41.5235 42.7714 41.2806 42.8935 41.1029 43.0878C40.7564 43.3753 40.4452 43.8406 40.0466 43.6949C39.8434 43.6259 39.8657 43.5416 39.8787 43.491C39.9186 43.3915 39.9785 43.3012 40.0547 43.2258C40.1309 43.1504 40.2218 43.0914 40.3218 43.0526C40.3355 43.0749 40.3536 43.0942 40.3751 43.1093C40.3966 43.1243 40.421 43.1348 40.4467 43.14C40.5287 43.1591 40.5755 43.1216 40.6537 43.0633C40.8607 42.9161 40.6353 42.5949 40.3532 42.5742C40.1084 42.594 39.8787 42.7006 39.7055 42.8747C39.6518 42.8821 39.5974 42.8821 39.5437 42.8747H39.4586C40.2749 42.3471 40.9727 41.6556 41.5076 40.8441C43.0558 41.0336 44.6222 41.0168 46.166 40.7943L46.1705 40.7935ZM39.1827 43.2519C39.2073 43.2842 39.2404 43.3091 39.2783 43.3237C39.3162 43.3383 39.3574 43.3421 39.3973 43.3347C39.3545 43.5107 39.3827 43.6966 39.4757 43.8521C39.5688 44.0076 39.7194 44.1202 39.8948 44.1656C40.508 44.3787 41.0316 43.8444 41.2102 43.6597C41.3692 43.4707 41.5752 43.3269 41.8073 43.2427C41.8981 43.2117 41.997 43.2149 42.0855 43.2518C42.174 43.2886 42.246 43.3565 42.288 43.4427C42.326 43.5328 42.3283 43.6339 42.2942 43.7256C42.2602 43.8172 42.1924 43.8923 42.1048 43.9356C41.8715 44.0125 41.6275 44.0515 41.3819 44.0514C41.3133 44.0446 41.2448 44.0649 41.1908 44.1078C41.1369 44.1507 41.1018 44.213 41.0929 44.2813C41.0885 44.3377 41.105 44.3936 41.1392 44.4386C41.1734 44.4836 41.223 44.5144 41.2784 44.5251C41.5219 44.596 41.7805 44.5969 42.0245 44.5278C42.2685 44.4586 42.4881 44.3222 42.6582 44.1342C42.8659 44.1955 42.8882 44.2775 43.0231 44.279C42.312 44.7636 41.5119 45.1023 40.669 45.2756C39.3809 45.5232 38.0537 45.4805 36.7841 45.1506C35.781 44.9686 34.846 44.5182 34.0782 43.8475C35.8026 44.2281 37.6071 43.9506 39.1375 43.0694C39.1275 43.1334 39.142 43.1988 39.1781 43.2526L39.1827 43.2519Z" fill="#3D7BFF"/>
<path d="M11.5464 42.4194C11.5516 42.4711 11.5713 42.5202 11.6033 42.5611C11.6352 42.602 11.6781 42.633 11.727 42.6505C11.7759 42.668 11.8288 42.6713 11.8794 42.66C11.9301 42.6486 11.9765 42.6232 12.0133 42.5865C13.5256 40.8964 15.3891 39.5574 17.4734 38.6633C18.4756 38.2456 19.5599 38.0621 20.6437 38.1267C21.7275 38.1914 22.7823 38.5026 23.7277 39.0366C23.7781 39.0624 23.8349 39.0727 23.8911 39.0664C23.9473 39.0601 24.0004 39.0374 24.0438 39.0011C24.0872 38.9648 24.119 38.9166 24.1351 38.8624C24.1513 38.8082 24.1512 38.7504 24.1347 38.6963C23.6607 37.3831 23.0356 36.1296 22.272 34.9609C22.248 34.9311 22.2183 34.9064 22.1847 34.8882C22.151 34.8701 22.114 34.8589 22.076 34.8552C22.0379 34.8516 21.9995 34.8556 21.963 34.867C21.9265 34.8784 21.8926 34.8971 21.8634 34.9218C19.4687 34.1723 16.8773 34.3746 14.628 35.4867C13.4881 35.9632 12.5758 36.8607 12.0807 37.9926C11.5799 39.4111 11.3975 40.9225 11.5464 42.4194ZM21.8857 35.3863C22.4436 36.2927 22.9306 37.241 23.3421 38.2225C21.6819 37.4789 19.8108 37.3517 18.0652 37.8638C18.0939 37.8294 18.1097 37.786 18.1096 37.7411C18.1096 37.548 18.0675 37.5878 17.977 37.374C18.1117 37.3333 18.2367 37.2656 18.3443 37.1751C18.452 37.0845 18.5401 36.973 18.6033 36.8473C18.8279 36.2939 18.1963 35.7742 17.5263 35.6929C17.3741 35.6864 17.2224 35.6695 17.0725 35.6423C17.0349 35.6301 17.0034 35.6039 16.9847 35.569C16.966 35.5342 16.9615 35.4934 16.9721 35.4553C17.083 35.292 17.2472 35.1722 17.4366 35.1165C17.4548 35.1106 17.4719 35.1018 17.4872 35.0904C18.9568 34.8534 20.4611 34.9546 21.8857 35.3863ZM16.5436 35.2959C16.3987 35.6914 16.5965 36.0624 17.1423 36.146C17.4462 36.1271 17.7469 36.2167 17.9908 36.3989C18.0468 36.448 18.174 36.5714 18.1441 36.6412C17.9625 36.9945 17.3316 36.9539 16.9759 36.671C16.9453 36.6518 16.9108 36.6394 16.8749 36.6348C16.8391 36.6301 16.8026 36.6332 16.768 36.6439C16.7334 36.6546 16.7016 36.6726 16.6746 36.6967C16.6477 36.7209 16.6262 36.7505 16.6118 36.7837C16.6008 36.8225 16.5985 36.8633 16.6051 36.903C16.6117 36.9428 16.6271 36.9806 16.6501 37.0137C16.7595 37.1371 16.8928 37.2369 17.042 37.307C17.1912 37.3771 17.3531 37.4161 17.5179 37.4215C17.5409 37.5319 17.5829 37.6375 17.6421 37.7335C17.6635 37.7787 17.6939 37.8191 17.7314 37.8522C17.769 37.8853 17.8129 37.9104 17.8605 37.9259C15.6448 38.7394 13.6447 40.0491 12.0133 41.7548C11.9784 40.6466 12.1165 39.5397 12.4226 38.474C12.6441 37.8872 12.9839 37.3523 13.4209 36.9025C13.858 36.4527 14.3828 36.0976 14.963 35.8593C15.4754 35.6332 16.0037 35.4448 16.5436 35.2959Z" fill="#3D7BFF"/>
<path d="M138.622 36.8261C138.641 36.7685 138.646 36.7072 138.637 36.6472C138.628 36.5872 138.605 36.5302 138.569 36.4809C138.534 36.4317 138.487 36.3916 138.433 36.3639C138.379 36.3362 138.319 36.3217 138.259 36.3217C138.173 36.3144 138.088 36.336 138.016 36.383C137.944 36.4299 137.891 36.4996 137.863 36.5808C123.32 79.0753 97.3341 116.565 57.695 138.412C57.6038 138.474 57.5391 138.567 57.5138 138.675C57.4884 138.782 57.5042 138.895 57.558 138.991C57.6118 139.087 57.6997 139.16 57.8044 139.195C57.9091 139.229 58.0229 139.223 58.1235 139.178C97.0581 118.187 124.412 79.4578 138.622 36.8261Z" fill="#3D7BFF"/>
<path d="M140.367 33.8186C137.349 66.7481 124.598 98.0341 103.738 123.692C102.077 125.729 102.094 125.641 102.094 125.834C102.09 125.921 102.113 126.007 102.16 126.08C102.207 126.153 102.276 126.21 102.356 126.242C102.437 126.275 102.525 126.282 102.61 126.262C102.695 126.242 102.771 126.196 102.829 126.131C119.916 105.8 131.887 81.6729 137.741 55.768C139.369 48.5612 140.504 41.2518 141.139 33.8907C141.184 33.3832 140.411 33.3618 140.367 33.8186Z" fill="#3D7BFF"/>
</svg>
