<svg width="56" height="56" viewBox="0 0 56 56" fill="none" xmlns="http://www.w3.org/2000/svg">
<path fill-rule="evenodd" clip-rule="evenodd" d="M22.2973 2.86526L19.7404 0.151361C24.1611 -0.418396 35.8256 0.312233 47.1173 7.79282C47.2642 8.826 47.2325 9.85591 47.2325 9.85591L48.0647 10.3065L48.0694 10.3136L48.0711 10.303L48.0879 10.3133C48.5547 11.115 49.0265 12.3104 49.3279 13.7169C49.6926 15.4188 49.7965 17.378 49.3713 19.2516C48.9429 21.1394 48.1298 22.6974 47.3336 23.837C46.7453 24.6791 46.1843 25.2678 45.8157 25.5901C44.3733 25.6206 41.6883 26.5884 40.9207 29.9438C38.6075 31.268 34.976 32.5916 30.1794 32.5916C25.5974 32.5916 20.9235 31.2642 17.41 28.6936C13.9106 26.1333 11.5605 22.3434 11.5605 17.3538C11.5605 13.3847 13.3387 10.2843 15.5938 8.00415C17.8564 5.71654 20.9493 3.86307 22.7431 3.24792L22.2973 2.86526ZM42.1118 9.37595C41.2228 10.3452 40.3916 10.8103 40.1543 10.9364C34.9632 9.78052 33.0929 6.96942 33.0929 6.96942C37.9895 6.93781 42.4089 8.15687 45.6423 10.2191C45.6423 10.2191 43.892 9.62539 42.1118 9.37595Z" fill="#003BF5"/>
<path d="M19.6681 3.61621C8.53802 5.8585 0.043457 15.8842 0.043457 28.0078C0.043457 43.3353 12.9791 56 28.9361 56C40.8516 56 50.77 48.7033 55.9562 38.9408C49.059 40.579 40.8241 37.6662 40.7715 31.2992C38.2889 32.5774 34.7137 33.7121 30.1797 33.7121C25.401 33.7121 20.4859 32.3314 16.7506 29.5985C13.0012 26.8552 10.4426 22.7463 10.4426 17.3544C10.4426 13.0184 12.3936 9.6493 14.7997 7.21649C16.1918 5.82221 18.1004 4.49902 19.6681 3.61621Z" fill="#003BF5"/>
<path d="M50.421 13.4816C50.2703 12.7778 50.0773 12.1122 49.8581 11.5073C52.8503 13.7467 55.1804 16.8028 54.9863 21.0612C54.7067 27.1944 51.0076 29.6075 48.6394 30.0097C49.7762 28.0993 48.8288 26.8928 48.45 26.4906C48.2656 26.2949 47.885 25.9653 47.2314 25.7598C47.5547 25.4049 47.9034 24.9747 48.2498 24.4789C49.1125 23.2442 49.9953 21.5542 50.4616 19.4996C50.9311 17.4309 50.8112 15.3022 50.421 13.4816Z" fill="#003BF5"/>
</svg>
