<svg width="148" height="125" viewBox="0 0 148 125" fill="none" xmlns="http://www.w3.org/2000/svg">
<path d="M147.196 99.1885C147.152 98.9938 146.989 98.9233 146.812 98.8052C146.812 98.8052 147.203 89.9454 147.203 89.845C147.203 86.5236 142.451 83.685 135.657 82.7928C135.987 82.6591 136.272 82.4347 136.48 82.1454C136.687 81.8561 136.809 81.5139 136.83 81.1585C136.898 81.1439 136.962 81.1107 137.013 81.0626C137.064 81.0145 137.101 80.9532 137.119 80.8856C139.536 72.1231 141.384 64.2284 139.503 56.3468C137.613 48.2152 131.712 39.4612 125.15 35.0574C118.501 30.7801 110.496 29.1376 102.7 30.4512C102.645 30.3201 102.592 30.1875 102.539 30.051C103.247 30.122 103.956 29.9316 104.533 29.5158C105.11 29.0999 105.515 28.4873 105.672 27.7936C105.818 26.9726 105.503 27.1336 105.88 27.1037C106.876 26.9149 107.757 26.3418 108.333 25.5085C108.926 24.5189 108.716 22.5757 107.616 21.9823C107.86 21.5954 108.054 21.1782 108.19 20.7413C108.762 18.8656 107.45 18.3374 106.266 17.649C104.662 16.766 105.064 13.7205 104.235 11.9697C102.69 8.49413 98.8485 5.10368 95.3814 6.39915C93.3796 5.5177 91.1605 5.25243 89.0073 5.63715C86.8541 6.02187 84.8642 7.03915 83.2914 8.55929C81.6517 10.2075 80.4109 12.2092 79.664 14.4109C78.9172 16.6126 78.6841 18.9561 78.9826 21.2618C79.2814 22.6087 79.4023 23.989 79.3421 25.3674C79.2617 26.4168 78.3456 27.3122 78.1601 28.5179C78.0565 28.9135 78.0632 29.3299 78.1794 29.7219C78.2956 30.1139 78.5169 30.4667 78.8193 30.7419C79.1216 31.0171 79.4936 31.2043 79.8948 31.2832C80.296 31.3621 80.7112 31.3296 81.0952 31.1894C81.1468 31.7209 81.3409 32.2286 81.6572 32.6589C81.9735 33.0892 82.4001 33.4261 82.892 33.6339C83.3908 33.8159 83.9315 33.8502 84.4493 33.7325C84.967 33.6149 85.4399 33.3505 85.8111 32.9708C86.074 33.3066 86.793 33.8708 87.1702 33.8332C87.5307 33.8988 87.9027 33.8271 88.213 33.6322C88.5232 33.4373 88.7493 33.1332 88.8466 32.78C89.5751 33.3061 90.4109 33.6644 91.2943 33.8293C92.1776 33.9941 93.0865 33.9615 93.9557 33.7336V33.7573C77.4265 38.1972 70.7576 53.6217 69.4215 55.026C69.1137 55.2347 68.7609 55.3673 68.392 55.4131C64.4826 56.1298 61.1987 58.8427 58.2996 61.2389C54.9268 64.0276 54.5948 64.0046 54.4822 64.2208C51.8146 63.2557 49.9856 64.0491 49.0006 65.576C46.6664 65.7409 46.034 69.1397 45.479 71.4455C45.1571 72.7824 44.7056 74.7486 45.0896 76.0647C45.0306 76.1414 45.0038 76.2058 41.6724 81.9289C41.1971 81.7709 40.7149 81.6371 40.2259 81.5272C39.9352 81.4125 39.6247 81.3567 39.3123 81.363C38.9999 81.3693 38.6919 81.4376 38.4061 81.564C37.786 81.9234 37.3171 82.4953 37.0861 83.1737C36.84 83.6659 36.584 84.2523 36.295 84.9904C36.0783 82.2837 36.0345 79.5659 36.1639 76.8535C36.3832 70.9419 36.0612 64.9114 35.8082 59.0282C38.7191 56.0761 41.3276 52.8405 43.5949 49.3696C43.6459 49.3914 43.701 49.4019 43.7565 49.4003C43.8119 49.3987 43.8664 49.3851 43.916 49.3604C45.5212 48.5358 47.082 47.6274 48.592 46.6392C49.7772 46.9055 51.0085 46.8879 52.1856 46.5878C52.4868 47.9676 53.9417 48.6384 55.1199 49.1826C55.1801 49.2103 55.2465 49.2219 55.3125 49.2163C55.3786 49.2107 55.442 49.1881 55.4967 49.1506C55.5514 49.1131 55.5954 49.0621 55.6245 49.0026C55.6536 48.9431 55.6667 48.877 55.6627 48.8108C55.637 48.1881 55.4265 47.5871 55.0578 47.0846C54.6892 46.582 54.1792 46.2006 53.593 45.9892C53.8038 45.868 54.0046 45.7393 54.1947 45.6059C54.2604 45.6387 54.3341 45.6519 54.407 45.644C54.48 45.6361 54.5492 45.6075 54.6063 45.5614C55.133 45.1375 58.2137 47.1758 61.4685 46.2935C61.6732 46.2375 62.6337 45.9616 62.7571 46.1325C62.8172 46.2116 62.9057 46.2642 63.0039 46.2793C63.1021 46.2944 63.2023 46.2707 63.2834 46.2134C63.3645 46.156 63.4202 46.0694 63.4387 45.9718C63.4572 45.8742 63.4371 45.7733 63.3826 45.6902C62.3554 44.1571 59.2125 42.7903 56.167 43.8398C56.9253 43.2282 57.5292 42.4471 57.9301 41.5593C58.3092 40.6194 58.5917 39.6434 58.7733 38.6464C58.7866 38.5701 58.7764 38.4916 58.7442 38.4212C58.712 38.3509 58.6593 38.2919 58.5929 38.2521C58.5265 38.2122 58.4496 38.1934 58.3724 38.1982C58.2951 38.2029 58.2211 38.2308 58.1601 38.2784C57.0326 39.1275 55.9736 40.0638 54.9927 41.0786C54.5447 41.6134 54.2069 42.2314 53.9988 42.8972C53.7907 43.5631 53.7163 44.2635 53.78 44.9581C53.3547 45.2608 52.8986 45.5178 52.4194 45.7247C51.4699 46.0358 50.4635 46.1332 49.472 46.0099C50.8518 44.9421 52.2814 43.5362 52.7245 41.7172C53.1201 41.2141 53.4788 40.683 53.7976 40.1281C54.5159 38.6901 54.6914 36.1068 54.5688 34.5262C54.5635 34.4596 54.541 34.3956 54.5033 34.3405C54.4657 34.2854 54.4144 34.241 54.3544 34.2118C54.2944 34.1826 54.2278 34.1696 54.1612 34.1741C54.0946 34.1785 54.0303 34.2003 53.9747 34.2372C52.8232 35.0199 51.9401 36.1377 51.4451 37.4391C51.4403 37.4519 51.4362 37.4649 51.4328 37.4781C51.0265 38.9674 51.1643 40.5527 51.8215 41.9494C51.8268 41.9608 51.833 41.9718 51.8399 41.9824C50.8671 44.6776 46.7078 47.0347 44.1843 48.3639C48.7576 40.1511 45.8079 36.8082 48.9998 27.7974C50.4788 27.3035 51.8611 26.5574 53.0855 25.592C54.4116 25.6005 55.5063 26.0573 56.8884 25.9646C58.2816 25.7982 59.6064 25.2679 60.7295 24.4269C60.7772 24.3912 60.8158 24.3449 60.8424 24.2917C60.869 24.2384 60.8829 24.1798 60.8829 24.1203C60.8829 23.3989 57.4296 22.7642 55.3798 23.3905C56.4494 22.1164 57.2966 20.6712 57.8856 19.1154C58.4547 19.1814 59.0303 19.0701 59.5337 18.7966C59.9055 18.657 60.278 18.4945 60.6498 18.3313C61.7412 17.9697 62.7632 17.4253 63.6723 16.7215C63.7289 16.6745 63.7707 16.6122 63.7929 16.5421C63.815 16.472 63.8165 16.397 63.7972 16.3261C63.7779 16.2551 63.7386 16.1912 63.6839 16.142C63.6293 16.0928 63.5617 16.0603 63.4891 16.0485C62.0316 15.806 60.5347 16.0342 59.2156 16.7C59.3108 16.3532 59.3412 15.9917 59.3053 15.6338C59.2446 15.1656 59.2446 14.6915 59.3053 14.2233C59.3397 14.1863 59.3664 14.1428 59.384 14.0954C59.4016 14.0481 59.4097 13.9977 59.4078 13.9472C59.4059 13.8967 59.3941 13.847 59.373 13.8011C59.3519 13.7552 59.322 13.7138 59.285 13.6795C59.2479 13.6451 59.2045 13.6183 59.1571 13.6008C59.1097 13.5832 59.0593 13.5751 59.0088 13.577C58.9583 13.5789 58.9087 13.5907 58.8628 13.6117C58.8168 13.6328 58.7755 13.6627 58.7411 13.6998C57.5024 14.786 56.3495 16.8993 57.2739 18.5582C56.6118 20.4232 55.5624 22.1269 54.1947 23.5573C52.827 24.9877 51.1721 26.1125 49.3386 26.8576C51.1707 22.0046 53.7371 17.3401 54.7811 12.2272C56.6891 12.123 57.1084 10.2534 57.8642 9.3473C57.9144 9.28501 57.9439 9.20856 57.9484 9.12868C57.953 9.0488 57.9325 8.96948 57.8897 8.90186C57.847 8.83424 57.7841 8.7817 57.7099 8.7516C57.6358 8.72151 57.5541 8.71538 57.4763 8.73406C56.5798 8.90683 55.7747 9.39462 55.2066 10.1093C55.2066 8.94946 54.5351 8.79002 53.8199 6.16688C53.7983 6.08743 53.7518 6.01702 53.6871 5.96608C53.6224 5.91515 53.5431 5.88639 53.4608 5.88407C53.3785 5.88175 53.2976 5.90598 53.2302 5.95319C53.1627 6.0004 53.1123 6.06807 53.0863 6.14619C52.7937 7.05329 52.6942 8.01157 52.7942 8.95942C52.9008 9.95373 53.3712 10.8735 54.115 11.5419C53.6032 13.4195 52.9466 15.2545 52.1511 17.0304C51.8713 15.9765 51.759 14.8852 51.8184 13.7964C51.8243 13.695 51.7897 13.5955 51.7223 13.5197C51.6549 13.4438 51.5602 13.3977 51.4589 13.3916C51.4086 13.3886 51.3582 13.3955 51.3106 13.412C51.263 13.4285 51.2191 13.4542 51.1814 13.4877C51.1438 13.5211 51.1131 13.5617 51.0911 13.607C51.0691 13.6524 51.0563 13.7016 51.0534 13.7519C50.9755 15.2289 51.1858 16.707 51.6728 18.1036C49.5732 22.7297 46.9914 27.3451 46.1145 32.4795C45.906 33.7826 45.8133 35.1264 45.6929 36.4341C44.1 34.2516 43.075 31.7072 42.7103 29.03C43.4697 28.6596 44.1026 28.0729 44.5293 27.3436C44.5891 27.2478 45.0022 25.8036 45.187 25.5085C45.2522 25.4529 45.2968 25.377 45.3138 25.293C45.3309 25.2091 45.3192 25.1218 45.2809 25.0452C45.2425 24.9686 45.1795 24.9071 45.1021 24.8704C45.0246 24.8338 44.9371 24.8242 44.8535 24.8431C44.4013 24.9551 43.9763 25.1573 43.6042 25.4376C43.2321 25.7179 42.9204 26.0705 42.688 26.4743C42.4301 26.9712 42.2186 27.4908 42.0564 28.0266C41.5322 26.8759 40.8677 25.7946 40.0779 24.8071C40.0508 24.731 40.0003 24.6654 39.9336 24.6198C39.867 24.5741 39.7876 24.5506 39.7069 24.5528C39.6261 24.5549 39.5481 24.5825 39.4839 24.6316C39.4198 24.6807 39.3728 24.7488 39.3497 24.8262C39.1109 25.5833 39.1163 26.3962 39.3651 27.15C39.614 27.9038 40.0937 28.5602 40.7364 29.0262C39.9903 28.7035 39.2108 28.4642 38.4122 28.3125C38.3358 28.2987 38.2571 28.3083 38.1863 28.3402C38.1155 28.3721 38.0561 28.4247 38.0159 28.4911C37.7913 28.8614 38.2666 29.1044 38.6192 29.7176C39.0344 30.3532 39.6121 30.866 40.2924 31.203C40.9727 31.54 41.7308 31.6888 42.488 31.634C43.1122 33.7864 44.1634 35.7911 45.5787 37.5287C44.7822 44.443 40.9894 50.048 35.602 54.284C35.2287 45.5453 34.9436 36.6104 35.7485 27.8319C40.5601 23.9286 42.4489 16.5099 42.396 10.2978C43.1165 9.79064 43.7291 9.14552 44.1985 8.39984C44.6679 7.65416 44.9846 6.82275 45.1303 5.95378C45.1414 5.88275 45.1324 5.81001 45.1042 5.74387C45.0759 5.67774 45.0297 5.62087 44.9707 5.57978C44.9117 5.53868 44.8423 5.51501 44.7705 5.51148C44.6987 5.50794 44.6273 5.52468 44.5645 5.55978C42.5393 6.69887 41.4983 8.16604 41.598 9.71141C41.3386 8.96309 40.9556 8.26351 40.465 7.64173C40.1922 7.30199 39.9476 6.94051 39.7337 6.56089C39.7397 6.46803 39.7116 6.37618 39.6549 6.30248C39.5981 6.22877 39.5164 6.17824 39.4251 6.16032C39.3338 6.1424 39.2391 6.1583 39.1586 6.20507C39.0782 6.25183 39.0175 6.32626 38.9879 6.41448C38.5954 7.56129 38.5954 8.80606 38.9879 9.95287C38.9949 9.97435 39.0039 9.99513 39.0147 10.015C39.6008 11.0917 40.4867 11.9752 41.565 12.5584C41.4655 14.1053 41.237 15.6411 40.882 17.15C39.3702 14.7254 38.2675 12.0686 37.6181 9.28598C37.6073 9.23617 37.5867 9.18901 37.5575 9.14726C37.5283 9.10551 37.4911 9.07 37.448 9.04281C37.4049 9.01561 37.3568 8.99729 37.3065 8.9889C37.2563 8.98051 37.2049 8.98223 37.1553 8.99395C37.1057 9.00567 37.0589 9.02716 37.0178 9.05716C36.9766 9.08717 36.9418 9.12508 36.9154 9.16869C36.8891 9.2123 36.8717 9.26072 36.8643 9.31114C36.8568 9.36155 36.8595 9.41293 36.8722 9.46228C36.9448 9.7689 37.0214 10.0755 37.1022 10.3821C36.4811 9.98951 35.9511 9.46873 35.5476 8.85466C35.1442 8.24059 34.8765 7.5474 34.7627 6.82152C35.2342 6.67953 35.6713 6.44167 36.0465 6.12285C36.4218 5.80403 36.7272 5.41113 36.9435 4.96877C37.3975 4.06668 37.7732 3.12727 38.0665 2.16089C38.0887 2.0865 38.0878 2.00711 38.0639 1.93324C38.04 1.85937 37.9943 1.7945 37.9327 1.74722C37.8711 1.69993 37.7966 1.67246 37.7191 1.66845C37.6415 1.66443 37.5646 1.68406 37.4985 1.72473C36.2849 2.48814 35.2412 3.49294 34.4323 4.67671C34.1057 2.98263 33.55 2.9834 32.8417 1.09232C32.8135 1.01723 32.7625 0.952876 32.6958 0.908322C32.6291 0.863768 32.5501 0.84126 32.4699 0.843969C32.3898 0.846677 32.3125 0.874466 32.2489 0.923421C32.1854 0.972376 32.1388 1.04003 32.1158 1.11685C31.8374 2.07013 31.8029 3.07805 32.0154 4.04814C32.3362 5.09422 33.0145 5.99424 33.9317 6.59079C34.0378 7.38069 34.2812 8.14598 34.6508 8.85211C33.4506 8.6209 32.2075 8.85582 31.1744 9.50904C31.1224 9.54244 31.0791 9.58797 31.0484 9.64172C31.0178 9.69547 31.0006 9.75585 30.9983 9.81769C30.996 9.87954 31.0088 9.94101 31.0355 9.99686C31.0621 10.0527 31.1019 10.1013 31.1515 10.1384C31.5961 10.4728 32.1352 10.6579 32.6915 10.6673C33.6817 10.7319 34.6719 10.5405 35.5668 10.1115C36.0919 10.6596 36.7161 11.1031 37.4065 11.4185C38.1508 13.8061 39.2326 16.0751 40.6191 18.1565C39.7115 21.4197 38.3379 24.4614 35.8512 26.7304C36.0081 25.2003 36.2012 23.6757 36.4307 22.1563C36.4461 22.0593 36.4237 21.9601 36.368 21.8791C36.3123 21.7981 36.2277 21.7416 36.1316 21.7213C36.0355 21.7009 35.9352 21.7182 35.8515 21.7697C35.7678 21.8211 35.707 21.9027 35.6818 21.9977C34.263 27.4095 33.3795 32.9476 33.0441 38.5322C30.0476 37.2551 27.9181 33.3441 27.0857 31.0568C26.9508 30.5968 26.9753 30.7156 26.9998 30.6129C28.2144 25.6056 28.6498 20.441 28.2907 15.3011C28.2835 15.1994 28.2362 15.1048 28.1592 15.038C28.0822 14.9713 27.9818 14.9378 27.8802 14.945C27.7785 14.9522 27.6839 14.9996 27.6172 15.0765C27.5504 15.1535 27.5169 15.2539 27.5241 15.3555C27.8486 19.9434 27.5242 24.5542 26.5606 29.0515C26.3647 28.1943 26.2381 27.3227 26.1819 26.4452L25.262 19.3048C25.259 19.2031 25.2157 19.1069 25.1417 19.0371C25.0676 18.9674 24.9689 18.93 24.8673 18.933C24.7656 18.9361 24.6693 18.9794 24.5996 19.0534C24.5299 19.1274 24.4924 19.2261 24.4955 19.3278C24.4403 20.161 24.4227 20.9375 24.4441 21.6727C23.4187 20.5177 22.6431 19.1632 22.166 17.6942C21.6888 16.2252 21.5205 14.6735 21.6715 13.1364C21.6894 13.1201 21.7053 13.1018 21.7191 13.0819C22.504 13.1379 23.1878 12.0548 23.2644 11.9988C24.0274 11.0623 24.6575 10.0251 25.1371 8.9165C25.182 8.82501 25.1888 8.71942 25.1559 8.62296C25.1229 8.5265 25.053 8.44707 24.9616 8.40214C24.8701 8.35721 24.7645 8.35047 24.668 8.38339C24.5716 8.41631 24.4921 8.4862 24.4472 8.57768C24.1033 8.81495 23.7357 9.01584 23.3503 9.17712C22.6213 9.56399 22.0161 10.1485 21.6041 10.8635C21.3561 9.14239 20.7802 7.4848 19.9077 5.98061C19.8711 5.91804 19.8174 5.86714 19.753 5.83383C19.6886 5.80052 19.6161 5.78616 19.5438 5.79242C19.4716 5.79868 19.4026 5.8253 19.3449 5.8692C19.2872 5.91309 19.2431 5.97246 19.2178 6.0404C18.806 7.19206 18.7334 8.43773 19.0087 9.62942C19.284 10.8211 19.8956 11.9087 20.7708 12.763C20.8154 12.8073 20.8701 12.84 20.9303 12.8581C20.7192 14.6869 20.9335 16.5397 21.5564 18.272C22.1794 20.0043 23.1942 21.5692 24.5216 22.8447C25.3027 31.3572 25.2621 34.5998 32.8655 41.6367C32.6355 46.7496 32.6769 51.8855 32.7735 56.9677C30.4986 55.3797 28.3148 53.665 26.2325 51.8318C23.952 49.9517 21.9436 47.764 20.2649 45.3315C18.508 42.7252 17.513 39.6904 16.6169 36.6786C16.6775 36.6289 16.7214 36.5617 16.7426 36.4862C17.549 33.506 17.5257 30.3621 16.6752 27.3942C17.1129 27.2501 17.457 26.6644 17.825 25.9753C18.421 24.7741 18.7141 23.4454 18.6789 22.105C18.6789 22.0338 18.6591 21.964 18.6217 21.9035C18.5843 21.8429 18.5307 21.794 18.467 21.7622C18.4034 21.7303 18.3321 21.7169 18.2612 21.7233C18.1903 21.7297 18.1226 21.7557 18.0657 21.7984C17.4838 22.2243 16.9932 22.7626 16.623 23.3814C16.2527 24.0002 16.0103 24.687 15.9101 25.4012C15.8461 25.6628 15.8051 25.9296 15.7875 26.1984C14.8163 25.2432 14.2789 25.2563 11.6926 23.9608C11.6255 23.9276 11.5502 23.9148 11.4759 23.9239C11.4017 23.933 11.3317 23.9637 11.2746 24.0121C11.2176 24.0605 11.1759 24.1246 11.1548 24.1964C11.1338 24.2682 11.1342 24.3446 11.156 24.4161C11.5195 25.6867 12.3537 26.7709 13.4886 27.4478C13.8443 27.7146 15.8044 28.3892 16.1179 28.6743C16.143 28.727 16.1797 28.7734 16.2252 28.81C16.6745 30.9695 16.6766 33.1983 16.2313 35.3586L15.9186 34.2655C15.9048 34.2171 15.8816 34.1719 15.8503 34.1324C15.819 34.093 15.7803 34.0601 15.7363 34.0356C15.6923 34.0111 15.6439 33.9955 15.5939 33.9897C15.5439 33.9839 15.4933 33.9881 15.4448 34.0018C15.3964 34.0156 15.3512 34.0388 15.3117 34.0701C15.2723 34.1014 15.2394 34.1401 15.2149 34.1841C15.1904 34.2281 15.1748 34.2765 15.169 34.3265C15.1632 34.3765 15.1674 34.4272 15.1811 34.4756C15.8932 37.2306 16.8029 39.9308 17.9032 42.555C15.2065 41.6169 12.9544 39.7106 11.5837 37.206C11.5374 37.1215 11.461 37.0576 11.3697 37.0269C11.2783 36.9962 11.1788 37.001 11.0908 37.0405C10.4631 36.5664 9.73344 36.2454 8.95983 36.103C7.8296 35.8288 6.65434 35.7953 5.51035 36.0048C5.44081 36.0163 5.37578 36.0468 5.32241 36.0928C5.26904 36.1388 5.22941 36.1987 5.20785 36.2658C5.1863 36.3329 5.18368 36.4047 5.20026 36.4732C5.21684 36.5417 5.252 36.6043 5.30185 36.6541C6.05432 37.4435 7.02906 37.9854 8.09669 38.2079C8.28782 38.2769 8.47741 38.3362 8.66547 38.3857C7.65882 38.6941 6.73125 39.2177 5.94701 39.9201C5.16277 40.6225 4.54062 41.4871 4.12367 42.4538C4.09885 42.5104 4.08807 42.5721 4.09224 42.6337C4.09642 42.6954 4.11543 42.7551 4.14765 42.8078C4.17987 42.8605 4.22435 42.9046 4.27729 42.9364C4.33024 42.9682 4.39009 42.9867 4.45175 42.9904C6.05971 43.103 7.67339 42.8766 9.18826 42.3258C10.4984 41.7828 11.5907 40.8192 12.2928 39.5869C13.8724 41.4683 15.983 42.8293 18.3485 43.4917C20.1826 46.9344 22.6953 49.9698 25.735 52.4144C27.9761 54.3866 30.3333 56.2228 32.7942 57.9128C33.1227 67.2073 32.9843 76.5124 32.3795 85.793C32.2715 87.3855 31.9092 88.9505 31.3063 90.4284C31.2947 90.4561 31.2868 90.4852 31.2825 90.515C28.0543 91.76 25.041 93.503 22.3522 95.6808C21.8418 96.0968 21.2757 96.4394 20.6704 96.6987C19.8547 96.7654 19.0337 96.7015 18.2382 96.5094C12.8838 96.038 8.78889 102.13 4.32603 103.86C2.03252 104.805 0.876559 105.992 0.794539 107.489C0.788891 107.59 0.823746 107.69 0.891447 107.765C0.959147 107.841 1.05415 107.887 1.15558 107.893C1.25702 107.898 1.35655 107.863 1.4323 107.796C1.50805 107.728 1.55382 107.633 1.55956 107.532C1.62471 106.359 2.62506 105.39 4.61042 104.572C9.14073 102.815 13.2663 96.8359 18.1209 97.2652C18.9987 97.4753 19.9051 97.5395 20.8038 97.4553C21.545 97.1791 22.2338 96.7786 22.8405 96.271C25.4799 94.1355 28.4386 92.4283 31.6083 91.2118C37.1942 89.1536 38.0021 91.7599 40.8552 92.948C45.6845 94.9579 50.4593 91.6571 53.6696 97.0958C55.169 99.5181 55.4112 100.68 58.1302 102.626C59.487 103.598 59.8932 103.989 60.4122 106.163C60.728 107.489 60.984 107.993 63.7797 108.707C64.5571 108.896 65.2832 109.254 65.906 109.757C66.5288 110.259 67.033 110.893 67.3824 111.613C67.4039 111.658 67.4341 111.699 67.4713 111.733C67.5086 111.767 67.5521 111.793 67.5995 111.81C67.6469 111.827 67.6971 111.835 67.7474 111.832C67.7977 111.83 67.847 111.818 67.8926 111.796C67.9381 111.775 67.979 111.745 68.0129 111.707C68.0468 111.67 68.073 111.627 68.09 111.579C68.1071 111.532 68.1146 111.482 68.1122 111.431C68.1099 111.381 68.0976 111.332 68.0762 111.286C67.6791 110.464 67.1052 109.74 66.3955 109.166C65.6859 108.591 64.8581 108.181 63.9713 107.964C60.2566 107.017 61.9108 106.826 60.3685 103.748C59.6786 102.566 58.5372 102.085 57.6304 101.27C55.8528 99.758 55.53 98.6419 54.3258 96.698C51.2948 91.5621 47.0206 93.4861 42.8053 92.7073C43.9766 91.1121 45.305 88.8615 46.3023 87.8259C46.7466 87.3976 47.0421 86.8383 47.1455 86.23C47.3234 85.0035 45.9382 84.0836 44.8865 83.4305C48.3291 77.5695 48.1328 77.9275 48.1505 77.8224C49.5407 77.4417 50.8187 76.7318 51.8767 75.7528C51.6227 78.0425 52.284 80.3399 53.7164 82.1443C55.2537 83.7207 57.0536 85.0176 59.0355 85.977C65.9308 89.5241 73.2529 92.1715 80.8224 93.8541C76.4944 97.8754 72.1795 102.804 71.288 109.932C70.6334 114.946 74.217 116.613 79.2739 116.613C89.952 116.613 104.125 110.15 112.969 103.898C112.966 104.515 112.827 105.123 112.562 105.679C112.297 106.236 111.913 106.727 111.436 107.118C110.504 107.844 109.331 108.549 109.554 109.771C109.614 110.11 109.771 110.423 110.006 110.674C110.24 110.925 110.542 111.102 110.876 111.185C112.648 111.368 114.421 110.851 115.818 109.746L116.14 117.123C116.14 121.24 122.701 124.464 131.078 124.464C139.455 124.464 145.927 121.239 146.017 117.14C146.053 115.461 146.048 115.693 146.16 115.641C146.223 115.612 146.278 115.566 146.317 115.508C146.356 115.45 146.379 115.383 146.382 115.313C147.276 98.113 147.214 99.2682 147.196 99.1885ZM54.7597 48.1616C53.9998 47.8808 53.3702 47.3298 52.9912 46.6139C53.3952 46.6957 53.7708 46.8815 54.0809 47.1529C54.3911 47.4244 54.625 47.772 54.7597 48.1616ZM60.7548 44.7121C61.2142 44.8484 61.6433 45.0714 62.0189 45.369C61.4677 45.4733 60.8369 45.6994 60.5586 45.7025C58.8868 45.7819 57.2174 45.5014 55.6634 44.88C56.4501 44.4881 57.3122 44.2708 58.1907 44.2429C59.0692 44.2149 59.9433 44.3771 60.7533 44.7182L60.7548 44.7121ZM55.5523 41.5953C56.2433 40.8651 56.9885 40.1882 57.7814 39.5701C56.9965 42.5466 56.2659 42.624 54.5251 44.2629C54.5669 43.2863 54.9271 42.3503 55.5507 41.5976L55.5523 41.5953ZM52.1672 37.6859C52.522 36.7666 53.0935 35.9464 53.8329 35.295C53.8398 36.2218 53.7685 37.1475 53.6198 38.0623C53.4715 39.1597 53.0045 40.1895 52.2768 41.0242C51.9108 39.9487 51.8721 38.7888 52.1656 37.6912L52.1672 37.6859ZM62.3362 16.7192C61.6973 17.0762 61.0308 17.3815 60.3432 17.6322C59.9829 17.7855 59.6242 17.9472 59.2018 18.112C59.0133 18.2202 58.8069 18.2937 58.5924 18.329C58.6865 18.1709 58.7715 18.0076 58.8469 17.8399C59.8634 17.1091 61.0843 16.717 62.3362 16.7192ZM58.5035 15.0995C58.5165 15.3931 58.5472 15.8315 58.5564 15.9343C58.5123 16.4276 58.3953 16.9117 58.2091 17.3708C58.056 17.5053 57.9157 17.6536 57.7898 17.8138C57.7041 17.3365 57.7239 16.8462 57.8477 16.3773C57.9715 15.9084 58.1964 15.4723 58.5066 15.0995H58.5035ZM55.9171 24.0313C56.7277 23.8747 57.5579 23.8472 58.377 23.9501C58.5058 23.9608 59.1321 24.1034 59.638 24.2345C58.773 24.7495 57.8097 25.0778 56.8102 25.198C55.8442 25.1789 54.882 25.0717 53.9356 24.8776C54.5484 24.4948 55.2169 24.2093 55.9171 24.0313ZM44.1813 25.9661C44.1046 26.1915 43.8547 26.9741 43.8547 26.9741C43.5911 27.3993 43.2493 27.7707 42.8475 28.0688C43.0428 27.2377 43.5127 26.4969 44.1813 25.9661ZM39.9522 25.9462C40.5853 26.7666 41.1041 27.6691 41.4945 28.6291C41.0226 28.3587 40.6309 27.9678 40.3595 27.4965C40.0881 27.0251 39.9468 26.4901 39.9499 25.9462H39.9522ZM39.2639 29.3106C39.8928 29.5009 40.5045 29.7445 41.0921 30.0388C41.4527 30.2335 41.7495 30.5281 41.9468 30.8874C41.409 30.8462 40.8878 30.6828 40.4228 30.4095C39.9578 30.1362 39.5614 29.7604 39.2639 29.3106ZM39.7038 9.68305C39.4832 9.02028 39.4122 8.31682 39.4961 7.62333C39.7928 8.03726 40.196 8.55162 40.3002 8.74479C40.8263 9.51952 41.1165 10.4301 41.1358 11.3664C40.5506 10.9065 40.0636 10.3338 39.7038 9.68228V9.68305ZM32.6516 2.54877C32.8249 2.88218 33.0216 3.20289 33.2403 3.50849C33.5467 4.12251 33.7246 4.7926 33.7631 5.47775C33.3636 5.10885 33.0554 4.65216 32.8626 4.14372C32.6698 3.63529 32.5979 3.08901 32.6524 2.548L32.6516 2.54877ZM36.9512 3.06695C36.7511 3.58821 36.5204 4.111 36.2613 4.62995C35.9417 5.28491 35.3815 5.79107 34.6975 6.0427C34.8554 5.05845 35.9485 3.88256 36.9519 3.06619L36.9512 3.06695ZM32.7597 9.90995C32.5781 9.90995 32.3974 9.88414 32.2231 9.83329C32.9857 9.53045 33.8211 9.46108 34.6232 9.63399C34.0368 9.88736 33.3943 9.98251 32.7597 9.90995ZM44.1552 6.73183C43.8069 7.75198 43.1873 8.65801 42.363 9.35266C42.4559 8.8127 42.6641 8.29909 42.9733 7.84683C43.2826 7.39456 43.6857 7.01426 44.1552 6.73183ZM22.166 11.3932C22.4896 10.8537 22.9107 10.3791 23.4078 9.9935C23.4691 9.96284 23.4844 9.95517 23.8462 9.78653C23.2721 10.7922 21.9667 12.5676 21.7597 12.2985C21.7551 12.2364 21.7512 12.1743 21.7459 12.1122C21.8455 11.8511 21.9874 11.6082 22.166 11.3932ZM19.6908 7.19329C20.3831 8.65063 20.8111 10.2193 20.9548 11.8263C20.4173 11.194 20.0255 10.4511 19.8071 9.65051C19.5886 8.84987 19.5489 8.01099 19.6908 7.19329ZM16.6621 25.5399C16.7904 24.585 17.2145 23.6943 17.8748 22.9927C17.8125 23.7768 17.6316 24.547 17.3382 25.277C17.105 25.7266 16.8449 26.1618 16.5594 26.5801C16.5435 26.2302 16.5781 25.8799 16.6621 25.5399ZM13.9125 26.8055C13.2181 26.4006 12.6497 25.811 12.2706 25.1022C14.4859 26.1232 15.1152 26.1945 15.7561 27.6142C15.1367 27.339 14.1187 26.9557 13.9125 26.8055ZM6.47697 36.6595C7.24859 36.5979 8.0251 36.661 8.77662 36.8465C9.49654 36.9572 10.1695 37.2725 10.7152 37.7549C9.89836 37.8708 9.0654 37.7731 8.29753 37.4713C7.63671 37.3431 7.01397 37.0654 6.47697 36.6595ZM8.91997 41.6083C7.69089 42.0569 6.38917 42.2731 5.08109 42.2461C5.58162 41.3162 6.30156 40.5225 7.17841 39.9339C8.05526 39.3453 9.06251 38.9797 10.1127 38.8687C11.2472 38.7154 11.6037 38.9016 11.6351 39.022C11.7616 39.5348 10.2124 41.1154 8.91997 41.6083ZM110.514 83.7241C110.875 83.7149 111.234 83.6733 111.587 83.5999L115.458 88.0122C115.082 88.6564 114.911 89.4001 114.968 90.144L115.283 97.3495L110.514 83.7241ZM84.4903 53.1388C84.6114 51.4424 84.7923 49.6839 84.9433 47.3705C84.9349 47.0493 85.0055 46.731 85.1491 46.4436C85.2927 46.1562 85.5047 45.9085 85.7666 45.7224C86.4074 45.6312 86.133 47.4617 86.0418 48.6522L85.0545 61.6467C84.7762 63.6236 84.1285 63.8528 83.552 63.9916C83.8196 63.2089 84.4098 54.2119 84.4865 53.1365L84.4903 53.1388ZM51.6935 71.5551C51.7238 71.6318 51.7287 71.7162 51.7073 71.7958C51.4482 72.6275 49.3846 74.2864 48.293 74.6505C48.2164 74.6742 48.0914 74.6896 47.8553 74.5454C47.2421 73.6754 47.8247 71.4026 48.5705 70.1707C48.686 70.2733 48.8298 70.3385 48.983 70.3579C49.1362 70.3773 49.2917 70.35 49.4291 70.2796C49.4529 70.5036 49.5589 70.7107 49.7265 70.8612C49.8941 71.0117 50.1114 71.0948 50.3367 71.0944C50.468 71.0848 50.5906 71.0246 50.6785 70.9266C50.7805 70.8499 50.7322 70.833 50.7805 71.0454C50.8022 71.1416 50.8439 71.2322 50.903 71.3112C50.962 71.3903 51.037 71.456 51.1232 71.5041C51.2093 71.5522 51.3046 71.5816 51.4029 71.5904C51.5011 71.5992 51.6001 71.5872 51.6935 71.5551ZM80.2858 62.9843C81.3205 62.3725 82.2837 61.6469 83.1573 60.8211C83.0791 61.6347 82.9963 62.4294 82.9089 63.2051C82.9214 63.4816 82.8499 63.7554 82.704 63.9906C82.558 64.2258 82.3443 64.4113 82.091 64.5228L78.5587 66.6055C70.6939 65.5071 72.237 67.7147 80.2858 62.9843ZM122.541 70.4245C122.771 69.9576 122.595 70.1546 122.709 64.7696C122.873 61.5834 122.657 58.3889 122.066 55.2537C124.528 57.8707 126.109 58.5652 126.486 62.0599C127.199 68.1248 131.835 73.7007 130.881 79.9036C130.873 79.9597 130.878 80.0167 130.895 80.0707C128.614 81.4015 128.07 81.5701 127.262 82.7107C125.91 82.8577 124.57 83.0954 123.249 83.4221C123.947 79.2198 123.557 74.9088 122.117 70.8997C122.303 70.788 122.451 70.6222 122.54 70.4245H122.541ZM136.662 91.766C138.997 92.1115 141.279 92.7556 143.45 93.6824C137.695 97.0307 126.478 97.3978 119.745 94.2258C124.362 91.3536 131.593 91.0784 136.661 91.766H136.662ZM133.737 82.595C133.35 82.6885 132.988 82.8632 132.674 83.1076C132.361 83.352 132.103 83.6604 131.918 84.0123C131.602 84.68 131.865 85.5332 131.845 86.1694C131.836 86.5098 131.734 86.6424 131.7 86.65C131.666 86.6577 131.582 86.6094 131.512 86.4684C131.101 85.6405 130.895 84.7258 130.912 83.8015C130.912 83.6999 130.871 83.6024 130.8 83.5305C130.728 83.4586 130.63 83.4183 130.529 83.4183C130.427 83.4183 130.329 83.4586 130.258 83.5305C130.186 83.6024 130.145 83.6999 130.145 83.8015C130.145 83.8015 130.153 86.0169 130.158 86.1096C130.206 87.2433 129.233 87.2012 129.255 85.9026C129.27 85.0594 129.303 84.24 129.354 83.4604C129.363 83.3588 129.331 83.2579 129.265 83.18C129.199 83.1021 129.105 83.0535 129.003 83.045C128.901 83.0364 128.801 83.0686 128.723 83.1344C128.645 83.2003 128.596 83.2944 128.588 83.396L128.314 86.0468C128.279 85.9908 128.251 85.9305 128.23 85.8674C127.847 84.818 127.564 83.8813 127.908 83.1078C128.322 82.524 128.88 82.057 129.528 81.7518L132.23 80.175C133.534 80.3472 134.824 80.6102 136.091 80.9622C135.978 82.2178 135.131 82.1259 133.736 82.595H133.737ZM102.474 19.6221C102.67 19.622 102.863 19.6654 103.039 19.7491C103.216 19.8328 103.371 19.9547 103.495 20.1061C103.619 20.2574 103.707 20.4343 103.754 20.624C103.8 20.8136 103.804 21.0114 103.765 21.2028C103.44 22.5499 102.746 23.7797 101.761 24.7542C102.303 22.9957 100.589 19.6221 102.474 19.6221ZM94.4601 36.6579C94.5513 37.0236 95.1001 36.9324 95.1001 36.4747L94.5513 33.1786C94.46 32.9954 94.3681 32.9034 94.1849 32.9954C90.6802 34.1291 86.0533 31.4002 84.9349 24.4154C85.0483 23.8705 85.2492 23.3476 85.5297 22.8669C86.4665 21.4994 88.1935 20.5949 89.1609 19.0587C89.4261 19.7295 90.4173 19.9464 91.3984 18.5559C91.9703 20.0767 94.4646 20.1986 95.2051 16.4977C95.9711 17.3114 96.5959 18.2472 97.0541 19.2665C97.4545 20.0133 97.7464 20.8135 97.921 21.6428C97.921 22.9413 97.8919 24.5028 99.1835 24.6323C98.7144 26.0397 97.7378 28.2098 98.5542 29.3895C98.7059 29.5957 98.9062 29.7613 99.1371 29.8717C99.3681 29.9821 99.6227 30.0339 99.8784 30.0226C100.134 30.0112 100.383 29.937 100.603 29.8065C100.824 29.6761 101.008 29.4933 101.141 29.2745C101.274 29.4356 101.429 29.5775 101.601 29.6961C101.929 30.697 102.372 31.6563 102.921 32.5546C102.948 32.5975 102.982 32.6347 103.023 32.6642C103.064 32.6938 103.11 32.7149 103.159 32.7266C103.208 32.7382 103.259 32.7401 103.309 32.7321C103.358 32.7241 103.406 32.7064 103.449 32.6799C103.492 32.6535 103.529 32.6189 103.559 32.5781C103.588 32.5372 103.609 32.491 103.621 32.442C103.633 32.393 103.634 32.3422 103.626 32.2924C103.618 32.2427 103.601 32.195 103.574 32.1522C103.378 31.8333 103.198 31.509 103.031 31.1702C103.578 31.0869 104.125 31.0172 104.671 30.9609C104.372 35.4836 102.379 39.4421 99.3138 41.1699C98.6663 41.5069 97.9583 41.712 97.2308 41.773C96.5033 41.8341 95.771 41.75 95.0764 41.5255C94.6161 41.3422 94.2002 41.0627 93.8565 40.7058C93.5128 40.3489 93.2492 39.9227 93.0833 39.4558C92.5541 37.9847 92.4796 36.3883 92.8695 34.8742C93.2742 34.7469 93.683 34.6276 94.0959 34.5162L94.4601 36.6579ZM50.7966 64.913C51.5922 64.5251 52.5019 64.4407 53.3553 64.6754C54.8532 65.087 56.223 65.7079 56.7734 66.8761C57.0501 67.4625 57.1567 68.6169 56.6201 68.7925C55.8321 69.0554 55.041 69.3498 54.1594 69.6165C54.0161 69.605 53.9471 69.5644 53.9371 69.5399C53.905 69.4556 53.9847 69.1443 54.4369 68.7227C54.8289 68.465 55.2515 68.2572 55.6949 68.1041C55.7901 68.0685 55.8673 67.9964 55.9094 67.9038C55.9515 67.8112 55.9551 67.7057 55.9194 67.6105C55.8838 67.5152 55.8117 67.438 55.7191 67.3959C55.6266 67.3538 55.521 67.3502 55.4258 67.3859C54.3557 67.6984 53.416 68.3496 52.7475 69.2417C52.4453 69.8399 52.0243 70.3701 51.5103 70.8001C51.3707 69.8802 52.2891 68.2881 52.9245 67.4702C52.981 67.3975 53.0095 67.307 53.0047 67.2151C52.9999 67.1232 52.9622 67.036 52.8985 66.9696C52.8348 66.9032 52.7493 66.8619 52.6577 66.8534C52.566 66.8448 52.4744 66.8695 52.3994 66.9229C51.7159 67.3921 51.1907 68.0577 50.8932 68.8316C50.716 69.3371 50.4979 69.8273 50.2408 70.2972C50.1642 70.2275 50.1642 70.0113 50.1642 69.9139C50.2671 68.6585 50.597 67.4321 51.1377 66.2943C51.1756 66.2125 51.1835 66.1201 51.16 66.0331C51.1364 65.9461 51.083 65.8702 51.0091 65.8187C50.9351 65.7672 50.8454 65.7433 50.7557 65.7514C50.6659 65.7595 50.5819 65.7989 50.5183 65.8627C49.726 66.7095 49.2636 67.8124 49.2152 68.9711C49.2152 69.6917 48.9852 69.7491 48.9684 69.2708C48.7399 67.9447 49.2551 65.7271 50.7966 64.913ZM37.7974 83.4497C37.9709 82.9341 38.3248 82.4985 38.794 82.2232C38.0933 84.9682 37.5797 87.3422 37.1972 89.5936C36.8625 88.65 36.6209 87.6759 36.4759 86.6853C36.8562 85.5831 37.2974 84.5029 37.7974 83.4497ZM56.0084 10.3814C56.1775 10.1749 56.3836 10.0017 56.6162 9.87085C56.1785 10.6374 55.8121 11.1901 55.1506 11.3909C55.3978 11.0233 55.6855 10.6847 56.0084 10.3814ZM53.5401 7.7751C54.1533 9.36493 54.427 9.45308 54.4461 10.0357C54.4047 10.2411 54.3626 10.4504 54.3289 10.6612C53.9996 10.2638 53.7589 9.80071 53.6229 9.30289C53.4869 8.80506 53.4586 8.28394 53.5401 7.77434V7.7751ZM45.7527 87.2947C44.6404 88.4491 43.1572 90.9902 41.9912 92.5203C40.9781 92.2229 40.0302 91.7371 39.1972 91.0884C41.2489 88.9263 43.6837 87.1633 46.3782 85.8889C46.3801 86.1542 46.3253 86.417 46.2175 86.6594C46.1096 86.9019 45.9511 87.1185 45.7527 87.2947ZM45.998 85.2212C43.1924 86.5514 40.6654 88.4031 38.5517 90.6775C38.3271 90.5403 38.0972 90.41 37.8618 90.2942C38.2604 87.8236 38.8185 85.2227 39.6096 82.1512C39.7425 82.1716 39.8729 82.2066 39.9982 82.2554C42.2144 82.7275 44.2771 83.7471 45.998 85.2212ZM42.4052 82.1902L45.4859 76.9011C45.6838 77.1912 45.9456 77.432 46.2513 77.6048C46.5571 77.7775 46.8984 77.8777 47.249 77.8976L44.2257 83.0457C43.6384 82.7207 43.0302 82.435 42.4052 82.1902ZM81.8886 115.734C76.3173 116.161 71.3271 115.541 72.0461 110.031C72.7682 104.249 75.7493 99.9022 80.1348 95.5796C84.316 91.5989 88.7484 87.8906 93.4045 84.4776C93.452 84.4429 93.4909 84.3976 93.5181 84.3454C93.5453 84.2932 93.5601 84.2354 93.5614 84.1765C93.5626 84.1177 93.5503 84.0593 93.5254 84.006C93.5004 83.9526 93.4635 83.9058 93.4175 83.869C92.4942 83.1223 91.4834 82.4908 90.4073 81.9886C90.3152 81.9492 90.2114 81.9474 90.118 81.9836C90.0246 82.0198 89.9491 82.0911 89.9076 82.1823C89.8661 82.2734 89.862 82.3772 89.896 82.4714C89.9301 82.5656 89.9997 82.6427 90.0899 82.6862C90.9576 83.0891 91.7799 83.5833 92.5429 84.1603C90.776 85.4634 89.0267 86.824 87.2729 88.2583C87.2402 88.2092 87.1967 88.1683 87.1456 88.1387C87.0945 88.1092 87.0374 88.0919 86.9785 88.0881C76.6504 87.4273 66.6175 84.3737 57.6725 79.1685C57.629 79.1397 57.5799 79.1201 57.5285 79.111C57.4771 79.1018 57.4243 79.1032 57.3735 79.1152C57.3226 79.1272 57.2747 79.1494 57.2328 79.1806C57.1908 79.2117 57.1557 79.2511 57.1295 79.2963C57.1034 79.3415 57.0867 79.3916 57.0806 79.4435C57.0745 79.4954 57.0791 79.548 57.094 79.598C57.109 79.6481 57.134 79.6946 57.1676 79.7346C57.2012 79.7746 57.2426 79.8074 57.2893 79.8308C66.2347 85.0356 76.2568 88.1147 86.5815 88.8301C84.7647 90.3356 82.9296 91.9362 81.5222 93.2163C73.8275 91.5572 66.3851 88.8909 59.3873 85.2863C57.4953 84.3735 55.7756 83.14 54.3043 81.6406C53.6026 80.7526 53.0992 79.7245 52.8282 78.6255C52.5571 77.5266 52.5246 76.3824 52.7329 75.2698C52.7487 75.188 52.7374 75.1032 52.7007 75.0284C54.286 73.6689 55.5763 71.9993 56.4921 70.1225C57.8094 69.3966 59.1919 68.7961 60.6215 68.3287C64.0402 68.2879 67.4423 67.8452 70.7576 67.0095C74.2467 66.8464 77.7424 67.1243 81.1619 67.8366C83.1051 68.5227 84.9119 69.7583 86.7923 70.6015C96.7283 75.1878 112.725 77.7765 121.474 71.3781C122.843 75.3159 123.174 79.5399 122.435 83.6429C119.401 84.5137 117.099 85.8206 115.892 87.3553L112.382 83.3523C114.539 82.4325 113.51 80.3988 110.297 80.3988C106.299 80.3988 105.943 83.3608 109.69 83.7011L113.928 95.821C104.066 104.86 92.8825 110.175 80.6836 111.617C80.5839 111.631 80.4935 111.683 80.4318 111.762C80.3702 111.842 80.3422 111.942 80.354 112.042C80.3657 112.142 80.4163 112.233 80.4947 112.296C80.5732 112.359 80.6732 112.389 80.7733 112.379C93.0381 110.929 104.28 105.624 114.203 96.6075C115.331 99.8316 115.244 99.6676 115.381 99.7665L115.438 101.079C106.105 108.608 91.7074 114.901 81.8886 115.734ZM112.43 110.429C111.514 110.582 110.459 110.556 110.308 109.64C110.171 108.886 111.121 108.332 111.907 107.724C112.543 107.201 113.04 106.53 113.356 105.77C113.672 105.01 113.796 104.183 113.717 103.364C114.321 102.924 114.909 102.479 115.48 102.028L115.776 108.809C114.812 109.618 113.663 110.175 112.43 110.429ZM145.249 117.123C145.249 120.748 138.892 123.697 131.077 123.697C123.262 123.697 116.905 120.748 116.905 117.105L115.822 92.2734C120.709 98.8121 141.441 98.8159 146.33 92.2734L146.067 98.2962C144.578 97.2836 144.644 97.2851 144.432 97.3449L141.686 98.077C141.618 98.0952 141.556 98.1321 141.507 98.1835C141.458 98.235 141.424 98.2991 141.41 98.3685C141.395 98.438 141.4 98.5102 141.424 98.577C141.448 98.6438 141.49 98.7027 141.545 98.747L143.692 100.463L143.254 115.698L141.324 116.788C141.25 116.83 141.193 116.895 141.16 116.973C141.127 117.051 141.121 117.138 141.142 117.219C141.164 117.301 141.212 117.374 141.279 117.425C141.346 117.477 141.428 117.505 141.512 117.505C142.285 117.305 143.041 117.049 143.776 116.739L145.296 116.037L145.249 117.123Z" fill="#3D7BFF"/>
<path d="M92.2156 28.2663C92.5299 27.7949 91.7174 27.2215 90.6772 27.9183C90.5792 27.9833 90.473 28.0348 90.3614 28.0716C90.3805 27.676 90.4748 26.0081 90.54 24.8736C90.5429 24.8233 90.5358 24.7729 90.5193 24.7254C90.5027 24.6778 90.4769 24.634 90.4433 24.5964C90.4098 24.5588 90.3692 24.5282 90.3238 24.5063C90.2785 24.4844 90.2292 24.4717 90.1789 24.4689C90.0783 24.4663 89.9805 24.5023 89.9054 24.5694C89.8304 24.6365 89.7837 24.7296 89.775 24.8299C89.719 25.7965 89.5925 28.0539 89.591 28.1314C89.5772 28.9354 90.3529 29.0566 91.1018 28.5575C91.2648 28.4235 91.4733 28.3579 91.6836 28.3743C91.7256 28.4023 91.7727 28.4216 91.8222 28.4313C91.8717 28.4409 91.9226 28.4408 91.9721 28.4307C92.0215 28.4207 92.0684 28.401 92.1102 28.3728C92.152 28.3445 92.1878 28.3084 92.2156 28.2663Z" fill="#3D7BFF"/>
<path d="M94.8799 27.3086C94.83 27.3014 94.7792 27.3042 94.7304 27.3167C94.6815 27.3292 94.6357 27.3512 94.5954 27.3815C94.5551 27.4117 94.5211 27.4496 94.4955 27.493C94.4699 27.5364 94.453 27.5844 94.446 27.6343C94.3707 28.2114 94.1327 28.7552 93.7598 29.202C93.387 29.6488 92.8946 29.9803 92.3403 30.1578C92.2453 30.188 92.1658 30.254 92.1187 30.3419C92.0716 30.4298 92.0606 30.5326 92.088 30.6284C92.1155 30.7243 92.1792 30.8057 92.2656 30.8553C92.3521 30.905 92.4545 30.919 92.5511 30.8944C93.247 30.6751 93.8661 30.2622 94.3361 29.7041C94.806 29.1459 95.1073 28.4655 95.2049 27.7424C95.212 27.6926 95.2093 27.6418 95.1968 27.5931C95.1844 27.5443 95.1624 27.4985 95.1322 27.4582C95.1021 27.4179 95.0642 27.3839 95.0209 27.3583C94.9776 27.3326 94.9297 27.3157 94.8799 27.3086Z" fill="#3D7BFF"/>
<path d="M91.8968 22.214C92.6518 21.8953 93.4892 21.8281 94.2853 22.0223C94.3847 22.0444 94.4887 22.0261 94.5745 21.9715C94.6603 21.9168 94.7209 21.8304 94.743 21.731C94.765 21.6317 94.7467 21.5277 94.6921 21.4419C94.6375 21.3561 94.551 21.2955 94.4517 21.2734C93.5498 21.0418 92.5967 21.1146 91.7405 21.4804C91.6601 21.5161 91.5945 21.5783 91.5545 21.6566C91.5146 21.7349 91.5028 21.8246 91.5211 21.9106C91.5394 21.9966 91.5868 22.0737 91.6552 22.1289C91.7236 22.1841 91.8089 22.2142 91.8968 22.214Z" fill="#3D7BFF"/>
<path d="M88.0045 23.3072C88.0551 23.3148 88.1066 23.3121 88.1561 23.2995C88.2056 23.2868 88.2521 23.2644 88.2928 23.2335C88.3335 23.2026 88.3676 23.1639 88.3931 23.1196C88.4186 23.0753 88.435 23.0264 88.4414 22.9757C88.4477 22.925 88.4439 22.8736 88.43 22.8244C88.4162 22.7752 88.3926 22.7293 88.3608 22.6893C88.329 22.6493 88.2894 22.6162 88.2446 22.5917C88.1997 22.5672 88.1504 22.552 88.0996 22.5468C87.6545 22.5101 87.2084 22.6038 86.8157 22.8164C86.423 23.0291 86.1007 23.3514 85.8882 23.7442C85.863 23.7879 85.8467 23.8361 85.8402 23.8861C85.8336 23.9361 85.837 23.9868 85.8501 24.0355C85.8632 24.0842 85.8857 24.1298 85.9165 24.1698C85.9472 24.2098 85.9855 24.2433 86.0292 24.2685C86.0729 24.2936 86.1211 24.31 86.1711 24.3165C86.2211 24.323 86.2719 24.3196 86.3206 24.3065C86.3693 24.2934 86.4149 24.2709 86.4549 24.2402C86.4948 24.2094 86.5283 24.1711 86.5535 24.1274C86.691 23.8658 86.901 23.6493 87.1583 23.5038C87.4157 23.3583 87.7095 23.2901 88.0045 23.3072Z" fill="#3D7BFF"/>
<path d="M87.7633 24.0945C87.108 24.2646 87.4146 25.6275 87.8216 25.9211C88.2286 26.2147 88.5659 25.7118 88.5774 25.281C88.5889 24.8503 88.3451 23.9457 87.7633 24.0945Z" fill="#3D7BFF"/>
<path d="M93.2409 22.7277C92.5855 22.8979 92.8921 24.2608 93.2991 24.5544C93.7062 24.8479 94.0434 24.3451 94.0549 23.9143C94.0664 23.4835 93.8188 22.5767 93.2409 22.7277Z" fill="#3D7BFF"/>
</svg>
