<svg width="147" height="133" viewBox="0 0 147 133" fill="none" xmlns="http://www.w3.org/2000/svg">
<path d="M94.0436 24.831C87.5126 27.8972 86.7537 35.877 85.3586 42.1397C84.9906 44.2784 81.1502 48.6937 82.1161 48.2721C82.4457 48.1495 104.653 39.1425 108.048 37.7397C108.478 37.4714 110.019 37.3028 108.048 36.7125C107.032 36.1187 106.162 35.304 105.504 34.3286C101.724 29.9056 101.272 22.3704 94.0436 24.831ZM86.3244 39.4721C86.838 33.3397 91.8513 20.5383 99.3558 27.1077C101.655 29.6526 102.882 36.4136 106.316 37.3794C104.239 38.0923 86.0255 45.1982 83.7872 46.2868C85.1184 44.2267 85.9843 41.9011 86.3244 39.4721ZM108.892 46.7237C105.32 48.2568 82.1544 57.854 81.0046 58.4059C80.675 63.5418 80.7976 81.8777 81.3725 81.5251C83.2429 80.8045 106.017 68.6087 106.201 68.2407C106.178 67.3362 109.689 46.1258 108.892 46.7237ZM106.692 48.0345C106.385 49.8435 103.986 68.1411 103.986 68.1411C103.986 68.1411 102.652 68.8387 100.575 69.8812C100.797 64.8296 101.701 51.6526 101.786 50.0888L106.692 48.0345ZM101.579 50.1732C101.272 52.8561 100.329 68.9536 100.329 70.0268C98.6659 70.8853 96.5655 71.9585 94.3119 73.093C94.3119 70.8777 94.4115 54.6958 94.3119 53.1627C96.7112 52.1432 99.1412 51.1543 101.579 50.1502V50.1732ZM94.0896 53.2394C94.0053 54.5885 93.8979 72.2498 93.8826 73.277L88.2945 76.0902C88.2331 70.939 87.9495 57.4017 87.8652 55.7996L94.0896 53.2394ZM81.1656 58.5286C82.9133 57.9076 87.206 56.0603 87.6352 55.8763C87.5739 58.7125 87.9265 75.155 87.9418 76.2435C85.5425 77.4547 83.2429 78.5892 81.3725 79.4937C81.1655 74.1892 81.2115 58.5439 81.1656 58.5286ZM140.55 81.4407C142.911 81.9773 142.237 84.3153 142.628 85.0742C143.325 84.6066 143.302 81.6017 145.027 81.6247C145.931 80.8045 142.505 82.1613 143.08 77.539C143.202 76.9641 142.605 76.7724 142.727 77.746C142.749 78.6115 142.523 79.4652 142.076 80.2066C141.439 81.3411 139.975 80.8888 140.55 81.4407ZM142.75 79.7773C142.757 80.1674 142.891 80.5446 143.132 80.8517C143.373 81.1588 143.707 81.3791 144.084 81.4791C143.317 81.7933 142.957 83.0658 142.85 83.4338C142.829 82.9987 142.698 82.5761 142.469 82.2059C142.239 81.8357 141.919 81.5301 141.539 81.3181C141.865 81.1999 142.151 80.993 142.365 80.7207C142.579 80.4484 142.712 80.1216 142.75 79.7773ZM121.954 44.562C125.173 45.0756 124.476 47.4826 124.721 47.9732C125.541 48.0958 124.637 44.907 127.925 44.585C128.232 44.585 128.339 44.5237 128.216 44.2784C127.948 44.0101 124.844 44.4777 125.212 40.7446C125.212 40.6219 125.012 40.5146 124.89 40.7446C124.859 45.2596 121.026 43.6575 121.954 44.562ZM124.966 42.8143C125.129 43.2003 125.373 43.547 125.681 43.8312C125.989 44.1155 126.354 44.3306 126.752 44.4624C126.351 44.5788 125.982 44.785 125.673 45.0652C125.363 45.3454 125.122 45.6924 124.966 46.0798C124.833 45.6856 124.606 45.3293 124.306 45.0411C124.006 44.7529 123.641 44.5412 123.241 44.424C123.636 44.3108 123.997 44.1059 124.297 43.8262C124.597 43.5464 124.826 43.1996 124.966 42.8143ZM70.4338 5.23799C74.4966 4.9927 73.0248 9.07074 73.9217 8.12022C73.9217 7.80594 74.052 5.17667 76.5356 5.05402C77.1488 3.96552 73.822 6.14252 73.5537 0.945312C73.3697 0.945312 73.3697 1.00664 73.3467 1.56622C73.0401 5.73625 69.468 4.41778 70.4338 5.23799ZM73.4081 3.08399C73.4895 3.55049 73.7068 3.98259 74.0327 4.3262C74.3586 4.6698 74.7786 4.90964 75.2401 5.01569C74.5827 5.33783 74.0592 5.88036 73.7607 6.54879C73.6206 6.13892 73.3732 5.77409 73.0443 5.49232C72.7153 5.21054 72.3168 5.02213 71.8903 4.9467C72.2688 4.77626 72.6016 4.51862 72.8614 4.19486C73.1212 3.8711 73.3006 3.49043 73.3851 3.08399H73.4081ZM24.1266 40.0854C26.7405 40.3153 26.4875 41.7488 27.0854 42.9446C27.6604 41.3578 28.1356 40.392 29.8987 40.208C30.328 39.3265 27.0471 40.7829 27.2464 36.6972C26.7558 36.0226 26.9858 37.2721 26.9015 37.9314C26.8751 38.2038 26.7935 38.4679 26.6617 38.7078C26.5299 38.9476 26.3507 39.1581 26.1349 39.3265C25.3607 40.024 23.3907 39.4261 24.1266 40.0854ZM27.1084 38.5523C27.2433 38.9181 27.4619 39.2472 27.7468 39.5134C28.0316 39.7796 28.3748 39.9755 28.7489 40.0854C28.028 40.3888 27.4478 40.9526 27.1238 41.6645C26.9974 41.2749 26.784 40.9192 26.4998 40.6244C26.2156 40.3296 25.868 40.1033 25.4834 39.9627C25.8455 39.8759 26.1818 39.7041 26.4644 39.4615C26.747 39.2189 26.9678 38.9124 27.1084 38.5676V38.5523ZM146.238 116.48C147.204 111.612 133.122 111.474 134.103 116.196C132.938 121.915 147.533 121.976 146.238 116.48ZM134.602 114.862C136.135 111.903 147.518 112.954 145.625 116.073C143.616 118.48 133.49 117.722 134.602 114.893V114.862ZM145.855 117.814C144.843 121.646 132.938 120.956 134.356 115.905C136.349 118.618 144.498 118.266 146 116.112C146.036 116.693 145.987 117.277 145.855 117.844V117.814ZM97.2631 126.943C95.5384 123.877 88.0645 124.276 86.0715 125.832C84.8373 126.598 84.9446 129.664 85.9028 130.684C88.6777 132.984 93.9976 132.631 96.2743 131.236C97.7614 130.232 97.3934 128.607 97.2631 126.943ZM85.7649 126.736C87.298 123.785 98.6812 124.827 96.7955 127.947C94.7411 130.331 84.6227 129.572 85.7649 126.736ZM97.0408 129.695C95.9293 133.528 84.1244 132.838 85.5425 127.786C87.5356 130.492 95.684 130.147 97.1864 127.97C97.1803 128.55 97.1187 129.127 97.0025 129.695H97.0408Z" fill="#3D7BFF"/>
<path d="M136.265 109.085C137.798 108.855 138.274 105.344 138.067 104.255C140.657 103.658 145.149 102.37 143.816 98.8129C143.555 97.3335 142.873 96.3676 141.148 96.3063C142.75 96.107 142.995 94.5202 143.141 92.9795C143.593 88.3802 137.775 89.4074 135.215 87.7286C137.699 86.7858 136.572 84.0338 135.813 82.1405C134.947 80.845 132.977 80.6074 131.497 80.7453C130.531 77.7251 129.098 76.6366 125.932 77.3572C126.239 73.6241 120.942 72.8192 118.175 73.6624C117.729 72.9843 117.118 72.4308 116.399 72.054C115.68 71.6772 114.877 71.4894 114.066 71.5084C113.675 69.2701 110.823 68.7105 109.612 68.5495C109.735 67.783 113.062 43.1921 113.368 41.0764C114.802 33.5795 109.835 32.859 106.937 29.7621C104.331 26.3126 102.177 21.9586 100.084 21.5294C99.9767 21.4834 99.7544 21.3607 99.4018 21.1997C87.022 15.1747 67.9119 9.39487 55.7467 7.17188C54.0061 7.45075 52.2854 7.84252 50.5955 8.3447C39.7105 12.6604 43.4513 21.4297 38.0701 24.9175C33.6394 27.7078 34.5363 30.7893 34.7433 34.2158C35.4638 42.8318 38.1084 62.0262 38.2771 62.8847C35.2109 63.475 35.0116 65.8973 35.9774 68.0589C33.3481 67.2924 29.3851 68.0589 28.3962 70.9335C28.3119 71.1558 28.3962 71.2555 28.0283 71.2171C25.3377 71.3858 21.252 72.5969 22.3405 75.9621C18.7224 75.9007 12.4213 79.6185 15.3802 83.4129C12.544 83.9265 9.3398 85.8812 10.7809 89.0241C8.48126 89.9439 5.66802 93.8687 7.23178 95.7927C2.36419 95.5321 -1.37657 98.2993 1.93492 102.738C-0.426051 105.467 2.34119 109.821 5.87499 109.246C6.92516 115.876 14.0081 115.508 17.5955 111.898C20.4318 113.623 25.3607 114.274 27.438 112.021C29.0171 113.761 32.3593 114.236 34.107 112.427C37.3495 114.236 43.3056 113.354 45.015 110.457C45.9579 113.477 51.5614 113.523 53.6387 112.573C51.523 114.727 53.0178 117.133 55.1718 118.567C57.4715 119.824 60.737 118.858 62.9753 117.54C63.0216 117.936 63.1849 118.309 63.4443 118.613C63.7037 118.916 64.0474 119.135 64.4317 119.241C62.8986 120.046 62.753 120.951 62.8986 122.798C62.6917 128.425 77.6394 128.072 75.4241 121.61C77.7851 124.891 89.222 124.109 87.5969 118.935C89.2489 119.865 91.1699 120.2 93.0394 119.885C92.9167 122.246 96.3662 122.653 98.1523 122.346C96.0213 128.693 105.159 128.977 108.815 127.168C110.225 126.401 110.064 125.098 110.064 123.595C110.333 120.989 105.772 120.583 104.147 120.437C105.772 119.448 104.599 117.149 104.499 115.409C106.078 119.042 112.632 118.475 115.078 116.413C117.147 120.146 125.173 119.019 127.067 115.984C127.887 114.995 126.959 111.3 126.2 110.495C126.953 109.943 127.596 109.254 128.094 108.464C129.322 109.174 130.694 109.599 132.109 109.707C133.523 109.814 134.944 109.602 136.265 109.085ZM137.798 104.378C138.274 107.705 130.324 106.8 129.014 105.957C130.079 102.186 127.595 99.2882 124.046 99.3495C126.63 97.3335 123.778 95.9384 126.469 95.9C125.441 99.9857 128.584 101.71 132.049 101.833C132.402 104.646 135.583 104.746 137.783 104.317C137.795 104.335 137.801 104.356 137.798 104.378ZM122.728 110.104C117.416 110.97 118.336 104.869 120.39 102.201C121.747 100.331 125.526 98.031 126.752 101.174C127.841 104.623 126.239 109.023 122.728 110.104ZM114.395 113.086C113.775 115.424 107.451 115.386 105.963 114.773C104.568 114.504 103.664 113.239 104.43 111.959C106.584 108.755 113.997 107.851 115.929 110.618C115.07 111.055 114.166 112.021 114.395 113.086ZM103.963 110.02C104.534 110.181 105.119 110.287 105.71 110.334C105.161 110.664 104.673 111.087 104.269 111.584C104.261 111.036 104.157 110.494 103.963 109.982V110.02ZM103.679 117.371C102.2 118.774 100.099 119.28 97.9683 119.471C95.0478 120 90.9467 118.36 94.0436 115.815C96.3662 113.868 106.715 112.733 103.679 117.333V117.371ZM98.1906 113.983C90.8854 115.585 94.3579 117.478 89.9809 116.796C86.2631 116.72 85.1363 114.497 88.3788 112.856C90.7781 111.4 98.4972 110.932 98.1906 113.945V113.983ZM74.7648 118.138C74.7648 121.794 75.7767 119.916 72.8101 118.996C74.9258 116.474 72.8945 114.029 75.7307 112.956C78.4979 113.577 78.7969 113.209 81.0276 111.936C81.7481 112.074 82.691 114.91 81.7941 115.056C79.6324 114.895 74.3969 115.608 74.7648 118.099V118.138ZM69.9816 118.483C71.852 117.003 73.1628 113.845 71.5147 111.622C74.4659 112.818 74.2666 116.551 72.5189 118.912C71.6903 118.674 70.8405 118.517 69.9816 118.444V118.483ZM64.6157 110.35C66.3381 109.203 67.5815 107.466 68.1112 105.467C68.2722 107.191 70.1809 108.295 71.9439 107.851C73.0784 107.659 73.2394 106.739 74.3509 107.437C73.976 108.343 73.915 109.348 74.1775 110.292C74.4401 111.237 75.0111 112.067 75.7997 112.649C75.0313 112.925 74.3887 113.47 73.9906 114.182C73.9293 112.848 72.9251 111.944 71.6143 111.331C70.7505 110.632 69.6628 110.269 68.5525 110.31C67.4421 110.351 66.3841 110.793 65.5739 111.553C65.2709 111.129 64.9379 110.726 64.5774 110.35H64.6157ZM58.2764 110.97C57.7168 110.35 56.9349 109.859 56.2373 109.077C60.921 110.97 66.7774 106.509 66.7314 101.481C70.7405 106.271 63.3279 113.025 58.238 110.932L58.2764 110.97ZM47.1614 85.7126C50.2276 84.5858 51.5 83.1217 50.3885 79.9021C51.1414 80.5121 52.0875 80.8329 53.0561 80.8067C54.229 81.1133 52.8952 82.4241 52.5426 83.206C51.776 84.8311 52.6039 85.8352 53.5084 87.2074C50.8638 88.9781 47.5676 87.7593 47.123 85.6743L47.1614 85.7126ZM38.3614 94.5202C37.2269 98.261 26.3495 96.2067 27.9056 91.9983C29.799 95.0645 36.7746 95.5321 38.6373 93.1251C38.6067 93.4164 38.484 93.9683 38.3614 94.5202ZM50.5572 95.8387C51.0708 99.9628 45.7893 102.96 42.1251 101.343C42.1251 100.952 41.3586 100.806 41.144 100.254C44.9767 102.201 50.9175 97.3948 49.3767 93.8227C49.737 94.298 50.0819 95.1795 50.5572 95.8387ZM42.7767 109.307C40.4771 110.84 32.6506 111.216 33.1642 108.134C33.9461 104.401 49.0318 105.03 42.7767 109.307ZM32.9955 110.074C33.7008 111.607 30.3893 111.308 29.4694 110.993C27.438 110.173 27.76 110.464 27.6987 108.264C27.0471 106.517 24.7015 106.892 25.9739 104.631C28.1739 102.538 32.1063 105.168 33.2638 107.138C32.5663 107.935 32.8116 108.977 32.9955 110.089V110.074ZM25.5217 110.418C22.9077 111.269 15.1119 109.207 16.7753 106.409C18.707 103.251 32.7349 108.157 25.5217 110.434V110.418ZM16.2617 106.54C15.9168 107.506 16.0624 108.839 15.7328 109.928C13.2645 111.798 6.77952 112.994 6.15861 109.621C5.81367 106.064 17.2506 103.044 16.2617 106.555V106.54ZM14.9893 101.151C14.8283 100.062 15.3802 98.1997 14.2227 97.2722C14.6408 97.0525 15.0384 96.796 15.4109 96.5056C15.5948 99.2345 17.1126 101.044 19.8032 101.105C19.7353 101.813 19.4581 102.484 19.0071 103.034C18.5561 103.583 17.9516 103.986 17.2707 104.191C16.5899 104.396 15.8635 104.393 15.1841 104.183C14.5047 103.974 13.9032 103.566 13.4562 103.014C14.1691 102.615 14.9739 101.994 14.9893 101.151ZM9.87638 97.5175C9.32187 97.1802 8.78697 96.8116 8.27429 96.4136C11.5015 96.8812 15.3572 95.0338 16.5914 91.8526C17.7412 91.96 18.3544 91.0094 19.052 92.4276C17.5955 93.1098 15.4185 94.2136 15.3802 96.1683C13.8854 97.1342 11.6241 98.3453 9.87638 97.5175ZM11.6624 90.2122C11.2749 89.6016 10.978 88.938 10.7809 88.2422C13.4102 91.1781 20.4318 89.2847 22.0492 86.7091C23.429 87.9816 23.3063 87.675 22.2562 89.0088C19.6729 91.9523 14.1461 92.4506 11.6241 90.2122H11.6624ZM33.2485 83.5203C31.8074 85.0534 29.2624 85.7739 27.1161 85.9196C20.0102 86.2492 19.7649 81.9182 25.8819 80.1091C28.4652 78.9823 37.1502 79.7795 33.2485 83.5203ZM21.8499 85.0534C25.5447 87.6213 32.6889 85.8736 34.475 82.3244C36.9433 88.7941 21.3746 90.1509 21.8499 85.0534ZM42.5467 77.2882C41.167 76.2227 43.6966 75.7551 44.3098 74.9886C45.153 76.8359 47.5983 77.2882 49.484 76.9816C49.292 77.4984 49.292 78.0669 49.484 78.5837C47.56 77.1119 44.9307 77.1962 42.5697 77.2729L42.5467 77.2882ZM38.4764 75.6248C38.2376 75.3346 37.9618 75.0769 37.6562 74.8582C43.39 76.1537 43.4666 72.3746 45.3217 73.1335C45.0375 73.745 44.6353 74.2944 44.1381 74.7501C43.641 75.2058 43.0588 75.5588 42.4249 75.7889C41.791 76.0189 41.1179 76.1215 40.4442 76.0907C39.7706 76.0599 39.1096 75.8964 38.4994 75.6095L38.4764 75.6248ZM33.3251 76.2227C30.7572 76.0771 28.5419 75.7704 28.5802 72.6506C29.776 74.5823 32.413 74.6436 34.5133 74.4136C36.3454 74.2143 35.8318 73.5704 37.4339 75.0116C36.2088 75.7804 34.7944 76.1943 33.3481 76.2074L33.3251 76.2227ZM35.7244 66.3035C39.1356 69.3697 42.2401 65.6443 43.5126 67.5147C41.5196 69.5307 35.6248 70.1056 35.7474 66.2882L35.7244 66.3035ZM37.4722 69.1628C38.9556 69.4506 40.4877 69.3583 41.9258 68.8945C40.8603 70.5579 42.5621 72.183 44.1028 72.8192C40.4771 76.8436 32.5893 74.383 37.4722 69.1628ZM53.7154 74.1147C54.6582 74.7739 55.6241 75.4102 56.5669 76.0464C54.8039 76.6826 52.7342 78.2847 53.1558 80.4617C51.2701 80.5997 49.0931 79.1203 49.7293 76.9433C50.5459 76.7592 51.3176 76.4142 51.9993 75.9286C52.6811 75.4429 53.2592 74.8263 53.7 74.1147H53.7154ZM76.5662 89.576C77.854 89.76 79.8701 88.0966 81.2422 87.6443C82.5377 93.2478 75.1098 95.3634 73.4004 90.2506C74.0692 89.8013 74.6 89.175 74.9335 88.4415C75.4624 88.8324 76.0143 89.2081 76.5662 89.576ZM105.205 73.6241C107.772 74.4596 111.207 74.9732 113.522 73.1488C113.092 77.6868 106.4 75.9161 103.894 74.521C104.354 74.2373 104.783 73.9307 105.212 73.6241H105.205ZM117.73 77.2575C117.239 80.3237 111.268 79.6568 109.543 78.3C109.681 77.8708 109.888 77.2115 110.095 76.5753C112.479 77.5795 116.067 77.8938 117.899 75.9391C117.883 76.2687 117.822 76.7593 117.738 77.2575H117.73ZM121.103 81.5886C126.982 82.6081 125.189 85.4213 120.505 85.7969C118.305 86.1879 110.379 84.7697 114.694 82.1635C116.729 81.3427 118.962 81.1427 121.11 81.5886H121.103ZM125.702 85.8582C125.773 86.7192 125.975 87.5644 126.3 88.3649C125.334 89.0241 125.457 90.3119 125.495 91.523C123.632 91.3851 121.946 90.0896 120.735 88.6945C120.735 89.2081 121.578 89.8826 122.03 90.3349C121.701 90.7412 119.133 91.7913 118.964 90.8101C118.857 90.0896 118.964 89.53 118.818 88.7098C121.034 88.7711 125.058 88.5718 125.181 85.8199C125.348 85.8501 125.517 85.8629 125.687 85.8582H125.702ZM137.346 90.4575C137.568 93.3934 135.951 94.1063 133.406 94.4206C130.263 94.7042 125.127 94.5432 125.74 90.2736C127.68 93.0025 135.828 92.6345 137.331 90.4805L137.346 90.4575ZM137.223 96.5899C135.476 96.8352 133.858 98.0234 132.317 98.8896C129.726 99.1962 124.798 96.5899 127.795 94.0986C128.556 94.3799 129.349 94.5678 130.156 94.6582C132.8 95.2791 136.104 93.3014 137.208 96.5976L137.223 96.5899ZM131.988 101.496C128.661 101.373 125.855 99.8094 126.622 96.199C127.281 98.376 130.117 99.2192 132.233 99.2652C131.597 100.101 131.758 100.545 131.972 101.504L131.988 101.496ZM124.943 96.8352C125.127 100.737 113.851 104.125 113.445 98.9509C116.274 100.798 123.77 97.7168 124.445 95.1182C124.677 95.6708 124.839 96.2502 124.928 96.8429L124.943 96.8352ZM118.474 106.179C118.313 106.448 118.681 107.368 118.313 107.598C117.86 107.651 117.402 107.564 117.001 107.347C116.601 107.13 116.277 106.795 116.074 106.386C116.975 105.956 117.734 105.277 118.261 104.43C118.788 103.582 119.061 102.601 119.048 101.603C119.702 101.446 120.347 101.254 120.98 101.028C119.555 102.395 118.661 104.223 118.458 106.187L118.474 106.179ZM115.844 106.179C113.238 107.23 111.306 106.302 109.566 104.209C110.158 104.733 110.871 105.1 111.64 105.278C112.409 105.456 113.211 105.439 113.972 105.229C114.734 105.019 115.431 104.622 116 104.075C116.569 103.527 116.992 102.846 117.232 102.094C117.354 101.557 118.236 101.887 118.765 101.664C118.766 102.622 118.489 103.558 117.968 104.361C117.447 105.164 116.704 105.798 115.829 106.187L115.844 106.179ZM98.2673 107.222C95.7836 109.583 92.8248 109.591 89.9502 107.989C92.9704 108.648 96.0826 106.363 97.7767 103.903C98.5432 102.14 98.7655 103.136 100.383 103.221C100.11 104.747 99.365 106.15 98.2519 107.23L98.2673 107.222ZM86.1941 114.826C86.1941 114.826 86.1558 114.826 86.1941 114.949C85.3509 114.228 85.2053 113.017 85.2053 111.76C86.5691 112.249 88.0419 112.35 89.4596 112.051C88.2101 112.473 86.3474 113.17 86.1788 114.834L86.1941 114.826ZM83.6262 113.837C84.3391 116.091 85.7342 115.432 82.3997 115.048C82.5607 114.282 82.2157 111.89 81.0429 111.699C83.5802 109.353 81.5028 109.66 83.8178 111.108C83.4238 111.966 83.3503 112.937 83.6108 113.845L83.6262 113.837ZM74.8415 111.354C74.4882 110.774 74.2697 110.123 74.202 109.447C74.1343 108.772 74.2193 108.09 74.4506 107.452C77.4248 108.31 81.0046 107.943 83.5035 105.919C83.7182 110.005 77.9384 115.915 74.8262 111.361L74.8415 111.354ZM68.2492 104.639C68.1878 102.546 67.4826 101.864 68.7244 99.9168C69.7726 99.9587 70.8182 99.7852 71.7965 99.4067C72.7749 99.0283 73.6651 98.4531 74.4122 97.7168C76.9802 102.255 70.5795 99.1579 72.2736 104.846C72.5035 105.543 72.3119 106.448 73.1781 106.877C71.1314 108.487 67.9272 107.283 68.2338 104.646L68.2492 104.639ZM67.7126 99.3418C67.0645 98.9816 66.4981 98.4909 66.0492 97.9007C69.3377 99.7328 74.8645 96.0993 74.3279 92.6652C77.8617 96.4979 71.369 100.737 67.6743 99.4875C67.7203 99.4492 67.7432 99.3878 67.6973 99.3495L67.7126 99.3418ZM55.9997 96.5516C55.7862 95.9802 55.607 95.3966 55.4631 94.8039C57.7628 97.1648 65.8345 95.9154 66.6547 93.5084C68.2338 98.468 57.5788 99.0582 55.9997 96.5516ZM58.2993 91.2931C60.8213 90.0819 69.5676 90.6568 65.5049 94.4359C57.6631 97.9544 51.4387 93.4854 58.2993 91.3007V91.2931ZM61.8102 87.9892C62.575 88.3049 63.398 88.4551 64.225 88.43C65.0521 88.4049 65.8644 88.205 66.6088 87.8436C66.6786 88.3311 66.8648 88.7946 67.1517 89.1949C67.4386 89.5952 67.8176 89.9205 68.2568 90.1432C67.8383 90.2028 67.439 90.3574 67.0895 90.5953C66.7401 90.8331 66.4497 91.1479 66.2408 91.5154C64.7077 90.3042 62.3391 90.2659 60.392 90.4882C60.8086 90.2147 61.1543 89.8463 61.4008 89.4132C61.6474 88.9801 61.7876 88.4947 61.8102 87.9969V87.9892ZM73.2624 90.3502C73.4158 90.9365 73.6961 91.482 74.0835 91.9481C74.4708 92.4142 74.9558 92.7895 75.5042 93.0476C76.0525 93.3057 76.6509 93.4402 77.2569 93.4417C77.863 93.4432 78.4619 93.3116 79.0115 93.0561C80.5983 92.029 80.33 92.1133 81.5795 93.1788C85.5885 97.5558 79.0958 99.3112 76.1216 96.9579C74.6805 96.406 75.8763 95.5628 75.7077 94.4359C74.8645 93.1021 73.8833 90.9021 71.7906 90.9251C72.3096 90.8199 72.8071 90.6281 73.2624 90.3579V90.3502ZM81.3725 90.5725C83.0972 92.6269 83.8791 90.3885 84.845 93.5697C85.1882 94.363 85.7695 95.03 86.5084 95.4784C87.5969 98.5446 82.2617 98.6213 82.3997 97.2492C84.0478 95.4631 82.2004 93.0561 80.4526 92.052C80.8519 91.6257 81.1643 91.1258 81.3725 90.5802V90.5725ZM86.7997 88.2729C87.7655 89.1391 89.6129 88.6638 90.3488 89.1774C92.0965 92.1976 98.091 91.8067 100.314 90.9865C100.283 91.3108 100.354 91.6367 100.516 91.9194C100.678 92.2021 100.923 92.4278 101.218 92.5655C100.884 92.7013 100.598 92.9349 100.398 93.2358C100.199 93.5367 100.094 93.8909 100.099 94.252C99.877 94.1446 99.6087 94.4513 99.5857 93.838C97.907 90.7335 89.7739 91.0631 88.0875 93.0715C87.8192 93.5467 87.6736 93.5851 87.0603 93.4854C81.7251 93.0025 85.8951 87.2304 86.7997 88.2575V88.2729ZM93.1237 84.5628C94.6568 83.6966 104.354 84.4554 101.372 87.514C96.9795 90.5189 85.4659 87.0081 93.1237 84.5474V84.5628ZM98.2749 79.6338C96.7418 80.3314 96.3662 82.3244 96.7418 83.9265C96.0329 83.8628 95.3197 83.8628 94.6108 83.9265C94.4728 81.2206 96.1056 79.7872 98.2749 79.6185V79.6338ZM101.862 80.684C101.862 80.3927 101.862 79.5725 102.706 80.0478C103.962 80.461 105.291 80.6072 106.607 80.4771C105.933 81.6269 107.06 83.1293 107.918 83.9725C102.629 85.6513 103.74 82.4931 101.862 80.684ZM124.943 84.4171C125.189 87.2763 123.563 88.0966 121.003 88.3802C117.799 88.6945 112.724 88.4262 113.338 84.2331C115.3 86.9237 123.448 86.5865 124.928 84.4171H124.943ZM122.191 90.4805C122.684 90.8673 123.231 91.1774 123.816 91.4004C123.111 92.0272 122.276 92.4899 121.371 92.755C120.465 93.0201 119.513 93.0811 118.581 92.9335C118.893 92.4214 119.022 91.8191 118.949 91.2241C119.506 91.3844 120.094 91.4003 120.659 91.2702C121.223 91.1401 121.745 90.8684 122.176 90.4805H122.191ZM122.605 93.6234C128.738 95.5704 115.377 101.036 113.606 98.629C111.989 95.4248 120.926 93.1864 122.559 93.6234H122.605ZM113.468 99.5718C113.813 101.174 115.269 102.017 116.994 101.871C116.77 102.66 116.336 103.373 115.739 103.934C115.141 104.495 114.403 104.884 113.602 105.059C112.801 105.233 111.968 105.187 111.191 104.926C110.414 104.664 109.723 104.197 109.191 103.573C110.839 102.937 110.724 100.806 110.977 99.2192C111.737 99.5937 112.612 99.6623 113.422 99.4108C113.427 99.4653 113.438 99.5192 113.453 99.5718H113.468ZM109.635 100.377C108.958 100.93 108.16 101.314 107.306 101.5C106.452 101.685 105.567 101.665 104.722 101.442C107.29 96.6206 103.449 95.4094 100.391 94.0067C100.4 93.7987 100.455 93.5954 100.553 93.4118C100.651 93.2281 100.789 93.0687 100.957 92.9452C101.124 92.8217 101.317 92.7373 101.522 92.6981C101.726 92.6589 101.937 92.666 102.138 92.7189C102.077 96.1453 108.156 96.291 110.271 95.9997C110.69 96.6928 110.853 97.5103 110.733 98.3109C110.612 99.1116 110.216 99.845 109.612 100.384L109.635 100.377ZM90.3641 108.402C92.4338 111.469 84.2317 110.173 83.3809 108.242C83.6552 107.465 83.7801 106.643 83.7488 105.819C86.2248 105.796 88.3175 106.908 90.3641 108.402ZM84.2854 104.57C82.7523 101.45 88.2255 97.2032 90.3181 99.7481C88.7391 101.534 87.0986 104.347 88.2868 106.708C83.7795 104.646 83.3502 106.785 84.2931 104.562L84.2854 104.57ZM81.9857 103.803C79.4178 105.336 73.2011 105.513 72.3962 103.336C71.4993 98.7516 88.5014 99.2039 81.9704 103.78L81.9857 103.803ZM83.6875 101.795C82.9823 98.9126 76.7885 99.9704 75.1711 100.315C75.2874 99.7206 75.2505 99.1059 75.0638 98.5293C76.6659 99.8018 79.4025 100.415 81.1962 99.1042C82.208 99.8708 84.3391 100.292 85.2666 98.9432C85.3814 99.121 85.5393 99.2669 85.7256 99.3674C85.9118 99.4679 86.1204 99.5198 86.3321 99.5182C85.2146 100.199 84.3443 101.22 83.8485 102.431C83.7795 102.247 83.7641 102.117 83.6722 101.772L83.6875 101.795ZM75.0331 96.8812C75.0945 96.7816 75.1558 96.6589 75.2171 96.5363C76.9188 98.1384 79.9621 98.9969 82.1161 97.5175C80.6596 101.281 73.1014 98.8512 75.0331 96.8812ZM87.6199 96.061C87.6199 97.7704 89.6742 98.5906 91.215 98.8972C90.904 99.1544 90.6072 99.4282 90.3258 99.7175C90.0422 98.054 87.6199 98.6673 86.4931 99.3725C83.8255 98.9356 87.6582 97.2722 86.7997 95.5397C87.045 95.785 87.7195 95.4478 87.6199 96.061ZM85.3816 98.468C84.5154 99.7405 82.714 99.8631 81.3112 98.9586C81.6453 98.5534 81.9357 98.114 82.1774 97.6478C82.6908 98.021 83.2939 98.2517 83.9254 98.3163C84.5568 98.3809 85.1941 98.2772 85.7725 98.0157C85.6527 98.1753 85.5221 98.3264 85.3816 98.468ZM89.2143 107.299C86.608 104.892 89.3753 100.844 91.4066 98.9816C92.0429 99.0429 93.0317 99.2039 93.8749 99.2039C94.3885 101.013 96.3816 102.017 98.0833 102.676C96.6958 105.75 92.1119 109.039 89.222 107.283L89.2143 107.299ZM89.8505 98.238C87.8575 97.2952 87.8192 96.9425 87.7962 94.6659C89.7892 97.3795 97.9377 97.0269 99.4401 94.8499C100.207 99.8018 92.6638 99.2882 89.8582 98.238H89.8505ZM98.1829 92.7572C103.281 96.6973 88.8617 97.2568 88.0185 94.3976C87.6199 90.8485 96.7955 91.7913 98.1906 92.7572H98.1829ZM99.716 94.4819C102.2 94.4436 105.979 96.7816 105.197 99.2652C103.618 101.565 98.4589 100.522 96.9641 98.8589C99.5627 98.1384 99.7927 97.1112 99.6931 94.4819H99.716ZM110.294 95.6931C107.228 96.0304 101.709 95.9614 102.33 91.5844C104.323 94.298 112.471 93.9453 113.974 91.7683C114.227 94.4206 112.648 95.4324 110.294 95.6931ZM110.133 88.9551C116.005 90.0129 114.219 92.7878 109.536 93.1711C107.336 93.5774 99.4094 92.1439 103.725 89.53C105.754 88.7046 107.983 88.5044 110.126 88.9551H110.133ZM114.112 93.5544C114.191 93.1402 114.227 92.7189 114.219 92.2972C115.883 92.7112 117.998 92.098 118.673 90.3272C119.347 93.3934 116.412 94.4973 113.974 94.16C114.073 93.968 114.126 93.7552 114.127 93.5391L114.112 93.5544ZM118.589 89.3844C118.795 91.2931 115.384 93.0178 114.219 91.8067C114.48 89.3844 111.506 88.9091 109.62 88.5642C109.865 87.9509 109.352 87.2687 109.39 86.6095C109.95 84.946 111.835 86.2415 113.169 86.1189C113.339 86.5514 113.603 86.9412 113.94 87.2605C114.278 87.5797 114.682 87.8207 115.124 87.9662C116.672 88.8861 118.642 88.1196 118.581 89.369L118.589 89.3844ZM103.518 84.0185C104.936 85.1683 106.868 84.3865 108.324 84.3251C108.92 84.8207 109.583 85.2286 110.294 85.5363C110.027 85.5885 109.78 85.7146 109.581 85.9002C109.382 86.0858 109.239 86.3236 109.168 86.5865C107.995 84.9384 105.611 84.8617 103.725 85.6206C103.703 85.0786 103.631 84.5397 103.51 84.0108L103.518 84.0185ZM113.123 85.8199C108.953 86.0269 104.024 80.4541 108.194 80.1321C108.708 82.1865 110.961 83.5586 113.077 84.0568C113.052 84.6449 113.067 85.234 113.123 85.8199ZM103.395 85.4443C103.955 88.2805 101.157 90.3349 102.698 89.277C103.097 88.7874 103.393 88.2216 103.567 87.6141C103.741 87.0066 103.789 86.3701 103.71 85.7432C105.925 84.9 109.658 85.4366 109.313 88.4952C106.561 88.2499 101.387 88.3955 102.062 92.4429C101.855 92.4522 101.648 92.4195 101.454 92.3466C101.26 92.2738 101.083 92.1623 100.933 92.019C100.783 91.8757 100.664 91.7035 100.583 91.5129C100.501 91.3222 100.459 91.1171 100.46 90.9098C100.95 90.7135 101.392 90.4127 101.755 90.0283C102.522 88.8784 102.292 87.6443 102.184 86.1955C101.571 84.7774 99.6241 84.4095 98.0986 84.0798C95.7377 84.3021 96.8875 80.776 98.0986 79.9711C101.249 78.4687 103.395 83.0067 103.395 85.4443ZM91.0387 87.7439C94.1586 89.4304 100.007 89.4917 102.046 87.2304C103.357 93.1481 88.7161 92.3432 90.5021 87.2304C90.67 87.4236 90.8604 87.5961 91.0694 87.7439H91.0387ZM87.6506 93.7844C87.5832 94.2747 87.5474 94.7689 87.5432 95.2638C87.5432 95.4094 87.6276 95.4708 87.2596 95.4248C85.8185 95.3021 85.3049 94.091 84.6917 92.8415C85.539 93.5115 86.6028 93.847 87.6812 93.7844H87.6506ZM66.8694 93.1251C67.0303 92.6575 66.2561 91.914 66.4554 91.4464C66.7018 91.1206 67.0188 90.8548 67.3825 90.6689C67.7463 90.483 68.1474 90.382 68.5558 90.3732C69.2687 90.3732 70.0889 91.0708 70.9321 90.9711C69.3565 91.2795 67.9352 92.1214 66.9077 93.3551C66.885 93.2804 66.8824 93.2011 66.9 93.1251H66.8694ZM66.8694 95.9C66.9715 95.1369 66.9715 94.3635 66.8694 93.6004C68.2262 92.2283 70.2192 90.8485 72.3732 91.3007C76.091 92.3892 72.7871 96.7432 70.5488 97.5864C69.4833 98.353 65.183 98.5523 65.7809 97.0115C66.2566 96.7477 66.6555 96.3647 66.9384 95.9H66.8694ZM72.7335 106.164C72.642 105.409 72.4985 104.661 72.3042 103.926C74.8108 106.394 82.3844 105.367 83.5802 102.324C86.0178 107.728 74.9718 108.816 72.7335 106.164ZM82.6143 109.821C82.8881 109.377 83.1216 108.91 83.3119 108.425C84.2389 109.433 85.4569 110.127 86.7964 110.41C88.136 110.693 89.5304 110.551 90.7857 110.005C90.7781 113.37 83.7795 111.691 82.6297 109.821H82.6143ZM90.5021 111.522C91.2687 110.871 91.1384 109.736 90.8087 108.632C91.3733 108.963 92.0042 109.165 92.6561 109.223C92.7112 109.655 92.8564 110.07 93.0821 110.443C93.3079 110.815 93.6094 111.136 93.9669 111.384C92.5723 111.328 91.1781 111.507 89.8429 111.913C90.0824 111.81 90.3088 111.679 90.5174 111.522H90.5021ZM99.7007 102.822C97.585 102.37 95.1014 101.289 94.0359 99.1809C94.8561 99.3495 96.006 98.7363 96.8722 99.0582C98.6506 101.12 103.204 101.511 105.12 99.7558C104.162 103.129 102.851 103.228 99.7314 102.822H99.7007ZM104.591 101.626C106.722 102.285 109.52 101.626 110.647 99.4492C110.747 104.133 106.561 104.976 103.334 103.006C103.633 102.878 103.902 102.689 104.123 102.452C104.345 102.214 104.515 101.933 104.622 101.626H104.591ZM125.02 96.107C124.361 91.0324 116.373 94.0297 114.181 96.0227C111.674 97.9697 114.181 99.0889 112.763 99.3265C109.643 99.6561 111.835 97.5405 110.563 95.9384C113.483 95.6317 113.215 94.1753 114.395 94.4053C117.538 94.7119 117.515 92.8722 119.34 93.2554C120.205 93.3159 121.073 93.192 121.887 92.8921C122.701 92.5921 123.442 92.1229 124.062 91.5154C124.391 91.822 125.595 91.4311 125.541 92.2283C125.712 92.6559 125.977 93.0402 126.315 93.3531C126.653 93.666 127.056 93.8997 127.496 94.0373C126.729 94.206 126.837 95.4324 126.346 95.6624C125.877 95.6634 125.421 95.8198 125.051 96.107H125.02ZM113.069 83.7809C111.958 83.7809 107.466 80.9906 108.616 79.9481C109.336 79.7258 109.129 79.2506 109.459 78.415C110.992 79.8255 113.399 79.5419 115.208 79.7872C115.704 80.464 116.433 80.9335 117.255 81.1056C115.607 81.3739 113.069 82.0791 113.1 83.7809H113.069ZM103.71 74.6436C105.435 75.9007 107.673 76.1767 109.766 76.4143C108.232 79.1663 102.928 77.7251 100.958 76.4143L103.71 74.6436ZM100.766 76.5753C102.882 78.2617 107.665 79.0206 109.559 77.3419C109.206 82.0255 101.035 80.1934 99.4171 77.4262C99.877 77.1502 100.329 76.8666 100.797 76.5753H100.766ZM99.2331 77.5412C99.8511 78.5648 100.8 79.3465 101.924 79.7565C101.83 79.8596 101.757 79.9806 101.711 80.1124C101.665 80.2441 101.646 80.3838 101.655 80.523C99.8694 78.714 96.1516 78.9056 94.8025 81.3662C93.9133 82.5774 95.1091 84.1412 93.2694 84.1412C93.2712 83.6843 93.1668 83.2332 92.9647 82.8235C92.7625 82.4138 92.4679 82.0567 92.1042 81.7802C94.5572 80.4541 96.9411 79.0206 99.2791 77.5412H99.2331ZM91.9662 81.8952C95.2701 85.6513 89.8122 83.5203 90.1572 87.0464C89.4343 86.9892 88.7359 86.7578 88.1219 86.372C87.5078 85.9862 86.9963 85.4575 86.631 84.8311C88.4018 83.9265 90.2262 82.9223 92.0122 81.8952H91.9662ZM90.2032 88.6485C89.1137 88.796 88.0052 88.6052 87.0276 88.1021C86.0501 87.5989 85.2507 86.8076 84.7377 85.8352C85.3126 85.5516 85.8875 85.245 86.4624 84.9307C86.8199 85.6153 87.3476 86.1963 87.9947 86.6178C88.6418 87.0394 89.3865 87.2873 90.1572 87.3377C90.1572 87.3377 90.0728 88.5565 90.2492 88.6485H90.2032ZM84.592 85.9196C84.9642 86.7188 85.5309 87.4119 86.2401 87.9356C85.6121 88.3054 85.0859 88.8254 84.7086 89.4489C84.3313 90.0724 84.1147 90.7798 84.0784 91.5077C83.5878 91.569 81.2039 91.0708 81.4722 90.1049C82.0087 89.1467 81.1042 87.9356 81.7175 87.376C82.6986 86.9237 83.6338 86.4561 84.638 85.9196H84.592ZM72.2352 90.5189C71.3777 90.8254 70.4405 90.8254 69.583 90.5189C70.4772 90.5235 71.3524 90.2602 72.0956 89.7628C72.8389 89.2655 73.4161 88.557 73.753 87.7286C75.7077 88.4262 73.3544 90.1432 72.2812 90.5419L72.2352 90.5189ZM69.9969 90.2122C69.244 90.2628 68.498 90.0415 67.8945 89.5885C67.291 89.1355 66.8701 88.481 66.7084 87.7439C67.3099 87.4119 67.8323 86.9535 68.2398 86.4005C68.6474 85.8474 68.9304 85.2126 69.0694 84.5398C70.2422 85.6129 72.7871 86.5328 73.4004 87.7439C73.1076 88.4166 72.6435 89.0007 72.0543 89.4379C71.4651 89.8751 70.7716 90.15 70.0429 90.2352L69.9969 90.2122ZM66.6088 87.4757C65.6639 88.0389 64.5608 88.2779 63.4675 88.1561C62.3742 88.0343 61.3508 87.5585 60.553 86.8011C63.052 88.1579 67.6129 86.2645 67.7586 83.6582C69.9816 84.4401 67.9042 86.7398 66.6547 87.4986L66.6088 87.4757ZM54.0833 87.583C53.8318 87.1845 53.558 86.8006 53.2631 86.4331C55.0262 87.353 57.9391 87.4986 59.4415 85.8352C59.7481 86.2032 59.9934 86.5098 60.53 87.0694C59.6608 87.8317 58.5701 88.2952 57.418 88.3918C56.266 88.4884 55.1133 88.2129 54.1293 87.606L54.0833 87.583ZM53.6081 82.0331C54.6199 86.4331 58.9739 84.0492 59.2959 85.5899C56.2297 88.3189 49.8903 86.1189 53.5697 81.9105C53.5848 81.9655 53.6138 82.0157 53.6541 82.0561L53.6081 82.0331ZM67.5746 83.5203C67.0227 86.8317 60.6757 88.3649 59.3878 85.0534C60.4916 84.9566 61.5539 84.5863 62.4787 83.9761C63.4035 83.3658 64.1617 82.5347 64.6847 81.5579C68.0269 83.8192 67.5746 83.4589 67.5746 83.5203ZM63.9871 82.1635C61.6875 85.3676 54.4589 86.3335 53.7154 81.4506C56.2833 83.6046 60.4534 82.2171 62.8373 80.2777C63.4122 80.8297 65.0143 81.1593 63.9871 82.1788V82.1635ZM56.4673 82.1635C51.1628 81.8262 53.6387 76.9049 56.8966 76.2457C58.8129 77.5412 60.6143 78.7753 62.546 80.0784C60.8455 81.4979 58.6811 82.2403 56.4673 82.1635ZM50.3885 82.677C48.5412 86.9084 38.8903 86.8241 38.6067 82.1635C41.2513 85.0764 49.5683 84.2561 50.3119 80.5844C50.426 81.2759 50.4518 81.9791 50.3885 82.677ZM38.484 88.0429C36.9509 87.9969 32.2366 86.2952 35.0959 85.1223C35.8285 85.4472 36.634 85.5729 37.4308 85.4867C38.2276 85.4006 38.9875 85.1057 39.6339 84.6318C40.4601 85.261 41.4246 85.6841 42.4471 85.8659C42.0715 87.56 40.1244 88.3035 38.484 88.0582V88.0429ZM43.4283 77.5872C51.4004 76.8206 52.4046 82.5774 44.7851 83.6046C37.3725 84.2331 36.0004 78.3307 43.4283 77.6025V77.5872ZM38.3154 82.3321C38.4449 83.1658 38.8497 83.9321 39.4652 84.5091C38.7876 84.9141 38.0259 85.1578 37.2391 85.2216C36.4522 85.2854 35.6613 85.1675 34.9272 84.877C35.2339 84.2791 34.9272 83.4589 34.7893 82.5774C35.3631 82.7734 35.9701 82.854 36.5753 82.8146C37.1804 82.7751 37.7718 82.6163 38.3154 82.3474V82.3321ZM35.8318 94.3056C33.2638 94.4896 26.0583 93.3168 28.5879 89.783C32.1063 86.9084 44.0492 91.9983 35.8318 94.3209V94.3056ZM33.6394 88.7941C29.1168 88.4645 27.5607 88.5105 27.5607 93.2094C27.1805 92.7327 26.6647 92.3826 26.0812 92.2053C24.5481 90.4345 25.1997 89.0241 27.2924 88.4415C28.6492 88.6485 30.2053 88.0736 31.6004 87.8666C32.909 88.0655 34.1694 88.5047 35.3182 89.1621C34.7672 89.003 34.2064 88.8801 33.6394 88.7941ZM41.1133 100.622C41.2513 100.829 41.7495 101.051 41.9948 101.504C39.6339 103.887 32.114 104.378 32.3593 99.9014C35.4408 102.285 38.484 101.22 41.1133 100.622ZM39.6952 105.344C37.6792 105.467 35.2339 105.551 33.5091 106.923C33.3251 106.409 32.4053 105.881 32.2596 105.26C32.3641 104.794 32.6027 104.37 32.9461 104.039C33.2895 103.707 33.7224 103.484 34.1913 103.397C35.7244 103.313 37.3495 103.91 38.9746 103.397C38.9897 104.108 39.2435 104.794 39.6952 105.344ZM28.1126 103.619C26.5795 103.374 24.9084 104.708 25.5217 106.409C23.8981 105.691 22.1638 105.256 20.3934 105.122C20.6382 104.356 21.0843 103.67 21.685 103.136C22.2858 102.602 23.0191 102.239 23.8082 102.085C24.5973 101.931 25.4132 101.993 26.1705 102.263C26.9278 102.533 27.5985 103.001 28.1126 103.619ZM28.5649 103.658C27.0318 102.431 27.3767 101.32 29.4234 100.683C30.19 101.404 31.8687 100.844 32.3593 101.45C32.5049 102.316 33.4095 102.784 34.2757 103.113C33.7267 103.195 33.2172 103.447 32.8186 103.834C32.4199 104.22 32.1521 104.721 32.0527 105.267C31.0476 104.44 29.8464 103.886 28.5649 103.658ZM32.1063 98.7976C32.0378 99.498 32.0844 100.205 32.2443 100.89C31.329 100.992 30.4036 100.83 29.5776 100.422C28.7517 100.015 28.0598 99.379 27.5837 98.5906C28.7182 97.3642 28.5112 96.0457 28.059 94.3823C28.9182 95.2091 29.9414 95.8465 31.0625 96.2532C32.1835 96.6599 33.3774 96.8268 34.567 96.7432C34.0201 96.8585 33.5099 97.106 33.081 97.4642C32.652 97.8223 32.3173 98.2801 32.1063 98.7976ZM18.8987 100.706C18.0553 100.568 17.2843 100.146 16.7129 99.511C16.1415 98.8755 15.8039 98.0641 15.7558 97.2108C18.3238 100.438 27.0088 98.7439 28.0206 95.3864C29.0401 100.009 22.2025 101.327 18.891 100.706H18.8987ZM19.2283 92.3432C19.1056 92.1823 18.9447 91.96 18.6151 91.5767C20.5238 91.0401 22.6394 89.852 23.4213 87.8359C24.4162 88.1554 25.4455 88.3561 26.4875 88.4338C26.1174 88.5517 25.7864 88.7681 25.53 89.0599C25.2736 89.3516 25.1015 89.7077 25.0322 90.0899C24.9628 90.472 24.9989 90.8659 25.1364 91.2291C25.274 91.5923 25.5079 91.9112 25.813 92.1516C23.6528 91.4999 21.3393 91.5671 19.2206 92.3432H19.2283ZM20.2785 92.3432C22.5091 91.845 25.7823 91.4387 27.3001 93.5544C29.4311 97.6018 21.5663 98.8743 19.2666 98.5063C12.6896 97.5405 16.461 93.1481 20.2708 92.3049L20.2785 92.3432ZM13.2952 103.075C13.6775 103.589 14.1841 103.997 14.7674 104.261C15.3508 104.526 15.9917 104.637 16.6301 104.586C17.2684 104.535 17.8833 104.322 18.4169 103.968C18.9505 103.614 19.3853 103.13 19.6806 102.561C20.1941 102.002 19.6806 100.959 20.6234 101.12C23.13 101.021 25.7363 100.668 27.461 98.7209C27.831 99.4464 28.3932 100.056 29.0861 100.484C28.6351 100.619 28.229 100.873 27.9105 101.22C27.5921 101.567 27.3733 101.993 27.2771 102.454C23.498 100.338 21.5509 102.684 19.8875 105.083C19.3355 104.984 18.7689 105.001 18.2237 105.133C17.6786 105.265 17.167 105.509 16.7217 105.85C15.0813 103.834 13.2109 105.605 12.9656 103.956C12.9426 103.681 12.5056 103.251 13.2875 103.067L13.2952 103.075ZM12.7203 103.918C12.8031 104.221 12.9134 104.516 13.0499 104.8C12.7125 104.835 12.3773 104.889 12.0457 104.961C12.3527 104.672 12.5821 104.311 12.7126 103.91L12.7203 103.918ZM44.4631 107.199C43.9725 105.451 41.5272 105.451 39.9481 105.352C37.8555 102.439 41.1593 103.42 42.2478 101.634C43.1001 101.977 44.0187 102.124 44.9355 102.064C45.8523 102.004 46.744 101.739 47.5447 101.289C47.5447 101.68 48.5488 102.684 47.9356 103.075C47.0784 103.448 46.3185 104.013 45.715 104.727C45.1115 105.441 44.6805 106.284 44.4555 107.191L44.4631 107.199ZM49.323 94.252C49.9976 99.3648 40.615 103.121 39.8178 97.7474C39.6339 93.5544 48.2575 90.1279 49.323 94.252ZM40.6994 100.208C39.6177 100.752 38.4286 101.049 37.2182 101.077C36.0077 101.105 34.8062 100.863 33.7008 100.369C28.9558 97.9697 37.7865 95.9 39.6492 96.5976C39.0973 98.307 39.8638 99.1195 40.6994 100.17V100.208ZM39.0053 92.1209C38.4074 89.6986 33.2332 87.8283 31.6694 87.6826C32.5191 87.3088 33.2972 86.7901 33.9691 86.1495C35.0346 88.1042 38.7293 88.5718 40.3544 88.2269C40.6716 89.1272 41.2509 89.9121 42.0178 90.4805C41.6422 91.6304 40.2241 92.6729 39.0053 92.1209ZM40.4847 88.2192C41.028 88.0837 41.5239 87.8021 41.9185 87.4048C42.313 87.0075 42.5913 86.5098 42.723 85.9656C44.1372 86.22 45.5913 86.1412 46.9697 85.7356C47.0311 86.8088 48.0429 87.6443 49.0854 88.0352C49.7217 88.2422 49.0854 89.392 48.8171 89.9056C46.5941 92.7189 41.7879 91.2547 40.4771 88.2192H40.4847ZM53.6617 87.4527C54.9342 88.9858 57.6708 89.0701 59.4338 88.2729C60.5223 87.8973 60.5607 86.9161 61.5725 87.8589C61.5112 89.9976 59.9858 90.6952 57.9161 91.0861C56.7049 91.4924 55.9 92.1746 54.4666 92.006C51.8067 91.753 51.1321 88.3189 53.6541 87.422L53.6617 87.4527ZM53.2861 91.9523C54.054 92.3123 54.9205 92.404 55.7467 92.2129C54.5203 93.4087 55.1718 95.4018 55.9384 96.8122C52.1056 97.6324 50.9251 94.6352 52.8722 91.661C53.0025 91.7683 53.1405 91.8756 53.2861 91.9523ZM54.9112 97.2492C55.4171 97.3718 55.9997 96.7509 56.4443 97.3488C59.2115 98.9509 62.7837 98.4373 65.4973 97.1419C65.6396 97.6483 65.8921 98.117 66.2366 98.5145C66.5812 98.9121 67.0092 99.2286 67.4903 99.4415C67.5669 99.7328 68.1648 99.8094 68.6171 99.8938C67.9742 100.577 67.6271 101.486 67.6513 102.423C65.229 97.2262 60.0317 98.2533 56.7662 101.289C56.4596 101.58 56.5056 101.787 55.9997 101.542C53.9223 101.151 52.6422 96.6973 54.9112 97.2568V97.2492ZM59.3649 99.8784C68.5021 96.429 68.1112 105.398 61.7642 108.31C52.8032 111.883 53.0025 102.899 59.3649 99.8861V99.8784ZM75.0331 117.724C75.5544 114.267 87.4972 114.727 87.1753 118.03C86.3627 121.38 74.5425 121.081 75.0331 117.724ZM85.3049 115.692C83.8791 115.171 83.2889 112.626 83.9251 111.193C85.8951 111.752 84.1704 114.029 86.1634 115.263C86.1634 115.447 86.2248 115.731 86.2861 116.122C85.9725 115.967 85.65 115.831 85.3202 115.715L85.3049 115.692ZM94.6262 111.446C94.1624 111.287 93.7536 111 93.448 110.617C93.1423 110.234 92.9527 109.771 92.9014 109.284C93.5803 109.438 94.2873 109.417 94.9558 109.223C94.7641 110.48 97.3474 111.936 94.6415 111.446H94.6262ZM96.0826 110.932C95.8171 110.727 95.5965 110.469 95.4344 110.175C95.2722 109.881 95.172 109.557 95.1397 109.223C96.8689 108.779 98.378 107.722 99.3864 106.248C99.497 106.971 99.8353 107.64 100.352 108.157C99.4837 108.282 98.6529 108.594 97.918 109.074C97.1831 109.553 96.5619 110.187 96.0979 110.932H96.0826ZM99.5551 106.003C100.106 105.16 100.462 104.204 100.598 103.205C101.318 103.458 102.529 102.837 103.334 103.205C104.13 103.784 105.068 104.135 106.049 104.222C107.029 104.308 108.014 104.126 108.899 103.696C109.137 108.448 100.659 111.545 99.5627 106.003H99.5551ZM109.221 104.156C109.631 104.722 110.107 105.237 110.639 105.689C107.573 108.218 111.36 107.889 105.94 110.189C104.729 110.005 103.543 109.681 102.407 109.223C105.22 109.744 108.899 107.352 109.237 104.156H109.221ZM109.221 108.387C109.244 108.56 109.285 108.729 109.344 108.893C108.11 109.092 108.639 109.284 109.26 108.387H109.221ZM115.975 110.518C113.161 106.532 108.171 111.009 109.651 106.923C109.881 106.616 110.517 105.39 111.053 105.98C111.751 106.444 112.551 106.73 113.384 106.816C114.218 106.901 115.059 106.783 115.837 106.471C116.054 106.958 116.43 107.358 116.903 107.604C117.376 107.85 117.919 107.929 118.443 107.828C118.542 108.488 118.827 109.108 119.263 109.614C118.119 109.622 116.997 109.934 116.013 110.518H115.975ZM143.639 99.4108C144.789 103.765 132.095 106.724 132.141 101.343C134.786 103.397 142.528 100.829 143.394 98.3223C143.471 98.5676 143.57 98.9202 143.678 99.4108H143.639ZM142.957 98.445C141.194 101.672 130.064 103.336 132.386 99.5335C134.057 96.7816 144.13 95.0185 142.995 98.445H142.957ZM142.712 93.723C142.651 96.6359 139.753 96.4366 137.346 96.2297C137.141 95.7603 136.824 95.3482 136.423 95.0289C136.022 94.7097 135.55 94.493 135.046 94.3976C135.453 94.3976 135.989 93.746 136.541 94.0067C138.634 94.6276 141.14 94.6276 142.842 93.0485C142.835 93.2708 142.788 93.4854 142.75 93.723H142.712ZM142.076 90.7642C144.766 93.9913 138.542 94.3209 136.533 93.7C137.829 92.7189 137.829 90.4959 137.185 88.9551C138.971 89.1007 140.841 89.4533 142.114 90.7642H142.076ZM137.001 89.231C138.051 92.8415 127.166 92.1899 126.078 90.3579C124.207 86.4715 136.219 86.9851 137.039 89.2464L137.001 89.231ZM136.303 84.9384C137.024 86.7014 135.215 88.1042 133.329 87.2993C130.994 86.8031 128.559 87.1224 126.43 88.2039C126.186 87.5535 126.007 86.8808 125.894 86.1955C128.83 87.9586 134.97 87.0311 135.997 83.6276C136.12 83.9725 136.219 84.4018 136.357 84.9537L136.303 84.9384ZM134.824 81.6729C138.925 85.7356 128.086 88.1962 125.871 85.8352C128.209 85.7126 132.003 83.5816 131.536 80.9906C132.674 80.8975 133.816 81.1343 134.824 81.6729ZM131.191 80.8297C132.294 83.4283 127.166 85.8966 125.15 85.5516C125.225 84.7833 125.184 84.008 125.028 83.252C127.205 83.252 130.018 82.0178 130.754 79.7795C130.861 80.0248 130.991 80.3697 131.214 80.8297H131.191ZM127.082 77.5412C133.943 78.0931 128.615 82.9837 124.844 82.9607C124.269 82.1941 123.08 81.8109 122.069 81.5042C128.17 80.2548 124.292 77.3189 127.105 77.5412H127.082ZM125.625 77.0506C126.837 82.838 116.427 81.6499 115.254 79.6185C116.021 79.6185 116.611 78.7523 117.492 79.1433C120.474 79.7412 124.476 79.6338 125.625 77.0506ZM118.972 73.8234C129.703 73.5398 125.457 80.9063 117.331 78.714C118.213 78.0931 118.397 75.0959 118.213 73.8847C118.475 73.9139 118.74 73.8931 118.995 73.8234H118.972ZM114.97 72.022C117.086 72.3286 119.324 74.5516 117.147 76.215C115.093 77.4032 112.464 77.1349 110.202 76.3147C113.529 76.2304 113.391 74.5669 114.035 71.8994C114.372 71.976 114.664 71.976 114.97 72.022ZM112.502 69.845C117.101 74.199 108.087 74.5899 105.504 73.4401C107.106 72.1063 109.735 71.4318 109.551 68.9635C110.591 69.0266 111.602 69.3338 112.502 69.8603V69.845ZM109.076 70.4199C97.3321 79.2506 77.6471 88.9858 76.8345 89.3537C76.8345 89.8443 76.1983 56.2311 76.16 56.2771C76.1216 56.3231 110.294 42.4102 112.916 41.36C112.425 45.0778 109.076 69.9447 109.076 70.4352V70.4199ZM101.234 22.6945C102.299 23.6528 103.2 24.7792 103.901 26.029C107.29 32.1614 108.991 31.3949 111.567 34.1774C112.316 35.1101 112.831 36.2079 113.071 37.3796C113.311 38.5514 113.269 39.7634 112.947 40.9154C112.862 40.9154 79.1648 54.6137 76.229 56.0701C73.9293 47.7914 79.7474 46.1509 81.1809 41.1377C82.4533 37.5886 82.8213 33.9321 84.4464 30.406C88.0645 22.9628 93.6756 18.9614 101.234 22.6945ZM97.3091 20.8701C91.0847 19.9886 87.022 24.7949 84.5614 29.4938C82.5683 33.2729 82.2617 37.3356 80.8206 41.2374C80.1 43.583 78.3983 45.2847 76.9878 47.2931C76.2285 48.558 75.7415 49.9674 75.5581 51.4312C75.3746 52.895 75.4987 54.381 75.9223 55.7941C73.5614 54.215 70.6255 52.8813 68.1802 51.4631C66.7467 43.4144 72.9251 41.498 75.0791 36.0248C78.3293 28.4053 79.1035 17.321 89.8429 17.8116C91.4986 18.3022 97.3704 20.9314 97.3091 20.8701ZM88.831 17.3823C78.8659 17.1907 77.6164 29.0186 74.5809 36.0631C71.3767 42.4945 66.4094 44.0736 67.9042 51.3941C66.4861 50.6736 60.6987 47.5614 60.4764 47.4771C61.8715 46.5725 62.73 42.4638 58.7056 41.2144C60.1007 37.4506 64.3091 35.1739 65.8345 31.2492C69.2227 22.5412 72.1356 14.6611 80.399 14.3468C81.2959 14.6304 86.5314 16.4931 88.831 17.3823ZM71.4993 77.7711C71.4993 77.7711 66.7391 74.6436 66.0568 74.2143C66.0568 69.3467 66.0185 56.7217 65.9572 55.2806C66.9614 55.8171 70.7405 57.7488 71.622 58.1551C71.5837 58.4694 71.4993 77.4798 71.4993 77.7711ZM65.7272 74.0074C64.3781 73.0415 60.5913 71.1635 60.553 70.7035C60.3307 65.675 60.1007 54.9356 60.0394 51.7544C61.4345 52.7203 65.321 54.9356 65.7885 55.2039C65.6659 57.8332 65.7272 73.0415 65.7272 74.0074ZM58.399 47.4924C56.3447 45.9133 57.7014 41.36 60.3077 42.5405C62.4617 43.8896 60.9669 48.7342 58.399 47.4924ZM47.7593 53.5481C47.0465 54.1218 46.4967 54.8725 46.1649 55.7252C45.8217 56.4685 45.6189 57.269 45.567 58.0861C45.2764 58.3134 44.9745 58.5258 44.6624 58.7224C44.4785 56.5837 43.183 42.8471 43.1293 42.2722C43.5049 42.5022 45.8659 43.9356 46.6861 44.4109C46.7858 45.944 47.2764 53.3872 47.4527 53.6938C48.0046 53.5252 46.9161 46.0283 46.9008 44.4952C47.6136 44.9091 48.3112 45.3231 49.0548 45.691C49.1161 47.1245 49.2004 48.5656 49.2771 49.999C48.4194 50.9867 47.8892 52.2159 47.7593 53.5175V53.5481ZM47.353 41.659C47.1011 41.4086 46.9106 41.1032 46.7965 40.7669C46.6824 40.4305 46.6478 40.0723 46.6953 39.7203C46.7428 39.3683 46.8712 39.0321 47.0705 38.7381C47.2697 38.444 47.5343 38.2001 47.8436 38.0255C49.1621 37.4123 51.3161 38.3091 53.3858 39.2367C55.8924 40.3482 58.2994 41.636 59.2422 41.9886C57.0882 42.5022 56.429 45.461 57.7091 47.1858C54.1211 45.5987 50.659 43.7409 47.353 41.6283V41.659ZM69.9816 10.997C73.2011 11.9168 76.4053 12.921 79.5711 14.0095C66.9997 15.8416 68.5864 30.9349 61.1739 36.8834C60.0624 38.1405 58.629 39.5126 58.6443 41.176C58.583 41.1377 51.8757 37.9565 50.0436 37.4429C49.2771 37.5043 50.2276 35.4729 50.5802 34.7677C52.2589 31.9391 55.0108 30.1684 56.6589 27.3398C60.6757 19.1301 60.1621 12.8443 69.9816 10.997ZM69.3453 10.8053C59.9014 12.6757 59.6485 20.0882 56.9426 26.1363C54.3976 31.1419 49.8596 32.859 49.4074 37.3663C48.7219 37.2844 48.031 37.4661 47.4745 37.8746C46.918 38.2831 46.5375 38.8878 46.4102 39.5663C46.0805 39.114 41.4199 37.1823 41.7265 36.5691C41.4812 28.252 45.9732 29.4402 48.6255 24.3733C52.0136 16.6081 53.1405 10.9203 61.6568 9.21856C63.5349 8.77396 66.8387 10.2917 69.3453 10.8053ZM35.0116 29.3482C35.6401 25.9294 39.8178 25.2241 40.9677 22.0199C42.4011 18.6088 42.7767 14.7301 45.6283 12.0548C48.3572 9.03459 52.8568 7.90776 56.5746 7.63947C57.4331 7.70079 61.4345 8.72797 61.8255 8.83529C51.2548 10.9663 51.4387 18.4862 48.0276 24.7029C43.2443 31.0269 41.4352 28.8116 41.4352 36.6534C40.1628 35.8868 35.8088 33.4339 34.9272 32.9356C34.8026 31.7411 34.8309 30.5355 35.0116 29.3482ZM35.0116 33.2499C37.1426 34.5454 46.0345 39.6966 46.4255 39.8806C46.4255 41.9809 48.3725 42.4715 48.9474 42.8394C48.9704 43.6597 48.9704 44.5029 48.9704 45.3461C47.33 44.6715 38.645 38.7921 39.1969 40.2102C39.3809 42.3718 41.3509 58.5077 41.6422 60.2938C42.3014 60.6617 43.6506 61.5433 43.9419 61.6736V60.4548C43.9419 60.4548 42.6694 59.9872 42.6694 59.6882C42.3781 57.5112 40.7147 42.5865 40.5767 40.8004C40.9677 40.9997 42.5008 41.9043 42.8764 42.1496C42.8764 42.1496 44.2562 57.5725 44.4095 58.7607C44.3081 58.8234 44.2108 58.8926 44.1182 58.9677C44.0568 59.029 44.1182 59.1133 44.2255 59.1363C45.521 59.4199 55.7621 64.4485 55.7851 64.5022C55.8081 64.5558 58.353 63.1913 58.8513 62.8617C58.7439 62.8004 57.1649 61.8576 57.1649 61.8346C55.992 64.4178 53.3321 63.0687 54.0987 60.3551C53.8304 60.3551 48.4109 57.7258 47.9663 57.4422C47.903 57.9636 47.8083 58.4807 47.6826 58.9907C46.6708 60.5238 45.0304 58.891 45.59 58.3314C45.6235 58.523 45.7073 58.7021 45.8329 58.8506C45.9585 58.999 46.1213 59.1114 46.3047 59.1761C46.488 59.2409 46.6853 59.2557 46.8762 59.2191C47.0672 59.1824 47.245 59.0957 47.3913 58.9677C47.6826 58.1474 47.744 56.8137 48.7251 56.484C48.4645 58.3314 54.091 59.7879 54.091 58.0861C50.5802 59.6192 47.399 56.1161 48.1579 52.7663C48.5488 50.1217 52.0596 47.2241 54.2903 48.9335C54.4389 49.1364 54.5272 49.3773 54.5448 49.6282C54.5624 49.8791 54.5087 50.1299 54.3899 50.3516C53.8758 50.431 53.3845 50.6191 52.9488 50.9035C50.7565 51.9537 49.7063 54.8053 51.822 56.1238C52.1516 56.3231 53.0178 56.53 52.9488 56.1238C52.6058 56.0912 52.273 55.9888 51.9711 55.8226C51.6692 55.6565 51.4045 55.4303 51.1934 55.1579C52.0066 55.3427 52.7489 55.7587 53.331 56.3557C53.9132 56.9528 54.3102 57.7055 54.4743 58.5231C54.9265 60.0562 53.861 61.6659 54.8882 62.6931C56.4213 63.6819 57.3105 61.4589 57.2492 60.1098C57.4332 56.6757 54.7042 53.0652 51.5001 52.567C52.2971 51.6714 53.3391 51.0292 54.4973 50.7196C56.0304 47.2701 50.7182 47.868 49.3844 49.7767C49.323 48.4046 49.0778 43.8666 48.9934 43.0004C51.7739 44.7407 54.6764 46.2778 57.6784 47.5997C57.6018 49.4701 57.9237 61.0067 57.9237 62.0109C58.0081 62.0722 58.1154 62.1182 58.192 62.1795C58.192 58.3468 57.9237 48.7266 57.8854 47.684C57.9851 47.684 58.8283 48.3969 59.6331 47.9907C59.6331 49.6924 59.7558 57.5802 59.8401 61.9725C59.7021 63.59 60.4687 66.1042 58.9356 65.307C58.675 65.8589 59.9858 65.7746 59.9014 65.5677C59.9014 65.8206 60.1314 69.9676 60.1697 70.8109C59.2652 70.2973 58.3607 69.7837 57.4791 69.2778C57.4178 69.5844 56.7586 70.0443 56.7126 70.4046C56.9196 70.5732 57.7551 71.1021 58.9509 71.8457C63.1133 74.268 71.9823 80.2777 71.6757 79.2736C71.6757 78.0854 71.806 59.7725 71.783 58.2471C72.0053 57.9405 70.9628 57.6109 70.1195 57.1433C66.6087 55.3342 61.1433 52.2144 60.0164 51.5398C59.8554 51.3098 59.4798 47.4311 60.2004 47.6381C61.0436 48.1516 74.7189 55.5182 75.8074 56.2157C75.8074 56.2157 76.3593 88.0889 76.4053 89.1774C73.5307 87.2227 55.5168 75.0499 52.6422 73.1182C52.4966 73.1182 52.1286 72.6046 52.1669 73.0568C52.5579 73.5321 53.7001 73.8234 53.1941 74.1684C51.3697 77.1426 46.1572 77.9244 44.3865 74.8046C44.8772 74.3285 45.2613 73.7537 45.5133 73.1182C46.0499 73.1182 47.8589 72.9572 47.8129 72.275C46.4562 72.7732 44.8771 73.1795 43.5433 72.3823C43.321 72.5049 47.4833 72.9112 47.2994 71.7614C45.6589 72.2136 43.3363 72.6889 42.0868 71.0485C40.937 69.1781 42.6617 68.6032 43.6199 67.6603C43.8882 67.76 45.153 69.0708 45.0227 68.3349C39.7718 64.4332 38.622 63.7969 38.5454 63.314C38.3384 60.0485 35.1725 35.3426 34.9732 33.2499H35.0116ZM36.1614 64.3565C36.7497 63.7609 37.4978 63.3483 38.3154 63.1684C38.645 64.4562 41.1746 65.606 42.2171 66.5335C40.3314 67.6833 34.2757 67.5607 36.1614 64.3565ZM28.6262 71.3781C29.3927 67.9133 34.7586 67.2694 37.2729 69.0785C35.9774 70.1056 34.9732 72.2213 36.0157 73.6778C33.5704 74.5056 28.7718 74.544 28.6262 71.4011V71.3781ZM22.7774 73.7621C23.9886 72.0603 26.3036 71.7077 28.3196 71.4624C28.4652 72.9189 28.2353 75.1189 30.1056 75.7934C28.1969 77.1962 20.8227 77.1349 22.7774 73.7851V73.7621ZM30.4966 76.0004C31.2916 76.2655 32.1199 76.4177 32.9572 76.4527C30.9642 79.0819 22.1565 80.4771 22.5705 75.8548C23.8659 77.1732 27.7907 77.6638 30.4966 76.0234V76.0004ZM16.3461 78.7906C18.0101 77.2812 20.1431 76.3907 22.3865 76.2687C22.3865 76.5753 22.4631 77.0889 22.5705 77.6255C24.2722 79.8408 28.8715 79.3272 31.0025 78.2617C30.9182 78.3614 30.3663 79.0283 30.6729 79.1586C32.6429 75.7091 37.5718 76.537 40.3008 77.9704C38.6833 76.146 35.1265 76.0847 32.9495 76.9816C33.9997 75.8931 36.3607 76.4297 37.6945 75.1342C38.622 76.1844 40.6304 76.5523 42.0715 76.1614C41.9606 76.3664 41.9282 76.6048 41.9804 76.832C42.0326 77.0592 42.1658 77.2595 42.3551 77.3955C40.6304 77.7865 38.0241 78.7293 38.1697 81.029C38.0471 81.3969 38.622 81.9105 38.0241 82.1405C37.1196 82.5084 34.7586 83.022 34.6589 81.8722C33.7314 77.8478 25.6673 79.3042 23.567 80.661C21.1063 81.7725 22.1488 82.9607 20.5008 83.2903C17.0206 84.0722 12.6666 82.0868 16.3461 78.8136V78.7906ZM15.0123 82.3244C16.5454 83.8575 19.1823 84.1105 21.2367 83.4359C20.9684 83.8039 21.8729 84.7084 21.2367 84.969C20.0575 85.3567 18.7778 85.3048 17.6339 84.823C16.4899 84.3412 15.5588 83.4619 15.0123 82.3474V82.3244ZM10.7196 86.9237C11.3328 85.015 13.7015 84.2178 15.5642 83.6812C16.314 84.4873 17.2829 85.0567 18.352 85.3196C19.421 85.5824 20.5435 85.5272 21.5816 85.1607C23.429 89.2694 10.2903 91.1858 10.7196 86.9237ZM8.029 91.9523C8.71826 90.8445 9.68204 89.9335 10.8269 89.3077C11.5398 91.3391 14.1461 91.9523 16.1928 91.914C14.399 96.5516 4.0506 98.6213 8.029 91.9523ZM1.42133 98.0847C2.67081 96.5516 4.87081 96.1377 6.84084 96.0993C8.48126 96.1607 9.22481 98.399 11.2715 98.1077C12.1903 98.0365 13.0888 97.8002 13.9238 97.4101C15.6715 98.8512 13.6171 100.637 12.1147 101.128C9.40879 102.385 -0.985633 102.017 1.44433 98.031L1.42133 98.0847ZM1.52099 101.802C1.32019 101.265 1.14874 100.718 1.0074 100.162C3.85896 103.32 13.1649 102.607 14.7056 99.5641C16.1008 105.037 2.73214 104.708 1.52099 101.749V101.802ZM2.03457 102.937C5.10077 104.639 9.24014 104.37 12.5516 103.405C12.4827 107.168 -1.84417 108.241 2.03457 102.883V102.937ZM5.27708 109.062C3.34538 108.962 1.33701 107.667 1.33701 105.382C2.77046 107.191 5.89032 107.13 8.029 106.655C5.97464 107.766 6.41158 109.207 5.27708 109.062ZM12.9426 114.052C9.7844 114.65 8.41994 113.883 6.75652 111.262C9.44711 112.986 13.8011 111.875 15.8555 110.235C16.1965 110.866 16.6992 111.395 17.3119 111.768C16.0968 112.921 14.5834 113.712 12.9426 114.052ZM16.1621 110.35C15.8095 109.583 16.3077 108.77 16.2464 107.72C17.9482 110.848 25.445 112.036 27.4764 109.491C27.4367 110.235 27.3471 110.975 27.2081 111.706C26.2422 113.477 19.6806 114.221 16.1621 110.35ZM27.6603 110.288C28.4253 110.91 29.3433 111.315 30.3182 111.46C31.2931 111.606 32.2892 111.487 33.2025 111.116C33.2026 111.364 33.2668 111.609 33.389 111.825C33.5113 112.041 33.6873 112.222 33.9001 112.35C33.9001 113.454 26.4645 114.282 27.6603 110.35V110.288ZM33.7927 111.952C33.2945 111.3 33.4785 110.419 33.1565 109.445C35.6555 111.913 43.2366 110.886 44.4248 107.851C44.4861 108.548 44.9384 109.384 44.7314 110.25C43.8116 112.335 37.9628 114.504 33.7621 111.975L33.7927 111.952ZM47.8589 112.465C45.6129 111.699 45.268 111.216 44.9384 108.916C47.238 111.645 53.8074 110.334 55.4938 108.525C48.5948 111.591 42.5391 109.821 45.6973 105.283C48.1196 101.994 52.3739 102.055 55.3481 102.753C53.1224 101.906 50.6595 101.928 48.4492 102.814C48.2959 102.241 48.0527 101.695 47.7286 101.197C52.0213 98.8972 51.6917 94.6429 48.0122 92.2589C46.4224 91.9354 44.7706 92.1337 43.3025 92.8242C41.8344 93.5148 40.6284 94.6607 39.8638 96.0917C39.4346 96.6053 38.0548 95.8464 37.2346 96.176C38.8596 95.7237 38.7677 93.8763 39.0436 92.3432C39.3641 92.4427 39.7014 92.4767 40.0353 92.4434C40.3692 92.41 40.6931 92.3099 40.9876 92.1491C41.2822 91.9882 41.5414 91.7699 41.75 91.507C41.9585 91.244 42.1122 90.9419 42.2018 90.6185C44.7084 92.5272 49.553 91.8297 49.6373 88.1732C50.5058 88.3662 51.4081 88.3451 52.2666 88.1119C51.9333 88.6471 51.7997 89.2829 51.8895 89.907C51.9792 90.5311 52.2865 91.1034 52.7572 91.523C51.3851 93.3091 51.1551 96.475 53.8074 97.1265C53.6242 97.5995 53.5422 98.1057 53.5669 98.6124C53.5916 99.119 53.7223 99.6149 53.9506 100.068C54.1789 100.521 54.4997 100.921 54.8923 101.242C55.2848 101.563 55.7405 101.799 56.2297 101.933C53.3321 105.674 54.0297 107.191 56.8046 109.92C55.7221 111.177 54.2955 112.09 52.7005 112.547C51.1055 113.003 49.4118 112.983 47.8283 112.488L47.8589 112.465ZM54.4053 112.243C55.4345 111.748 56.3248 111.005 56.9962 110.081C58.7363 112.22 62.0861 111.668 64.3398 110.457C65.3056 112.404 63.052 114.029 61.6568 115.217C57.1649 118.782 49.53 116.819 54.3746 112.266L54.4053 112.243ZM58.3913 118.812C56.222 119.073 54.6122 118.59 53.4777 116.658C57.8164 119.364 65.4896 114.152 64.8993 110.97C68.3412 114.65 61.5649 118.69 58.3607 118.835L58.3913 118.812ZM64.5237 118.996C63.1669 118.521 62.5307 117.463 64.1175 116.697C65.4283 115.47 67.0687 113.431 65.6506 111.729C72.0206 107.483 74.2129 115.984 69.2074 118.421C67.5976 118.299 66.1182 118.782 64.5161 119.019L64.5237 118.996ZM63.7572 120.046C66.8234 117.333 78.4366 118.912 74.2283 122.607C71.9669 124.4 60.2847 123.887 63.7189 120.069L63.7572 120.046ZM73.8756 125.359C70.6025 127.106 62.523 126.984 63.098 122.239C65.3976 124.684 74.1056 124.4 75.1941 122.078C75.3398 123.212 75.0331 124.73 73.8373 125.382L73.8756 125.359ZM86.9607 121.457C84.2931 123.802 76.137 124.132 75.1941 120.69C75.3781 120.215 75.0255 119.625 75.0485 118.843C77.3481 121.779 85.8875 121.02 87.3133 118.743C87.1446 119.494 87.6199 120.706 86.9223 121.48L86.9607 121.457ZM92.9321 119.671C91.0916 119.913 89.2211 119.592 87.5662 118.751C87.8192 117.701 87.114 116.819 86.585 115.938C88.1181 117.294 90.7321 117.11 92.7174 117.087C92.7416 117.956 92.8468 118.821 93.0317 119.671H92.9321ZM109.628 125.481C108.616 129.314 96.7112 128.624 98.1293 123.572C100.122 126.286 108.271 125.933 109.773 123.764C109.785 124.35 109.723 124.934 109.589 125.504L109.628 125.481ZM108.516 121.648C113.713 125.481 99.1948 126.148 98.3516 123.289C97.884 119.801 107.09 120.69 108.478 121.71L108.516 121.648ZM104.737 119.287C104.147 120.974 101.671 120.207 100.222 120.913C98.2289 121.832 97.3244 122.591 95.2164 121.871C92.9167 121.342 93.4457 120.069 93.0777 118.567C95.6227 121.112 103.572 119.448 104.43 116.513C104.46 117.463 104.55 118.41 104.699 119.349L104.737 119.287ZM103.717 114.397C102.184 113.63 100.283 113.63 98.4742 113.822C98.7885 112.488 97.1864 111.691 95.9753 111.522C97.0638 109.514 99.9154 107.145 102.215 109.223C103.035 109.775 103.94 109.468 104.039 110.717C104.308 112.649 103.204 112.856 104.369 115.156C104.187 114.88 103.953 114.643 103.679 114.458L103.717 114.397ZM104.269 114.175C107.083 116.244 111.621 115.708 114.495 113.929C114.59 114.634 114.726 115.333 114.901 116.022C111.651 118.544 105.105 118.636 104.231 114.236L104.269 114.175ZM126.936 113.945C127.603 118.621 118.106 119.31 115.745 117.011C114.978 116.191 115.024 114.979 114.702 113.745C116.749 117.195 125.932 115.884 126.691 112.412C126.714 112.818 126.821 113.477 126.898 114.006L126.936 113.945ZM126.3 111.361C126.814 115.531 119.24 115.8 116.894 114.972C112.012 112.841 116.427 109.882 119.462 109.675C123.962 113.124 125.771 109.583 126.262 111.423L126.3 111.361ZM126.461 109.782C125.746 110.363 124.885 110.735 123.972 110.858C123.059 110.981 122.13 110.85 121.287 110.48C126.055 110.641 129.014 104.033 126.607 100.147C130.309 101.979 128.983 107.506 126.392 109.844L126.461 109.782ZM132.593 109.391C131.025 109.361 129.485 108.967 128.094 108.242C128.483 107.582 128.775 106.869 128.96 106.126C131.712 107.299 135.713 107.498 137.852 105.635C137.354 109.345 135.499 109.223 132.586 109.453L132.593 109.391Z" fill="#3D7BFF"/>
<path d="M52.8032 72.7841C56.8046 71.4733 58.7593 67.2036 58.9816 63.1562C58.514 63.4475 56.1071 64.6894 56.0074 64.6894C56.5287 67.5409 55.4248 71.251 52.8032 72.7841Z" fill="#3D7BFF"/>
<path d="M50.7027 72.9646C54.6197 73.1486 56.2831 67.5221 55.6469 64.7319C54.4971 64.2336 45.8351 59.9639 44.371 59.3047C43.6044 64.4022 45.0072 72.6963 50.7027 72.9646ZM48.1501 69.1855C48.3417 68.5493 49.2002 66.7172 49.1389 66.5563C47.9891 65.5291 47.8281 62.8615 49.8365 63.904C50.925 64.4789 51.6609 67.0928 50.1661 67.0698C50.2274 67.3611 51.2316 70.619 50.8866 70.665C50.7027 70.665 48.0504 69.5151 48.1501 69.1855Z" fill="#3D7BFF"/>
</svg>
