<svg width="146" height="111" viewBox="0 0 146 111" fill="none" xmlns="http://www.w3.org/2000/svg">
<path d="M113.381 43.8325C113.059 43.8325 113.059 44.4304 113.381 44.4304C114.148 44.4304 124.826 44.2541 125.723 44.0778C125.805 44.0655 125.879 44.0243 125.933 43.9617C125.987 43.8991 126.017 43.8192 126.017 43.7366C126.017 43.654 125.987 43.5742 125.933 43.5116C125.879 43.449 125.805 43.4078 125.723 43.3955C122.91 43.0276 116.478 43.7711 113.381 43.8325ZM117.659 59.4854C117.306 59.4854 117.367 60.0756 117.705 60.091C120.204 60.1753 124.098 60.045 126.65 59.93C127.118 59.93 127.172 59.1635 126.65 59.1635C123.791 59.1788 120.526 59.2171 117.659 59.4854ZM117.988 33.0471C117.914 33.0503 117.843 33.0804 117.79 33.1318C117.736 33.1831 117.703 33.2523 117.696 33.3264C117.69 33.4004 117.71 33.4744 117.754 33.5344C117.798 33.5944 117.862 33.6365 117.935 33.6527C119.307 33.8213 123.76 33.9976 125.102 33.4304C125.171 33.3963 125.226 33.3409 125.261 33.2724C125.295 33.2039 125.306 33.126 125.292 33.0507C125.278 32.9753 125.24 32.9065 125.184 32.8547C125.127 32.8029 125.056 32.7709 124.979 32.7635C123.201 32.6562 120.349 33.2234 117.988 33.0471ZM109.234 47.8568C115.704 47.7649 123.032 47.3126 129.563 46.7147C129.97 46.7147 129.931 45.9481 129.51 45.9481C123.086 46.1091 115.581 46.5307 109.196 47.1899C109.108 47.195 109.025 47.235 108.966 47.3012C108.907 47.3673 108.877 47.4541 108.882 47.5426C108.887 47.631 108.927 47.7138 108.993 47.7727C109.059 47.8317 109.146 47.8619 109.234 47.8568ZM118.51 13.7147C120.311 13.5767 122.112 13.4694 123.875 13.2548C124.381 13.2011 124.251 12.4882 123.753 12.4882C121.959 12.6262 120.165 12.8562 118.387 13.0631C117.973 13.1091 118.088 13.7454 118.51 13.7147ZM107.993 29.7049C107.609 29.7049 107.594 30.3565 107.993 30.3872C112.326 30.589 116.669 30.2855 120.932 29.4826C121.415 29.3983 121.338 28.6318 120.848 28.7161C116.602 29.4401 112.299 29.7711 107.993 29.7049ZM122.258 17.3865C122.925 17.5475 123.025 16.459 122.411 16.5663C119.42 17.0513 116.387 17.2388 113.358 17.1259C112.952 17.1259 112.86 17.7161 113.274 17.7621C116.271 18.063 119.296 17.9365 122.258 17.3865ZM105.655 47.4966C105.057 47.2666 102.297 47.6499 101.523 47.7342C101.147 47.7342 101.132 48.3398 101.523 48.3321L104.658 48.2325C106.107 48.1788 106.099 47.6729 105.655 47.4966ZM108.82 80.6652C108.177 80.5119 103.6 80.8568 102.849 80.9028C102.45 80.9028 102.527 81.516 102.926 81.5084C103.738 81.5084 108.192 81.5084 108.897 81.2861C109.211 81.1788 109.104 80.7265 108.82 80.6652ZM102.841 77.4227C104.995 77.5223 110.331 77.6143 112.485 77.1007C112.535 77.1003 112.585 77.0894 112.63 77.0686C112.676 77.0479 112.717 77.0177 112.751 76.9802C112.784 76.9426 112.809 76.8984 112.825 76.8505C112.84 76.8026 112.845 76.752 112.84 76.7019C112.835 76.6519 112.819 76.6035 112.794 76.56C112.768 76.5164 112.734 76.4786 112.694 76.449C112.653 76.4194 112.606 76.3987 112.557 76.3882C112.508 76.3776 112.457 76.3775 112.408 76.3878C109.257 76.3878 106.337 76.9167 102.933 76.7788C102.527 76.7634 102.42 77.3997 102.841 77.4227ZM110.277 63.7934C110.737 63.7091 110.698 63.0269 110.216 63.0269C106.812 63.3718 106.099 63.4561 102.611 63.5941C102.274 63.5941 102.236 64.1767 102.611 64.1997C105.174 64.3698 107.747 64.2334 110.277 63.7934ZM114.999 58.9718C110.829 59.1251 106.498 59.8304 102.144 59.9837C102.066 59.9956 101.995 60.0351 101.944 60.0948C101.892 60.1546 101.864 60.2307 101.864 60.3094C101.864 60.3882 101.892 60.4643 101.944 60.5241C101.995 60.5838 102.066 60.6233 102.144 60.6352C105.754 60.6352 111.565 60.4666 115.083 59.6847C115.157 59.6522 115.218 59.597 115.257 59.5273C115.297 59.4575 115.314 59.3769 115.304 59.2971C115.295 59.2174 115.26 59.1428 115.205 59.0843C115.15 59.0257 115.078 58.9863 114.999 58.9718ZM129.203 78.7871C129.142 78.7871 124.933 79.1321 124.213 79.1091C124.144 79.1213 124.082 79.1553 124.035 79.2059C123.987 79.2565 123.957 79.3211 123.95 79.39C123.942 79.4589 123.957 79.5285 123.992 79.5884C124.027 79.6482 124.08 79.6952 124.144 79.7223C125.002 79.8833 128.62 79.9446 129.364 79.316C129.401 79.2748 129.428 79.2245 129.44 79.1702C129.452 79.1158 129.45 79.0592 129.434 79.0059C129.417 78.9526 129.388 78.9044 129.347 78.8661C129.307 78.8277 129.257 78.8005 129.203 78.7871ZM130.56 62.0687C125.248 62.4136 119.315 62.6129 114.025 63.0652C113.611 63.0652 113.688 63.6861 114.087 63.7091C116.946 63.7934 127.118 63.2722 130.629 62.8276C130.679 62.8237 130.728 62.8099 130.772 62.7869C130.817 62.7639 130.857 62.7321 130.889 62.6935C130.921 62.6549 130.945 62.6103 130.96 62.5622C130.974 62.5141 130.979 62.4636 130.974 62.4136C130.964 62.3132 130.915 62.2207 130.838 62.1561C130.76 62.0916 130.66 62.0601 130.56 62.0687ZM110.606 44.6373C110.708 44.6373 110.806 44.597 110.878 44.5251C110.949 44.4532 110.99 44.3557 110.99 44.2541C110.99 44.1524 110.949 44.0549 110.878 43.983C110.806 43.9112 110.708 43.8708 110.606 43.8708C107.303 43.9551 103.968 43.9781 100.641 44.2311C100.57 44.247 100.506 44.2868 100.46 44.3439C100.414 44.401 100.389 44.4721 100.389 44.5453C100.389 44.6186 100.414 44.6897 100.46 44.7468C100.506 44.8039 100.57 44.8437 100.641 44.8596C103.984 44.921 107.303 44.7446 110.606 44.6373ZM123.676 75.583C122.511 75.583 118.31 75.8819 117.314 76.0582C116.992 76.1119 116.946 76.6408 117.314 76.6561C118.395 76.7098 122.572 76.4415 123.783 76.3342C124.251 76.3495 124.151 75.583 123.676 75.583ZM121.438 79.8833L111.802 80.4965C111.365 80.4965 111.473 81.1634 111.902 81.1404C113.772 81.0561 119.79 80.8185 121.476 80.5885C121.852 80.5425 121.859 79.8833 121.438 79.8833ZM114.539 13.2548C111.71 12.9328 102.834 13.4694 99.8211 13.776C99.4072 13.8144 99.3765 14.4583 99.8211 14.4199C104.773 14.098 109.595 13.9907 114.547 14.006C114.633 13.9875 114.71 13.9397 114.766 13.8707C114.821 13.8017 114.851 13.7157 114.85 13.6273C114.849 13.5388 114.817 13.4534 114.761 13.3856C114.704 13.3177 114.626 13.2715 114.539 13.2548ZM115.359 33.944C115.842 33.875 115.666 33.1774 115.183 33.1774C110.249 33.7395 105.285 33.9955 100.319 33.944C100.247 33.9555 100.182 33.9923 100.134 34.0478C100.087 34.1033 100.061 34.1738 100.061 34.2467C100.061 34.3197 100.087 34.3902 100.134 34.4457C100.182 34.5012 100.247 34.538 100.319 34.5495C105.341 34.7914 110.374 34.5887 115.359 33.944ZM110.154 17.8924C110.205 17.8876 110.254 17.8729 110.298 17.8491C110.343 17.8252 110.383 17.7928 110.415 17.7536C110.447 17.7143 110.471 17.6692 110.485 17.6206C110.5 17.5721 110.504 17.5212 110.499 17.4708C110.494 17.4204 110.48 17.3714 110.456 17.3267C110.432 17.282 110.4 17.2425 110.36 17.2104C110.321 17.1783 110.276 17.1543 110.227 17.1398C110.179 17.1253 110.128 17.1206 110.078 17.1259C106.697 17.5475 103.493 17.5628 100.158 17.8541C99.8058 17.8924 99.7675 18.4673 100.158 18.4827C103.5 18.5367 106.842 18.3394 110.154 17.8924ZM100.657 30.0269C100.273 30.0269 100.266 30.6325 100.703 30.6478C102.078 30.7774 103.461 30.8132 104.842 30.7551C104.904 30.7273 104.957 30.6822 104.994 30.625C105.031 30.5679 105.051 30.5013 105.051 30.4332C105.051 30.3651 105.031 30.2984 104.994 30.2413C104.957 30.1842 104.904 30.139 104.842 30.1112C104.704 30.0346 101.362 30.0269 100.657 30.0269ZM91.0901 34.4422C91.5347 34.4422 93.1828 31.7133 94.1103 30.7781C94.4476 30.4408 93.8957 29.8736 93.5508 30.1955C92.5729 31.0772 91.7262 32.0942 91.0365 33.2157L89.0971 31.4297C88.6985 31.0617 88.1849 31.6903 88.5529 32.0659C88.9208 32.4415 90.5229 34.4422 91.0901 34.4422ZM85.8469 21.9245C88.9898 22.1084 92.2553 22.0471 95.7048 22.0701C95.9501 22.0701 96.0957 21.3879 95.7048 13.2471C95.7048 12.6569 95.6511 12.2199 95.6434 12.059C95.6454 12.0352 95.6423 12.0113 95.6344 11.9889C95.6265 11.9664 95.6139 11.9459 95.5974 11.9287C95.3751 11.691 93.9264 11.7064 90.6685 11.7907C85.1877 11.921 84.5821 11.8827 84.5821 12.1969C84.5591 12.2583 84.9041 21.8325 85.8469 21.9245ZM86.0616 21.3572C85.6783 19.3105 85.4023 14.9872 85.1647 12.5649C87.3954 12.6952 92.4776 12.4422 95.0379 12.3809C95.0379 12.3809 95.1758 19.1955 95.2372 21.3955C92.2323 21.3266 89.0971 21.2116 86.0309 21.3189L86.0616 21.3572Z" fill="#3D7BFF"/>
<path d="M96.762 36.4435C97.4059 36.1906 96.6546 29.0463 96.5473 27.1683C96.5421 27.1296 96.523 27.0942 96.4937 27.0686C96.0337 26.67 86.3062 27.1989 85.8156 27.2373C85.325 27.2756 85.8156 29.9432 85.9 31.7599C86.0763 36.2825 86.2832 36.6735 86.5132 36.7041C88.1843 36.9418 95.2289 37.0414 96.762 36.4435ZM86.2832 27.8658C89.6024 27.6512 92.9675 27.6359 95.9571 27.6205C96.0337 29.4143 96.1564 34.4658 96.3097 35.8303C93.1855 36.1534 90.0416 36.2431 86.9041 36.0986C87.0344 34.9564 86.3982 29.1613 86.2832 27.8658ZM92.5229 47.2212L94.3013 45.6115C94.3532 45.5238 94.376 45.4221 94.3665 45.3207C94.3571 45.2193 94.3158 45.1235 94.2486 45.047C94.1815 44.9705 94.0918 44.9171 93.9925 44.8946C93.8932 44.8721 93.7894 44.8815 93.6958 44.9216C92.9676 45.3701 92.3068 45.9198 91.7334 46.5543L90.139 45.0825C90.0526 45.0022 89.9378 44.9595 89.8199 44.9639C89.702 44.9682 89.5907 45.0191 89.5104 45.1055C89.4301 45.1919 89.3874 45.3067 89.3917 45.4246C89.396 45.5425 89.447 45.6538 89.5334 45.7341L91.0665 47.2672C89.6867 48.7236 89.0811 49.6358 89.2191 50.0498C89.3571 50.4637 89.8554 50.2797 89.9857 50.0958C90.5222 49.4365 91.1278 48.6853 91.7794 47.9878C92.4253 48.693 93.142 49.33 93.9181 49.8888C93.9981 49.9096 94.0823 49.9084 94.1618 49.8853C94.2412 49.8622 94.313 49.8182 94.3695 49.7577C94.426 49.6973 94.4651 49.6228 94.4828 49.542C94.5005 49.4611 94.4961 49.3771 94.47 49.2986C93.8929 48.542 93.2406 47.846 92.5229 47.2212ZM92.9292 14.3592C91.7047 15.4301 90.7043 16.7327 89.9857 18.192C89.4083 17.5007 88.7435 16.8875 88.008 16.3676C87.5557 16.0533 86.9731 16.6512 87.4177 16.9885C88.2921 17.7613 89.1094 18.5965 89.863 19.4874C90.0623 19.6944 90.254 19.5871 90.4226 19.3648C91.2574 17.7384 92.287 16.2197 93.4888 14.8421C93.8567 14.4359 93.3278 13.9836 92.9292 14.3592ZM92.6839 64.4073C93.0825 64.1313 94.6003 61.2031 95.4818 60.2066C95.8268 59.8233 95.2289 59.2944 94.8379 59.7006C93.7886 60.7818 92.8888 61.9986 92.1627 63.3188L90.3766 61.7857C89.9857 61.456 89.4644 62.0463 89.8707 62.4372C90.277 62.8282 92.0247 64.9745 92.6839 64.4073ZM98.5327 74.2344C98.2414 73.6595 87.755 74.2344 87.6554 74.2344C87.6325 74.2372 87.6107 74.2457 87.5919 74.2591C87.5732 74.2725 87.5581 74.2904 87.548 74.3111C87.1954 74.8783 87.548 84.0999 87.801 84.9585C88.0999 86.001 98.2644 85.1348 98.7703 85.1808C98.7856 85.1841 98.8014 85.1841 98.8166 85.1807C98.8319 85.1774 98.8462 85.1707 98.8586 85.1612C98.871 85.1517 98.8812 85.1396 98.8885 85.1258C98.8957 85.112 98.8999 85.0967 98.9006 85.0811C99.0616 83.9083 98.571 74.3111 98.5327 74.2344ZM88.1459 74.794C91.2121 74.9243 94.8379 74.7327 97.9501 74.725C97.9961 76.0052 98.2721 83.5173 98.3104 84.5292C94.9069 84.6825 92.0477 84.6288 88.4219 84.5292C88.4602 83.2491 88.1919 75.9592 88.1459 74.817V74.794Z" fill="#3D7BFF"/>
<path d="M91.8487 79.7593C92.393 79.7593 95.1756 79.951 95.3979 79.8283C95.4565 79.795 95.5066 79.7486 95.5442 79.6927C95.5819 79.6369 95.6062 79.573 95.6151 79.5062C95.624 79.4394 95.6173 79.3714 95.5956 79.3076C95.5739 79.2438 95.5377 79.1859 95.4899 79.1384C95.0836 78.7092 92.5156 78.8012 92.0864 78.8855C91.5038 78.9928 91.3965 79.2151 91.4118 79.3837C91.4322 79.4861 91.4864 79.5788 91.5656 79.6468C91.6447 79.7149 91.7444 79.7545 91.8487 79.7593ZM92.8836 57.2611C90.3693 57.3071 87.7247 57.3991 87.2878 57.4297C87.1191 57.4297 86.9428 57.5754 86.9198 59.1698C86.9198 61.0785 87.2494 67.1266 88.016 67.1803C89.5491 67.2952 97.4752 67.3259 98.4947 67.2492C98.6557 67.2492 98.786 67.2493 98.4947 63.2632C98.3338 61.2088 97.9735 57.4757 97.9735 57.4757C97.9428 57.3224 97.9275 57.1844 92.8836 57.2611ZM97.3986 57.9357C97.5825 60.7949 97.6822 63.7231 97.9888 66.5977H88.2383C87.9393 63.8304 87.74 60.9789 87.5254 58.0506L97.3986 57.9357ZM89.0968 52.9454C92.209 52.9454 97.4139 52.5238 97.4599 52.5008C97.9505 52.2479 97.4599 45.3259 97.2989 42.367C97.2989 41.8381 94.593 41.8305 92.347 41.9148C91.3658 41.9148 86.4906 42.1754 86.5059 42.873C86.7665 53.1371 86.7052 52.6388 86.8968 52.7461C87.6142 52.9333 88.3575 53.0006 89.0968 52.9454ZM87.4794 52.1789C87.3031 49.1587 87.2418 45.9545 87.1191 42.9803C90.3022 42.6976 93.4985 42.5901 96.6933 42.6583C96.6933 43.7085 96.9003 50.6918 97.0306 51.8569C95.8961 51.9336 88.6676 51.9872 87.5024 52.1865L87.4794 52.1789Z" fill="#3D7BFF"/>
<path d="M145.055 64.2918C143.046 9.65981 143.889 10.1197 143.522 9.79779C143 9.3072 138.976 9.62915 137.987 9.68281L137.573 1.30442C137.593 1.25389 137.6 1.19934 137.594 1.14541C137.588 1.09147 137.57 1.03974 137.54 0.994598C137.509 0.949459 137.469 0.912245 137.421 0.886113C137.374 0.859982 137.321 0.845704 137.266 0.844491C121.169 0.645188 104.604 1.71069 87.9927 2.83752C83.516 3.15181 78.863 3.42776 74.3097 3.91069C74.2672 3.90385 74.2236 3.90654 74.1822 3.91858C74.1408 3.93062 74.1026 3.9517 74.0703 3.98031C74.038 4.00891 74.0125 4.04432 73.9956 4.08398C73.9787 4.12364 73.9708 4.16656 73.9725 4.20964C74.8157 24.6765 77.2686 57.7608 81.5076 94.3942C81.5536 94.8158 85.0491 94.4479 88.192 94.2409C88.2331 95.1427 88.3955 96.0348 88.6749 96.8932C89.1348 97.4758 145.997 93.9496 145.928 91.5274C145.683 82.4284 145.354 73.2145 145.055 64.2918ZM140.747 88.1929C120.586 91.2591 102.457 92.1176 82.2129 93.8653C78.2038 59.1329 76.5557 35.3086 74.5474 4.44728C80.7718 4.07933 103.791 1.96365 137.044 1.52672C137.872 23.8103 140.954 85.7399 140.724 88.1929H140.747ZM44.5216 35.4925C44.0004 35.4925 44.008 36.5044 44.2533 36.8877C44.2816 36.9438 44.3258 36.9904 44.3802 37.0217C44.4347 37.053 44.4972 37.0677 44.5599 37.064C45.0275 37.0103 45.0045 35.5462 44.5216 35.4925ZM41.785 39.9232C42.1146 40.0075 43.0038 40.0612 43.2108 39.7546C43.5021 39.3253 42.7125 35.4312 42.6129 35.1553C42.5924 35.099 42.5525 35.0518 42.5005 35.0221C42.4484 34.9924 42.3875 34.9822 42.3286 34.9932C42.2697 35.0043 42.2166 35.0359 42.1788 35.0824C42.1411 35.1289 42.121 35.1873 42.1223 35.2473C42.1223 35.9448 42.4366 38.3135 42.5592 39.3023L41.7927 39.3483C41.7366 39.3722 41.6888 39.4118 41.6548 39.4624C41.6209 39.513 41.6024 39.5723 41.6016 39.6333C41.6008 39.6942 41.6177 39.754 41.6502 39.8055C41.6828 39.8569 41.7296 39.8979 41.785 39.9232ZM43.87 34.0591C44.0969 33.997 44.3356 33.991 44.5653 34.0418C44.795 34.0925 45.0089 34.1984 45.1885 34.3504C45.4875 34.6187 46.0624 34.1051 45.2422 33.5838C44.6519 33.1852 43.2721 33.0473 43.4178 33.7525C43.4415 33.8507 43.501 33.9365 43.5847 33.9932C43.6683 34.0499 43.77 34.0734 43.87 34.0591Z" fill="#3D7BFF"/>
<path d="M66.3457 61.9207C61.4168 57.0607 52.5478 51.3499 44.5757 50.2155C44.7077 49.7598 44.7077 49.276 44.5757 48.8203C45.1826 48.3131 45.7466 47.7568 46.2621 47.1569C47.3583 45.8691 47.3353 44.612 45.7715 45.2482C47.3046 41.8601 47.3046 34.5165 46.7527 30.3925C49.3206 31.9946 53.6517 30.4538 53.1227 27.3263C56.6105 28.3764 58.8795 21.4468 54.4489 20.1974C55.0698 14.9542 48.3548 14.1953 46.3004 17.2538C45.1429 13.8733 39.8231 15.6517 40.2064 18.304C37.8071 15.7284 32.6252 16.6252 31.9046 19.8371C29.7353 17.867 26.1555 18.7026 26.4698 21.6078C23.0356 20.0134 21.2189 24.1221 23.8865 25.4406C22.1771 26.3604 22.2308 30.1472 24.8524 30.1472C24.8524 32.6768 26.3855 38.4719 30.1799 41.6454C30.5862 45.1946 29.8579 47.0113 28.5931 50.2998C16.083 52.2008 6.58548 61.959 2.32347 74.0628C-2.53646 87.8607 -0.229147 100.892 14.1743 103.636C14.1444 105.478 13.9286 107.311 13.5304 109.109C13.5232 109.177 13.5408 109.245 13.5798 109.301C13.6188 109.357 13.6766 109.397 13.7428 109.414C13.8089 109.431 13.8789 109.423 13.9398 109.393C14.0008 109.362 14.0487 109.311 14.0747 109.247C14.5878 107.462 14.8661 105.617 14.9025 103.759C18.3726 104.275 21.9174 103.734 25.0757 102.207C28.234 100.679 30.8593 98.2367 32.6099 95.1966C34.8288 96.0396 37.0938 96.7562 39.3938 97.3429C46.6301 99.3896 56.0663 101.421 65.0043 98.9987C64.8279 103.284 64.5827 106.718 64.1994 110.129C64.1994 110.466 64.667 110.566 64.7206 110.229C65.0196 108.435 65.7631 100.562 65.7171 98.7917C71.405 97.044 75.207 93.0963 76.1422 87.968C77.775 79.2754 74.0955 69.5172 66.3457 61.9207ZM33.7903 28.9054C33.9896 31.1437 33.7903 32.7381 33.1081 33.773C32.8552 34.1486 32.4719 34.5395 32.1423 34.5395C31.8893 34.2635 30.2336 32.5465 28.6698 33.5507C27.6503 34.2176 27.6043 35.513 28.5701 37.1994C29.2605 38.2237 29.7543 39.3674 30.0266 40.5723C27.0907 37.3834 26.1938 34.3939 25.5193 30.1088C26.2985 29.9683 27.0097 29.575 27.543 28.9897C28.8844 30.9827 32.1653 30.5841 33.7903 28.9054ZM29.0377 34.0566C30.0726 33.4203 31.0308 34.1869 31.9046 34.9534C32.4182 35.4057 33.2614 34.7695 33.66 34.1869C34.7025 32.7458 34.6106 30.3541 34.4726 29.1583C35.2166 29.8669 36.2047 30.2622 37.2322 30.2622C38.2596 30.2622 39.2477 29.8669 39.9917 29.1583C40.145 31.366 44.775 31.8719 45.9938 30.0399C46.5534 33.8726 46.8217 42.159 44.9666 45.6315C43.4335 46.306 39.9457 47.8468 38.2133 47.1646C36.7262 46.5743 35.975 44.3054 34.2426 43.3318C33.0774 42.6879 32.0809 43.4162 32.8935 44.7193C34.9478 47.9848 34.7639 49.2266 33.1388 52.5841C31.7145 52.1959 30.3825 51.5261 29.2217 50.6141C30.9081 48.1994 31.368 43.8914 30.9464 41.0245C30.5708 38.4719 30.1799 38.6252 29.168 36.7395C28.7005 35.9653 28.2865 34.5318 29.0377 34.0566ZM41.9694 49.5179C41.9083 49.5463 41.8596 49.596 41.8327 49.6578C41.8057 49.7195 41.8022 49.7891 41.823 49.8532C41.8437 49.9173 41.8872 49.9716 41.9453 50.0059C42.0033 50.0401 42.0719 50.052 42.1381 50.0391C42.7954 49.9217 43.4185 49.6599 43.9625 49.2726C44.0066 49.9874 43.8184 50.6973 43.4259 51.2963C43.2879 51.4879 43.5332 52.0628 44.0315 51.3499C43.9931 53.4656 42.9123 56.0796 40.8349 57.1067C39.427 56.8522 38.0871 56.3087 36.8997 55.5105C35.7123 54.7123 34.7032 53.6768 33.936 52.4691C36.2356 48.529 34.2119 45.5702 33.5374 44.3437C33.1618 43.6385 33.3534 43.5311 33.9667 43.9297C35.4154 44.8496 36.6879 47.4175 38.0907 47.7625C40.7353 48.3987 43.9931 46.8043 45.5875 46.0914C46.4154 45.7158 46.8983 45.4628 45.9018 46.7123C44.568 48.3604 43.8092 48.7053 41.9694 49.5179ZM9.52904 82.2342C9.5013 82.2966 9.49697 82.3668 9.51682 82.4321C9.53668 82.4974 9.5794 82.5533 9.63715 82.5896C9.6949 82.6259 9.76381 82.6402 9.83124 82.6299C9.89868 82.6195 9.96012 82.5852 10.0043 82.5332C16.7269 71.9395 27.8496 64.5883 33.5757 53.251C34.4649 55.2287 38.267 57.7736 40.6126 57.7736C40.6126 59.6823 40.421 61.9513 40.2217 64.1283C37.9221 63.5994 31.7053 61.6524 30.5862 59.1074C30.4559 58.7931 29.9499 59.0078 30.0726 59.3221C31.1227 62.166 37.6078 64.4503 40.1527 64.9332C39.6152 70.6609 38.5502 76.3267 36.9715 81.8586C35.814 85.998 34.3269 91.0036 32.1806 94.706C30.4694 97.75 27.8512 100.184 24.6909 101.67C21.5306 103.155 17.9855 103.617 14.5499 102.992C0.399425 100.509 -1.73158 87.7457 3.07468 74.2621C7.56667 61.6294 17.4015 52.7374 28.7464 51.051C29.9797 51.9603 31.3277 52.7026 32.7555 53.2587C27.0064 64.3506 16.0447 71.6329 9.52904 82.2342ZM37.6308 82.1806C45.0795 79.0415 52.9936 77.1484 61.0565 76.5771C63.3562 76.4238 65.6558 76.4315 67.9555 76.4315C68.2928 76.4315 68.3004 75.8795 67.9555 75.8795C66.3916 75.7711 64.8233 75.7429 63.2565 75.7952C62.8809 72.729 57.3541 63.7834 55.476 61.3074C55.428 61.262 55.3652 61.2353 55.2991 61.2323C55.233 61.2293 55.168 61.2501 55.116 61.291C55.0639 61.3319 55.0283 61.3901 55.0156 61.455C55.0029 61.5199 55.014 61.5872 55.0468 61.6447C58.8105 66.9186 61.8537 73.6336 62.4593 75.8259C55.7213 76.0788 45.3269 77.6733 37.8454 81.3374C38.5506 78.7541 41.2795 68.0991 41.3409 57.5743C43.4489 56.6315 44.9513 53.2203 44.775 50.9283C52.7229 52.7384 60.0125 56.7189 65.8321 62.4266C72.6621 69.1186 76.8475 77.7576 75.5597 87.1478C74.8774 92.5137 71.0677 96.6684 65.3799 98.1785C55.5757 100.861 45.4879 98.5311 35.8064 95.5262C34.8691 95.2108 33.9145 94.9497 32.9471 94.7443C34.9063 90.7157 36.4747 86.5086 37.6308 82.1806Z" fill="#3D7BFF"/>
<path d="M37.2552 32.8306C37.4533 32.5379 37.7175 32.2959 38.0264 32.1241C38.3354 31.9523 38.6804 31.8556 39.0336 31.8418C39.5932 31.8418 39.5625 30.9986 39.0336 31.0752C38.5783 31.1231 38.14 31.2744 37.752 31.5175C37.3641 31.7606 37.0369 32.0891 36.7953 32.478C36.596 32.7923 37.0406 33.1373 37.2552 32.8306ZM39.0643 34.954C38.75 35.2069 38.773 36.4871 39.2482 36.4871C39.3569 36.4757 39.4586 36.4279 39.5366 36.3513C39.6145 36.2747 39.6642 36.174 39.6775 36.0655C39.8538 35.3986 39.4015 34.7163 39.0643 34.954ZM38.3897 41.2857C38.3754 41.2257 38.3429 41.1717 38.2967 41.1309C38.2504 41.0902 38.1928 41.0647 38.1315 41.058C38.0702 41.0513 38.0084 41.0637 37.9545 41.0934C37.9005 41.1232 37.8571 41.1689 37.8301 41.2244C37.7535 41.3317 37.6078 41.6613 37.9298 42.3282C38.1483 42.7822 38.5255 43.1405 38.9901 43.3354C39.4548 43.5302 39.9747 43.5483 40.4517 43.386C40.5163 43.3604 40.5693 43.3119 40.6005 43.2498C40.6317 43.1877 40.639 43.1163 40.621 43.0491C40.6031 42.982 40.5611 42.9237 40.503 42.8855C40.4449 42.8473 40.3749 42.8317 40.3061 42.8418C39.2176 43.0564 38.589 42.3665 38.3897 41.2857Z" fill="#3D7BFF"/>
</svg>
